G04 #@! TF.GenerationSoftware,KiCad,Pcbnew,(5.1.0)-1*
G04 #@! TF.CreationDate,2019-03-23T17:18:16-07:00*
G04 #@! TF.ProjectId,scart2dvi,73636172-7432-4647-9669-2e6b69636164,0.1*
G04 #@! TF.SameCoordinates,Original*
G04 #@! TF.FileFunction,Soldermask,Top*
G04 #@! TF.FilePolarity,Negative*
%FSLAX46Y46*%
G04 Gerber Fmt 4.6, Leading zero omitted, Abs format (unit mm)*
G04 Created by KiCad (PCBNEW (5.1.0)-1) date 2019-03-23 17:18:16*
%MOMM*%
%LPD*%
G04 APERTURE LIST*
%ADD10C,0.100000*%
G04 APERTURE END LIST*
D10*
G36*
X103227290Y-136025619D02*
G01*
X103291689Y-136038429D01*
X103473678Y-136113811D01*
X103637463Y-136223249D01*
X103776751Y-136362537D01*
X103886189Y-136526322D01*
X103961571Y-136708311D01*
X104000000Y-136901509D01*
X104000000Y-137098491D01*
X103961571Y-137291689D01*
X103886189Y-137473678D01*
X103776751Y-137637463D01*
X103637463Y-137776751D01*
X103473678Y-137886189D01*
X103291689Y-137961571D01*
X103227290Y-137974381D01*
X103098493Y-138000000D01*
X102901507Y-138000000D01*
X102772710Y-137974381D01*
X102708311Y-137961571D01*
X102526322Y-137886189D01*
X102362537Y-137776751D01*
X102223249Y-137637463D01*
X102113811Y-137473678D01*
X102038429Y-137291689D01*
X102000000Y-137098491D01*
X102000000Y-136901509D01*
X102038429Y-136708311D01*
X102113811Y-136526322D01*
X102223249Y-136362537D01*
X102362537Y-136223249D01*
X102526322Y-136113811D01*
X102708311Y-136038429D01*
X102772710Y-136025619D01*
X102901507Y-136000000D01*
X103098493Y-136000000D01*
X103227290Y-136025619D01*
X103227290Y-136025619D01*
G37*
G36*
X109701189Y-130958892D02*
G01*
X109902066Y-130978677D01*
X110288681Y-131095955D01*
X110288684Y-131095956D01*
X110644983Y-131286402D01*
X110644986Y-131286404D01*
X110644987Y-131286405D01*
X110957293Y-131542707D01*
X111213595Y-131855013D01*
X111213598Y-131855017D01*
X111404044Y-132211316D01*
X111404045Y-132211319D01*
X111521323Y-132597934D01*
X111560923Y-133000000D01*
X111521323Y-133402066D01*
X111404045Y-133788681D01*
X111404044Y-133788684D01*
X111213598Y-134144983D01*
X111213596Y-134144986D01*
X111213595Y-134144987D01*
X110957293Y-134457293D01*
X110644987Y-134713595D01*
X110644983Y-134713598D01*
X110288684Y-134904044D01*
X110288681Y-134904045D01*
X109902066Y-135021323D01*
X109701189Y-135041108D01*
X109600751Y-135051000D01*
X107399249Y-135051000D01*
X107298811Y-135041108D01*
X107097934Y-135021323D01*
X106711319Y-134904045D01*
X106711316Y-134904044D01*
X106355017Y-134713598D01*
X106355013Y-134713595D01*
X106042707Y-134457293D01*
X105786405Y-134144987D01*
X105786404Y-134144986D01*
X105786402Y-134144983D01*
X105595956Y-133788684D01*
X105595955Y-133788681D01*
X105478677Y-133402066D01*
X105439077Y-133000000D01*
X105478677Y-132597934D01*
X105595955Y-132211319D01*
X105595956Y-132211316D01*
X105786402Y-131855017D01*
X105786405Y-131855013D01*
X106042707Y-131542707D01*
X106355013Y-131286405D01*
X106355014Y-131286404D01*
X106355017Y-131286402D01*
X106711316Y-131095956D01*
X106711319Y-131095955D01*
X107097934Y-130978677D01*
X107298811Y-130958892D01*
X107399249Y-130949000D01*
X109600751Y-130949000D01*
X109701189Y-130958892D01*
X109701189Y-130958892D01*
G37*
G36*
X203079487Y-128113996D02*
G01*
X203316253Y-128212068D01*
X203316255Y-128212069D01*
X203529339Y-128354447D01*
X203710553Y-128535661D01*
X203852932Y-128748747D01*
X203951004Y-128985513D01*
X204001000Y-129236861D01*
X204001000Y-129493139D01*
X203951004Y-129744487D01*
X203852932Y-129981253D01*
X203852931Y-129981255D01*
X203710553Y-130194339D01*
X203529339Y-130375553D01*
X203316255Y-130517931D01*
X203316254Y-130517932D01*
X203316253Y-130517932D01*
X203079487Y-130616004D01*
X202828139Y-130666000D01*
X202571861Y-130666000D01*
X202320513Y-130616004D01*
X202083747Y-130517932D01*
X202083746Y-130517932D01*
X202083745Y-130517931D01*
X201870661Y-130375553D01*
X201689447Y-130194339D01*
X201547069Y-129981255D01*
X201547068Y-129981253D01*
X201448996Y-129744487D01*
X201399000Y-129493139D01*
X201399000Y-129236861D01*
X201448996Y-128985513D01*
X201547068Y-128748747D01*
X201689447Y-128535661D01*
X201870661Y-128354447D01*
X202083745Y-128212069D01*
X202083747Y-128212068D01*
X202320513Y-128113996D01*
X202571861Y-128064000D01*
X202828139Y-128064000D01*
X203079487Y-128113996D01*
X203079487Y-128113996D01*
G37*
G36*
X116353097Y-124504069D02*
G01*
X116456032Y-124514207D01*
X116654146Y-124574305D01*
X116654149Y-124574306D01*
X116740934Y-124620694D01*
X116836729Y-124671897D01*
X116996765Y-124803235D01*
X117128103Y-124963271D01*
X117173939Y-125049025D01*
X117225694Y-125145851D01*
X117225695Y-125145854D01*
X117285793Y-125343968D01*
X117306085Y-125550000D01*
X117285793Y-125756032D01*
X117225695Y-125954146D01*
X117225694Y-125954149D01*
X117173939Y-126050975D01*
X117128103Y-126136729D01*
X116996765Y-126296765D01*
X116836729Y-126428103D01*
X116750975Y-126473939D01*
X116654149Y-126525694D01*
X116654146Y-126525695D01*
X116456032Y-126585793D01*
X116353097Y-126595931D01*
X116301631Y-126601000D01*
X114698369Y-126601000D01*
X114646903Y-126595931D01*
X114543968Y-126585793D01*
X114345854Y-126525695D01*
X114345851Y-126525694D01*
X114249025Y-126473939D01*
X114163271Y-126428103D01*
X114003235Y-126296765D01*
X113871897Y-126136729D01*
X113826061Y-126050975D01*
X113774306Y-125954149D01*
X113774305Y-125954146D01*
X113714207Y-125756032D01*
X113693915Y-125550000D01*
X113714207Y-125343968D01*
X113774305Y-125145854D01*
X113774306Y-125145851D01*
X113826061Y-125049025D01*
X113871897Y-124963271D01*
X114003235Y-124803235D01*
X114163271Y-124671897D01*
X114259066Y-124620694D01*
X114345851Y-124574306D01*
X114345854Y-124574305D01*
X114543968Y-124514207D01*
X114646903Y-124504069D01*
X114698369Y-124499000D01*
X116301631Y-124499000D01*
X116353097Y-124504069D01*
X116353097Y-124504069D01*
G37*
G36*
X206379487Y-122273996D02*
G01*
X206590870Y-122361554D01*
X206616255Y-122372069D01*
X206829339Y-122514447D01*
X207010553Y-122695661D01*
X207127157Y-122870171D01*
X207152932Y-122908747D01*
X207251004Y-123145513D01*
X207301000Y-123396861D01*
X207301000Y-123653139D01*
X207251004Y-123904487D01*
X207155663Y-124134660D01*
X207152931Y-124141255D01*
X207010553Y-124354339D01*
X206829339Y-124535553D01*
X206616255Y-124677931D01*
X206616254Y-124677932D01*
X206616253Y-124677932D01*
X206379487Y-124776004D01*
X206128139Y-124826000D01*
X205871861Y-124826000D01*
X205620513Y-124776004D01*
X205383747Y-124677932D01*
X205383746Y-124677932D01*
X205383745Y-124677931D01*
X205170661Y-124535553D01*
X204989447Y-124354339D01*
X204847069Y-124141255D01*
X204844337Y-124134660D01*
X204748996Y-123904487D01*
X204699000Y-123653139D01*
X204699000Y-123396861D01*
X204748996Y-123145513D01*
X204847068Y-122908747D01*
X204872844Y-122870171D01*
X204989447Y-122695661D01*
X205170661Y-122514447D01*
X205383745Y-122372069D01*
X205409130Y-122361554D01*
X205620513Y-122273996D01*
X205871861Y-122224000D01*
X206128139Y-122224000D01*
X206379487Y-122273996D01*
X206379487Y-122273996D01*
G37*
G36*
X111303097Y-122599069D02*
G01*
X111406032Y-122609207D01*
X111604146Y-122669305D01*
X111604149Y-122669306D01*
X111653455Y-122695661D01*
X111786729Y-122766897D01*
X111946765Y-122898235D01*
X112078103Y-123058271D01*
X112095537Y-123090888D01*
X112175694Y-123240851D01*
X112175695Y-123240854D01*
X112235793Y-123438968D01*
X112256085Y-123645000D01*
X112235793Y-123851032D01*
X112219577Y-123904487D01*
X112175694Y-124049149D01*
X112173118Y-124053968D01*
X112078103Y-124231729D01*
X111946765Y-124391765D01*
X111786729Y-124523103D01*
X111700975Y-124568939D01*
X111604149Y-124620694D01*
X111604146Y-124620695D01*
X111406032Y-124680793D01*
X111303097Y-124690931D01*
X111251631Y-124696000D01*
X109648369Y-124696000D01*
X109596903Y-124690931D01*
X109493968Y-124680793D01*
X109295854Y-124620695D01*
X109295851Y-124620694D01*
X109199025Y-124568939D01*
X109113271Y-124523103D01*
X108953235Y-124391765D01*
X108821897Y-124231729D01*
X108726882Y-124053968D01*
X108724306Y-124049149D01*
X108680423Y-123904487D01*
X108664207Y-123851032D01*
X108643915Y-123645000D01*
X108664207Y-123438968D01*
X108724305Y-123240854D01*
X108724306Y-123240851D01*
X108804463Y-123090888D01*
X108821897Y-123058271D01*
X108953235Y-122898235D01*
X109113271Y-122766897D01*
X109246545Y-122695661D01*
X109295851Y-122669306D01*
X109295854Y-122669305D01*
X109493968Y-122609207D01*
X109596903Y-122599069D01*
X109648369Y-122594000D01*
X111251631Y-122594000D01*
X111303097Y-122599069D01*
X111303097Y-122599069D01*
G37*
G36*
X183921934Y-121702671D02*
G01*
X183951877Y-121711754D01*
X183979465Y-121726500D01*
X184003651Y-121746349D01*
X184023500Y-121770535D01*
X184038246Y-121798123D01*
X184047329Y-121828066D01*
X184051000Y-121865340D01*
X184051000Y-124134660D01*
X184047329Y-124171934D01*
X184038246Y-124201877D01*
X184023500Y-124229465D01*
X184003651Y-124253651D01*
X183979465Y-124273500D01*
X183951877Y-124288246D01*
X183921934Y-124297329D01*
X183884660Y-124301000D01*
X179715340Y-124301000D01*
X179678066Y-124297329D01*
X179648123Y-124288246D01*
X179620535Y-124273500D01*
X179596349Y-124253651D01*
X179576500Y-124229465D01*
X179561754Y-124201877D01*
X179552671Y-124171934D01*
X179549000Y-124134660D01*
X179549000Y-121865340D01*
X179552671Y-121828066D01*
X179561754Y-121798123D01*
X179576500Y-121770535D01*
X179596349Y-121746349D01*
X179620535Y-121726500D01*
X179648123Y-121711754D01*
X179678066Y-121702671D01*
X179715340Y-121699000D01*
X183884660Y-121699000D01*
X183921934Y-121702671D01*
X183921934Y-121702671D01*
G37*
G36*
X191321934Y-121702671D02*
G01*
X191351877Y-121711754D01*
X191379465Y-121726500D01*
X191403651Y-121746349D01*
X191423500Y-121770535D01*
X191438246Y-121798123D01*
X191447329Y-121828066D01*
X191451000Y-121865340D01*
X191451000Y-124134660D01*
X191447329Y-124171934D01*
X191438246Y-124201877D01*
X191423500Y-124229465D01*
X191403651Y-124253651D01*
X191379465Y-124273500D01*
X191351877Y-124288246D01*
X191321934Y-124297329D01*
X191284660Y-124301000D01*
X187115340Y-124301000D01*
X187078066Y-124297329D01*
X187048123Y-124288246D01*
X187020535Y-124273500D01*
X186996349Y-124253651D01*
X186976500Y-124229465D01*
X186961754Y-124201877D01*
X186952671Y-124171934D01*
X186949000Y-124134660D01*
X186949000Y-121865340D01*
X186952671Y-121828066D01*
X186961754Y-121798123D01*
X186976500Y-121770535D01*
X186996349Y-121746349D01*
X187020535Y-121726500D01*
X187048123Y-121711754D01*
X187078066Y-121702671D01*
X187115340Y-121699000D01*
X191284660Y-121699000D01*
X191321934Y-121702671D01*
X191321934Y-121702671D01*
G37*
G36*
X199088639Y-122870170D02*
G01*
X199212573Y-122921505D01*
X199212574Y-122921506D01*
X199324112Y-122996033D01*
X199418967Y-123090888D01*
X199418968Y-123090890D01*
X199493495Y-123202427D01*
X199544830Y-123326361D01*
X199571000Y-123457926D01*
X199571000Y-123592074D01*
X199544830Y-123723639D01*
X199493495Y-123847573D01*
X199456484Y-123902964D01*
X199418967Y-123959112D01*
X199324112Y-124053967D01*
X199267964Y-124091484D01*
X199212573Y-124128495D01*
X199088639Y-124179830D01*
X198957074Y-124206000D01*
X198822926Y-124206000D01*
X198691361Y-124179830D01*
X198567427Y-124128495D01*
X198512036Y-124091484D01*
X198455888Y-124053967D01*
X198361033Y-123959112D01*
X198323516Y-123902964D01*
X198286505Y-123847573D01*
X198235170Y-123723639D01*
X198209000Y-123592074D01*
X198209000Y-123457926D01*
X198235170Y-123326361D01*
X198286505Y-123202427D01*
X198361032Y-123090890D01*
X198361033Y-123090888D01*
X198455888Y-122996033D01*
X198567426Y-122921506D01*
X198567427Y-122921505D01*
X198691361Y-122870170D01*
X198822926Y-122844000D01*
X198957074Y-122844000D01*
X199088639Y-122870170D01*
X199088639Y-122870170D01*
G37*
G36*
X202898639Y-122870170D02*
G01*
X203022573Y-122921505D01*
X203022574Y-122921506D01*
X203134112Y-122996033D01*
X203228967Y-123090888D01*
X203228968Y-123090890D01*
X203303495Y-123202427D01*
X203354830Y-123326361D01*
X203381000Y-123457926D01*
X203381000Y-123592074D01*
X203354830Y-123723639D01*
X203303495Y-123847573D01*
X203266484Y-123902964D01*
X203228967Y-123959112D01*
X203134112Y-124053967D01*
X203077964Y-124091484D01*
X203022573Y-124128495D01*
X202898639Y-124179830D01*
X202767074Y-124206000D01*
X202632926Y-124206000D01*
X202501361Y-124179830D01*
X202377427Y-124128495D01*
X202322036Y-124091484D01*
X202265888Y-124053967D01*
X202171033Y-123959112D01*
X202133516Y-123902964D01*
X202096505Y-123847573D01*
X202045170Y-123723639D01*
X202019000Y-123592074D01*
X202019000Y-123457926D01*
X202045170Y-123326361D01*
X202096505Y-123202427D01*
X202171032Y-123090890D01*
X202171033Y-123090888D01*
X202265888Y-122996033D01*
X202377426Y-122921506D01*
X202377427Y-122921505D01*
X202501361Y-122870170D01*
X202632926Y-122844000D01*
X202767074Y-122844000D01*
X202898639Y-122870170D01*
X202898639Y-122870170D01*
G37*
G36*
X200993639Y-122870170D02*
G01*
X201117573Y-122921505D01*
X201117574Y-122921506D01*
X201229112Y-122996033D01*
X201323967Y-123090888D01*
X201323968Y-123090890D01*
X201398495Y-123202427D01*
X201449830Y-123326361D01*
X201476000Y-123457926D01*
X201476000Y-123592074D01*
X201449830Y-123723639D01*
X201398495Y-123847573D01*
X201361484Y-123902964D01*
X201323967Y-123959112D01*
X201229112Y-124053967D01*
X201172964Y-124091484D01*
X201117573Y-124128495D01*
X200993639Y-124179830D01*
X200862074Y-124206000D01*
X200727926Y-124206000D01*
X200596361Y-124179830D01*
X200472427Y-124128495D01*
X200417036Y-124091484D01*
X200360888Y-124053967D01*
X200266033Y-123959112D01*
X200228516Y-123902964D01*
X200191505Y-123847573D01*
X200140170Y-123723639D01*
X200114000Y-123592074D01*
X200114000Y-123457926D01*
X200140170Y-123326361D01*
X200191505Y-123202427D01*
X200266032Y-123090890D01*
X200266033Y-123090888D01*
X200360888Y-122996033D01*
X200472426Y-122921506D01*
X200472427Y-122921505D01*
X200596361Y-122870170D01*
X200727926Y-122844000D01*
X200862074Y-122844000D01*
X200993639Y-122870170D01*
X200993639Y-122870170D01*
G37*
G36*
X116353097Y-120694069D02*
G01*
X116456032Y-120704207D01*
X116654146Y-120764305D01*
X116654149Y-120764306D01*
X116740934Y-120810694D01*
X116836729Y-120861897D01*
X116996765Y-120993235D01*
X117128103Y-121153271D01*
X117173939Y-121239025D01*
X117225694Y-121335851D01*
X117225695Y-121335854D01*
X117285793Y-121533968D01*
X117306085Y-121740000D01*
X117285793Y-121946032D01*
X117225749Y-122143967D01*
X117225694Y-122144149D01*
X117174830Y-122239309D01*
X117128103Y-122326729D01*
X116996765Y-122486765D01*
X116836729Y-122618103D01*
X116750975Y-122663939D01*
X116654149Y-122715694D01*
X116654146Y-122715695D01*
X116456032Y-122775793D01*
X116353097Y-122785931D01*
X116301631Y-122791000D01*
X114698369Y-122791000D01*
X114646903Y-122785931D01*
X114543968Y-122775793D01*
X114345854Y-122715695D01*
X114345851Y-122715694D01*
X114249025Y-122663939D01*
X114163271Y-122618103D01*
X114003235Y-122486765D01*
X113871897Y-122326729D01*
X113825170Y-122239309D01*
X113774306Y-122144149D01*
X113774251Y-122143967D01*
X113714207Y-121946032D01*
X113693915Y-121740000D01*
X113714207Y-121533968D01*
X113774305Y-121335854D01*
X113774306Y-121335851D01*
X113826061Y-121239025D01*
X113871897Y-121153271D01*
X114003235Y-120993235D01*
X114163271Y-120861897D01*
X114259066Y-120810694D01*
X114345851Y-120764306D01*
X114345854Y-120764305D01*
X114543968Y-120704207D01*
X114646903Y-120694069D01*
X114698369Y-120689000D01*
X116301631Y-120689000D01*
X116353097Y-120694069D01*
X116353097Y-120694069D01*
G37*
G36*
X126364499Y-121303445D02*
G01*
X126401995Y-121314820D01*
X126436554Y-121333292D01*
X126466847Y-121358153D01*
X126491708Y-121388446D01*
X126510180Y-121423005D01*
X126521555Y-121460501D01*
X126526000Y-121505638D01*
X126526000Y-122244362D01*
X126521555Y-122289499D01*
X126510180Y-122326995D01*
X126491708Y-122361554D01*
X126466847Y-122391847D01*
X126436554Y-122416708D01*
X126401995Y-122435180D01*
X126364499Y-122446555D01*
X126319362Y-122451000D01*
X125680638Y-122451000D01*
X125635501Y-122446555D01*
X125598005Y-122435180D01*
X125563446Y-122416708D01*
X125533153Y-122391847D01*
X125508292Y-122361554D01*
X125489820Y-122326995D01*
X125478445Y-122289499D01*
X125474000Y-122244362D01*
X125474000Y-121505638D01*
X125478445Y-121460501D01*
X125489820Y-121423005D01*
X125508292Y-121388446D01*
X125533153Y-121358153D01*
X125563446Y-121333292D01*
X125598005Y-121314820D01*
X125635501Y-121303445D01*
X125680638Y-121299000D01*
X126319362Y-121299000D01*
X126364499Y-121303445D01*
X126364499Y-121303445D01*
G37*
G36*
X199088639Y-120960170D02*
G01*
X199212573Y-121011505D01*
X199212574Y-121011506D01*
X199324112Y-121086033D01*
X199418967Y-121180888D01*
X199418968Y-121180890D01*
X199493495Y-121292427D01*
X199544830Y-121416361D01*
X199571000Y-121547926D01*
X199571000Y-121682074D01*
X199544830Y-121813639D01*
X199493495Y-121937573D01*
X199493494Y-121937574D01*
X199418967Y-122049112D01*
X199324112Y-122143967D01*
X199267964Y-122181484D01*
X199212573Y-122218495D01*
X199088639Y-122269830D01*
X198957074Y-122296000D01*
X198822926Y-122296000D01*
X198691361Y-122269830D01*
X198567427Y-122218495D01*
X198512036Y-122181484D01*
X198455888Y-122143967D01*
X198361033Y-122049112D01*
X198286506Y-121937574D01*
X198286505Y-121937573D01*
X198235170Y-121813639D01*
X198209000Y-121682074D01*
X198209000Y-121547926D01*
X198235170Y-121416361D01*
X198286505Y-121292427D01*
X198361032Y-121180890D01*
X198361033Y-121180888D01*
X198455888Y-121086033D01*
X198567426Y-121011506D01*
X198567427Y-121011505D01*
X198691361Y-120960170D01*
X198822926Y-120934000D01*
X198957074Y-120934000D01*
X199088639Y-120960170D01*
X199088639Y-120960170D01*
G37*
G36*
X200993639Y-120960170D02*
G01*
X201117573Y-121011505D01*
X201117574Y-121011506D01*
X201229112Y-121086033D01*
X201323967Y-121180888D01*
X201323968Y-121180890D01*
X201398495Y-121292427D01*
X201449830Y-121416361D01*
X201476000Y-121547926D01*
X201476000Y-121682074D01*
X201449830Y-121813639D01*
X201398495Y-121937573D01*
X201398494Y-121937574D01*
X201323967Y-122049112D01*
X201229112Y-122143967D01*
X201172964Y-122181484D01*
X201117573Y-122218495D01*
X200993639Y-122269830D01*
X200862074Y-122296000D01*
X200727926Y-122296000D01*
X200596361Y-122269830D01*
X200472427Y-122218495D01*
X200417036Y-122181484D01*
X200360888Y-122143967D01*
X200266033Y-122049112D01*
X200191506Y-121937574D01*
X200191505Y-121937573D01*
X200140170Y-121813639D01*
X200114000Y-121682074D01*
X200114000Y-121547926D01*
X200140170Y-121416361D01*
X200191505Y-121292427D01*
X200266032Y-121180890D01*
X200266033Y-121180888D01*
X200360888Y-121086033D01*
X200472426Y-121011506D01*
X200472427Y-121011505D01*
X200596361Y-120960170D01*
X200727926Y-120934000D01*
X200862074Y-120934000D01*
X200993639Y-120960170D01*
X200993639Y-120960170D01*
G37*
G36*
X202898639Y-120960170D02*
G01*
X203022573Y-121011505D01*
X203022574Y-121011506D01*
X203134112Y-121086033D01*
X203228967Y-121180888D01*
X203228968Y-121180890D01*
X203303495Y-121292427D01*
X203354830Y-121416361D01*
X203381000Y-121547926D01*
X203381000Y-121682074D01*
X203354830Y-121813639D01*
X203303495Y-121937573D01*
X203303494Y-121937574D01*
X203228967Y-122049112D01*
X203134112Y-122143967D01*
X203077964Y-122181484D01*
X203022573Y-122218495D01*
X202898639Y-122269830D01*
X202767074Y-122296000D01*
X202632926Y-122296000D01*
X202501361Y-122269830D01*
X202377427Y-122218495D01*
X202322036Y-122181484D01*
X202265888Y-122143967D01*
X202171033Y-122049112D01*
X202096506Y-121937574D01*
X202096505Y-121937573D01*
X202045170Y-121813639D01*
X202019000Y-121682074D01*
X202019000Y-121547926D01*
X202045170Y-121416361D01*
X202096505Y-121292427D01*
X202171032Y-121180890D01*
X202171033Y-121180888D01*
X202265888Y-121086033D01*
X202377426Y-121011506D01*
X202377427Y-121011505D01*
X202501361Y-120960170D01*
X202632926Y-120934000D01*
X202767074Y-120934000D01*
X202898639Y-120960170D01*
X202898639Y-120960170D01*
G37*
G36*
X111303097Y-118789069D02*
G01*
X111406032Y-118799207D01*
X111604146Y-118859305D01*
X111604149Y-118859306D01*
X111690934Y-118905694D01*
X111786729Y-118956897D01*
X111946765Y-119088235D01*
X112078103Y-119248271D01*
X112090192Y-119270888D01*
X112175694Y-119430851D01*
X112175695Y-119430854D01*
X112235793Y-119628968D01*
X112256085Y-119835000D01*
X112235793Y-120041032D01*
X112206041Y-120139110D01*
X112175694Y-120239149D01*
X112123939Y-120335975D01*
X112078103Y-120421729D01*
X111946765Y-120581765D01*
X111786729Y-120713103D01*
X111700975Y-120758939D01*
X111604149Y-120810694D01*
X111604146Y-120810695D01*
X111406032Y-120870793D01*
X111303097Y-120880931D01*
X111251631Y-120886000D01*
X109648369Y-120886000D01*
X109596903Y-120880931D01*
X109493968Y-120870793D01*
X109295854Y-120810695D01*
X109295851Y-120810694D01*
X109199025Y-120758939D01*
X109113271Y-120713103D01*
X108953235Y-120581765D01*
X108821897Y-120421729D01*
X108776061Y-120335975D01*
X108724306Y-120239149D01*
X108693959Y-120139110D01*
X108664207Y-120041032D01*
X108643915Y-119835000D01*
X108664207Y-119628968D01*
X108724305Y-119430854D01*
X108724306Y-119430851D01*
X108809808Y-119270888D01*
X108821897Y-119248271D01*
X108953235Y-119088235D01*
X109113271Y-118956897D01*
X109209066Y-118905694D01*
X109295851Y-118859306D01*
X109295854Y-118859305D01*
X109493968Y-118799207D01*
X109596903Y-118789069D01*
X109648369Y-118784000D01*
X111251631Y-118784000D01*
X111303097Y-118789069D01*
X111303097Y-118789069D01*
G37*
G36*
X126364499Y-119553445D02*
G01*
X126401995Y-119564820D01*
X126436554Y-119583292D01*
X126466847Y-119608153D01*
X126491708Y-119638446D01*
X126510180Y-119673005D01*
X126521555Y-119710501D01*
X126526000Y-119755638D01*
X126526000Y-120494362D01*
X126521555Y-120539499D01*
X126510180Y-120576995D01*
X126491708Y-120611554D01*
X126466847Y-120641847D01*
X126436554Y-120666708D01*
X126401995Y-120685180D01*
X126364499Y-120696555D01*
X126319362Y-120701000D01*
X125680638Y-120701000D01*
X125635501Y-120696555D01*
X125598005Y-120685180D01*
X125563446Y-120666708D01*
X125533153Y-120641847D01*
X125508292Y-120611554D01*
X125489820Y-120576995D01*
X125478445Y-120539499D01*
X125474000Y-120494362D01*
X125474000Y-119755638D01*
X125478445Y-119710501D01*
X125489820Y-119673005D01*
X125508292Y-119638446D01*
X125533153Y-119608153D01*
X125563446Y-119583292D01*
X125598005Y-119564820D01*
X125635501Y-119553445D01*
X125680638Y-119549000D01*
X126319362Y-119549000D01*
X126364499Y-119553445D01*
X126364499Y-119553445D01*
G37*
G36*
X200993639Y-119050170D02*
G01*
X201117573Y-119101505D01*
X201117574Y-119101506D01*
X201229112Y-119176033D01*
X201323967Y-119270888D01*
X201323968Y-119270890D01*
X201398495Y-119382427D01*
X201449830Y-119506361D01*
X201476000Y-119637926D01*
X201476000Y-119772074D01*
X201449830Y-119903639D01*
X201398495Y-120027573D01*
X201398494Y-120027574D01*
X201323967Y-120139112D01*
X201229112Y-120233967D01*
X201172964Y-120271484D01*
X201117573Y-120308495D01*
X200993639Y-120359830D01*
X200862074Y-120386000D01*
X200727926Y-120386000D01*
X200596361Y-120359830D01*
X200472427Y-120308495D01*
X200417036Y-120271484D01*
X200360888Y-120233967D01*
X200266033Y-120139112D01*
X200191506Y-120027574D01*
X200191505Y-120027573D01*
X200140170Y-119903639D01*
X200114000Y-119772074D01*
X200114000Y-119637926D01*
X200140170Y-119506361D01*
X200191505Y-119382427D01*
X200266032Y-119270890D01*
X200266033Y-119270888D01*
X200360888Y-119176033D01*
X200472426Y-119101506D01*
X200472427Y-119101505D01*
X200596361Y-119050170D01*
X200727926Y-119024000D01*
X200862074Y-119024000D01*
X200993639Y-119050170D01*
X200993639Y-119050170D01*
G37*
G36*
X202898639Y-119050170D02*
G01*
X203022573Y-119101505D01*
X203022574Y-119101506D01*
X203134112Y-119176033D01*
X203228967Y-119270888D01*
X203228968Y-119270890D01*
X203303495Y-119382427D01*
X203354830Y-119506361D01*
X203381000Y-119637926D01*
X203381000Y-119772074D01*
X203354830Y-119903639D01*
X203303495Y-120027573D01*
X203303494Y-120027574D01*
X203228967Y-120139112D01*
X203134112Y-120233967D01*
X203077964Y-120271484D01*
X203022573Y-120308495D01*
X202898639Y-120359830D01*
X202767074Y-120386000D01*
X202632926Y-120386000D01*
X202501361Y-120359830D01*
X202377427Y-120308495D01*
X202322036Y-120271484D01*
X202265888Y-120233967D01*
X202171033Y-120139112D01*
X202096506Y-120027574D01*
X202096505Y-120027573D01*
X202045170Y-119903639D01*
X202019000Y-119772074D01*
X202019000Y-119637926D01*
X202045170Y-119506361D01*
X202096505Y-119382427D01*
X202171032Y-119270890D01*
X202171033Y-119270888D01*
X202265888Y-119176033D01*
X202377426Y-119101506D01*
X202377427Y-119101505D01*
X202501361Y-119050170D01*
X202632926Y-119024000D01*
X202767074Y-119024000D01*
X202898639Y-119050170D01*
X202898639Y-119050170D01*
G37*
G36*
X199088639Y-119050170D02*
G01*
X199212573Y-119101505D01*
X199212574Y-119101506D01*
X199324112Y-119176033D01*
X199418967Y-119270888D01*
X199418968Y-119270890D01*
X199493495Y-119382427D01*
X199544830Y-119506361D01*
X199571000Y-119637926D01*
X199571000Y-119772074D01*
X199544830Y-119903639D01*
X199493495Y-120027573D01*
X199493494Y-120027574D01*
X199418967Y-120139112D01*
X199324112Y-120233967D01*
X199267964Y-120271484D01*
X199212573Y-120308495D01*
X199088639Y-120359830D01*
X198957074Y-120386000D01*
X198822926Y-120386000D01*
X198691361Y-120359830D01*
X198567427Y-120308495D01*
X198512036Y-120271484D01*
X198455888Y-120233967D01*
X198361033Y-120139112D01*
X198286506Y-120027574D01*
X198286505Y-120027573D01*
X198235170Y-119903639D01*
X198209000Y-119772074D01*
X198209000Y-119637926D01*
X198235170Y-119506361D01*
X198286505Y-119382427D01*
X198361032Y-119270890D01*
X198361033Y-119270888D01*
X198455888Y-119176033D01*
X198567426Y-119101506D01*
X198567427Y-119101505D01*
X198691361Y-119050170D01*
X198822926Y-119024000D01*
X198957074Y-119024000D01*
X199088639Y-119050170D01*
X199088639Y-119050170D01*
G37*
G36*
X116353097Y-116884069D02*
G01*
X116456032Y-116894207D01*
X116654146Y-116954305D01*
X116654149Y-116954306D01*
X116740934Y-117000694D01*
X116836729Y-117051897D01*
X116996765Y-117183235D01*
X117128103Y-117343271D01*
X117137519Y-117360888D01*
X117225694Y-117525851D01*
X117225695Y-117525854D01*
X117285793Y-117723968D01*
X117306085Y-117930000D01*
X117285793Y-118136032D01*
X117225695Y-118334146D01*
X117225694Y-118334149D01*
X117191301Y-118398494D01*
X117128103Y-118516729D01*
X116996765Y-118676765D01*
X116836729Y-118808103D01*
X116750975Y-118853939D01*
X116654149Y-118905694D01*
X116654146Y-118905695D01*
X116456032Y-118965793D01*
X116353097Y-118975931D01*
X116301631Y-118981000D01*
X114698369Y-118981000D01*
X114646903Y-118975931D01*
X114543968Y-118965793D01*
X114345854Y-118905695D01*
X114345851Y-118905694D01*
X114249025Y-118853939D01*
X114163271Y-118808103D01*
X114003235Y-118676765D01*
X113871897Y-118516729D01*
X113808699Y-118398494D01*
X113774306Y-118334149D01*
X113774305Y-118334146D01*
X113714207Y-118136032D01*
X113693915Y-117930000D01*
X113714207Y-117723968D01*
X113774305Y-117525854D01*
X113774306Y-117525851D01*
X113862481Y-117360888D01*
X113871897Y-117343271D01*
X114003235Y-117183235D01*
X114163271Y-117051897D01*
X114259066Y-117000694D01*
X114345851Y-116954306D01*
X114345854Y-116954305D01*
X114543968Y-116894207D01*
X114646903Y-116884069D01*
X114698369Y-116879000D01*
X116301631Y-116879000D01*
X116353097Y-116884069D01*
X116353097Y-116884069D01*
G37*
G36*
X200993639Y-117140170D02*
G01*
X201117573Y-117191505D01*
X201117574Y-117191506D01*
X201229112Y-117266033D01*
X201323967Y-117360888D01*
X201323968Y-117360890D01*
X201398495Y-117472427D01*
X201449830Y-117596361D01*
X201476000Y-117727926D01*
X201476000Y-117862074D01*
X201449830Y-117993639D01*
X201398495Y-118117573D01*
X201398494Y-118117574D01*
X201323967Y-118229112D01*
X201229112Y-118323967D01*
X201213878Y-118334146D01*
X201117573Y-118398495D01*
X200993639Y-118449830D01*
X200862074Y-118476000D01*
X200727926Y-118476000D01*
X200596361Y-118449830D01*
X200472427Y-118398495D01*
X200376122Y-118334146D01*
X200360888Y-118323967D01*
X200266033Y-118229112D01*
X200191506Y-118117574D01*
X200191505Y-118117573D01*
X200140170Y-117993639D01*
X200114000Y-117862074D01*
X200114000Y-117727926D01*
X200140170Y-117596361D01*
X200191505Y-117472427D01*
X200266032Y-117360890D01*
X200266033Y-117360888D01*
X200360888Y-117266033D01*
X200472426Y-117191506D01*
X200472427Y-117191505D01*
X200596361Y-117140170D01*
X200727926Y-117114000D01*
X200862074Y-117114000D01*
X200993639Y-117140170D01*
X200993639Y-117140170D01*
G37*
G36*
X202898639Y-117140170D02*
G01*
X203022573Y-117191505D01*
X203022574Y-117191506D01*
X203134112Y-117266033D01*
X203228967Y-117360888D01*
X203228968Y-117360890D01*
X203303495Y-117472427D01*
X203354830Y-117596361D01*
X203381000Y-117727926D01*
X203381000Y-117862074D01*
X203354830Y-117993639D01*
X203303495Y-118117573D01*
X203303494Y-118117574D01*
X203228967Y-118229112D01*
X203134112Y-118323967D01*
X203118878Y-118334146D01*
X203022573Y-118398495D01*
X202898639Y-118449830D01*
X202767074Y-118476000D01*
X202632926Y-118476000D01*
X202501361Y-118449830D01*
X202377427Y-118398495D01*
X202281122Y-118334146D01*
X202265888Y-118323967D01*
X202171033Y-118229112D01*
X202096506Y-118117574D01*
X202096505Y-118117573D01*
X202045170Y-117993639D01*
X202019000Y-117862074D01*
X202019000Y-117727926D01*
X202045170Y-117596361D01*
X202096505Y-117472427D01*
X202171032Y-117360890D01*
X202171033Y-117360888D01*
X202265888Y-117266033D01*
X202377426Y-117191506D01*
X202377427Y-117191505D01*
X202501361Y-117140170D01*
X202632926Y-117114000D01*
X202767074Y-117114000D01*
X202898639Y-117140170D01*
X202898639Y-117140170D01*
G37*
G36*
X199088639Y-117140170D02*
G01*
X199212573Y-117191505D01*
X199212574Y-117191506D01*
X199324112Y-117266033D01*
X199418967Y-117360888D01*
X199418968Y-117360890D01*
X199493495Y-117472427D01*
X199544830Y-117596361D01*
X199571000Y-117727926D01*
X199571000Y-117862074D01*
X199544830Y-117993639D01*
X199493495Y-118117573D01*
X199493494Y-118117574D01*
X199418967Y-118229112D01*
X199324112Y-118323967D01*
X199308878Y-118334146D01*
X199212573Y-118398495D01*
X199088639Y-118449830D01*
X198957074Y-118476000D01*
X198822926Y-118476000D01*
X198691361Y-118449830D01*
X198567427Y-118398495D01*
X198471122Y-118334146D01*
X198455888Y-118323967D01*
X198361033Y-118229112D01*
X198286506Y-118117574D01*
X198286505Y-118117573D01*
X198235170Y-117993639D01*
X198209000Y-117862074D01*
X198209000Y-117727926D01*
X198235170Y-117596361D01*
X198286505Y-117472427D01*
X198361032Y-117360890D01*
X198361033Y-117360888D01*
X198455888Y-117266033D01*
X198567426Y-117191506D01*
X198567427Y-117191505D01*
X198691361Y-117140170D01*
X198822926Y-117114000D01*
X198957074Y-117114000D01*
X199088639Y-117140170D01*
X199088639Y-117140170D01*
G37*
G36*
X111303097Y-114979069D02*
G01*
X111406032Y-114989207D01*
X111604146Y-115049305D01*
X111604149Y-115049306D01*
X111690934Y-115095694D01*
X111786729Y-115146897D01*
X111946765Y-115278235D01*
X112078103Y-115438271D01*
X112123939Y-115524025D01*
X112175694Y-115620851D01*
X112175695Y-115620854D01*
X112235793Y-115818968D01*
X112256085Y-116025000D01*
X112235793Y-116231032D01*
X112180299Y-116413968D01*
X112175694Y-116429149D01*
X112143973Y-116488494D01*
X112078103Y-116611729D01*
X111946765Y-116771765D01*
X111786729Y-116903103D01*
X111700975Y-116948939D01*
X111604149Y-117000694D01*
X111604146Y-117000695D01*
X111406032Y-117060793D01*
X111303097Y-117070931D01*
X111251631Y-117076000D01*
X109648369Y-117076000D01*
X109596903Y-117070931D01*
X109493968Y-117060793D01*
X109295854Y-117000695D01*
X109295851Y-117000694D01*
X109199025Y-116948939D01*
X109113271Y-116903103D01*
X108953235Y-116771765D01*
X108821897Y-116611729D01*
X108756027Y-116488494D01*
X108724306Y-116429149D01*
X108719701Y-116413968D01*
X108664207Y-116231032D01*
X108643915Y-116025000D01*
X108664207Y-115818968D01*
X108724305Y-115620854D01*
X108724306Y-115620851D01*
X108776061Y-115524025D01*
X108821897Y-115438271D01*
X108953235Y-115278235D01*
X109113271Y-115146897D01*
X109209066Y-115095694D01*
X109295851Y-115049306D01*
X109295854Y-115049305D01*
X109493968Y-114989207D01*
X109596903Y-114979069D01*
X109648369Y-114974000D01*
X111251631Y-114974000D01*
X111303097Y-114979069D01*
X111303097Y-114979069D01*
G37*
G36*
X202898639Y-115230170D02*
G01*
X203022573Y-115281505D01*
X203077964Y-115318516D01*
X203134112Y-115356033D01*
X203228967Y-115450888D01*
X203228968Y-115450890D01*
X203303495Y-115562427D01*
X203354830Y-115686361D01*
X203381000Y-115817926D01*
X203381000Y-115952074D01*
X203354830Y-116083639D01*
X203303495Y-116207573D01*
X203303494Y-116207574D01*
X203228967Y-116319112D01*
X203134112Y-116413967D01*
X203111395Y-116429146D01*
X203022573Y-116488495D01*
X202898639Y-116539830D01*
X202767074Y-116566000D01*
X202632926Y-116566000D01*
X202501361Y-116539830D01*
X202377427Y-116488495D01*
X202288605Y-116429146D01*
X202265888Y-116413967D01*
X202171033Y-116319112D01*
X202096506Y-116207574D01*
X202096505Y-116207573D01*
X202045170Y-116083639D01*
X202019000Y-115952074D01*
X202019000Y-115817926D01*
X202045170Y-115686361D01*
X202096505Y-115562427D01*
X202171032Y-115450890D01*
X202171033Y-115450888D01*
X202265888Y-115356033D01*
X202322036Y-115318516D01*
X202377427Y-115281505D01*
X202501361Y-115230170D01*
X202632926Y-115204000D01*
X202767074Y-115204000D01*
X202898639Y-115230170D01*
X202898639Y-115230170D01*
G37*
G36*
X200993639Y-115230170D02*
G01*
X201117573Y-115281505D01*
X201172964Y-115318516D01*
X201229112Y-115356033D01*
X201323967Y-115450888D01*
X201323968Y-115450890D01*
X201398495Y-115562427D01*
X201449830Y-115686361D01*
X201476000Y-115817926D01*
X201476000Y-115952074D01*
X201449830Y-116083639D01*
X201398495Y-116207573D01*
X201398494Y-116207574D01*
X201323967Y-116319112D01*
X201229112Y-116413967D01*
X201206395Y-116429146D01*
X201117573Y-116488495D01*
X200993639Y-116539830D01*
X200862074Y-116566000D01*
X200727926Y-116566000D01*
X200596361Y-116539830D01*
X200472427Y-116488495D01*
X200383605Y-116429146D01*
X200360888Y-116413967D01*
X200266033Y-116319112D01*
X200191506Y-116207574D01*
X200191505Y-116207573D01*
X200140170Y-116083639D01*
X200114000Y-115952074D01*
X200114000Y-115817926D01*
X200140170Y-115686361D01*
X200191505Y-115562427D01*
X200266032Y-115450890D01*
X200266033Y-115450888D01*
X200360888Y-115356033D01*
X200417036Y-115318516D01*
X200472427Y-115281505D01*
X200596361Y-115230170D01*
X200727926Y-115204000D01*
X200862074Y-115204000D01*
X200993639Y-115230170D01*
X200993639Y-115230170D01*
G37*
G36*
X199088639Y-115230170D02*
G01*
X199212573Y-115281505D01*
X199267964Y-115318516D01*
X199324112Y-115356033D01*
X199418967Y-115450888D01*
X199418968Y-115450890D01*
X199493495Y-115562427D01*
X199544830Y-115686361D01*
X199571000Y-115817926D01*
X199571000Y-115952074D01*
X199544830Y-116083639D01*
X199493495Y-116207573D01*
X199493494Y-116207574D01*
X199418967Y-116319112D01*
X199324112Y-116413967D01*
X199301395Y-116429146D01*
X199212573Y-116488495D01*
X199088639Y-116539830D01*
X198957074Y-116566000D01*
X198822926Y-116566000D01*
X198691361Y-116539830D01*
X198567427Y-116488495D01*
X198478605Y-116429146D01*
X198455888Y-116413967D01*
X198361033Y-116319112D01*
X198286506Y-116207574D01*
X198286505Y-116207573D01*
X198235170Y-116083639D01*
X198209000Y-115952074D01*
X198209000Y-115817926D01*
X198235170Y-115686361D01*
X198286505Y-115562427D01*
X198361032Y-115450890D01*
X198361033Y-115450888D01*
X198455888Y-115356033D01*
X198512036Y-115318516D01*
X198567427Y-115281505D01*
X198691361Y-115230170D01*
X198822926Y-115204000D01*
X198957074Y-115204000D01*
X199088639Y-115230170D01*
X199088639Y-115230170D01*
G37*
G36*
X126364499Y-114303445D02*
G01*
X126401995Y-114314820D01*
X126436554Y-114333292D01*
X126466847Y-114358153D01*
X126491708Y-114388446D01*
X126510180Y-114423005D01*
X126521555Y-114460501D01*
X126526000Y-114505638D01*
X126526000Y-115244362D01*
X126521555Y-115289499D01*
X126510180Y-115326995D01*
X126491708Y-115361554D01*
X126466847Y-115391847D01*
X126436554Y-115416708D01*
X126401995Y-115435180D01*
X126364499Y-115446555D01*
X126319362Y-115451000D01*
X125680638Y-115451000D01*
X125635501Y-115446555D01*
X125598005Y-115435180D01*
X125563446Y-115416708D01*
X125533153Y-115391847D01*
X125508292Y-115361554D01*
X125489820Y-115326995D01*
X125478445Y-115289499D01*
X125474000Y-115244362D01*
X125474000Y-114505638D01*
X125478445Y-114460501D01*
X125489820Y-114423005D01*
X125508292Y-114388446D01*
X125533153Y-114358153D01*
X125563446Y-114333292D01*
X125598005Y-114314820D01*
X125635501Y-114303445D01*
X125680638Y-114299000D01*
X126319362Y-114299000D01*
X126364499Y-114303445D01*
X126364499Y-114303445D01*
G37*
G36*
X116353097Y-113074069D02*
G01*
X116456032Y-113084207D01*
X116654146Y-113144305D01*
X116654149Y-113144306D01*
X116740934Y-113190694D01*
X116836729Y-113241897D01*
X116996765Y-113373235D01*
X117128103Y-113533271D01*
X117169946Y-113611554D01*
X117225694Y-113715851D01*
X117225695Y-113715854D01*
X117285793Y-113913968D01*
X117306085Y-114120000D01*
X117285793Y-114326032D01*
X117225695Y-114524146D01*
X117225694Y-114524149D01*
X117205462Y-114562000D01*
X117128103Y-114706729D01*
X116996765Y-114866765D01*
X116836729Y-114998103D01*
X116750975Y-115043939D01*
X116654149Y-115095694D01*
X116654146Y-115095695D01*
X116456032Y-115155793D01*
X116353097Y-115165931D01*
X116301631Y-115171000D01*
X114698369Y-115171000D01*
X114646903Y-115165931D01*
X114543968Y-115155793D01*
X114345854Y-115095695D01*
X114345851Y-115095694D01*
X114249025Y-115043939D01*
X114163271Y-114998103D01*
X114003235Y-114866765D01*
X113871897Y-114706729D01*
X113794538Y-114562000D01*
X113774306Y-114524149D01*
X113774305Y-114524146D01*
X113714207Y-114326032D01*
X113693915Y-114120000D01*
X113714207Y-113913968D01*
X113774305Y-113715854D01*
X113774306Y-113715851D01*
X113830054Y-113611554D01*
X113871897Y-113533271D01*
X114003235Y-113373235D01*
X114163271Y-113241897D01*
X114259066Y-113190694D01*
X114345851Y-113144306D01*
X114345854Y-113144305D01*
X114543968Y-113084207D01*
X114646903Y-113074069D01*
X114698369Y-113069000D01*
X116301631Y-113069000D01*
X116353097Y-113074069D01*
X116353097Y-113074069D01*
G37*
G36*
X200993639Y-113320170D02*
G01*
X201117573Y-113371505D01*
X201117574Y-113371506D01*
X201229112Y-113446033D01*
X201323967Y-113540888D01*
X201323968Y-113540890D01*
X201398495Y-113652427D01*
X201449830Y-113776361D01*
X201476000Y-113907926D01*
X201476000Y-114042074D01*
X201449830Y-114173639D01*
X201398495Y-114297573D01*
X201379479Y-114326032D01*
X201323967Y-114409112D01*
X201229112Y-114503967D01*
X201198912Y-114524146D01*
X201117573Y-114578495D01*
X200993639Y-114629830D01*
X200862074Y-114656000D01*
X200727926Y-114656000D01*
X200596361Y-114629830D01*
X200472427Y-114578495D01*
X200391088Y-114524146D01*
X200360888Y-114503967D01*
X200266033Y-114409112D01*
X200210521Y-114326032D01*
X200191505Y-114297573D01*
X200140170Y-114173639D01*
X200114000Y-114042074D01*
X200114000Y-113907926D01*
X200140170Y-113776361D01*
X200191505Y-113652427D01*
X200266032Y-113540890D01*
X200266033Y-113540888D01*
X200360888Y-113446033D01*
X200472426Y-113371506D01*
X200472427Y-113371505D01*
X200596361Y-113320170D01*
X200727926Y-113294000D01*
X200862074Y-113294000D01*
X200993639Y-113320170D01*
X200993639Y-113320170D01*
G37*
G36*
X202898639Y-113320170D02*
G01*
X203022573Y-113371505D01*
X203022574Y-113371506D01*
X203134112Y-113446033D01*
X203228967Y-113540888D01*
X203228968Y-113540890D01*
X203303495Y-113652427D01*
X203354830Y-113776361D01*
X203381000Y-113907926D01*
X203381000Y-114042074D01*
X203354830Y-114173639D01*
X203303495Y-114297573D01*
X203284479Y-114326032D01*
X203228967Y-114409112D01*
X203134112Y-114503967D01*
X203103912Y-114524146D01*
X203022573Y-114578495D01*
X202898639Y-114629830D01*
X202767074Y-114656000D01*
X202632926Y-114656000D01*
X202501361Y-114629830D01*
X202377427Y-114578495D01*
X202296088Y-114524146D01*
X202265888Y-114503967D01*
X202171033Y-114409112D01*
X202115521Y-114326032D01*
X202096505Y-114297573D01*
X202045170Y-114173639D01*
X202019000Y-114042074D01*
X202019000Y-113907926D01*
X202045170Y-113776361D01*
X202096505Y-113652427D01*
X202171032Y-113540890D01*
X202171033Y-113540888D01*
X202265888Y-113446033D01*
X202377426Y-113371506D01*
X202377427Y-113371505D01*
X202501361Y-113320170D01*
X202632926Y-113294000D01*
X202767074Y-113294000D01*
X202898639Y-113320170D01*
X202898639Y-113320170D01*
G37*
G36*
X199088639Y-113320170D02*
G01*
X199212573Y-113371505D01*
X199212574Y-113371506D01*
X199324112Y-113446033D01*
X199418967Y-113540888D01*
X199418968Y-113540890D01*
X199493495Y-113652427D01*
X199544830Y-113776361D01*
X199571000Y-113907926D01*
X199571000Y-114042074D01*
X199544830Y-114173639D01*
X199493495Y-114297573D01*
X199474479Y-114326032D01*
X199418967Y-114409112D01*
X199324112Y-114503967D01*
X199293912Y-114524146D01*
X199212573Y-114578495D01*
X199088639Y-114629830D01*
X198957074Y-114656000D01*
X198822926Y-114656000D01*
X198691361Y-114629830D01*
X198567427Y-114578495D01*
X198486088Y-114524146D01*
X198455888Y-114503967D01*
X198361033Y-114409112D01*
X198305521Y-114326032D01*
X198286505Y-114297573D01*
X198235170Y-114173639D01*
X198209000Y-114042074D01*
X198209000Y-113907926D01*
X198235170Y-113776361D01*
X198286505Y-113652427D01*
X198361032Y-113540890D01*
X198361033Y-113540888D01*
X198455888Y-113446033D01*
X198567426Y-113371506D01*
X198567427Y-113371505D01*
X198691361Y-113320170D01*
X198822926Y-113294000D01*
X198957074Y-113294000D01*
X199088639Y-113320170D01*
X199088639Y-113320170D01*
G37*
G36*
X126364499Y-112553445D02*
G01*
X126401995Y-112564820D01*
X126436554Y-112583292D01*
X126466847Y-112608153D01*
X126491708Y-112638446D01*
X126510180Y-112673005D01*
X126521555Y-112710501D01*
X126526000Y-112755638D01*
X126526000Y-113494362D01*
X126521555Y-113539499D01*
X126510180Y-113576995D01*
X126491708Y-113611554D01*
X126466847Y-113641847D01*
X126436554Y-113666708D01*
X126401995Y-113685180D01*
X126364499Y-113696555D01*
X126319362Y-113701000D01*
X125680638Y-113701000D01*
X125635501Y-113696555D01*
X125598005Y-113685180D01*
X125563446Y-113666708D01*
X125533153Y-113641847D01*
X125508292Y-113611554D01*
X125489820Y-113576995D01*
X125478445Y-113539499D01*
X125474000Y-113494362D01*
X125474000Y-112755638D01*
X125478445Y-112710501D01*
X125489820Y-112673005D01*
X125508292Y-112638446D01*
X125533153Y-112608153D01*
X125563446Y-112583292D01*
X125598005Y-112564820D01*
X125635501Y-112553445D01*
X125680638Y-112549000D01*
X126319362Y-112549000D01*
X126364499Y-112553445D01*
X126364499Y-112553445D01*
G37*
G36*
X111303097Y-111169069D02*
G01*
X111406032Y-111179207D01*
X111604146Y-111239305D01*
X111604149Y-111239306D01*
X111648477Y-111263000D01*
X111786729Y-111336897D01*
X111946765Y-111468235D01*
X112078103Y-111628271D01*
X112123939Y-111714025D01*
X112175694Y-111810851D01*
X112175695Y-111810854D01*
X112235793Y-112008968D01*
X112256085Y-112215000D01*
X112235793Y-112421032D01*
X112212108Y-112499110D01*
X112175694Y-112619149D01*
X112146907Y-112673005D01*
X112078103Y-112801729D01*
X111946765Y-112961765D01*
X111786729Y-113093103D01*
X111700975Y-113138939D01*
X111604149Y-113190694D01*
X111604146Y-113190695D01*
X111406032Y-113250793D01*
X111303097Y-113260931D01*
X111251631Y-113266000D01*
X109648369Y-113266000D01*
X109596903Y-113260931D01*
X109493968Y-113250793D01*
X109295854Y-113190695D01*
X109295851Y-113190694D01*
X109199025Y-113138939D01*
X109113271Y-113093103D01*
X108953235Y-112961765D01*
X108821897Y-112801729D01*
X108753093Y-112673005D01*
X108724306Y-112619149D01*
X108687892Y-112499110D01*
X108664207Y-112421032D01*
X108643915Y-112215000D01*
X108664207Y-112008968D01*
X108724305Y-111810854D01*
X108724306Y-111810851D01*
X108776061Y-111714025D01*
X108821897Y-111628271D01*
X108953235Y-111468235D01*
X109113271Y-111336897D01*
X109251523Y-111263000D01*
X109295851Y-111239306D01*
X109295854Y-111239305D01*
X109493968Y-111179207D01*
X109596903Y-111169069D01*
X109648369Y-111164000D01*
X111251631Y-111164000D01*
X111303097Y-111169069D01*
X111303097Y-111169069D01*
G37*
G36*
X151789499Y-111978445D02*
G01*
X151826995Y-111989820D01*
X151861554Y-112008292D01*
X151891847Y-112033153D01*
X151916708Y-112063446D01*
X151935180Y-112098005D01*
X151946555Y-112135501D01*
X151951000Y-112180638D01*
X151951000Y-112819362D01*
X151946555Y-112864499D01*
X151935180Y-112901995D01*
X151916708Y-112936554D01*
X151891847Y-112966847D01*
X151861554Y-112991708D01*
X151826995Y-113010180D01*
X151789499Y-113021555D01*
X151744362Y-113026000D01*
X151005638Y-113026000D01*
X150960501Y-113021555D01*
X150923005Y-113010180D01*
X150888446Y-112991708D01*
X150858153Y-112966847D01*
X150833292Y-112936554D01*
X150814820Y-112901995D01*
X150803445Y-112864499D01*
X150799000Y-112819362D01*
X150799000Y-112180638D01*
X150803445Y-112135501D01*
X150814820Y-112098005D01*
X150833292Y-112063446D01*
X150858153Y-112033153D01*
X150888446Y-112008292D01*
X150923005Y-111989820D01*
X150960501Y-111978445D01*
X151005638Y-111974000D01*
X151744362Y-111974000D01*
X151789499Y-111978445D01*
X151789499Y-111978445D01*
G37*
G36*
X150039499Y-111978445D02*
G01*
X150076995Y-111989820D01*
X150111554Y-112008292D01*
X150141847Y-112033153D01*
X150166708Y-112063446D01*
X150185180Y-112098005D01*
X150196555Y-112135501D01*
X150201000Y-112180638D01*
X150201000Y-112819362D01*
X150196555Y-112864499D01*
X150185180Y-112901995D01*
X150166708Y-112936554D01*
X150141847Y-112966847D01*
X150111554Y-112991708D01*
X150076995Y-113010180D01*
X150039499Y-113021555D01*
X149994362Y-113026000D01*
X149255638Y-113026000D01*
X149210501Y-113021555D01*
X149173005Y-113010180D01*
X149138446Y-112991708D01*
X149108153Y-112966847D01*
X149083292Y-112936554D01*
X149064820Y-112901995D01*
X149053445Y-112864499D01*
X149049000Y-112819362D01*
X149049000Y-112180638D01*
X149053445Y-112135501D01*
X149064820Y-112098005D01*
X149083292Y-112063446D01*
X149108153Y-112033153D01*
X149138446Y-112008292D01*
X149173005Y-111989820D01*
X149210501Y-111978445D01*
X149255638Y-111974000D01*
X149994362Y-111974000D01*
X150039499Y-111978445D01*
X150039499Y-111978445D01*
G37*
G36*
X191321934Y-110202671D02*
G01*
X191351877Y-110211754D01*
X191379465Y-110226500D01*
X191403651Y-110246349D01*
X191423500Y-110270535D01*
X191438246Y-110298123D01*
X191447329Y-110328066D01*
X191451000Y-110365340D01*
X191451000Y-112634660D01*
X191447329Y-112671934D01*
X191438246Y-112701877D01*
X191423500Y-112729465D01*
X191403651Y-112753651D01*
X191379465Y-112773500D01*
X191351877Y-112788246D01*
X191321934Y-112797329D01*
X191284660Y-112801000D01*
X187115340Y-112801000D01*
X187078066Y-112797329D01*
X187048123Y-112788246D01*
X187020535Y-112773500D01*
X186996349Y-112753651D01*
X186976500Y-112729465D01*
X186961754Y-112701877D01*
X186952671Y-112671934D01*
X186949000Y-112634660D01*
X186949000Y-110365340D01*
X186952671Y-110328066D01*
X186961754Y-110298123D01*
X186976500Y-110270535D01*
X186996349Y-110246349D01*
X187020535Y-110226500D01*
X187048123Y-110211754D01*
X187078066Y-110202671D01*
X187115340Y-110199000D01*
X191284660Y-110199000D01*
X191321934Y-110202671D01*
X191321934Y-110202671D01*
G37*
G36*
X183921934Y-110202671D02*
G01*
X183951877Y-110211754D01*
X183979465Y-110226500D01*
X184003651Y-110246349D01*
X184023500Y-110270535D01*
X184038246Y-110298123D01*
X184047329Y-110328066D01*
X184051000Y-110365340D01*
X184051000Y-112634660D01*
X184047329Y-112671934D01*
X184038246Y-112701877D01*
X184023500Y-112729465D01*
X184003651Y-112753651D01*
X183979465Y-112773500D01*
X183951877Y-112788246D01*
X183921934Y-112797329D01*
X183884660Y-112801000D01*
X179715340Y-112801000D01*
X179678066Y-112797329D01*
X179648123Y-112788246D01*
X179620535Y-112773500D01*
X179596349Y-112753651D01*
X179576500Y-112729465D01*
X179561754Y-112701877D01*
X179552671Y-112671934D01*
X179549000Y-112634660D01*
X179549000Y-110365340D01*
X179552671Y-110328066D01*
X179561754Y-110298123D01*
X179576500Y-110270535D01*
X179596349Y-110246349D01*
X179620535Y-110226500D01*
X179648123Y-110211754D01*
X179678066Y-110202671D01*
X179715340Y-110199000D01*
X183884660Y-110199000D01*
X183921934Y-110202671D01*
X183921934Y-110202671D01*
G37*
G36*
X200993639Y-111410170D02*
G01*
X201117573Y-111461505D01*
X201127645Y-111468235D01*
X201229112Y-111536033D01*
X201323967Y-111630888D01*
X201323968Y-111630890D01*
X201398495Y-111742427D01*
X201449830Y-111866361D01*
X201476000Y-111997926D01*
X201476000Y-112132074D01*
X201449830Y-112263639D01*
X201398495Y-112387573D01*
X201398494Y-112387574D01*
X201323967Y-112499112D01*
X201229112Y-112593967D01*
X201207881Y-112608153D01*
X201117573Y-112668495D01*
X200993639Y-112719830D01*
X200862074Y-112746000D01*
X200727926Y-112746000D01*
X200596361Y-112719830D01*
X200472427Y-112668495D01*
X200382119Y-112608153D01*
X200360888Y-112593967D01*
X200266033Y-112499112D01*
X200191506Y-112387574D01*
X200191505Y-112387573D01*
X200140170Y-112263639D01*
X200114000Y-112132074D01*
X200114000Y-111997926D01*
X200140170Y-111866361D01*
X200191505Y-111742427D01*
X200266032Y-111630890D01*
X200266033Y-111630888D01*
X200360888Y-111536033D01*
X200462355Y-111468235D01*
X200472427Y-111461505D01*
X200596361Y-111410170D01*
X200727926Y-111384000D01*
X200862074Y-111384000D01*
X200993639Y-111410170D01*
X200993639Y-111410170D01*
G37*
G36*
X202898639Y-111410170D02*
G01*
X203022573Y-111461505D01*
X203032645Y-111468235D01*
X203134112Y-111536033D01*
X203228967Y-111630888D01*
X203228968Y-111630890D01*
X203303495Y-111742427D01*
X203354830Y-111866361D01*
X203381000Y-111997926D01*
X203381000Y-112132074D01*
X203354830Y-112263639D01*
X203303495Y-112387573D01*
X203303494Y-112387574D01*
X203228967Y-112499112D01*
X203134112Y-112593967D01*
X203112881Y-112608153D01*
X203022573Y-112668495D01*
X202898639Y-112719830D01*
X202767074Y-112746000D01*
X202632926Y-112746000D01*
X202501361Y-112719830D01*
X202377427Y-112668495D01*
X202287119Y-112608153D01*
X202265888Y-112593967D01*
X202171033Y-112499112D01*
X202096506Y-112387574D01*
X202096505Y-112387573D01*
X202045170Y-112263639D01*
X202019000Y-112132074D01*
X202019000Y-111997926D01*
X202045170Y-111866361D01*
X202096505Y-111742427D01*
X202171032Y-111630890D01*
X202171033Y-111630888D01*
X202265888Y-111536033D01*
X202367355Y-111468235D01*
X202377427Y-111461505D01*
X202501361Y-111410170D01*
X202632926Y-111384000D01*
X202767074Y-111384000D01*
X202898639Y-111410170D01*
X202898639Y-111410170D01*
G37*
G36*
X199088639Y-111410170D02*
G01*
X199212573Y-111461505D01*
X199222645Y-111468235D01*
X199324112Y-111536033D01*
X199418967Y-111630888D01*
X199418968Y-111630890D01*
X199493495Y-111742427D01*
X199544830Y-111866361D01*
X199571000Y-111997926D01*
X199571000Y-112132074D01*
X199544830Y-112263639D01*
X199493495Y-112387573D01*
X199493494Y-112387574D01*
X199418967Y-112499112D01*
X199324112Y-112593967D01*
X199302881Y-112608153D01*
X199212573Y-112668495D01*
X199088639Y-112719830D01*
X198957074Y-112746000D01*
X198822926Y-112746000D01*
X198691361Y-112719830D01*
X198567427Y-112668495D01*
X198477119Y-112608153D01*
X198455888Y-112593967D01*
X198361033Y-112499112D01*
X198286506Y-112387574D01*
X198286505Y-112387573D01*
X198235170Y-112263639D01*
X198209000Y-112132074D01*
X198209000Y-111997926D01*
X198235170Y-111866361D01*
X198286505Y-111742427D01*
X198361032Y-111630890D01*
X198361033Y-111630888D01*
X198455888Y-111536033D01*
X198557355Y-111468235D01*
X198567427Y-111461505D01*
X198691361Y-111410170D01*
X198822926Y-111384000D01*
X198957074Y-111384000D01*
X199088639Y-111410170D01*
X199088639Y-111410170D01*
G37*
G36*
X165789499Y-110478445D02*
G01*
X165826995Y-110489820D01*
X165861554Y-110508292D01*
X165891847Y-110533153D01*
X165916708Y-110563446D01*
X165935180Y-110598005D01*
X165946555Y-110635501D01*
X165951000Y-110680638D01*
X165951000Y-111319362D01*
X165946555Y-111364499D01*
X165935180Y-111401995D01*
X165916708Y-111436554D01*
X165891847Y-111466847D01*
X165861554Y-111491708D01*
X165826995Y-111510180D01*
X165789499Y-111521555D01*
X165744362Y-111526000D01*
X165005638Y-111526000D01*
X164960501Y-111521555D01*
X164923005Y-111510180D01*
X164888446Y-111491708D01*
X164858153Y-111466847D01*
X164833292Y-111436554D01*
X164814820Y-111401995D01*
X164803445Y-111364499D01*
X164799000Y-111319362D01*
X164799000Y-110680638D01*
X164803445Y-110635501D01*
X164814820Y-110598005D01*
X164833292Y-110563446D01*
X164858153Y-110533153D01*
X164888446Y-110508292D01*
X164923005Y-110489820D01*
X164960501Y-110478445D01*
X165005638Y-110474000D01*
X165744362Y-110474000D01*
X165789499Y-110478445D01*
X165789499Y-110478445D01*
G37*
G36*
X164039499Y-110478445D02*
G01*
X164076995Y-110489820D01*
X164111554Y-110508292D01*
X164141847Y-110533153D01*
X164166708Y-110563446D01*
X164185180Y-110598005D01*
X164196555Y-110635501D01*
X164201000Y-110680638D01*
X164201000Y-111319362D01*
X164196555Y-111364499D01*
X164185180Y-111401995D01*
X164166708Y-111436554D01*
X164141847Y-111466847D01*
X164111554Y-111491708D01*
X164076995Y-111510180D01*
X164039499Y-111521555D01*
X163994362Y-111526000D01*
X163255638Y-111526000D01*
X163210501Y-111521555D01*
X163173005Y-111510180D01*
X163138446Y-111491708D01*
X163108153Y-111466847D01*
X163083292Y-111436554D01*
X163064820Y-111401995D01*
X163053445Y-111364499D01*
X163049000Y-111319362D01*
X163049000Y-110680638D01*
X163053445Y-110635501D01*
X163064820Y-110598005D01*
X163083292Y-110563446D01*
X163108153Y-110533153D01*
X163138446Y-110508292D01*
X163173005Y-110489820D01*
X163210501Y-110478445D01*
X163255638Y-110474000D01*
X163994362Y-110474000D01*
X164039499Y-110478445D01*
X164039499Y-110478445D01*
G37*
G36*
X116353097Y-109264069D02*
G01*
X116456032Y-109274207D01*
X116654146Y-109334305D01*
X116654149Y-109334306D01*
X116740934Y-109380694D01*
X116836729Y-109431897D01*
X116996765Y-109563235D01*
X117128103Y-109723271D01*
X117173939Y-109809025D01*
X117225694Y-109905851D01*
X117225695Y-109905854D01*
X117285793Y-110103968D01*
X117306085Y-110310000D01*
X117285793Y-110516032D01*
X117234327Y-110685691D01*
X117225694Y-110714149D01*
X117201991Y-110758494D01*
X117128103Y-110896729D01*
X116996765Y-111056765D01*
X116836729Y-111188103D01*
X116750975Y-111233939D01*
X116654149Y-111285694D01*
X116654146Y-111285695D01*
X116456032Y-111345793D01*
X116353097Y-111355931D01*
X116301631Y-111361000D01*
X114698369Y-111361000D01*
X114646903Y-111355931D01*
X114543968Y-111345793D01*
X114345854Y-111285695D01*
X114345851Y-111285694D01*
X114249025Y-111233939D01*
X114163271Y-111188103D01*
X114003235Y-111056765D01*
X113871897Y-110896729D01*
X113798009Y-110758494D01*
X113774306Y-110714149D01*
X113765673Y-110685691D01*
X113714207Y-110516032D01*
X113693915Y-110310000D01*
X113714207Y-110103968D01*
X113774305Y-109905854D01*
X113774306Y-109905851D01*
X113826061Y-109809025D01*
X113871897Y-109723271D01*
X114003235Y-109563235D01*
X114163271Y-109431897D01*
X114259066Y-109380694D01*
X114345851Y-109334306D01*
X114345854Y-109334305D01*
X114543968Y-109274207D01*
X114646903Y-109264069D01*
X114698369Y-109259000D01*
X116301631Y-109259000D01*
X116353097Y-109264069D01*
X116353097Y-109264069D01*
G37*
G36*
X150039499Y-109978445D02*
G01*
X150076995Y-109989820D01*
X150111554Y-110008292D01*
X150141847Y-110033153D01*
X150166708Y-110063446D01*
X150185180Y-110098005D01*
X150196555Y-110135501D01*
X150201000Y-110180638D01*
X150201000Y-110819362D01*
X150196555Y-110864499D01*
X150185180Y-110901995D01*
X150166708Y-110936554D01*
X150141847Y-110966847D01*
X150111554Y-110991708D01*
X150076995Y-111010180D01*
X150039499Y-111021555D01*
X149994362Y-111026000D01*
X149255638Y-111026000D01*
X149210501Y-111021555D01*
X149173005Y-111010180D01*
X149138446Y-110991708D01*
X149108153Y-110966847D01*
X149083292Y-110936554D01*
X149064820Y-110901995D01*
X149053445Y-110864499D01*
X149049000Y-110819362D01*
X149049000Y-110180638D01*
X149053445Y-110135501D01*
X149064820Y-110098005D01*
X149083292Y-110063446D01*
X149108153Y-110033153D01*
X149138446Y-110008292D01*
X149173005Y-109989820D01*
X149210501Y-109978445D01*
X149255638Y-109974000D01*
X149994362Y-109974000D01*
X150039499Y-109978445D01*
X150039499Y-109978445D01*
G37*
G36*
X151789499Y-109978445D02*
G01*
X151826995Y-109989820D01*
X151861554Y-110008292D01*
X151891847Y-110033153D01*
X151916708Y-110063446D01*
X151935180Y-110098005D01*
X151946555Y-110135501D01*
X151951000Y-110180638D01*
X151951000Y-110819362D01*
X151946555Y-110864499D01*
X151935180Y-110901995D01*
X151916708Y-110936554D01*
X151891847Y-110966847D01*
X151861554Y-110991708D01*
X151826995Y-111010180D01*
X151789499Y-111021555D01*
X151744362Y-111026000D01*
X151005638Y-111026000D01*
X150960501Y-111021555D01*
X150923005Y-111010180D01*
X150888446Y-110991708D01*
X150858153Y-110966847D01*
X150833292Y-110936554D01*
X150814820Y-110901995D01*
X150803445Y-110864499D01*
X150799000Y-110819362D01*
X150799000Y-110180638D01*
X150803445Y-110135501D01*
X150814820Y-110098005D01*
X150833292Y-110063446D01*
X150858153Y-110033153D01*
X150888446Y-110008292D01*
X150923005Y-109989820D01*
X150960501Y-109978445D01*
X151005638Y-109974000D01*
X151744362Y-109974000D01*
X151789499Y-109978445D01*
X151789499Y-109978445D01*
G37*
G36*
X200993639Y-109500170D02*
G01*
X201117573Y-109551505D01*
X201117574Y-109551506D01*
X201229112Y-109626033D01*
X201323967Y-109720888D01*
X201323968Y-109720890D01*
X201398495Y-109832427D01*
X201449830Y-109956361D01*
X201476000Y-110087926D01*
X201476000Y-110222074D01*
X201449830Y-110353639D01*
X201398495Y-110477573D01*
X201398494Y-110477574D01*
X201323967Y-110589112D01*
X201229112Y-110683967D01*
X201183946Y-110714146D01*
X201117573Y-110758495D01*
X200993639Y-110809830D01*
X200862074Y-110836000D01*
X200727926Y-110836000D01*
X200596361Y-110809830D01*
X200472427Y-110758495D01*
X200406054Y-110714146D01*
X200360888Y-110683967D01*
X200266033Y-110589112D01*
X200191506Y-110477574D01*
X200191505Y-110477573D01*
X200140170Y-110353639D01*
X200114000Y-110222074D01*
X200114000Y-110087926D01*
X200140170Y-109956361D01*
X200191505Y-109832427D01*
X200266032Y-109720890D01*
X200266033Y-109720888D01*
X200360888Y-109626033D01*
X200472426Y-109551506D01*
X200472427Y-109551505D01*
X200596361Y-109500170D01*
X200727926Y-109474000D01*
X200862074Y-109474000D01*
X200993639Y-109500170D01*
X200993639Y-109500170D01*
G37*
G36*
X199088639Y-109500170D02*
G01*
X199212573Y-109551505D01*
X199212574Y-109551506D01*
X199324112Y-109626033D01*
X199418967Y-109720888D01*
X199418968Y-109720890D01*
X199493495Y-109832427D01*
X199544830Y-109956361D01*
X199571000Y-110087926D01*
X199571000Y-110222074D01*
X199544830Y-110353639D01*
X199493495Y-110477573D01*
X199493494Y-110477574D01*
X199418967Y-110589112D01*
X199324112Y-110683967D01*
X199278946Y-110714146D01*
X199212573Y-110758495D01*
X199088639Y-110809830D01*
X198957074Y-110836000D01*
X198822926Y-110836000D01*
X198691361Y-110809830D01*
X198567427Y-110758495D01*
X198501054Y-110714146D01*
X198455888Y-110683967D01*
X198361033Y-110589112D01*
X198286506Y-110477574D01*
X198286505Y-110477573D01*
X198235170Y-110353639D01*
X198209000Y-110222074D01*
X198209000Y-110087926D01*
X198235170Y-109956361D01*
X198286505Y-109832427D01*
X198361032Y-109720890D01*
X198361033Y-109720888D01*
X198455888Y-109626033D01*
X198567426Y-109551506D01*
X198567427Y-109551505D01*
X198691361Y-109500170D01*
X198822926Y-109474000D01*
X198957074Y-109474000D01*
X199088639Y-109500170D01*
X199088639Y-109500170D01*
G37*
G36*
X202898639Y-109500170D02*
G01*
X203022573Y-109551505D01*
X203022574Y-109551506D01*
X203134112Y-109626033D01*
X203228967Y-109720888D01*
X203228968Y-109720890D01*
X203303495Y-109832427D01*
X203354830Y-109956361D01*
X203381000Y-110087926D01*
X203381000Y-110222074D01*
X203354830Y-110353639D01*
X203303495Y-110477573D01*
X203303494Y-110477574D01*
X203228967Y-110589112D01*
X203134112Y-110683967D01*
X203088946Y-110714146D01*
X203022573Y-110758495D01*
X202898639Y-110809830D01*
X202767074Y-110836000D01*
X202632926Y-110836000D01*
X202501361Y-110809830D01*
X202377427Y-110758495D01*
X202311054Y-110714146D01*
X202265888Y-110683967D01*
X202171033Y-110589112D01*
X202096506Y-110477574D01*
X202096505Y-110477573D01*
X202045170Y-110353639D01*
X202019000Y-110222074D01*
X202019000Y-110087926D01*
X202045170Y-109956361D01*
X202096505Y-109832427D01*
X202171032Y-109720890D01*
X202171033Y-109720888D01*
X202265888Y-109626033D01*
X202377426Y-109551506D01*
X202377427Y-109551505D01*
X202501361Y-109500170D01*
X202632926Y-109474000D01*
X202767074Y-109474000D01*
X202898639Y-109500170D01*
X202898639Y-109500170D01*
G37*
G36*
X161226000Y-109676000D02*
G01*
X159674000Y-109676000D01*
X159674000Y-103274000D01*
X161226000Y-103274000D01*
X161226000Y-109676000D01*
X161226000Y-109676000D01*
G37*
G36*
X155326000Y-109676000D02*
G01*
X153774000Y-109676000D01*
X153774000Y-103274000D01*
X155326000Y-103274000D01*
X155326000Y-109676000D01*
X155326000Y-109676000D01*
G37*
G36*
X165789499Y-108478445D02*
G01*
X165826995Y-108489820D01*
X165861554Y-108508292D01*
X165891847Y-108533153D01*
X165916708Y-108563446D01*
X165935180Y-108598005D01*
X165946555Y-108635501D01*
X165951000Y-108680638D01*
X165951000Y-109319362D01*
X165946555Y-109364499D01*
X165935180Y-109401995D01*
X165916708Y-109436554D01*
X165891847Y-109466847D01*
X165861554Y-109491708D01*
X165826995Y-109510180D01*
X165789499Y-109521555D01*
X165744362Y-109526000D01*
X165005638Y-109526000D01*
X164960501Y-109521555D01*
X164923005Y-109510180D01*
X164888446Y-109491708D01*
X164858153Y-109466847D01*
X164833292Y-109436554D01*
X164814820Y-109401995D01*
X164803445Y-109364499D01*
X164799000Y-109319362D01*
X164799000Y-108680638D01*
X164803445Y-108635501D01*
X164814820Y-108598005D01*
X164833292Y-108563446D01*
X164858153Y-108533153D01*
X164888446Y-108508292D01*
X164923005Y-108489820D01*
X164960501Y-108478445D01*
X165005638Y-108474000D01*
X165744362Y-108474000D01*
X165789499Y-108478445D01*
X165789499Y-108478445D01*
G37*
G36*
X164039499Y-108478445D02*
G01*
X164076995Y-108489820D01*
X164111554Y-108508292D01*
X164141847Y-108533153D01*
X164166708Y-108563446D01*
X164185180Y-108598005D01*
X164196555Y-108635501D01*
X164201000Y-108680638D01*
X164201000Y-109319362D01*
X164196555Y-109364499D01*
X164185180Y-109401995D01*
X164166708Y-109436554D01*
X164141847Y-109466847D01*
X164111554Y-109491708D01*
X164076995Y-109510180D01*
X164039499Y-109521555D01*
X163994362Y-109526000D01*
X163255638Y-109526000D01*
X163210501Y-109521555D01*
X163173005Y-109510180D01*
X163138446Y-109491708D01*
X163108153Y-109466847D01*
X163083292Y-109436554D01*
X163064820Y-109401995D01*
X163053445Y-109364499D01*
X163049000Y-109319362D01*
X163049000Y-108680638D01*
X163053445Y-108635501D01*
X163064820Y-108598005D01*
X163083292Y-108563446D01*
X163108153Y-108533153D01*
X163138446Y-108508292D01*
X163173005Y-108489820D01*
X163210501Y-108478445D01*
X163255638Y-108474000D01*
X163994362Y-108474000D01*
X164039499Y-108478445D01*
X164039499Y-108478445D01*
G37*
G36*
X111293797Y-107358153D02*
G01*
X111406032Y-107369207D01*
X111604146Y-107429305D01*
X111604149Y-107429306D01*
X111641199Y-107449110D01*
X111786729Y-107526897D01*
X111946765Y-107658235D01*
X112078103Y-107818271D01*
X112081165Y-107824000D01*
X112175694Y-108000851D01*
X112175695Y-108000854D01*
X112235793Y-108198968D01*
X112256085Y-108405000D01*
X112235793Y-108611032D01*
X112189693Y-108763000D01*
X112175694Y-108809149D01*
X112126067Y-108901995D01*
X112078103Y-108991729D01*
X111946765Y-109151765D01*
X111786729Y-109283103D01*
X111728346Y-109314309D01*
X111604149Y-109380694D01*
X111604146Y-109380695D01*
X111406032Y-109440793D01*
X111323018Y-109448969D01*
X111251631Y-109456000D01*
X109648369Y-109456000D01*
X109576982Y-109448969D01*
X109493968Y-109440793D01*
X109295854Y-109380695D01*
X109295851Y-109380694D01*
X109171654Y-109314309D01*
X109113271Y-109283103D01*
X108953235Y-109151765D01*
X108821897Y-108991729D01*
X108773933Y-108901995D01*
X108724306Y-108809149D01*
X108710307Y-108763000D01*
X108664207Y-108611032D01*
X108643915Y-108405000D01*
X108664207Y-108198968D01*
X108724305Y-108000854D01*
X108724306Y-108000851D01*
X108818835Y-107824000D01*
X108821897Y-107818271D01*
X108953235Y-107658235D01*
X109113271Y-107526897D01*
X109258801Y-107449110D01*
X109295851Y-107429306D01*
X109295854Y-107429305D01*
X109493968Y-107369207D01*
X109606203Y-107358153D01*
X109648369Y-107354000D01*
X111251631Y-107354000D01*
X111293797Y-107358153D01*
X111293797Y-107358153D01*
G37*
G36*
X151789499Y-107978445D02*
G01*
X151826995Y-107989820D01*
X151861554Y-108008292D01*
X151891847Y-108033153D01*
X151916708Y-108063446D01*
X151935180Y-108098005D01*
X151946555Y-108135501D01*
X151951000Y-108180638D01*
X151951000Y-108819362D01*
X151946555Y-108864499D01*
X151935180Y-108901995D01*
X151916708Y-108936554D01*
X151891847Y-108966847D01*
X151861554Y-108991708D01*
X151826995Y-109010180D01*
X151789499Y-109021555D01*
X151744362Y-109026000D01*
X151005638Y-109026000D01*
X150960501Y-109021555D01*
X150923005Y-109010180D01*
X150888446Y-108991708D01*
X150858153Y-108966847D01*
X150833292Y-108936554D01*
X150814820Y-108901995D01*
X150803445Y-108864499D01*
X150799000Y-108819362D01*
X150799000Y-108180638D01*
X150803445Y-108135501D01*
X150814820Y-108098005D01*
X150833292Y-108063446D01*
X150858153Y-108033153D01*
X150888446Y-108008292D01*
X150923005Y-107989820D01*
X150960501Y-107978445D01*
X151005638Y-107974000D01*
X151744362Y-107974000D01*
X151789499Y-107978445D01*
X151789499Y-107978445D01*
G37*
G36*
X150039499Y-107978445D02*
G01*
X150076995Y-107989820D01*
X150111554Y-108008292D01*
X150141847Y-108033153D01*
X150166708Y-108063446D01*
X150185180Y-108098005D01*
X150196555Y-108135501D01*
X150201000Y-108180638D01*
X150201000Y-108819362D01*
X150196555Y-108864499D01*
X150185180Y-108901995D01*
X150166708Y-108936554D01*
X150141847Y-108966847D01*
X150111554Y-108991708D01*
X150076995Y-109010180D01*
X150039499Y-109021555D01*
X149994362Y-109026000D01*
X149255638Y-109026000D01*
X149210501Y-109021555D01*
X149173005Y-109010180D01*
X149138446Y-108991708D01*
X149108153Y-108966847D01*
X149083292Y-108936554D01*
X149064820Y-108901995D01*
X149053445Y-108864499D01*
X149049000Y-108819362D01*
X149049000Y-108180638D01*
X149053445Y-108135501D01*
X149064820Y-108098005D01*
X149083292Y-108063446D01*
X149108153Y-108033153D01*
X149138446Y-108008292D01*
X149173005Y-107989820D01*
X149210501Y-107978445D01*
X149255638Y-107974000D01*
X149994362Y-107974000D01*
X150039499Y-107978445D01*
X150039499Y-107978445D01*
G37*
G36*
X126364499Y-107303445D02*
G01*
X126401995Y-107314820D01*
X126436554Y-107333292D01*
X126466847Y-107358153D01*
X126491708Y-107388446D01*
X126510180Y-107423005D01*
X126521555Y-107460501D01*
X126526000Y-107505638D01*
X126526000Y-108244362D01*
X126521555Y-108289499D01*
X126510180Y-108326995D01*
X126491708Y-108361554D01*
X126466847Y-108391847D01*
X126436554Y-108416708D01*
X126401995Y-108435180D01*
X126364499Y-108446555D01*
X126319362Y-108451000D01*
X125680638Y-108451000D01*
X125635501Y-108446555D01*
X125598005Y-108435180D01*
X125563446Y-108416708D01*
X125533153Y-108391847D01*
X125508292Y-108361554D01*
X125489820Y-108326995D01*
X125478445Y-108289499D01*
X125474000Y-108244362D01*
X125474000Y-107505638D01*
X125478445Y-107460501D01*
X125489820Y-107423005D01*
X125508292Y-107388446D01*
X125533153Y-107358153D01*
X125563446Y-107333292D01*
X125598005Y-107314820D01*
X125635501Y-107303445D01*
X125680638Y-107299000D01*
X126319362Y-107299000D01*
X126364499Y-107303445D01*
X126364499Y-107303445D01*
G37*
G36*
X202258639Y-106360170D02*
G01*
X202382573Y-106411505D01*
X202382574Y-106411506D01*
X202494112Y-106486033D01*
X202588967Y-106580888D01*
X202600404Y-106598005D01*
X202663495Y-106692427D01*
X202714830Y-106816361D01*
X202741000Y-106947926D01*
X202741000Y-107082074D01*
X202714830Y-107213639D01*
X202663495Y-107337573D01*
X202642358Y-107369207D01*
X202588967Y-107449112D01*
X202494112Y-107543967D01*
X202437964Y-107581484D01*
X202382573Y-107618495D01*
X202258639Y-107669830D01*
X202127074Y-107696000D01*
X201992926Y-107696000D01*
X201861361Y-107669830D01*
X201737427Y-107618495D01*
X201682036Y-107581484D01*
X201625888Y-107543967D01*
X201531033Y-107449112D01*
X201477642Y-107369207D01*
X201456505Y-107337573D01*
X201405170Y-107213639D01*
X201379000Y-107082074D01*
X201379000Y-106947926D01*
X201405170Y-106816361D01*
X201456505Y-106692427D01*
X201519596Y-106598005D01*
X201531033Y-106580888D01*
X201625888Y-106486033D01*
X201737426Y-106411506D01*
X201737427Y-106411505D01*
X201861361Y-106360170D01*
X201992926Y-106334000D01*
X202127074Y-106334000D01*
X202258639Y-106360170D01*
X202258639Y-106360170D01*
G37*
G36*
X199718639Y-106360170D02*
G01*
X199842573Y-106411505D01*
X199842574Y-106411506D01*
X199954112Y-106486033D01*
X200048967Y-106580888D01*
X200060404Y-106598005D01*
X200123495Y-106692427D01*
X200174830Y-106816361D01*
X200201000Y-106947926D01*
X200201000Y-107082074D01*
X200174830Y-107213639D01*
X200123495Y-107337573D01*
X200102358Y-107369207D01*
X200048967Y-107449112D01*
X199954112Y-107543967D01*
X199897964Y-107581484D01*
X199842573Y-107618495D01*
X199718639Y-107669830D01*
X199587074Y-107696000D01*
X199452926Y-107696000D01*
X199321361Y-107669830D01*
X199197427Y-107618495D01*
X199142036Y-107581484D01*
X199085888Y-107543967D01*
X198991033Y-107449112D01*
X198937642Y-107369207D01*
X198916505Y-107337573D01*
X198865170Y-107213639D01*
X198839000Y-107082074D01*
X198839000Y-106947926D01*
X198865170Y-106816361D01*
X198916505Y-106692427D01*
X198979596Y-106598005D01*
X198991033Y-106580888D01*
X199085888Y-106486033D01*
X199197426Y-106411506D01*
X199197427Y-106411505D01*
X199321361Y-106360170D01*
X199452926Y-106334000D01*
X199587074Y-106334000D01*
X199718639Y-106360170D01*
X199718639Y-106360170D01*
G37*
G36*
X116353097Y-105454069D02*
G01*
X116456032Y-105464207D01*
X116654146Y-105524305D01*
X116654149Y-105524306D01*
X116740934Y-105570694D01*
X116836729Y-105621897D01*
X116996765Y-105753235D01*
X117128103Y-105913271D01*
X117173939Y-105999025D01*
X117225694Y-106095851D01*
X117225695Y-106095854D01*
X117285793Y-106293968D01*
X117306085Y-106500000D01*
X117285793Y-106706032D01*
X117249099Y-106826995D01*
X117225694Y-106904149D01*
X117173939Y-107000975D01*
X117128103Y-107086729D01*
X116996765Y-107246765D01*
X116836729Y-107378103D01*
X116778709Y-107409115D01*
X116654149Y-107475694D01*
X116654146Y-107475695D01*
X116456032Y-107535793D01*
X116373028Y-107543968D01*
X116301631Y-107551000D01*
X114698369Y-107551000D01*
X114626972Y-107543968D01*
X114543968Y-107535793D01*
X114345854Y-107475695D01*
X114345851Y-107475694D01*
X114221291Y-107409115D01*
X114163271Y-107378103D01*
X114003235Y-107246765D01*
X113871897Y-107086729D01*
X113826061Y-107000975D01*
X113774306Y-106904149D01*
X113750901Y-106826995D01*
X113714207Y-106706032D01*
X113693915Y-106500000D01*
X113714207Y-106293968D01*
X113774305Y-106095854D01*
X113774306Y-106095851D01*
X113826061Y-105999025D01*
X113871897Y-105913271D01*
X114003235Y-105753235D01*
X114163271Y-105621897D01*
X114259066Y-105570694D01*
X114345851Y-105524306D01*
X114345854Y-105524305D01*
X114543968Y-105464207D01*
X114646903Y-105454069D01*
X114698369Y-105449000D01*
X116301631Y-105449000D01*
X116353097Y-105454069D01*
X116353097Y-105454069D01*
G37*
G36*
X165789499Y-106478445D02*
G01*
X165826995Y-106489820D01*
X165861554Y-106508292D01*
X165891847Y-106533153D01*
X165916708Y-106563446D01*
X165935180Y-106598005D01*
X165946555Y-106635501D01*
X165951000Y-106680638D01*
X165951000Y-107319362D01*
X165946555Y-107364499D01*
X165935180Y-107401995D01*
X165916708Y-107436554D01*
X165891847Y-107466847D01*
X165861554Y-107491708D01*
X165826995Y-107510180D01*
X165789499Y-107521555D01*
X165744362Y-107526000D01*
X165005638Y-107526000D01*
X164960501Y-107521555D01*
X164923005Y-107510180D01*
X164888446Y-107491708D01*
X164858153Y-107466847D01*
X164833292Y-107436554D01*
X164814820Y-107401995D01*
X164803445Y-107364499D01*
X164799000Y-107319362D01*
X164799000Y-106680638D01*
X164803445Y-106635501D01*
X164814820Y-106598005D01*
X164833292Y-106563446D01*
X164858153Y-106533153D01*
X164888446Y-106508292D01*
X164923005Y-106489820D01*
X164960501Y-106478445D01*
X165005638Y-106474000D01*
X165744362Y-106474000D01*
X165789499Y-106478445D01*
X165789499Y-106478445D01*
G37*
G36*
X164039499Y-106478445D02*
G01*
X164076995Y-106489820D01*
X164111554Y-106508292D01*
X164141847Y-106533153D01*
X164166708Y-106563446D01*
X164185180Y-106598005D01*
X164196555Y-106635501D01*
X164201000Y-106680638D01*
X164201000Y-107319362D01*
X164196555Y-107364499D01*
X164185180Y-107401995D01*
X164166708Y-107436554D01*
X164141847Y-107466847D01*
X164111554Y-107491708D01*
X164076995Y-107510180D01*
X164039499Y-107521555D01*
X163994362Y-107526000D01*
X163255638Y-107526000D01*
X163210501Y-107521555D01*
X163173005Y-107510180D01*
X163138446Y-107491708D01*
X163108153Y-107466847D01*
X163083292Y-107436554D01*
X163064820Y-107401995D01*
X163053445Y-107364499D01*
X163049000Y-107319362D01*
X163049000Y-106680638D01*
X163053445Y-106635501D01*
X163064820Y-106598005D01*
X163083292Y-106563446D01*
X163108153Y-106533153D01*
X163138446Y-106508292D01*
X163173005Y-106489820D01*
X163210501Y-106478445D01*
X163255638Y-106474000D01*
X163994362Y-106474000D01*
X164039499Y-106478445D01*
X164039499Y-106478445D01*
G37*
G36*
X148822798Y-105353247D02*
G01*
X148858367Y-105364037D01*
X148891139Y-105381554D01*
X148919869Y-105405131D01*
X148943446Y-105433861D01*
X148960963Y-105466633D01*
X148971753Y-105502202D01*
X148976000Y-105545325D01*
X148976000Y-106829675D01*
X148971753Y-106872798D01*
X148960963Y-106908367D01*
X148943446Y-106941139D01*
X148919869Y-106969869D01*
X148891139Y-106993446D01*
X148858367Y-107010963D01*
X148822798Y-107021753D01*
X148779675Y-107026000D01*
X147720325Y-107026000D01*
X147677202Y-107021753D01*
X147641633Y-107010963D01*
X147608861Y-106993446D01*
X147580131Y-106969869D01*
X147556554Y-106941139D01*
X147539037Y-106908367D01*
X147528247Y-106872798D01*
X147524000Y-106829675D01*
X147524000Y-105545325D01*
X147528247Y-105502202D01*
X147539037Y-105466633D01*
X147556554Y-105433861D01*
X147580131Y-105405131D01*
X147608861Y-105381554D01*
X147641633Y-105364037D01*
X147677202Y-105353247D01*
X147720325Y-105349000D01*
X148779675Y-105349000D01*
X148822798Y-105353247D01*
X148822798Y-105353247D01*
G37*
G36*
X152864499Y-105803445D02*
G01*
X152901995Y-105814820D01*
X152936554Y-105833292D01*
X152966847Y-105858153D01*
X152991708Y-105888446D01*
X153010180Y-105923005D01*
X153021555Y-105960501D01*
X153026000Y-106005638D01*
X153026000Y-106744362D01*
X153021555Y-106789499D01*
X153010180Y-106826995D01*
X152991708Y-106861554D01*
X152966847Y-106891847D01*
X152936554Y-106916708D01*
X152901995Y-106935180D01*
X152864499Y-106946555D01*
X152819362Y-106951000D01*
X152180638Y-106951000D01*
X152135501Y-106946555D01*
X152098005Y-106935180D01*
X152063446Y-106916708D01*
X152033153Y-106891847D01*
X152008292Y-106861554D01*
X151989820Y-106826995D01*
X151978445Y-106789499D01*
X151974000Y-106744362D01*
X151974000Y-106005638D01*
X151978445Y-105960501D01*
X151989820Y-105923005D01*
X152008292Y-105888446D01*
X152033153Y-105858153D01*
X152063446Y-105833292D01*
X152098005Y-105814820D01*
X152135501Y-105803445D01*
X152180638Y-105799000D01*
X152819362Y-105799000D01*
X152864499Y-105803445D01*
X152864499Y-105803445D01*
G37*
G36*
X150864499Y-105803445D02*
G01*
X150901995Y-105814820D01*
X150936554Y-105833292D01*
X150966847Y-105858153D01*
X150991708Y-105888446D01*
X151010180Y-105923005D01*
X151021555Y-105960501D01*
X151026000Y-106005638D01*
X151026000Y-106744362D01*
X151021555Y-106789499D01*
X151010180Y-106826995D01*
X150991708Y-106861554D01*
X150966847Y-106891847D01*
X150936554Y-106916708D01*
X150901995Y-106935180D01*
X150864499Y-106946555D01*
X150819362Y-106951000D01*
X150180638Y-106951000D01*
X150135501Y-106946555D01*
X150098005Y-106935180D01*
X150063446Y-106916708D01*
X150033153Y-106891847D01*
X150008292Y-106861554D01*
X149989820Y-106826995D01*
X149978445Y-106789499D01*
X149974000Y-106744362D01*
X149974000Y-106005638D01*
X149978445Y-105960501D01*
X149989820Y-105923005D01*
X150008292Y-105888446D01*
X150033153Y-105858153D01*
X150063446Y-105833292D01*
X150098005Y-105814820D01*
X150135501Y-105803445D01*
X150180638Y-105799000D01*
X150819362Y-105799000D01*
X150864499Y-105803445D01*
X150864499Y-105803445D01*
G37*
G36*
X126364499Y-105553445D02*
G01*
X126401995Y-105564820D01*
X126436554Y-105583292D01*
X126466847Y-105608153D01*
X126491708Y-105638446D01*
X126510180Y-105673005D01*
X126521555Y-105710501D01*
X126526000Y-105755638D01*
X126526000Y-106494362D01*
X126521555Y-106539499D01*
X126510180Y-106576995D01*
X126491708Y-106611554D01*
X126466847Y-106641847D01*
X126436554Y-106666708D01*
X126401995Y-106685180D01*
X126364499Y-106696555D01*
X126319362Y-106701000D01*
X125680638Y-106701000D01*
X125635501Y-106696555D01*
X125598005Y-106685180D01*
X125563446Y-106666708D01*
X125533153Y-106641847D01*
X125508292Y-106611554D01*
X125489820Y-106576995D01*
X125478445Y-106539499D01*
X125474000Y-106494362D01*
X125474000Y-105755638D01*
X125478445Y-105710501D01*
X125489820Y-105673005D01*
X125508292Y-105638446D01*
X125533153Y-105608153D01*
X125563446Y-105583292D01*
X125598005Y-105564820D01*
X125635501Y-105553445D01*
X125680638Y-105549000D01*
X126319362Y-105549000D01*
X126364499Y-105553445D01*
X126364499Y-105553445D01*
G37*
G36*
X203528639Y-105090170D02*
G01*
X203652573Y-105141505D01*
X203674266Y-105156000D01*
X203764112Y-105216033D01*
X203858967Y-105310888D01*
X203887270Y-105353247D01*
X203933495Y-105422427D01*
X203984830Y-105546361D01*
X204011000Y-105677926D01*
X204011000Y-105812074D01*
X203984830Y-105943639D01*
X203933495Y-106067573D01*
X203933494Y-106067574D01*
X203858967Y-106179112D01*
X203764112Y-106273967D01*
X203734178Y-106293968D01*
X203652573Y-106348495D01*
X203528639Y-106399830D01*
X203397074Y-106426000D01*
X203262926Y-106426000D01*
X203131361Y-106399830D01*
X203007427Y-106348495D01*
X202925822Y-106293968D01*
X202895888Y-106273967D01*
X202801033Y-106179112D01*
X202726506Y-106067574D01*
X202726505Y-106067573D01*
X202675170Y-105943639D01*
X202649000Y-105812074D01*
X202649000Y-105677926D01*
X202675170Y-105546361D01*
X202726505Y-105422427D01*
X202772730Y-105353247D01*
X202801033Y-105310888D01*
X202895888Y-105216033D01*
X202985734Y-105156000D01*
X203007427Y-105141505D01*
X203131361Y-105090170D01*
X203262926Y-105064000D01*
X203397074Y-105064000D01*
X203528639Y-105090170D01*
X203528639Y-105090170D01*
G37*
G36*
X198448639Y-105090170D02*
G01*
X198572573Y-105141505D01*
X198594266Y-105156000D01*
X198684112Y-105216033D01*
X198778967Y-105310888D01*
X198807270Y-105353247D01*
X198853495Y-105422427D01*
X198904830Y-105546361D01*
X198931000Y-105677926D01*
X198931000Y-105812074D01*
X198904830Y-105943639D01*
X198853495Y-106067573D01*
X198853494Y-106067574D01*
X198778967Y-106179112D01*
X198684112Y-106273967D01*
X198654178Y-106293968D01*
X198572573Y-106348495D01*
X198448639Y-106399830D01*
X198317074Y-106426000D01*
X198182926Y-106426000D01*
X198051361Y-106399830D01*
X197927427Y-106348495D01*
X197845822Y-106293968D01*
X197815888Y-106273967D01*
X197721033Y-106179112D01*
X197646506Y-106067574D01*
X197646505Y-106067573D01*
X197595170Y-105943639D01*
X197569000Y-105812074D01*
X197569000Y-105677926D01*
X197595170Y-105546361D01*
X197646505Y-105422427D01*
X197692730Y-105353247D01*
X197721033Y-105310888D01*
X197815888Y-105216033D01*
X197905734Y-105156000D01*
X197927427Y-105141505D01*
X198051361Y-105090170D01*
X198182926Y-105064000D01*
X198317074Y-105064000D01*
X198448639Y-105090170D01*
X198448639Y-105090170D01*
G37*
G36*
X206379487Y-103223996D02*
G01*
X206616253Y-103322068D01*
X206616255Y-103322069D01*
X206829339Y-103464447D01*
X207010553Y-103645661D01*
X207131052Y-103826000D01*
X207152932Y-103858747D01*
X207251004Y-104095513D01*
X207301000Y-104346861D01*
X207301000Y-104603139D01*
X207251004Y-104854487D01*
X207153380Y-105090171D01*
X207152931Y-105091255D01*
X207010553Y-105304339D01*
X206829339Y-105485553D01*
X206616255Y-105627931D01*
X206616254Y-105627932D01*
X206616253Y-105627932D01*
X206379487Y-105726004D01*
X206128139Y-105776000D01*
X205871861Y-105776000D01*
X205620513Y-105726004D01*
X205383747Y-105627932D01*
X205383746Y-105627932D01*
X205383745Y-105627931D01*
X205170661Y-105485553D01*
X204989447Y-105304339D01*
X204847069Y-105091255D01*
X204846620Y-105090171D01*
X204748996Y-104854487D01*
X204699000Y-104603139D01*
X204699000Y-104346861D01*
X204748996Y-104095513D01*
X204847068Y-103858747D01*
X204868949Y-103826000D01*
X204989447Y-103645661D01*
X205170661Y-103464447D01*
X205383745Y-103322069D01*
X205383747Y-103322068D01*
X205620513Y-103223996D01*
X205871861Y-103174000D01*
X206128139Y-103174000D01*
X206379487Y-103223996D01*
X206379487Y-103223996D01*
G37*
G36*
X111303097Y-103549069D02*
G01*
X111406032Y-103559207D01*
X111604146Y-103619305D01*
X111604149Y-103619306D01*
X111653455Y-103645661D01*
X111786729Y-103716897D01*
X111946765Y-103848235D01*
X112078103Y-104008271D01*
X112118202Y-104083292D01*
X112175694Y-104190851D01*
X112175695Y-104190854D01*
X112235793Y-104388968D01*
X112256085Y-104595000D01*
X112235793Y-104801032D01*
X112178679Y-104989309D01*
X112175694Y-104999149D01*
X112173118Y-105003968D01*
X112078103Y-105181729D01*
X111946765Y-105341765D01*
X111786729Y-105473103D01*
X111732288Y-105502202D01*
X111604149Y-105570694D01*
X111604146Y-105570695D01*
X111406032Y-105630793D01*
X111328328Y-105638446D01*
X111251631Y-105646000D01*
X109648369Y-105646000D01*
X109571672Y-105638446D01*
X109493968Y-105630793D01*
X109295854Y-105570695D01*
X109295851Y-105570694D01*
X109167712Y-105502202D01*
X109113271Y-105473103D01*
X108953235Y-105341765D01*
X108821897Y-105181729D01*
X108726882Y-105003968D01*
X108724306Y-104999149D01*
X108721321Y-104989309D01*
X108664207Y-104801032D01*
X108643915Y-104595000D01*
X108664207Y-104388968D01*
X108724305Y-104190854D01*
X108724306Y-104190851D01*
X108781798Y-104083292D01*
X108821897Y-104008271D01*
X108953235Y-103848235D01*
X109113271Y-103716897D01*
X109246545Y-103645661D01*
X109295851Y-103619306D01*
X109295854Y-103619305D01*
X109493968Y-103559207D01*
X109596903Y-103549069D01*
X109648369Y-103544000D01*
X111251631Y-103544000D01*
X111303097Y-103549069D01*
X111303097Y-103549069D01*
G37*
G36*
X150864499Y-104053445D02*
G01*
X150901995Y-104064820D01*
X150936554Y-104083292D01*
X150966847Y-104108153D01*
X150991708Y-104138446D01*
X151010180Y-104173005D01*
X151021555Y-104210501D01*
X151026000Y-104255638D01*
X151026000Y-104994362D01*
X151021555Y-105039499D01*
X151010180Y-105076995D01*
X150991708Y-105111554D01*
X150966847Y-105141847D01*
X150936554Y-105166708D01*
X150901995Y-105185180D01*
X150864499Y-105196555D01*
X150819362Y-105201000D01*
X150180638Y-105201000D01*
X150135501Y-105196555D01*
X150098005Y-105185180D01*
X150063446Y-105166708D01*
X150033153Y-105141847D01*
X150008292Y-105111554D01*
X149989820Y-105076995D01*
X149978445Y-105039499D01*
X149974000Y-104994362D01*
X149974000Y-104255638D01*
X149978445Y-104210501D01*
X149989820Y-104173005D01*
X150008292Y-104138446D01*
X150033153Y-104108153D01*
X150063446Y-104083292D01*
X150098005Y-104064820D01*
X150135501Y-104053445D01*
X150180638Y-104049000D01*
X150819362Y-104049000D01*
X150864499Y-104053445D01*
X150864499Y-104053445D01*
G37*
G36*
X152864499Y-104053445D02*
G01*
X152901995Y-104064820D01*
X152936554Y-104083292D01*
X152966847Y-104108153D01*
X152991708Y-104138446D01*
X153010180Y-104173005D01*
X153021555Y-104210501D01*
X153026000Y-104255638D01*
X153026000Y-104994362D01*
X153021555Y-105039499D01*
X153010180Y-105076995D01*
X152991708Y-105111554D01*
X152966847Y-105141847D01*
X152936554Y-105166708D01*
X152901995Y-105185180D01*
X152864499Y-105196555D01*
X152819362Y-105201000D01*
X152180638Y-105201000D01*
X152135501Y-105196555D01*
X152098005Y-105185180D01*
X152063446Y-105166708D01*
X152033153Y-105141847D01*
X152008292Y-105111554D01*
X151989820Y-105076995D01*
X151978445Y-105039499D01*
X151974000Y-104994362D01*
X151974000Y-104255638D01*
X151978445Y-104210501D01*
X151989820Y-104173005D01*
X152008292Y-104138446D01*
X152033153Y-104108153D01*
X152063446Y-104083292D01*
X152098005Y-104064820D01*
X152135501Y-104053445D01*
X152180638Y-104049000D01*
X152819362Y-104049000D01*
X152864499Y-104053445D01*
X152864499Y-104053445D01*
G37*
G36*
X202258639Y-103820170D02*
G01*
X202382573Y-103871505D01*
X202382574Y-103871506D01*
X202494112Y-103946033D01*
X202588967Y-104040888D01*
X202604958Y-104064820D01*
X202663495Y-104152427D01*
X202714830Y-104276361D01*
X202741000Y-104407926D01*
X202741000Y-104542074D01*
X202714830Y-104673639D01*
X202663495Y-104797573D01*
X202626484Y-104852964D01*
X202588967Y-104909112D01*
X202494112Y-105003967D01*
X202442211Y-105038646D01*
X202382573Y-105078495D01*
X202258639Y-105129830D01*
X202127074Y-105156000D01*
X201992926Y-105156000D01*
X201861361Y-105129830D01*
X201737427Y-105078495D01*
X201677789Y-105038646D01*
X201625888Y-105003967D01*
X201531033Y-104909112D01*
X201493516Y-104852964D01*
X201456505Y-104797573D01*
X201405170Y-104673639D01*
X201379000Y-104542074D01*
X201379000Y-104407926D01*
X201405170Y-104276361D01*
X201456505Y-104152427D01*
X201515042Y-104064820D01*
X201531033Y-104040888D01*
X201625888Y-103946033D01*
X201737426Y-103871506D01*
X201737427Y-103871505D01*
X201861361Y-103820170D01*
X201992926Y-103794000D01*
X202127074Y-103794000D01*
X202258639Y-103820170D01*
X202258639Y-103820170D01*
G37*
G36*
X199718639Y-103820170D02*
G01*
X199842573Y-103871505D01*
X199842574Y-103871506D01*
X199954112Y-103946033D01*
X200048967Y-104040888D01*
X200064958Y-104064820D01*
X200123495Y-104152427D01*
X200174830Y-104276361D01*
X200201000Y-104407926D01*
X200201000Y-104542074D01*
X200174830Y-104673639D01*
X200123495Y-104797573D01*
X200086484Y-104852964D01*
X200048967Y-104909112D01*
X199954112Y-105003967D01*
X199902211Y-105038646D01*
X199842573Y-105078495D01*
X199718639Y-105129830D01*
X199587074Y-105156000D01*
X199452926Y-105156000D01*
X199321361Y-105129830D01*
X199197427Y-105078495D01*
X199137789Y-105038646D01*
X199085888Y-105003967D01*
X198991033Y-104909112D01*
X198953516Y-104852964D01*
X198916505Y-104797573D01*
X198865170Y-104673639D01*
X198839000Y-104542074D01*
X198839000Y-104407926D01*
X198865170Y-104276361D01*
X198916505Y-104152427D01*
X198975042Y-104064820D01*
X198991033Y-104040888D01*
X199085888Y-103946033D01*
X199197426Y-103871506D01*
X199197427Y-103871505D01*
X199321361Y-103820170D01*
X199452926Y-103794000D01*
X199587074Y-103794000D01*
X199718639Y-103820170D01*
X199718639Y-103820170D01*
G37*
G36*
X148822798Y-102478247D02*
G01*
X148858367Y-102489037D01*
X148891139Y-102506554D01*
X148919869Y-102530131D01*
X148943446Y-102558861D01*
X148960963Y-102591633D01*
X148971753Y-102627202D01*
X148976000Y-102670325D01*
X148976000Y-103954675D01*
X148971753Y-103997798D01*
X148960963Y-104033367D01*
X148943446Y-104066139D01*
X148919869Y-104094869D01*
X148891139Y-104118446D01*
X148858367Y-104135963D01*
X148822798Y-104146753D01*
X148779675Y-104151000D01*
X147720325Y-104151000D01*
X147677202Y-104146753D01*
X147641633Y-104135963D01*
X147608861Y-104118446D01*
X147580131Y-104094869D01*
X147556554Y-104066139D01*
X147539037Y-104033367D01*
X147528247Y-103997798D01*
X147524000Y-103954675D01*
X147524000Y-102670325D01*
X147528247Y-102627202D01*
X147539037Y-102591633D01*
X147556554Y-102558861D01*
X147580131Y-102530131D01*
X147608861Y-102506554D01*
X147641633Y-102489037D01*
X147677202Y-102478247D01*
X147720325Y-102474000D01*
X148779675Y-102474000D01*
X148822798Y-102478247D01*
X148822798Y-102478247D01*
G37*
G36*
X116353097Y-101644069D02*
G01*
X116456032Y-101654207D01*
X116654146Y-101714305D01*
X116654149Y-101714306D01*
X116740934Y-101760694D01*
X116836729Y-101811897D01*
X116996765Y-101943235D01*
X117128103Y-102103271D01*
X117173939Y-102189025D01*
X117225694Y-102285851D01*
X117225695Y-102285854D01*
X117285793Y-102483968D01*
X117306085Y-102690000D01*
X117285793Y-102896032D01*
X117225695Y-103094146D01*
X117225694Y-103094149D01*
X117173939Y-103190975D01*
X117128103Y-103276729D01*
X116996765Y-103436765D01*
X116836729Y-103568103D01*
X116750975Y-103613939D01*
X116654149Y-103665694D01*
X116654146Y-103665695D01*
X116456032Y-103725793D01*
X116353097Y-103735931D01*
X116301631Y-103741000D01*
X114698369Y-103741000D01*
X114646903Y-103735931D01*
X114543968Y-103725793D01*
X114345854Y-103665695D01*
X114345851Y-103665694D01*
X114249025Y-103613939D01*
X114163271Y-103568103D01*
X114003235Y-103436765D01*
X113871897Y-103276729D01*
X113826061Y-103190975D01*
X113774306Y-103094149D01*
X113774305Y-103094146D01*
X113714207Y-102896032D01*
X113693915Y-102690000D01*
X113714207Y-102483968D01*
X113774305Y-102285854D01*
X113774306Y-102285851D01*
X113826061Y-102189025D01*
X113871897Y-102103271D01*
X114003235Y-101943235D01*
X114163271Y-101811897D01*
X114259066Y-101760694D01*
X114345851Y-101714306D01*
X114345854Y-101714305D01*
X114543968Y-101654207D01*
X114646903Y-101644069D01*
X114698369Y-101639000D01*
X116301631Y-101639000D01*
X116353097Y-101644069D01*
X116353097Y-101644069D01*
G37*
G36*
X111303097Y-99739069D02*
G01*
X111406032Y-99749207D01*
X111604146Y-99809305D01*
X111604149Y-99809306D01*
X111690934Y-99855694D01*
X111786729Y-99906897D01*
X111946765Y-100038235D01*
X112078103Y-100198271D01*
X112123939Y-100284025D01*
X112175694Y-100380851D01*
X112175695Y-100380854D01*
X112235793Y-100578968D01*
X112256085Y-100785000D01*
X112235793Y-100991032D01*
X112205297Y-101091563D01*
X112175694Y-101189149D01*
X112130607Y-101273500D01*
X112078103Y-101371729D01*
X111946765Y-101531765D01*
X111786729Y-101663103D01*
X111700975Y-101708939D01*
X111604149Y-101760694D01*
X111604146Y-101760695D01*
X111406032Y-101820793D01*
X111303097Y-101830931D01*
X111251631Y-101836000D01*
X109648369Y-101836000D01*
X109596903Y-101830931D01*
X109493968Y-101820793D01*
X109295854Y-101760695D01*
X109295851Y-101760694D01*
X109199025Y-101708939D01*
X109113271Y-101663103D01*
X108953235Y-101531765D01*
X108821897Y-101371729D01*
X108769393Y-101273500D01*
X108724306Y-101189149D01*
X108694703Y-101091563D01*
X108664207Y-100991032D01*
X108643915Y-100785000D01*
X108664207Y-100578968D01*
X108724305Y-100380854D01*
X108724306Y-100380851D01*
X108776061Y-100284025D01*
X108821897Y-100198271D01*
X108953235Y-100038235D01*
X109113271Y-99906897D01*
X109209066Y-99855694D01*
X109295851Y-99809306D01*
X109295854Y-99809305D01*
X109493968Y-99749207D01*
X109596903Y-99739069D01*
X109648369Y-99734000D01*
X111251631Y-99734000D01*
X111303097Y-99739069D01*
X111303097Y-99739069D01*
G37*
G36*
X150039499Y-100478445D02*
G01*
X150076995Y-100489820D01*
X150111554Y-100508292D01*
X150141847Y-100533153D01*
X150166708Y-100563446D01*
X150185180Y-100598005D01*
X150196555Y-100635501D01*
X150201000Y-100680638D01*
X150201000Y-101319362D01*
X150196555Y-101364499D01*
X150185180Y-101401995D01*
X150166708Y-101436554D01*
X150141847Y-101466847D01*
X150111554Y-101491708D01*
X150076995Y-101510180D01*
X150039499Y-101521555D01*
X149994362Y-101526000D01*
X149255638Y-101526000D01*
X149210501Y-101521555D01*
X149173005Y-101510180D01*
X149138446Y-101491708D01*
X149108153Y-101466847D01*
X149083292Y-101436554D01*
X149064820Y-101401995D01*
X149053445Y-101364499D01*
X149049000Y-101319362D01*
X149049000Y-100680638D01*
X149053445Y-100635501D01*
X149064820Y-100598005D01*
X149083292Y-100563446D01*
X149108153Y-100533153D01*
X149138446Y-100508292D01*
X149173005Y-100489820D01*
X149210501Y-100478445D01*
X149255638Y-100474000D01*
X149994362Y-100474000D01*
X150039499Y-100478445D01*
X150039499Y-100478445D01*
G37*
G36*
X151789499Y-100478445D02*
G01*
X151826995Y-100489820D01*
X151861554Y-100508292D01*
X151891847Y-100533153D01*
X151916708Y-100563446D01*
X151935180Y-100598005D01*
X151946555Y-100635501D01*
X151951000Y-100680638D01*
X151951000Y-101319362D01*
X151946555Y-101364499D01*
X151935180Y-101401995D01*
X151916708Y-101436554D01*
X151891847Y-101466847D01*
X151861554Y-101491708D01*
X151826995Y-101510180D01*
X151789499Y-101521555D01*
X151744362Y-101526000D01*
X151005638Y-101526000D01*
X150960501Y-101521555D01*
X150923005Y-101510180D01*
X150888446Y-101491708D01*
X150858153Y-101466847D01*
X150833292Y-101436554D01*
X150814820Y-101401995D01*
X150803445Y-101364499D01*
X150799000Y-101319362D01*
X150799000Y-100680638D01*
X150803445Y-100635501D01*
X150814820Y-100598005D01*
X150833292Y-100563446D01*
X150858153Y-100533153D01*
X150888446Y-100508292D01*
X150923005Y-100489820D01*
X150960501Y-100478445D01*
X151005638Y-100474000D01*
X151744362Y-100474000D01*
X151789499Y-100478445D01*
X151789499Y-100478445D01*
G37*
G36*
X126364499Y-100303445D02*
G01*
X126401995Y-100314820D01*
X126436554Y-100333292D01*
X126466847Y-100358153D01*
X126491708Y-100388446D01*
X126510180Y-100423005D01*
X126521555Y-100460501D01*
X126526000Y-100505638D01*
X126526000Y-101244362D01*
X126521555Y-101289499D01*
X126510180Y-101326995D01*
X126491708Y-101361554D01*
X126466847Y-101391847D01*
X126436554Y-101416708D01*
X126401995Y-101435180D01*
X126364499Y-101446555D01*
X126319362Y-101451000D01*
X125680638Y-101451000D01*
X125635501Y-101446555D01*
X125598005Y-101435180D01*
X125563446Y-101416708D01*
X125533153Y-101391847D01*
X125508292Y-101361554D01*
X125489820Y-101326995D01*
X125478445Y-101289499D01*
X125474000Y-101244362D01*
X125474000Y-100505638D01*
X125478445Y-100460501D01*
X125489820Y-100423005D01*
X125508292Y-100388446D01*
X125533153Y-100358153D01*
X125563446Y-100333292D01*
X125598005Y-100314820D01*
X125635501Y-100303445D01*
X125680638Y-100299000D01*
X126319362Y-100299000D01*
X126364499Y-100303445D01*
X126364499Y-100303445D01*
G37*
G36*
X191321934Y-98702671D02*
G01*
X191351877Y-98711754D01*
X191379465Y-98726500D01*
X191403651Y-98746349D01*
X191423500Y-98770535D01*
X191438246Y-98798123D01*
X191447329Y-98828066D01*
X191451000Y-98865340D01*
X191451000Y-101134660D01*
X191447329Y-101171934D01*
X191438246Y-101201877D01*
X191423500Y-101229465D01*
X191403651Y-101253651D01*
X191379465Y-101273500D01*
X191351877Y-101288246D01*
X191321934Y-101297329D01*
X191284660Y-101301000D01*
X187115340Y-101301000D01*
X187078066Y-101297329D01*
X187048123Y-101288246D01*
X187020535Y-101273500D01*
X186996349Y-101253651D01*
X186976500Y-101229465D01*
X186961754Y-101201877D01*
X186952671Y-101171934D01*
X186949000Y-101134660D01*
X186949000Y-98865340D01*
X186952671Y-98828066D01*
X186961754Y-98798123D01*
X186976500Y-98770535D01*
X186996349Y-98746349D01*
X187020535Y-98726500D01*
X187048123Y-98711754D01*
X187078066Y-98702671D01*
X187115340Y-98699000D01*
X191284660Y-98699000D01*
X191321934Y-98702671D01*
X191321934Y-98702671D01*
G37*
G36*
X183921934Y-98702671D02*
G01*
X183951877Y-98711754D01*
X183979465Y-98726500D01*
X184003651Y-98746349D01*
X184023500Y-98770535D01*
X184038246Y-98798123D01*
X184047329Y-98828066D01*
X184051000Y-98865340D01*
X184051000Y-101134660D01*
X184047329Y-101171934D01*
X184038246Y-101201877D01*
X184023500Y-101229465D01*
X184003651Y-101253651D01*
X183979465Y-101273500D01*
X183951877Y-101288246D01*
X183921934Y-101297329D01*
X183884660Y-101301000D01*
X179715340Y-101301000D01*
X179678066Y-101297329D01*
X179648123Y-101288246D01*
X179620535Y-101273500D01*
X179596349Y-101253651D01*
X179576500Y-101229465D01*
X179561754Y-101201877D01*
X179552671Y-101171934D01*
X179549000Y-101134660D01*
X179549000Y-98865340D01*
X179552671Y-98828066D01*
X179561754Y-98798123D01*
X179576500Y-98770535D01*
X179596349Y-98746349D01*
X179620535Y-98726500D01*
X179648123Y-98711754D01*
X179678066Y-98702671D01*
X179715340Y-98699000D01*
X183884660Y-98699000D01*
X183921934Y-98702671D01*
X183921934Y-98702671D01*
G37*
G36*
X203079487Y-97383996D02*
G01*
X203316253Y-97482068D01*
X203316255Y-97482069D01*
X203529339Y-97624447D01*
X203710553Y-97805661D01*
X203847618Y-98010793D01*
X203852932Y-98018747D01*
X203951004Y-98255513D01*
X204001000Y-98506861D01*
X204001000Y-98763139D01*
X203951004Y-99014487D01*
X203921369Y-99086032D01*
X203852931Y-99251255D01*
X203710553Y-99464339D01*
X203529339Y-99645553D01*
X203316255Y-99787931D01*
X203316254Y-99787932D01*
X203316253Y-99787932D01*
X203079487Y-99886004D01*
X202828139Y-99936000D01*
X202571861Y-99936000D01*
X202320513Y-99886004D01*
X202083747Y-99787932D01*
X202083746Y-99787932D01*
X202083745Y-99787931D01*
X201870661Y-99645553D01*
X201689447Y-99464339D01*
X201547069Y-99251255D01*
X201478631Y-99086032D01*
X201448996Y-99014487D01*
X201399000Y-98763139D01*
X201399000Y-98506861D01*
X201448996Y-98255513D01*
X201547068Y-98018747D01*
X201552383Y-98010793D01*
X201689447Y-97805661D01*
X201870661Y-97624447D01*
X202083745Y-97482069D01*
X202083747Y-97482068D01*
X202320513Y-97383996D01*
X202571861Y-97334000D01*
X202828139Y-97334000D01*
X203079487Y-97383996D01*
X203079487Y-97383996D01*
G37*
G36*
X116353097Y-97834069D02*
G01*
X116456032Y-97844207D01*
X116654146Y-97904305D01*
X116654149Y-97904306D01*
X116740934Y-97950694D01*
X116836729Y-98001897D01*
X116996765Y-98133235D01*
X117128103Y-98293271D01*
X117173939Y-98379025D01*
X117225694Y-98475851D01*
X117225695Y-98475854D01*
X117285793Y-98673968D01*
X117306085Y-98880000D01*
X117285793Y-99086032D01*
X117225695Y-99284146D01*
X117225694Y-99284149D01*
X117173939Y-99380975D01*
X117128103Y-99466729D01*
X116996765Y-99626765D01*
X116836729Y-99758103D01*
X116780924Y-99787931D01*
X116654149Y-99855694D01*
X116654146Y-99855695D01*
X116456032Y-99915793D01*
X116353097Y-99925931D01*
X116301631Y-99931000D01*
X114698369Y-99931000D01*
X114646903Y-99925931D01*
X114543968Y-99915793D01*
X114345854Y-99855695D01*
X114345851Y-99855694D01*
X114219076Y-99787931D01*
X114163271Y-99758103D01*
X114003235Y-99626765D01*
X113871897Y-99466729D01*
X113826061Y-99380975D01*
X113774306Y-99284149D01*
X113774305Y-99284146D01*
X113714207Y-99086032D01*
X113693915Y-98880000D01*
X113714207Y-98673968D01*
X113774305Y-98475854D01*
X113774306Y-98475851D01*
X113826061Y-98379025D01*
X113871897Y-98293271D01*
X114003235Y-98133235D01*
X114163271Y-98001897D01*
X114259066Y-97950694D01*
X114345851Y-97904306D01*
X114345854Y-97904305D01*
X114543968Y-97844207D01*
X114646903Y-97834069D01*
X114698369Y-97829000D01*
X116301631Y-97829000D01*
X116353097Y-97834069D01*
X116353097Y-97834069D01*
G37*
G36*
X126364499Y-98553445D02*
G01*
X126401995Y-98564820D01*
X126436554Y-98583292D01*
X126466847Y-98608153D01*
X126491708Y-98638446D01*
X126510180Y-98673005D01*
X126521555Y-98710501D01*
X126526000Y-98755638D01*
X126526000Y-99494362D01*
X126521555Y-99539499D01*
X126510180Y-99576995D01*
X126491708Y-99611554D01*
X126466847Y-99641847D01*
X126436554Y-99666708D01*
X126401995Y-99685180D01*
X126364499Y-99696555D01*
X126319362Y-99701000D01*
X125680638Y-99701000D01*
X125635501Y-99696555D01*
X125598005Y-99685180D01*
X125563446Y-99666708D01*
X125533153Y-99641847D01*
X125508292Y-99611554D01*
X125489820Y-99576995D01*
X125478445Y-99539499D01*
X125474000Y-99494362D01*
X125474000Y-98755638D01*
X125478445Y-98710501D01*
X125489820Y-98673005D01*
X125508292Y-98638446D01*
X125533153Y-98608153D01*
X125563446Y-98583292D01*
X125598005Y-98564820D01*
X125635501Y-98553445D01*
X125680638Y-98549000D01*
X126319362Y-98549000D01*
X126364499Y-98553445D01*
X126364499Y-98553445D01*
G37*
G36*
X111303097Y-95929069D02*
G01*
X111406032Y-95939207D01*
X111604146Y-95999305D01*
X111604149Y-95999306D01*
X111690934Y-96045694D01*
X111786729Y-96096897D01*
X111946765Y-96228235D01*
X112078103Y-96388271D01*
X112123939Y-96474025D01*
X112175694Y-96570851D01*
X112175695Y-96570854D01*
X112235793Y-96768968D01*
X112256085Y-96975000D01*
X112235793Y-97181032D01*
X112189390Y-97334000D01*
X112175694Y-97379149D01*
X112123939Y-97475975D01*
X112078103Y-97561729D01*
X111946765Y-97721765D01*
X111786729Y-97853103D01*
X111700975Y-97898939D01*
X111604149Y-97950694D01*
X111604146Y-97950695D01*
X111406032Y-98010793D01*
X111325272Y-98018747D01*
X111251631Y-98026000D01*
X109648369Y-98026000D01*
X109574728Y-98018747D01*
X109493968Y-98010793D01*
X109295854Y-97950695D01*
X109295851Y-97950694D01*
X109199025Y-97898939D01*
X109113271Y-97853103D01*
X108953235Y-97721765D01*
X108821897Y-97561729D01*
X108776061Y-97475975D01*
X108724306Y-97379149D01*
X108710610Y-97334000D01*
X108664207Y-97181032D01*
X108643915Y-96975000D01*
X108664207Y-96768968D01*
X108724305Y-96570854D01*
X108724306Y-96570851D01*
X108776061Y-96474025D01*
X108821897Y-96388271D01*
X108953235Y-96228235D01*
X109113271Y-96096897D01*
X109209066Y-96045694D01*
X109295851Y-95999306D01*
X109295854Y-95999305D01*
X109493968Y-95939207D01*
X109596903Y-95929069D01*
X109648369Y-95924000D01*
X111251631Y-95924000D01*
X111303097Y-95929069D01*
X111303097Y-95929069D01*
G37*
G36*
X116353097Y-94024069D02*
G01*
X116456032Y-94034207D01*
X116654146Y-94094305D01*
X116654149Y-94094306D01*
X116740934Y-94140694D01*
X116836729Y-94191897D01*
X116996765Y-94323235D01*
X117128103Y-94483271D01*
X117173939Y-94569025D01*
X117225694Y-94665851D01*
X117225695Y-94665854D01*
X117285793Y-94863968D01*
X117306085Y-95070000D01*
X117285793Y-95276032D01*
X117225695Y-95474146D01*
X117225694Y-95474149D01*
X117173939Y-95570975D01*
X117128103Y-95656729D01*
X116996765Y-95816765D01*
X116836729Y-95948103D01*
X116750975Y-95993939D01*
X116654149Y-96045694D01*
X116654146Y-96045695D01*
X116456032Y-96105793D01*
X116353097Y-96115931D01*
X116301631Y-96121000D01*
X114698369Y-96121000D01*
X114646903Y-96115931D01*
X114543968Y-96105793D01*
X114345854Y-96045695D01*
X114345851Y-96045694D01*
X114249025Y-95993939D01*
X114163271Y-95948103D01*
X114003235Y-95816765D01*
X113871897Y-95656729D01*
X113826061Y-95570975D01*
X113774306Y-95474149D01*
X113774305Y-95474146D01*
X113714207Y-95276032D01*
X113693915Y-95070000D01*
X113714207Y-94863968D01*
X113774305Y-94665854D01*
X113774306Y-94665851D01*
X113826061Y-94569025D01*
X113871897Y-94483271D01*
X114003235Y-94323235D01*
X114163271Y-94191897D01*
X114259066Y-94140694D01*
X114345851Y-94094306D01*
X114345854Y-94094305D01*
X114543968Y-94034207D01*
X114646903Y-94024069D01*
X114698369Y-94019000D01*
X116301631Y-94019000D01*
X116353097Y-94024069D01*
X116353097Y-94024069D01*
G37*
G36*
X111303097Y-92119069D02*
G01*
X111406032Y-92129207D01*
X111604146Y-92189305D01*
X111604149Y-92189306D01*
X111690934Y-92235694D01*
X111786729Y-92286897D01*
X111946765Y-92418235D01*
X112078103Y-92578271D01*
X112123939Y-92664025D01*
X112175694Y-92760851D01*
X112175695Y-92760854D01*
X112235793Y-92958968D01*
X112256085Y-93165000D01*
X112235793Y-93371032D01*
X112175695Y-93569146D01*
X112175694Y-93569149D01*
X112123939Y-93665975D01*
X112078103Y-93751729D01*
X111946765Y-93911765D01*
X111786729Y-94043103D01*
X111700975Y-94088939D01*
X111604149Y-94140694D01*
X111604146Y-94140695D01*
X111406032Y-94200793D01*
X111303097Y-94210931D01*
X111251631Y-94216000D01*
X109648369Y-94216000D01*
X109596903Y-94210931D01*
X109493968Y-94200793D01*
X109295854Y-94140695D01*
X109295851Y-94140694D01*
X109199025Y-94088939D01*
X109113271Y-94043103D01*
X108953235Y-93911765D01*
X108821897Y-93751729D01*
X108776061Y-93665975D01*
X108724306Y-93569149D01*
X108724305Y-93569146D01*
X108664207Y-93371032D01*
X108643915Y-93165000D01*
X108664207Y-92958968D01*
X108724305Y-92760854D01*
X108724306Y-92760851D01*
X108776061Y-92664025D01*
X108821897Y-92578271D01*
X108953235Y-92418235D01*
X109113271Y-92286897D01*
X109209066Y-92235694D01*
X109295851Y-92189306D01*
X109295854Y-92189305D01*
X109493968Y-92129207D01*
X109596903Y-92119069D01*
X109648369Y-92114000D01*
X111251631Y-92114000D01*
X111303097Y-92119069D01*
X111303097Y-92119069D01*
G37*
G36*
X116353097Y-90214069D02*
G01*
X116456032Y-90224207D01*
X116654146Y-90284305D01*
X116654149Y-90284306D01*
X116740934Y-90330694D01*
X116836729Y-90381897D01*
X116996765Y-90513235D01*
X117128103Y-90673271D01*
X117173939Y-90759025D01*
X117225694Y-90855851D01*
X117225695Y-90855854D01*
X117285793Y-91053968D01*
X117306085Y-91260000D01*
X117285793Y-91466032D01*
X117225695Y-91664146D01*
X117225694Y-91664149D01*
X117173939Y-91760975D01*
X117128103Y-91846729D01*
X116996765Y-92006765D01*
X116836729Y-92138103D01*
X116750975Y-92183939D01*
X116654149Y-92235694D01*
X116654146Y-92235695D01*
X116456032Y-92295793D01*
X116353097Y-92305931D01*
X116301631Y-92311000D01*
X114698369Y-92311000D01*
X114646903Y-92305931D01*
X114543968Y-92295793D01*
X114345854Y-92235695D01*
X114345851Y-92235694D01*
X114249025Y-92183939D01*
X114163271Y-92138103D01*
X114003235Y-92006765D01*
X113871897Y-91846729D01*
X113826061Y-91760975D01*
X113774306Y-91664149D01*
X113774305Y-91664146D01*
X113714207Y-91466032D01*
X113693915Y-91260000D01*
X113714207Y-91053968D01*
X113774305Y-90855854D01*
X113774306Y-90855851D01*
X113826061Y-90759025D01*
X113871897Y-90673271D01*
X114003235Y-90513235D01*
X114163271Y-90381897D01*
X114259066Y-90330694D01*
X114345851Y-90284306D01*
X114345854Y-90284305D01*
X114543968Y-90224207D01*
X114646903Y-90214069D01*
X114698369Y-90209000D01*
X116301631Y-90209000D01*
X116353097Y-90214069D01*
X116353097Y-90214069D01*
G37*
G36*
X132039499Y-89978445D02*
G01*
X132076995Y-89989820D01*
X132111554Y-90008292D01*
X132141847Y-90033153D01*
X132166708Y-90063446D01*
X132185180Y-90098005D01*
X132196555Y-90135501D01*
X132201000Y-90180638D01*
X132201000Y-90819362D01*
X132196555Y-90864499D01*
X132185180Y-90901995D01*
X132166708Y-90936554D01*
X132141847Y-90966847D01*
X132111554Y-90991708D01*
X132076995Y-91010180D01*
X132039499Y-91021555D01*
X131994362Y-91026000D01*
X131255638Y-91026000D01*
X131210501Y-91021555D01*
X131173005Y-91010180D01*
X131138446Y-90991708D01*
X131108153Y-90966847D01*
X131083292Y-90936554D01*
X131064820Y-90901995D01*
X131053445Y-90864499D01*
X131049000Y-90819362D01*
X131049000Y-90180638D01*
X131053445Y-90135501D01*
X131064820Y-90098005D01*
X131083292Y-90063446D01*
X131108153Y-90033153D01*
X131138446Y-90008292D01*
X131173005Y-89989820D01*
X131210501Y-89978445D01*
X131255638Y-89974000D01*
X131994362Y-89974000D01*
X132039499Y-89978445D01*
X132039499Y-89978445D01*
G37*
G36*
X128039499Y-89978445D02*
G01*
X128076995Y-89989820D01*
X128111554Y-90008292D01*
X128141847Y-90033153D01*
X128166708Y-90063446D01*
X128185180Y-90098005D01*
X128196555Y-90135501D01*
X128201000Y-90180638D01*
X128201000Y-90819362D01*
X128196555Y-90864499D01*
X128185180Y-90901995D01*
X128166708Y-90936554D01*
X128141847Y-90966847D01*
X128111554Y-90991708D01*
X128076995Y-91010180D01*
X128039499Y-91021555D01*
X127994362Y-91026000D01*
X127255638Y-91026000D01*
X127210501Y-91021555D01*
X127173005Y-91010180D01*
X127138446Y-90991708D01*
X127108153Y-90966847D01*
X127083292Y-90936554D01*
X127064820Y-90901995D01*
X127053445Y-90864499D01*
X127049000Y-90819362D01*
X127049000Y-90180638D01*
X127053445Y-90135501D01*
X127064820Y-90098005D01*
X127083292Y-90063446D01*
X127108153Y-90033153D01*
X127138446Y-90008292D01*
X127173005Y-89989820D01*
X127210501Y-89978445D01*
X127255638Y-89974000D01*
X127994362Y-89974000D01*
X128039499Y-89978445D01*
X128039499Y-89978445D01*
G37*
G36*
X129789499Y-89978445D02*
G01*
X129826995Y-89989820D01*
X129861554Y-90008292D01*
X129891847Y-90033153D01*
X129916708Y-90063446D01*
X129935180Y-90098005D01*
X129946555Y-90135501D01*
X129951000Y-90180638D01*
X129951000Y-90819362D01*
X129946555Y-90864499D01*
X129935180Y-90901995D01*
X129916708Y-90936554D01*
X129891847Y-90966847D01*
X129861554Y-90991708D01*
X129826995Y-91010180D01*
X129789499Y-91021555D01*
X129744362Y-91026000D01*
X129005638Y-91026000D01*
X128960501Y-91021555D01*
X128923005Y-91010180D01*
X128888446Y-90991708D01*
X128858153Y-90966847D01*
X128833292Y-90936554D01*
X128814820Y-90901995D01*
X128803445Y-90864499D01*
X128799000Y-90819362D01*
X128799000Y-90180638D01*
X128803445Y-90135501D01*
X128814820Y-90098005D01*
X128833292Y-90063446D01*
X128858153Y-90033153D01*
X128888446Y-90008292D01*
X128923005Y-89989820D01*
X128960501Y-89978445D01*
X129005638Y-89974000D01*
X129744362Y-89974000D01*
X129789499Y-89978445D01*
X129789499Y-89978445D01*
G37*
G36*
X133789499Y-89978445D02*
G01*
X133826995Y-89989820D01*
X133861554Y-90008292D01*
X133891847Y-90033153D01*
X133916708Y-90063446D01*
X133935180Y-90098005D01*
X133946555Y-90135501D01*
X133951000Y-90180638D01*
X133951000Y-90819362D01*
X133946555Y-90864499D01*
X133935180Y-90901995D01*
X133916708Y-90936554D01*
X133891847Y-90966847D01*
X133861554Y-90991708D01*
X133826995Y-91010180D01*
X133789499Y-91021555D01*
X133744362Y-91026000D01*
X133005638Y-91026000D01*
X132960501Y-91021555D01*
X132923005Y-91010180D01*
X132888446Y-90991708D01*
X132858153Y-90966847D01*
X132833292Y-90936554D01*
X132814820Y-90901995D01*
X132803445Y-90864499D01*
X132799000Y-90819362D01*
X132799000Y-90180638D01*
X132803445Y-90135501D01*
X132814820Y-90098005D01*
X132833292Y-90063446D01*
X132858153Y-90033153D01*
X132888446Y-90008292D01*
X132923005Y-89989820D01*
X132960501Y-89978445D01*
X133005638Y-89974000D01*
X133744362Y-89974000D01*
X133789499Y-89978445D01*
X133789499Y-89978445D01*
G37*
G36*
X111303097Y-88309069D02*
G01*
X111406032Y-88319207D01*
X111604146Y-88379305D01*
X111604149Y-88379306D01*
X111690934Y-88425694D01*
X111786729Y-88476897D01*
X111946765Y-88608235D01*
X112078103Y-88768271D01*
X112123939Y-88854025D01*
X112175694Y-88950851D01*
X112175695Y-88950854D01*
X112235793Y-89148968D01*
X112256085Y-89355000D01*
X112235793Y-89561032D01*
X112175695Y-89759146D01*
X112175694Y-89759149D01*
X112123939Y-89855975D01*
X112078103Y-89941729D01*
X111946765Y-90101765D01*
X111786729Y-90233103D01*
X111700975Y-90278939D01*
X111604149Y-90330694D01*
X111604146Y-90330695D01*
X111406032Y-90390793D01*
X111303097Y-90400931D01*
X111251631Y-90406000D01*
X109648369Y-90406000D01*
X109596903Y-90400931D01*
X109493968Y-90390793D01*
X109295854Y-90330695D01*
X109295851Y-90330694D01*
X109199025Y-90278939D01*
X109113271Y-90233103D01*
X108953235Y-90101765D01*
X108821897Y-89941729D01*
X108776061Y-89855975D01*
X108724306Y-89759149D01*
X108724305Y-89759146D01*
X108664207Y-89561032D01*
X108643915Y-89355000D01*
X108664207Y-89148968D01*
X108724305Y-88950854D01*
X108724306Y-88950851D01*
X108776061Y-88854025D01*
X108821897Y-88768271D01*
X108953235Y-88608235D01*
X109113271Y-88476897D01*
X109209066Y-88425694D01*
X109295851Y-88379306D01*
X109295854Y-88379305D01*
X109493968Y-88319207D01*
X109596903Y-88309069D01*
X109648369Y-88304000D01*
X111251631Y-88304000D01*
X111303097Y-88309069D01*
X111303097Y-88309069D01*
G37*
G36*
X116353097Y-86404069D02*
G01*
X116456032Y-86414207D01*
X116654146Y-86474305D01*
X116654149Y-86474306D01*
X116721264Y-86510180D01*
X116836729Y-86571897D01*
X116996765Y-86703235D01*
X117128103Y-86863271D01*
X117173939Y-86949025D01*
X117225694Y-87045851D01*
X117225695Y-87045854D01*
X117285793Y-87243968D01*
X117306085Y-87450000D01*
X117285793Y-87656032D01*
X117225695Y-87854146D01*
X117225694Y-87854149D01*
X117173939Y-87950975D01*
X117128103Y-88036729D01*
X116996765Y-88196765D01*
X116836729Y-88328103D01*
X116750975Y-88373939D01*
X116654149Y-88425694D01*
X116654146Y-88425695D01*
X116456032Y-88485793D01*
X116353097Y-88495931D01*
X116301631Y-88501000D01*
X114698369Y-88501000D01*
X114646903Y-88495931D01*
X114543968Y-88485793D01*
X114345854Y-88425695D01*
X114345851Y-88425694D01*
X114249025Y-88373939D01*
X114163271Y-88328103D01*
X114003235Y-88196765D01*
X113871897Y-88036729D01*
X113826061Y-87950975D01*
X113774306Y-87854149D01*
X113774305Y-87854146D01*
X113714207Y-87656032D01*
X113693915Y-87450000D01*
X113714207Y-87243968D01*
X113774305Y-87045854D01*
X113774306Y-87045851D01*
X113826061Y-86949025D01*
X113871897Y-86863271D01*
X114003235Y-86703235D01*
X114163271Y-86571897D01*
X114278736Y-86510180D01*
X114345851Y-86474306D01*
X114345854Y-86474305D01*
X114543968Y-86414207D01*
X114646903Y-86404069D01*
X114698369Y-86399000D01*
X116301631Y-86399000D01*
X116353097Y-86404069D01*
X116353097Y-86404069D01*
G37*
G36*
X204751000Y-88151000D02*
G01*
X202449000Y-88151000D01*
X202449000Y-85249000D01*
X204751000Y-85249000D01*
X204751000Y-88151000D01*
X204751000Y-88151000D01*
G37*
G36*
X133789499Y-85478445D02*
G01*
X133826995Y-85489820D01*
X133861554Y-85508292D01*
X133891847Y-85533153D01*
X133916708Y-85563446D01*
X133935180Y-85598005D01*
X133946555Y-85635501D01*
X133951000Y-85680638D01*
X133951000Y-86319362D01*
X133946555Y-86364499D01*
X133935180Y-86401995D01*
X133916708Y-86436554D01*
X133891847Y-86466847D01*
X133861554Y-86491708D01*
X133826995Y-86510180D01*
X133789499Y-86521555D01*
X133744362Y-86526000D01*
X133005638Y-86526000D01*
X132960501Y-86521555D01*
X132923005Y-86510180D01*
X132888446Y-86491708D01*
X132858153Y-86466847D01*
X132833292Y-86436554D01*
X132814820Y-86401995D01*
X132803445Y-86364499D01*
X132799000Y-86319362D01*
X132799000Y-85680638D01*
X132803445Y-85635501D01*
X132814820Y-85598005D01*
X132833292Y-85563446D01*
X132858153Y-85533153D01*
X132888446Y-85508292D01*
X132923005Y-85489820D01*
X132960501Y-85478445D01*
X133005638Y-85474000D01*
X133744362Y-85474000D01*
X133789499Y-85478445D01*
X133789499Y-85478445D01*
G37*
G36*
X128039499Y-85478445D02*
G01*
X128076995Y-85489820D01*
X128111554Y-85508292D01*
X128141847Y-85533153D01*
X128166708Y-85563446D01*
X128185180Y-85598005D01*
X128196555Y-85635501D01*
X128201000Y-85680638D01*
X128201000Y-86319362D01*
X128196555Y-86364499D01*
X128185180Y-86401995D01*
X128166708Y-86436554D01*
X128141847Y-86466847D01*
X128111554Y-86491708D01*
X128076995Y-86510180D01*
X128039499Y-86521555D01*
X127994362Y-86526000D01*
X127255638Y-86526000D01*
X127210501Y-86521555D01*
X127173005Y-86510180D01*
X127138446Y-86491708D01*
X127108153Y-86466847D01*
X127083292Y-86436554D01*
X127064820Y-86401995D01*
X127053445Y-86364499D01*
X127049000Y-86319362D01*
X127049000Y-85680638D01*
X127053445Y-85635501D01*
X127064820Y-85598005D01*
X127083292Y-85563446D01*
X127108153Y-85533153D01*
X127138446Y-85508292D01*
X127173005Y-85489820D01*
X127210501Y-85478445D01*
X127255638Y-85474000D01*
X127994362Y-85474000D01*
X128039499Y-85478445D01*
X128039499Y-85478445D01*
G37*
G36*
X129789499Y-85478445D02*
G01*
X129826995Y-85489820D01*
X129861554Y-85508292D01*
X129891847Y-85533153D01*
X129916708Y-85563446D01*
X129935180Y-85598005D01*
X129946555Y-85635501D01*
X129951000Y-85680638D01*
X129951000Y-86319362D01*
X129946555Y-86364499D01*
X129935180Y-86401995D01*
X129916708Y-86436554D01*
X129891847Y-86466847D01*
X129861554Y-86491708D01*
X129826995Y-86510180D01*
X129789499Y-86521555D01*
X129744362Y-86526000D01*
X129005638Y-86526000D01*
X128960501Y-86521555D01*
X128923005Y-86510180D01*
X128888446Y-86491708D01*
X128858153Y-86466847D01*
X128833292Y-86436554D01*
X128814820Y-86401995D01*
X128803445Y-86364499D01*
X128799000Y-86319362D01*
X128799000Y-85680638D01*
X128803445Y-85635501D01*
X128814820Y-85598005D01*
X128833292Y-85563446D01*
X128858153Y-85533153D01*
X128888446Y-85508292D01*
X128923005Y-85489820D01*
X128960501Y-85478445D01*
X129005638Y-85474000D01*
X129744362Y-85474000D01*
X129789499Y-85478445D01*
X129789499Y-85478445D01*
G37*
G36*
X132039499Y-85478445D02*
G01*
X132076995Y-85489820D01*
X132111554Y-85508292D01*
X132141847Y-85533153D01*
X132166708Y-85563446D01*
X132185180Y-85598005D01*
X132196555Y-85635501D01*
X132201000Y-85680638D01*
X132201000Y-86319362D01*
X132196555Y-86364499D01*
X132185180Y-86401995D01*
X132166708Y-86436554D01*
X132141847Y-86466847D01*
X132111554Y-86491708D01*
X132076995Y-86510180D01*
X132039499Y-86521555D01*
X131994362Y-86526000D01*
X131255638Y-86526000D01*
X131210501Y-86521555D01*
X131173005Y-86510180D01*
X131138446Y-86491708D01*
X131108153Y-86466847D01*
X131083292Y-86436554D01*
X131064820Y-86401995D01*
X131053445Y-86364499D01*
X131049000Y-86319362D01*
X131049000Y-85680638D01*
X131053445Y-85635501D01*
X131064820Y-85598005D01*
X131083292Y-85563446D01*
X131108153Y-85533153D01*
X131138446Y-85508292D01*
X131173005Y-85489820D01*
X131210501Y-85478445D01*
X131255638Y-85474000D01*
X131994362Y-85474000D01*
X132039499Y-85478445D01*
X132039499Y-85478445D01*
G37*
G36*
X146364499Y-85303445D02*
G01*
X146401995Y-85314820D01*
X146436554Y-85333292D01*
X146466847Y-85358153D01*
X146491708Y-85388446D01*
X146510180Y-85423005D01*
X146521555Y-85460501D01*
X146526000Y-85505638D01*
X146526000Y-86244362D01*
X146521555Y-86289499D01*
X146510180Y-86326995D01*
X146491708Y-86361554D01*
X146466847Y-86391847D01*
X146436554Y-86416708D01*
X146401995Y-86435180D01*
X146364499Y-86446555D01*
X146319362Y-86451000D01*
X145680638Y-86451000D01*
X145635501Y-86446555D01*
X145598005Y-86435180D01*
X145563446Y-86416708D01*
X145533153Y-86391847D01*
X145508292Y-86361554D01*
X145489820Y-86326995D01*
X145478445Y-86289499D01*
X145474000Y-86244362D01*
X145474000Y-85505638D01*
X145478445Y-85460501D01*
X145489820Y-85423005D01*
X145508292Y-85388446D01*
X145533153Y-85358153D01*
X145563446Y-85333292D01*
X145598005Y-85314820D01*
X145635501Y-85303445D01*
X145680638Y-85299000D01*
X146319362Y-85299000D01*
X146364499Y-85303445D01*
X146364499Y-85303445D01*
G37*
G36*
X144364499Y-85303445D02*
G01*
X144401995Y-85314820D01*
X144436554Y-85333292D01*
X144466847Y-85358153D01*
X144491708Y-85388446D01*
X144510180Y-85423005D01*
X144521555Y-85460501D01*
X144526000Y-85505638D01*
X144526000Y-86244362D01*
X144521555Y-86289499D01*
X144510180Y-86326995D01*
X144491708Y-86361554D01*
X144466847Y-86391847D01*
X144436554Y-86416708D01*
X144401995Y-86435180D01*
X144364499Y-86446555D01*
X144319362Y-86451000D01*
X143680638Y-86451000D01*
X143635501Y-86446555D01*
X143598005Y-86435180D01*
X143563446Y-86416708D01*
X143533153Y-86391847D01*
X143508292Y-86361554D01*
X143489820Y-86326995D01*
X143478445Y-86289499D01*
X143474000Y-86244362D01*
X143474000Y-85505638D01*
X143478445Y-85460501D01*
X143489820Y-85423005D01*
X143508292Y-85388446D01*
X143533153Y-85358153D01*
X143563446Y-85333292D01*
X143598005Y-85314820D01*
X143635501Y-85303445D01*
X143680638Y-85299000D01*
X144319362Y-85299000D01*
X144364499Y-85303445D01*
X144364499Y-85303445D01*
G37*
G36*
X148364499Y-85303445D02*
G01*
X148401995Y-85314820D01*
X148436554Y-85333292D01*
X148466847Y-85358153D01*
X148491708Y-85388446D01*
X148510180Y-85423005D01*
X148521555Y-85460501D01*
X148526000Y-85505638D01*
X148526000Y-86244362D01*
X148521555Y-86289499D01*
X148510180Y-86326995D01*
X148491708Y-86361554D01*
X148466847Y-86391847D01*
X148436554Y-86416708D01*
X148401995Y-86435180D01*
X148364499Y-86446555D01*
X148319362Y-86451000D01*
X147680638Y-86451000D01*
X147635501Y-86446555D01*
X147598005Y-86435180D01*
X147563446Y-86416708D01*
X147533153Y-86391847D01*
X147508292Y-86361554D01*
X147489820Y-86326995D01*
X147478445Y-86289499D01*
X147474000Y-86244362D01*
X147474000Y-85505638D01*
X147478445Y-85460501D01*
X147489820Y-85423005D01*
X147508292Y-85388446D01*
X147533153Y-85358153D01*
X147563446Y-85333292D01*
X147598005Y-85314820D01*
X147635501Y-85303445D01*
X147680638Y-85299000D01*
X148319362Y-85299000D01*
X148364499Y-85303445D01*
X148364499Y-85303445D01*
G37*
G36*
X150364499Y-85303445D02*
G01*
X150401995Y-85314820D01*
X150436554Y-85333292D01*
X150466847Y-85358153D01*
X150491708Y-85388446D01*
X150510180Y-85423005D01*
X150521555Y-85460501D01*
X150526000Y-85505638D01*
X150526000Y-86244362D01*
X150521555Y-86289499D01*
X150510180Y-86326995D01*
X150491708Y-86361554D01*
X150466847Y-86391847D01*
X150436554Y-86416708D01*
X150401995Y-86435180D01*
X150364499Y-86446555D01*
X150319362Y-86451000D01*
X149680638Y-86451000D01*
X149635501Y-86446555D01*
X149598005Y-86435180D01*
X149563446Y-86416708D01*
X149533153Y-86391847D01*
X149508292Y-86361554D01*
X149489820Y-86326995D01*
X149478445Y-86289499D01*
X149474000Y-86244362D01*
X149474000Y-85505638D01*
X149478445Y-85460501D01*
X149489820Y-85423005D01*
X149508292Y-85388446D01*
X149533153Y-85358153D01*
X149563446Y-85333292D01*
X149598005Y-85314820D01*
X149635501Y-85303445D01*
X149680638Y-85299000D01*
X150319362Y-85299000D01*
X150364499Y-85303445D01*
X150364499Y-85303445D01*
G37*
G36*
X153001000Y-86401000D02*
G01*
X151999000Y-86401000D01*
X151999000Y-85499000D01*
X153001000Y-85499000D01*
X153001000Y-86401000D01*
X153001000Y-86401000D01*
G37*
G36*
X155001000Y-85451000D02*
G01*
X153999000Y-85451000D01*
X153999000Y-84549000D01*
X155001000Y-84549000D01*
X155001000Y-85451000D01*
X155001000Y-85451000D01*
G37*
G36*
X150364499Y-83553445D02*
G01*
X150401995Y-83564820D01*
X150436554Y-83583292D01*
X150466847Y-83608153D01*
X150491708Y-83638446D01*
X150510180Y-83673005D01*
X150521555Y-83710501D01*
X150526000Y-83755638D01*
X150526000Y-84494362D01*
X150521555Y-84539499D01*
X150510180Y-84576995D01*
X150491708Y-84611554D01*
X150466847Y-84641847D01*
X150436554Y-84666708D01*
X150401995Y-84685180D01*
X150364499Y-84696555D01*
X150319362Y-84701000D01*
X149680638Y-84701000D01*
X149635501Y-84696555D01*
X149598005Y-84685180D01*
X149563446Y-84666708D01*
X149533153Y-84641847D01*
X149508292Y-84611554D01*
X149489820Y-84576995D01*
X149478445Y-84539499D01*
X149474000Y-84494362D01*
X149474000Y-83755638D01*
X149478445Y-83710501D01*
X149489820Y-83673005D01*
X149508292Y-83638446D01*
X149533153Y-83608153D01*
X149563446Y-83583292D01*
X149598005Y-83564820D01*
X149635501Y-83553445D01*
X149680638Y-83549000D01*
X150319362Y-83549000D01*
X150364499Y-83553445D01*
X150364499Y-83553445D01*
G37*
G36*
X144364499Y-83553445D02*
G01*
X144401995Y-83564820D01*
X144436554Y-83583292D01*
X144466847Y-83608153D01*
X144491708Y-83638446D01*
X144510180Y-83673005D01*
X144521555Y-83710501D01*
X144526000Y-83755638D01*
X144526000Y-84494362D01*
X144521555Y-84539499D01*
X144510180Y-84576995D01*
X144491708Y-84611554D01*
X144466847Y-84641847D01*
X144436554Y-84666708D01*
X144401995Y-84685180D01*
X144364499Y-84696555D01*
X144319362Y-84701000D01*
X143680638Y-84701000D01*
X143635501Y-84696555D01*
X143598005Y-84685180D01*
X143563446Y-84666708D01*
X143533153Y-84641847D01*
X143508292Y-84611554D01*
X143489820Y-84576995D01*
X143478445Y-84539499D01*
X143474000Y-84494362D01*
X143474000Y-83755638D01*
X143478445Y-83710501D01*
X143489820Y-83673005D01*
X143508292Y-83638446D01*
X143533153Y-83608153D01*
X143563446Y-83583292D01*
X143598005Y-83564820D01*
X143635501Y-83553445D01*
X143680638Y-83549000D01*
X144319362Y-83549000D01*
X144364499Y-83553445D01*
X144364499Y-83553445D01*
G37*
G36*
X148364499Y-83553445D02*
G01*
X148401995Y-83564820D01*
X148436554Y-83583292D01*
X148466847Y-83608153D01*
X148491708Y-83638446D01*
X148510180Y-83673005D01*
X148521555Y-83710501D01*
X148526000Y-83755638D01*
X148526000Y-84494362D01*
X148521555Y-84539499D01*
X148510180Y-84576995D01*
X148491708Y-84611554D01*
X148466847Y-84641847D01*
X148436554Y-84666708D01*
X148401995Y-84685180D01*
X148364499Y-84696555D01*
X148319362Y-84701000D01*
X147680638Y-84701000D01*
X147635501Y-84696555D01*
X147598005Y-84685180D01*
X147563446Y-84666708D01*
X147533153Y-84641847D01*
X147508292Y-84611554D01*
X147489820Y-84576995D01*
X147478445Y-84539499D01*
X147474000Y-84494362D01*
X147474000Y-83755638D01*
X147478445Y-83710501D01*
X147489820Y-83673005D01*
X147508292Y-83638446D01*
X147533153Y-83608153D01*
X147563446Y-83583292D01*
X147598005Y-83564820D01*
X147635501Y-83553445D01*
X147680638Y-83549000D01*
X148319362Y-83549000D01*
X148364499Y-83553445D01*
X148364499Y-83553445D01*
G37*
G36*
X146364499Y-83553445D02*
G01*
X146401995Y-83564820D01*
X146436554Y-83583292D01*
X146466847Y-83608153D01*
X146491708Y-83638446D01*
X146510180Y-83673005D01*
X146521555Y-83710501D01*
X146526000Y-83755638D01*
X146526000Y-84494362D01*
X146521555Y-84539499D01*
X146510180Y-84576995D01*
X146491708Y-84611554D01*
X146466847Y-84641847D01*
X146436554Y-84666708D01*
X146401995Y-84685180D01*
X146364499Y-84696555D01*
X146319362Y-84701000D01*
X145680638Y-84701000D01*
X145635501Y-84696555D01*
X145598005Y-84685180D01*
X145563446Y-84666708D01*
X145533153Y-84641847D01*
X145508292Y-84611554D01*
X145489820Y-84576995D01*
X145478445Y-84539499D01*
X145474000Y-84494362D01*
X145474000Y-83755638D01*
X145478445Y-83710501D01*
X145489820Y-83673005D01*
X145508292Y-83638446D01*
X145533153Y-83608153D01*
X145563446Y-83583292D01*
X145598005Y-83564820D01*
X145635501Y-83553445D01*
X145680638Y-83549000D01*
X146319362Y-83549000D01*
X146364499Y-83553445D01*
X146364499Y-83553445D01*
G37*
G36*
X153001000Y-84501000D02*
G01*
X151999000Y-84501000D01*
X151999000Y-83599000D01*
X153001000Y-83599000D01*
X153001000Y-84501000D01*
X153001000Y-84501000D01*
G37*
G36*
X204613512Y-82103927D02*
G01*
X204762812Y-82133624D01*
X204926784Y-82201544D01*
X205074354Y-82300147D01*
X205199853Y-82425646D01*
X205298456Y-82573216D01*
X205366376Y-82737188D01*
X205401000Y-82911259D01*
X205401000Y-83088741D01*
X205366376Y-83262812D01*
X205298456Y-83426784D01*
X205199853Y-83574354D01*
X205074354Y-83699853D01*
X204926784Y-83798456D01*
X204762812Y-83866376D01*
X204613512Y-83896073D01*
X204588742Y-83901000D01*
X204411258Y-83901000D01*
X204386488Y-83896073D01*
X204237188Y-83866376D01*
X204073216Y-83798456D01*
X203925646Y-83699853D01*
X203800147Y-83574354D01*
X203701544Y-83426784D01*
X203633624Y-83262812D01*
X203599000Y-83088741D01*
X203599000Y-82911259D01*
X203633624Y-82737188D01*
X203701544Y-82573216D01*
X203800147Y-82425646D01*
X203925646Y-82300147D01*
X204073216Y-82201544D01*
X204237188Y-82133624D01*
X204386488Y-82103927D01*
X204411258Y-82099000D01*
X204588742Y-82099000D01*
X204613512Y-82103927D01*
X204613512Y-82103927D01*
G37*
G36*
X197613512Y-82103927D02*
G01*
X197762812Y-82133624D01*
X197926784Y-82201544D01*
X198074354Y-82300147D01*
X198199853Y-82425646D01*
X198298456Y-82573216D01*
X198366376Y-82737188D01*
X198401000Y-82911259D01*
X198401000Y-83088741D01*
X198366376Y-83262812D01*
X198298456Y-83426784D01*
X198199853Y-83574354D01*
X198074354Y-83699853D01*
X197926784Y-83798456D01*
X197762812Y-83866376D01*
X197613512Y-83896073D01*
X197588742Y-83901000D01*
X197411258Y-83901000D01*
X197386488Y-83896073D01*
X197237188Y-83866376D01*
X197073216Y-83798456D01*
X196925646Y-83699853D01*
X196800147Y-83574354D01*
X196701544Y-83426784D01*
X196633624Y-83262812D01*
X196599000Y-83088741D01*
X196599000Y-82911259D01*
X196633624Y-82737188D01*
X196701544Y-82573216D01*
X196800147Y-82425646D01*
X196925646Y-82300147D01*
X197073216Y-82201544D01*
X197237188Y-82133624D01*
X197386488Y-82103927D01*
X197411258Y-82099000D01*
X197588742Y-82099000D01*
X197613512Y-82103927D01*
X197613512Y-82103927D01*
G37*
G36*
X159789499Y-82478445D02*
G01*
X159826995Y-82489820D01*
X159861554Y-82508292D01*
X159891847Y-82533153D01*
X159916708Y-82563446D01*
X159935180Y-82598005D01*
X159946555Y-82635501D01*
X159951000Y-82680638D01*
X159951000Y-83319362D01*
X159946555Y-83364499D01*
X159935180Y-83401995D01*
X159916708Y-83436554D01*
X159891847Y-83466847D01*
X159861554Y-83491708D01*
X159826995Y-83510180D01*
X159789499Y-83521555D01*
X159744362Y-83526000D01*
X159005638Y-83526000D01*
X158960501Y-83521555D01*
X158923005Y-83510180D01*
X158888446Y-83491708D01*
X158858153Y-83466847D01*
X158833292Y-83436554D01*
X158814820Y-83401995D01*
X158803445Y-83364499D01*
X158799000Y-83319362D01*
X158799000Y-82680638D01*
X158803445Y-82635501D01*
X158814820Y-82598005D01*
X158833292Y-82563446D01*
X158858153Y-82533153D01*
X158888446Y-82508292D01*
X158923005Y-82489820D01*
X158960501Y-82478445D01*
X159005638Y-82474000D01*
X159744362Y-82474000D01*
X159789499Y-82478445D01*
X159789499Y-82478445D01*
G37*
G36*
X158039499Y-82478445D02*
G01*
X158076995Y-82489820D01*
X158111554Y-82508292D01*
X158141847Y-82533153D01*
X158166708Y-82563446D01*
X158185180Y-82598005D01*
X158196555Y-82635501D01*
X158201000Y-82680638D01*
X158201000Y-83319362D01*
X158196555Y-83364499D01*
X158185180Y-83401995D01*
X158166708Y-83436554D01*
X158141847Y-83466847D01*
X158111554Y-83491708D01*
X158076995Y-83510180D01*
X158039499Y-83521555D01*
X157994362Y-83526000D01*
X157255638Y-83526000D01*
X157210501Y-83521555D01*
X157173005Y-83510180D01*
X157138446Y-83491708D01*
X157108153Y-83466847D01*
X157083292Y-83436554D01*
X157064820Y-83401995D01*
X157053445Y-83364499D01*
X157049000Y-83319362D01*
X157049000Y-82680638D01*
X157053445Y-82635501D01*
X157064820Y-82598005D01*
X157083292Y-82563446D01*
X157108153Y-82533153D01*
X157138446Y-82508292D01*
X157173005Y-82489820D01*
X157210501Y-82478445D01*
X157255638Y-82474000D01*
X157994362Y-82474000D01*
X158039499Y-82478445D01*
X158039499Y-82478445D01*
G37*
G36*
X163539499Y-81978445D02*
G01*
X163576995Y-81989820D01*
X163611554Y-82008292D01*
X163641847Y-82033153D01*
X163666708Y-82063446D01*
X163685180Y-82098005D01*
X163696555Y-82135501D01*
X163701000Y-82180638D01*
X163701000Y-82819362D01*
X163696555Y-82864499D01*
X163685180Y-82901995D01*
X163666708Y-82936554D01*
X163641847Y-82966847D01*
X163611554Y-82991708D01*
X163576995Y-83010180D01*
X163539499Y-83021555D01*
X163494362Y-83026000D01*
X162755638Y-83026000D01*
X162710501Y-83021555D01*
X162673005Y-83010180D01*
X162638446Y-82991708D01*
X162608153Y-82966847D01*
X162583292Y-82936554D01*
X162564820Y-82901995D01*
X162553445Y-82864499D01*
X162549000Y-82819362D01*
X162549000Y-82180638D01*
X162553445Y-82135501D01*
X162564820Y-82098005D01*
X162583292Y-82063446D01*
X162608153Y-82033153D01*
X162638446Y-82008292D01*
X162673005Y-81989820D01*
X162710501Y-81978445D01*
X162755638Y-81974000D01*
X163494362Y-81974000D01*
X163539499Y-81978445D01*
X163539499Y-81978445D01*
G37*
G36*
X165289499Y-81978445D02*
G01*
X165326995Y-81989820D01*
X165361554Y-82008292D01*
X165391847Y-82033153D01*
X165416708Y-82063446D01*
X165435180Y-82098005D01*
X165446555Y-82135501D01*
X165451000Y-82180638D01*
X165451000Y-82819362D01*
X165446555Y-82864499D01*
X165435180Y-82901995D01*
X165416708Y-82936554D01*
X165391847Y-82966847D01*
X165361554Y-82991708D01*
X165326995Y-83010180D01*
X165289499Y-83021555D01*
X165244362Y-83026000D01*
X164505638Y-83026000D01*
X164460501Y-83021555D01*
X164423005Y-83010180D01*
X164388446Y-82991708D01*
X164358153Y-82966847D01*
X164333292Y-82936554D01*
X164314820Y-82901995D01*
X164303445Y-82864499D01*
X164299000Y-82819362D01*
X164299000Y-82180638D01*
X164303445Y-82135501D01*
X164314820Y-82098005D01*
X164333292Y-82063446D01*
X164358153Y-82033153D01*
X164388446Y-82008292D01*
X164423005Y-81989820D01*
X164460501Y-81978445D01*
X164505638Y-81974000D01*
X165244362Y-81974000D01*
X165289499Y-81978445D01*
X165289499Y-81978445D01*
G37*
G36*
X109701189Y-77958892D02*
G01*
X109902066Y-77978677D01*
X110271967Y-78090885D01*
X110288684Y-78095956D01*
X110644983Y-78286402D01*
X110644986Y-78286404D01*
X110644987Y-78286405D01*
X110957293Y-78542707D01*
X111184056Y-78819020D01*
X111213598Y-78855017D01*
X111404044Y-79211316D01*
X111404045Y-79211319D01*
X111521323Y-79597934D01*
X111560923Y-80000000D01*
X111521323Y-80402066D01*
X111438226Y-80676000D01*
X111404044Y-80788684D01*
X111213598Y-81144983D01*
X111213596Y-81144986D01*
X111213595Y-81144987D01*
X110957293Y-81457293D01*
X110644987Y-81713595D01*
X110644983Y-81713598D01*
X110288684Y-81904044D01*
X110288681Y-81904045D01*
X109902066Y-82021323D01*
X109701189Y-82041108D01*
X109600751Y-82051000D01*
X107399249Y-82051000D01*
X107298811Y-82041108D01*
X107097934Y-82021323D01*
X106711319Y-81904045D01*
X106711316Y-81904044D01*
X106355017Y-81713598D01*
X106355013Y-81713595D01*
X106042707Y-81457293D01*
X105786405Y-81144987D01*
X105786404Y-81144986D01*
X105786402Y-81144983D01*
X105595956Y-80788684D01*
X105561774Y-80676000D01*
X105478677Y-80402066D01*
X105439077Y-80000000D01*
X105478677Y-79597934D01*
X105595955Y-79211319D01*
X105595956Y-79211316D01*
X105786402Y-78855017D01*
X105815944Y-78819020D01*
X106042707Y-78542707D01*
X106355013Y-78286405D01*
X106355014Y-78286404D01*
X106355017Y-78286402D01*
X106711316Y-78095956D01*
X106728033Y-78090885D01*
X107097934Y-77978677D01*
X107298811Y-77958892D01*
X107399249Y-77949000D01*
X109600751Y-77949000D01*
X109701189Y-77958892D01*
X109701189Y-77958892D01*
G37*
G36*
X153039499Y-80978445D02*
G01*
X153076995Y-80989820D01*
X153111554Y-81008292D01*
X153141847Y-81033153D01*
X153166708Y-81063446D01*
X153185180Y-81098005D01*
X153196555Y-81135501D01*
X153201000Y-81180638D01*
X153201000Y-81819362D01*
X153196555Y-81864499D01*
X153185180Y-81901995D01*
X153166708Y-81936554D01*
X153141847Y-81966847D01*
X153111554Y-81991708D01*
X153076995Y-82010180D01*
X153039499Y-82021555D01*
X152994362Y-82026000D01*
X152255638Y-82026000D01*
X152210501Y-82021555D01*
X152173005Y-82010180D01*
X152138446Y-81991708D01*
X152108153Y-81966847D01*
X152083292Y-81936554D01*
X152064820Y-81901995D01*
X152053445Y-81864499D01*
X152049000Y-81819362D01*
X152049000Y-81180638D01*
X152053445Y-81135501D01*
X152064820Y-81098005D01*
X152083292Y-81063446D01*
X152108153Y-81033153D01*
X152138446Y-81008292D01*
X152173005Y-80989820D01*
X152210501Y-80978445D01*
X152255638Y-80974000D01*
X152994362Y-80974000D01*
X153039499Y-80978445D01*
X153039499Y-80978445D01*
G37*
G36*
X154789499Y-80978445D02*
G01*
X154826995Y-80989820D01*
X154861554Y-81008292D01*
X154891847Y-81033153D01*
X154916708Y-81063446D01*
X154935180Y-81098005D01*
X154946555Y-81135501D01*
X154951000Y-81180638D01*
X154951000Y-81819362D01*
X154946555Y-81864499D01*
X154935180Y-81901995D01*
X154916708Y-81936554D01*
X154891847Y-81966847D01*
X154861554Y-81991708D01*
X154826995Y-82010180D01*
X154789499Y-82021555D01*
X154744362Y-82026000D01*
X154005638Y-82026000D01*
X153960501Y-82021555D01*
X153923005Y-82010180D01*
X153888446Y-81991708D01*
X153858153Y-81966847D01*
X153833292Y-81936554D01*
X153814820Y-81901995D01*
X153803445Y-81864499D01*
X153799000Y-81819362D01*
X153799000Y-81180638D01*
X153803445Y-81135501D01*
X153814820Y-81098005D01*
X153833292Y-81063446D01*
X153858153Y-81033153D01*
X153888446Y-81008292D01*
X153923005Y-80989820D01*
X153960501Y-80978445D01*
X154005638Y-80974000D01*
X154744362Y-80974000D01*
X154789499Y-80978445D01*
X154789499Y-80978445D01*
G37*
G36*
X161251000Y-81176000D02*
G01*
X160049000Y-81176000D01*
X160049000Y-78824000D01*
X161251000Y-78824000D01*
X161251000Y-81176000D01*
X161251000Y-81176000D01*
G37*
G36*
X156951000Y-81176000D02*
G01*
X155749000Y-81176000D01*
X155749000Y-78824000D01*
X156951000Y-78824000D01*
X156951000Y-81176000D01*
X156951000Y-81176000D01*
G37*
G36*
X163539499Y-79978445D02*
G01*
X163576995Y-79989820D01*
X163611554Y-80008292D01*
X163641847Y-80033153D01*
X163666708Y-80063446D01*
X163685180Y-80098005D01*
X163696555Y-80135501D01*
X163701000Y-80180638D01*
X163701000Y-80819362D01*
X163696555Y-80864499D01*
X163685180Y-80901995D01*
X163666708Y-80936554D01*
X163641847Y-80966847D01*
X163611554Y-80991708D01*
X163576995Y-81010180D01*
X163539499Y-81021555D01*
X163494362Y-81026000D01*
X162755638Y-81026000D01*
X162710501Y-81021555D01*
X162673005Y-81010180D01*
X162638446Y-80991708D01*
X162608153Y-80966847D01*
X162583292Y-80936554D01*
X162564820Y-80901995D01*
X162553445Y-80864499D01*
X162549000Y-80819362D01*
X162549000Y-80180638D01*
X162553445Y-80135501D01*
X162564820Y-80098005D01*
X162583292Y-80063446D01*
X162608153Y-80033153D01*
X162638446Y-80008292D01*
X162673005Y-79989820D01*
X162710501Y-79978445D01*
X162755638Y-79974000D01*
X163494362Y-79974000D01*
X163539499Y-79978445D01*
X163539499Y-79978445D01*
G37*
G36*
X165289499Y-79978445D02*
G01*
X165326995Y-79989820D01*
X165361554Y-80008292D01*
X165391847Y-80033153D01*
X165416708Y-80063446D01*
X165435180Y-80098005D01*
X165446555Y-80135501D01*
X165451000Y-80180638D01*
X165451000Y-80819362D01*
X165446555Y-80864499D01*
X165435180Y-80901995D01*
X165416708Y-80936554D01*
X165391847Y-80966847D01*
X165361554Y-80991708D01*
X165326995Y-81010180D01*
X165289499Y-81021555D01*
X165244362Y-81026000D01*
X164505638Y-81026000D01*
X164460501Y-81021555D01*
X164423005Y-81010180D01*
X164388446Y-80991708D01*
X164358153Y-80966847D01*
X164333292Y-80936554D01*
X164314820Y-80901995D01*
X164303445Y-80864499D01*
X164299000Y-80819362D01*
X164299000Y-80180638D01*
X164303445Y-80135501D01*
X164314820Y-80098005D01*
X164333292Y-80063446D01*
X164358153Y-80033153D01*
X164388446Y-80008292D01*
X164423005Y-79989820D01*
X164460501Y-79978445D01*
X164505638Y-79974000D01*
X165244362Y-79974000D01*
X165289499Y-79978445D01*
X165289499Y-79978445D01*
G37*
G36*
X197651000Y-80751000D02*
G01*
X194749000Y-80751000D01*
X194749000Y-77849000D01*
X197651000Y-77849000D01*
X197651000Y-80751000D01*
X197651000Y-80751000D01*
G37*
G36*
X206751000Y-80751000D02*
G01*
X204449000Y-80751000D01*
X204449000Y-77849000D01*
X206751000Y-77849000D01*
X206751000Y-80751000D01*
X206751000Y-80751000D01*
G37*
G36*
X150822798Y-78353247D02*
G01*
X150858367Y-78364037D01*
X150891139Y-78381554D01*
X150919869Y-78405131D01*
X150943446Y-78433861D01*
X150960963Y-78466633D01*
X150971753Y-78502202D01*
X150976000Y-78545325D01*
X150976000Y-79829675D01*
X150971753Y-79872798D01*
X150960963Y-79908367D01*
X150943446Y-79941139D01*
X150919869Y-79969869D01*
X150891139Y-79993446D01*
X150858367Y-80010963D01*
X150822798Y-80021753D01*
X150779675Y-80026000D01*
X149720325Y-80026000D01*
X149677202Y-80021753D01*
X149641633Y-80010963D01*
X149608861Y-79993446D01*
X149580131Y-79969869D01*
X149556554Y-79941139D01*
X149539037Y-79908367D01*
X149528247Y-79872798D01*
X149524000Y-79829675D01*
X149524000Y-78545325D01*
X149528247Y-78502202D01*
X149539037Y-78466633D01*
X149556554Y-78433861D01*
X149580131Y-78405131D01*
X149608861Y-78381554D01*
X149641633Y-78364037D01*
X149677202Y-78353247D01*
X149720325Y-78349000D01*
X150779675Y-78349000D01*
X150822798Y-78353247D01*
X150822798Y-78353247D01*
G37*
G36*
X152864499Y-78803445D02*
G01*
X152901995Y-78814820D01*
X152936554Y-78833292D01*
X152966847Y-78858153D01*
X152991708Y-78888446D01*
X153010180Y-78923005D01*
X153021555Y-78960501D01*
X153026000Y-79005638D01*
X153026000Y-79744362D01*
X153021555Y-79789499D01*
X153010180Y-79826995D01*
X152991708Y-79861554D01*
X152966847Y-79891847D01*
X152936554Y-79916708D01*
X152901995Y-79935180D01*
X152864499Y-79946555D01*
X152819362Y-79951000D01*
X152180638Y-79951000D01*
X152135501Y-79946555D01*
X152098005Y-79935180D01*
X152063446Y-79916708D01*
X152033153Y-79891847D01*
X152008292Y-79861554D01*
X151989820Y-79826995D01*
X151978445Y-79789499D01*
X151974000Y-79744362D01*
X151974000Y-79005638D01*
X151978445Y-78960501D01*
X151989820Y-78923005D01*
X152008292Y-78888446D01*
X152033153Y-78858153D01*
X152063446Y-78833292D01*
X152098005Y-78814820D01*
X152135501Y-78803445D01*
X152180638Y-78799000D01*
X152819362Y-78799000D01*
X152864499Y-78803445D01*
X152864499Y-78803445D01*
G37*
G36*
X154864499Y-78803445D02*
G01*
X154901995Y-78814820D01*
X154936554Y-78833292D01*
X154966847Y-78858153D01*
X154991708Y-78888446D01*
X155010180Y-78923005D01*
X155021555Y-78960501D01*
X155026000Y-79005638D01*
X155026000Y-79744362D01*
X155021555Y-79789499D01*
X155010180Y-79826995D01*
X154991708Y-79861554D01*
X154966847Y-79891847D01*
X154936554Y-79916708D01*
X154901995Y-79935180D01*
X154864499Y-79946555D01*
X154819362Y-79951000D01*
X154180638Y-79951000D01*
X154135501Y-79946555D01*
X154098005Y-79935180D01*
X154063446Y-79916708D01*
X154033153Y-79891847D01*
X154008292Y-79861554D01*
X153989820Y-79826995D01*
X153978445Y-79789499D01*
X153974000Y-79744362D01*
X153974000Y-79005638D01*
X153978445Y-78960501D01*
X153989820Y-78923005D01*
X154008292Y-78888446D01*
X154033153Y-78858153D01*
X154063446Y-78833292D01*
X154098005Y-78814820D01*
X154135501Y-78803445D01*
X154180638Y-78799000D01*
X154819362Y-78799000D01*
X154864499Y-78803445D01*
X154864499Y-78803445D01*
G37*
G36*
X165289499Y-77978445D02*
G01*
X165326995Y-77989820D01*
X165361554Y-78008292D01*
X165391847Y-78033153D01*
X165416708Y-78063446D01*
X165435180Y-78098005D01*
X165446555Y-78135501D01*
X165451000Y-78180638D01*
X165451000Y-78819362D01*
X165446555Y-78864499D01*
X165435180Y-78901995D01*
X165416708Y-78936554D01*
X165391847Y-78966847D01*
X165361554Y-78991708D01*
X165326995Y-79010180D01*
X165289499Y-79021555D01*
X165244362Y-79026000D01*
X164505638Y-79026000D01*
X164460501Y-79021555D01*
X164423005Y-79010180D01*
X164388446Y-78991708D01*
X164358153Y-78966847D01*
X164333292Y-78936554D01*
X164314820Y-78901995D01*
X164303445Y-78864499D01*
X164299000Y-78819362D01*
X164299000Y-78180638D01*
X164303445Y-78135501D01*
X164314820Y-78098005D01*
X164333292Y-78063446D01*
X164358153Y-78033153D01*
X164388446Y-78008292D01*
X164423005Y-77989820D01*
X164460501Y-77978445D01*
X164505638Y-77974000D01*
X165244362Y-77974000D01*
X165289499Y-77978445D01*
X165289499Y-77978445D01*
G37*
G36*
X163539499Y-77978445D02*
G01*
X163576995Y-77989820D01*
X163611554Y-78008292D01*
X163641847Y-78033153D01*
X163666708Y-78063446D01*
X163685180Y-78098005D01*
X163696555Y-78135501D01*
X163701000Y-78180638D01*
X163701000Y-78819362D01*
X163696555Y-78864499D01*
X163685180Y-78901995D01*
X163666708Y-78936554D01*
X163641847Y-78966847D01*
X163611554Y-78991708D01*
X163576995Y-79010180D01*
X163539499Y-79021555D01*
X163494362Y-79026000D01*
X162755638Y-79026000D01*
X162710501Y-79021555D01*
X162673005Y-79010180D01*
X162638446Y-78991708D01*
X162608153Y-78966847D01*
X162583292Y-78936554D01*
X162564820Y-78901995D01*
X162553445Y-78864499D01*
X162549000Y-78819362D01*
X162549000Y-78180638D01*
X162553445Y-78135501D01*
X162564820Y-78098005D01*
X162583292Y-78063446D01*
X162608153Y-78033153D01*
X162638446Y-78008292D01*
X162673005Y-77989820D01*
X162710501Y-77978445D01*
X162755638Y-77974000D01*
X163494362Y-77974000D01*
X163539499Y-77978445D01*
X163539499Y-77978445D01*
G37*
G36*
X152864499Y-77053445D02*
G01*
X152901995Y-77064820D01*
X152936554Y-77083292D01*
X152966847Y-77108153D01*
X152991708Y-77138446D01*
X153010180Y-77173005D01*
X153021555Y-77210501D01*
X153026000Y-77255638D01*
X153026000Y-77994362D01*
X153021555Y-78039499D01*
X153010180Y-78076995D01*
X152991708Y-78111554D01*
X152966847Y-78141847D01*
X152936554Y-78166708D01*
X152901995Y-78185180D01*
X152864499Y-78196555D01*
X152819362Y-78201000D01*
X152180638Y-78201000D01*
X152135501Y-78196555D01*
X152098005Y-78185180D01*
X152063446Y-78166708D01*
X152033153Y-78141847D01*
X152008292Y-78111554D01*
X151989820Y-78076995D01*
X151978445Y-78039499D01*
X151974000Y-77994362D01*
X151974000Y-77255638D01*
X151978445Y-77210501D01*
X151989820Y-77173005D01*
X152008292Y-77138446D01*
X152033153Y-77108153D01*
X152063446Y-77083292D01*
X152098005Y-77064820D01*
X152135501Y-77053445D01*
X152180638Y-77049000D01*
X152819362Y-77049000D01*
X152864499Y-77053445D01*
X152864499Y-77053445D01*
G37*
G36*
X154864499Y-77053445D02*
G01*
X154901995Y-77064820D01*
X154936554Y-77083292D01*
X154966847Y-77108153D01*
X154991708Y-77138446D01*
X155010180Y-77173005D01*
X155021555Y-77210501D01*
X155026000Y-77255638D01*
X155026000Y-77994362D01*
X155021555Y-78039499D01*
X155010180Y-78076995D01*
X154991708Y-78111554D01*
X154966847Y-78141847D01*
X154936554Y-78166708D01*
X154901995Y-78185180D01*
X154864499Y-78196555D01*
X154819362Y-78201000D01*
X154180638Y-78201000D01*
X154135501Y-78196555D01*
X154098005Y-78185180D01*
X154063446Y-78166708D01*
X154033153Y-78141847D01*
X154008292Y-78111554D01*
X153989820Y-78076995D01*
X153978445Y-78039499D01*
X153974000Y-77994362D01*
X153974000Y-77255638D01*
X153978445Y-77210501D01*
X153989820Y-77173005D01*
X154008292Y-77138446D01*
X154033153Y-77108153D01*
X154063446Y-77083292D01*
X154098005Y-77064820D01*
X154135501Y-77053445D01*
X154180638Y-77049000D01*
X154819362Y-77049000D01*
X154864499Y-77053445D01*
X154864499Y-77053445D01*
G37*
G36*
X156864499Y-76303445D02*
G01*
X156901995Y-76314820D01*
X156936554Y-76333292D01*
X156966847Y-76358153D01*
X156991708Y-76388446D01*
X157010180Y-76423005D01*
X157021555Y-76460501D01*
X157026000Y-76505638D01*
X157026000Y-77244362D01*
X157021555Y-77289499D01*
X157010180Y-77326995D01*
X156991708Y-77361554D01*
X156966847Y-77391847D01*
X156936554Y-77416708D01*
X156901995Y-77435180D01*
X156864499Y-77446555D01*
X156819362Y-77451000D01*
X156180638Y-77451000D01*
X156135501Y-77446555D01*
X156098005Y-77435180D01*
X156063446Y-77416708D01*
X156033153Y-77391847D01*
X156008292Y-77361554D01*
X155989820Y-77326995D01*
X155978445Y-77289499D01*
X155974000Y-77244362D01*
X155974000Y-76505638D01*
X155978445Y-76460501D01*
X155989820Y-76423005D01*
X156008292Y-76388446D01*
X156033153Y-76358153D01*
X156063446Y-76333292D01*
X156098005Y-76314820D01*
X156135501Y-76303445D01*
X156180638Y-76299000D01*
X156819362Y-76299000D01*
X156864499Y-76303445D01*
X156864499Y-76303445D01*
G37*
G36*
X150822798Y-75478247D02*
G01*
X150858367Y-75489037D01*
X150891139Y-75506554D01*
X150919869Y-75530131D01*
X150943446Y-75558861D01*
X150960963Y-75591633D01*
X150971753Y-75627202D01*
X150976000Y-75670325D01*
X150976000Y-76954675D01*
X150971753Y-76997798D01*
X150960963Y-77033367D01*
X150943446Y-77066139D01*
X150919869Y-77094869D01*
X150891139Y-77118446D01*
X150858367Y-77135963D01*
X150822798Y-77146753D01*
X150779675Y-77151000D01*
X149720325Y-77151000D01*
X149677202Y-77146753D01*
X149641633Y-77135963D01*
X149608861Y-77118446D01*
X149580131Y-77094869D01*
X149556554Y-77066139D01*
X149539037Y-77033367D01*
X149528247Y-76997798D01*
X149524000Y-76954675D01*
X149524000Y-75670325D01*
X149528247Y-75627202D01*
X149539037Y-75591633D01*
X149556554Y-75558861D01*
X149580131Y-75530131D01*
X149608861Y-75506554D01*
X149641633Y-75489037D01*
X149677202Y-75478247D01*
X149720325Y-75474000D01*
X150779675Y-75474000D01*
X150822798Y-75478247D01*
X150822798Y-75478247D01*
G37*
G36*
X163539499Y-75978445D02*
G01*
X163576995Y-75989820D01*
X163611554Y-76008292D01*
X163641847Y-76033153D01*
X163666708Y-76063446D01*
X163685180Y-76098005D01*
X163696555Y-76135501D01*
X163701000Y-76180638D01*
X163701000Y-76819362D01*
X163696555Y-76864499D01*
X163685180Y-76901995D01*
X163666708Y-76936554D01*
X163641847Y-76966847D01*
X163611554Y-76991708D01*
X163576995Y-77010180D01*
X163539499Y-77021555D01*
X163494362Y-77026000D01*
X162755638Y-77026000D01*
X162710501Y-77021555D01*
X162673005Y-77010180D01*
X162638446Y-76991708D01*
X162608153Y-76966847D01*
X162583292Y-76936554D01*
X162564820Y-76901995D01*
X162553445Y-76864499D01*
X162549000Y-76819362D01*
X162549000Y-76180638D01*
X162553445Y-76135501D01*
X162564820Y-76098005D01*
X162583292Y-76063446D01*
X162608153Y-76033153D01*
X162638446Y-76008292D01*
X162673005Y-75989820D01*
X162710501Y-75978445D01*
X162755638Y-75974000D01*
X163494362Y-75974000D01*
X163539499Y-75978445D01*
X163539499Y-75978445D01*
G37*
G36*
X165289499Y-75978445D02*
G01*
X165326995Y-75989820D01*
X165361554Y-76008292D01*
X165391847Y-76033153D01*
X165416708Y-76063446D01*
X165435180Y-76098005D01*
X165446555Y-76135501D01*
X165451000Y-76180638D01*
X165451000Y-76819362D01*
X165446555Y-76864499D01*
X165435180Y-76901995D01*
X165416708Y-76936554D01*
X165391847Y-76966847D01*
X165361554Y-76991708D01*
X165326995Y-77010180D01*
X165289499Y-77021555D01*
X165244362Y-77026000D01*
X164505638Y-77026000D01*
X164460501Y-77021555D01*
X164423005Y-77010180D01*
X164388446Y-76991708D01*
X164358153Y-76966847D01*
X164333292Y-76936554D01*
X164314820Y-76901995D01*
X164303445Y-76864499D01*
X164299000Y-76819362D01*
X164299000Y-76180638D01*
X164303445Y-76135501D01*
X164314820Y-76098005D01*
X164333292Y-76063446D01*
X164358153Y-76033153D01*
X164388446Y-76008292D01*
X164423005Y-75989820D01*
X164460501Y-75978445D01*
X164505638Y-75974000D01*
X165244362Y-75974000D01*
X165289499Y-75978445D01*
X165289499Y-75978445D01*
G37*
G36*
X161501000Y-75901000D02*
G01*
X160499000Y-75901000D01*
X160499000Y-74999000D01*
X161501000Y-74999000D01*
X161501000Y-75901000D01*
X161501000Y-75901000D01*
G37*
G36*
X156864499Y-74553445D02*
G01*
X156901995Y-74564820D01*
X156936554Y-74583292D01*
X156966847Y-74608153D01*
X156991708Y-74638446D01*
X157010180Y-74673005D01*
X157021555Y-74710501D01*
X157026000Y-74755638D01*
X157026000Y-75494362D01*
X157021555Y-75539499D01*
X157010180Y-75576995D01*
X156991708Y-75611554D01*
X156966847Y-75641847D01*
X156936554Y-75666708D01*
X156901995Y-75685180D01*
X156864499Y-75696555D01*
X156819362Y-75701000D01*
X156180638Y-75701000D01*
X156135501Y-75696555D01*
X156098005Y-75685180D01*
X156063446Y-75666708D01*
X156033153Y-75641847D01*
X156008292Y-75611554D01*
X155989820Y-75576995D01*
X155978445Y-75539499D01*
X155974000Y-75494362D01*
X155974000Y-74755638D01*
X155978445Y-74710501D01*
X155989820Y-74673005D01*
X156008292Y-74638446D01*
X156033153Y-74608153D01*
X156063446Y-74583292D01*
X156098005Y-74564820D01*
X156135501Y-74553445D01*
X156180638Y-74549000D01*
X156819362Y-74549000D01*
X156864499Y-74553445D01*
X156864499Y-74553445D01*
G37*
G36*
X165289499Y-73978445D02*
G01*
X165326995Y-73989820D01*
X165361554Y-74008292D01*
X165391847Y-74033153D01*
X165416708Y-74063446D01*
X165435180Y-74098005D01*
X165446555Y-74135501D01*
X165451000Y-74180638D01*
X165451000Y-74819362D01*
X165446555Y-74864499D01*
X165435180Y-74901995D01*
X165416708Y-74936554D01*
X165391847Y-74966847D01*
X165361554Y-74991708D01*
X165326995Y-75010180D01*
X165289499Y-75021555D01*
X165244362Y-75026000D01*
X164505638Y-75026000D01*
X164460501Y-75021555D01*
X164423005Y-75010180D01*
X164388446Y-74991708D01*
X164358153Y-74966847D01*
X164333292Y-74936554D01*
X164314820Y-74901995D01*
X164303445Y-74864499D01*
X164299000Y-74819362D01*
X164299000Y-74180638D01*
X164303445Y-74135501D01*
X164314820Y-74098005D01*
X164333292Y-74063446D01*
X164358153Y-74033153D01*
X164388446Y-74008292D01*
X164423005Y-73989820D01*
X164460501Y-73978445D01*
X164505638Y-73974000D01*
X165244362Y-73974000D01*
X165289499Y-73978445D01*
X165289499Y-73978445D01*
G37*
G36*
X163539499Y-73978445D02*
G01*
X163576995Y-73989820D01*
X163611554Y-74008292D01*
X163641847Y-74033153D01*
X163666708Y-74063446D01*
X163685180Y-74098005D01*
X163696555Y-74135501D01*
X163701000Y-74180638D01*
X163701000Y-74819362D01*
X163696555Y-74864499D01*
X163685180Y-74901995D01*
X163666708Y-74936554D01*
X163641847Y-74966847D01*
X163611554Y-74991708D01*
X163576995Y-75010180D01*
X163539499Y-75021555D01*
X163494362Y-75026000D01*
X162755638Y-75026000D01*
X162710501Y-75021555D01*
X162673005Y-75010180D01*
X162638446Y-74991708D01*
X162608153Y-74966847D01*
X162583292Y-74936554D01*
X162564820Y-74901995D01*
X162553445Y-74864499D01*
X162549000Y-74819362D01*
X162549000Y-74180638D01*
X162553445Y-74135501D01*
X162564820Y-74098005D01*
X162583292Y-74063446D01*
X162608153Y-74033153D01*
X162638446Y-74008292D01*
X162673005Y-73989820D01*
X162710501Y-73978445D01*
X162755638Y-73974000D01*
X163494362Y-73974000D01*
X163539499Y-73978445D01*
X163539499Y-73978445D01*
G37*
G36*
X159501000Y-74951000D02*
G01*
X158499000Y-74951000D01*
X158499000Y-74049000D01*
X159501000Y-74049000D01*
X159501000Y-74951000D01*
X159501000Y-74951000D01*
G37*
G36*
X161501000Y-74001000D02*
G01*
X160499000Y-74001000D01*
X160499000Y-73099000D01*
X161501000Y-73099000D01*
X161501000Y-74001000D01*
X161501000Y-74001000D01*
G37*
G36*
X102636601Y-72684397D02*
G01*
X102675305Y-72692096D01*
X102707340Y-72705365D01*
X102784680Y-72737400D01*
X102883115Y-72803173D01*
X102966827Y-72886885D01*
X103032600Y-72985320D01*
X103077904Y-73094696D01*
X103101000Y-73210805D01*
X103101000Y-73329195D01*
X103077904Y-73445304D01*
X103032600Y-73554680D01*
X102966827Y-73653115D01*
X102883115Y-73736827D01*
X102784680Y-73802600D01*
X102707340Y-73834635D01*
X102675305Y-73847904D01*
X102636601Y-73855603D01*
X102559195Y-73871000D01*
X102440805Y-73871000D01*
X102363399Y-73855603D01*
X102324695Y-73847904D01*
X102292660Y-73834635D01*
X102215320Y-73802600D01*
X102116885Y-73736827D01*
X102033173Y-73653115D01*
X101967400Y-73554680D01*
X101922096Y-73445304D01*
X101899000Y-73329195D01*
X101899000Y-73210805D01*
X101922096Y-73094696D01*
X101967400Y-72985320D01*
X102033173Y-72886885D01*
X102116885Y-72803173D01*
X102215320Y-72737400D01*
X102292660Y-72705365D01*
X102324695Y-72692096D01*
X102363399Y-72684397D01*
X102440805Y-72669000D01*
X102559195Y-72669000D01*
X102636601Y-72684397D01*
X102636601Y-72684397D01*
G37*
G36*
X165289499Y-71978445D02*
G01*
X165326995Y-71989820D01*
X165361554Y-72008292D01*
X165391847Y-72033153D01*
X165416708Y-72063446D01*
X165435180Y-72098005D01*
X165446555Y-72135501D01*
X165451000Y-72180638D01*
X165451000Y-72819362D01*
X165446555Y-72864499D01*
X165435180Y-72901995D01*
X165416708Y-72936554D01*
X165391847Y-72966847D01*
X165361554Y-72991708D01*
X165326995Y-73010180D01*
X165289499Y-73021555D01*
X165244362Y-73026000D01*
X164505638Y-73026000D01*
X164460501Y-73021555D01*
X164423005Y-73010180D01*
X164388446Y-72991708D01*
X164358153Y-72966847D01*
X164333292Y-72936554D01*
X164314820Y-72901995D01*
X164303445Y-72864499D01*
X164299000Y-72819362D01*
X164299000Y-72180638D01*
X164303445Y-72135501D01*
X164314820Y-72098005D01*
X164333292Y-72063446D01*
X164358153Y-72033153D01*
X164388446Y-72008292D01*
X164423005Y-71989820D01*
X164460501Y-71978445D01*
X164505638Y-71974000D01*
X165244362Y-71974000D01*
X165289499Y-71978445D01*
X165289499Y-71978445D01*
G37*
G36*
X163539499Y-71978445D02*
G01*
X163576995Y-71989820D01*
X163611554Y-72008292D01*
X163641847Y-72033153D01*
X163666708Y-72063446D01*
X163685180Y-72098005D01*
X163696555Y-72135501D01*
X163701000Y-72180638D01*
X163701000Y-72819362D01*
X163696555Y-72864499D01*
X163685180Y-72901995D01*
X163666708Y-72936554D01*
X163641847Y-72966847D01*
X163611554Y-72991708D01*
X163576995Y-73010180D01*
X163539499Y-73021555D01*
X163494362Y-73026000D01*
X162755638Y-73026000D01*
X162710501Y-73021555D01*
X162673005Y-73010180D01*
X162638446Y-72991708D01*
X162608153Y-72966847D01*
X162583292Y-72936554D01*
X162564820Y-72901995D01*
X162553445Y-72864499D01*
X162549000Y-72819362D01*
X162549000Y-72180638D01*
X162553445Y-72135501D01*
X162564820Y-72098005D01*
X162583292Y-72063446D01*
X162608153Y-72033153D01*
X162638446Y-72008292D01*
X162673005Y-71989820D01*
X162710501Y-71978445D01*
X162755638Y-71974000D01*
X163494362Y-71974000D01*
X163539499Y-71978445D01*
X163539499Y-71978445D01*
G37*
G36*
X207263500Y-71461886D02*
G01*
X207264102Y-71474138D01*
X207266649Y-71500000D01*
X207264102Y-71525862D01*
X207263500Y-71538114D01*
X207263500Y-71611406D01*
X207254543Y-71628164D01*
X207250415Y-71639701D01*
X207224632Y-71724693D01*
X207216854Y-71750336D01*
X207156406Y-71863425D01*
X207075054Y-71962554D01*
X206975925Y-72043906D01*
X206862836Y-72104354D01*
X206830904Y-72114040D01*
X206740118Y-72141580D01*
X206676355Y-72147860D01*
X206644474Y-72151000D01*
X205880526Y-72151000D01*
X205848645Y-72147860D01*
X205784882Y-72141580D01*
X205694096Y-72114040D01*
X205662164Y-72104354D01*
X205549075Y-72043906D01*
X205449946Y-71962554D01*
X205368594Y-71863425D01*
X205308146Y-71750336D01*
X205300368Y-71724693D01*
X205274587Y-71639708D01*
X205265213Y-71617075D01*
X205261500Y-71611518D01*
X205261500Y-71538114D01*
X205260898Y-71525862D01*
X205258351Y-71500000D01*
X205260898Y-71474138D01*
X205261500Y-71461886D01*
X205261500Y-70249000D01*
X207263500Y-70249000D01*
X207263500Y-71461886D01*
X207263500Y-71461886D01*
G37*
G36*
X107716601Y-70144397D02*
G01*
X107755305Y-70152096D01*
X107787340Y-70165365D01*
X107864680Y-70197400D01*
X107963115Y-70263173D01*
X108046827Y-70346885D01*
X108112600Y-70445320D01*
X108139465Y-70510180D01*
X108157904Y-70554695D01*
X108181000Y-70670807D01*
X108181000Y-70789193D01*
X108157904Y-70905305D01*
X108144960Y-70936554D01*
X108112600Y-71014680D01*
X108046827Y-71113115D01*
X107963115Y-71196827D01*
X107864680Y-71262600D01*
X107787340Y-71294635D01*
X107755305Y-71307904D01*
X107716601Y-71315603D01*
X107639195Y-71331000D01*
X107520805Y-71331000D01*
X107443399Y-71315603D01*
X107404695Y-71307904D01*
X107372660Y-71294635D01*
X107295320Y-71262600D01*
X107196885Y-71196827D01*
X107113173Y-71113115D01*
X107047400Y-71014680D01*
X107015040Y-70936554D01*
X107002096Y-70905305D01*
X106979000Y-70789193D01*
X106979000Y-70670807D01*
X107002096Y-70554695D01*
X107020535Y-70510180D01*
X107047400Y-70445320D01*
X107113173Y-70346885D01*
X107196885Y-70263173D01*
X107295320Y-70197400D01*
X107372660Y-70165365D01*
X107404695Y-70152096D01*
X107443399Y-70144397D01*
X107520805Y-70129000D01*
X107639195Y-70129000D01*
X107716601Y-70144397D01*
X107716601Y-70144397D01*
G37*
G36*
X112796601Y-70144397D02*
G01*
X112835305Y-70152096D01*
X112867340Y-70165365D01*
X112944680Y-70197400D01*
X113043115Y-70263173D01*
X113126827Y-70346885D01*
X113192600Y-70445320D01*
X113219465Y-70510180D01*
X113237904Y-70554695D01*
X113261000Y-70670807D01*
X113261000Y-70789193D01*
X113237904Y-70905305D01*
X113224960Y-70936554D01*
X113192600Y-71014680D01*
X113126827Y-71113115D01*
X113043115Y-71196827D01*
X112944680Y-71262600D01*
X112867340Y-71294635D01*
X112835305Y-71307904D01*
X112796601Y-71315603D01*
X112719195Y-71331000D01*
X112600805Y-71331000D01*
X112523399Y-71315603D01*
X112484695Y-71307904D01*
X112452660Y-71294635D01*
X112375320Y-71262600D01*
X112276885Y-71196827D01*
X112193173Y-71113115D01*
X112127400Y-71014680D01*
X112095040Y-70936554D01*
X112082096Y-70905305D01*
X112059000Y-70789193D01*
X112059000Y-70670807D01*
X112082096Y-70554695D01*
X112100535Y-70510180D01*
X112127400Y-70445320D01*
X112193173Y-70346885D01*
X112276885Y-70263173D01*
X112375320Y-70197400D01*
X112452660Y-70165365D01*
X112484695Y-70152096D01*
X112523399Y-70144397D01*
X112600805Y-70129000D01*
X112719195Y-70129000D01*
X112796601Y-70144397D01*
X112796601Y-70144397D01*
G37*
G36*
X102636601Y-70144397D02*
G01*
X102675305Y-70152096D01*
X102707340Y-70165365D01*
X102784680Y-70197400D01*
X102883115Y-70263173D01*
X102966827Y-70346885D01*
X103032600Y-70445320D01*
X103059465Y-70510180D01*
X103077904Y-70554695D01*
X103101000Y-70670807D01*
X103101000Y-70789193D01*
X103077904Y-70905305D01*
X103064960Y-70936554D01*
X103032600Y-71014680D01*
X102966827Y-71113115D01*
X102883115Y-71196827D01*
X102784680Y-71262600D01*
X102707340Y-71294635D01*
X102675305Y-71307904D01*
X102636601Y-71315603D01*
X102559195Y-71331000D01*
X102440805Y-71331000D01*
X102363399Y-71315603D01*
X102324695Y-71307904D01*
X102292660Y-71294635D01*
X102215320Y-71262600D01*
X102116885Y-71196827D01*
X102033173Y-71113115D01*
X101967400Y-71014680D01*
X101935040Y-70936554D01*
X101922096Y-70905305D01*
X101899000Y-70789193D01*
X101899000Y-70670807D01*
X101922096Y-70554695D01*
X101940535Y-70510180D01*
X101967400Y-70445320D01*
X102033173Y-70346885D01*
X102116885Y-70263173D01*
X102215320Y-70197400D01*
X102292660Y-70165365D01*
X102324695Y-70152096D01*
X102363399Y-70144397D01*
X102440805Y-70129000D01*
X102559195Y-70129000D01*
X102636601Y-70144397D01*
X102636601Y-70144397D01*
G37*
G36*
X110256601Y-70144397D02*
G01*
X110295305Y-70152096D01*
X110327340Y-70165365D01*
X110404680Y-70197400D01*
X110503115Y-70263173D01*
X110586827Y-70346885D01*
X110652600Y-70445320D01*
X110679465Y-70510180D01*
X110697904Y-70554695D01*
X110721000Y-70670807D01*
X110721000Y-70789193D01*
X110697904Y-70905305D01*
X110684960Y-70936554D01*
X110652600Y-71014680D01*
X110586827Y-71113115D01*
X110503115Y-71196827D01*
X110404680Y-71262600D01*
X110327340Y-71294635D01*
X110295305Y-71307904D01*
X110256601Y-71315603D01*
X110179195Y-71331000D01*
X110060805Y-71331000D01*
X109983399Y-71315603D01*
X109944695Y-71307904D01*
X109912660Y-71294635D01*
X109835320Y-71262600D01*
X109736885Y-71196827D01*
X109653173Y-71113115D01*
X109587400Y-71014680D01*
X109555040Y-70936554D01*
X109542096Y-70905305D01*
X109519000Y-70789193D01*
X109519000Y-70670807D01*
X109542096Y-70554695D01*
X109560535Y-70510180D01*
X109587400Y-70445320D01*
X109653173Y-70346885D01*
X109736885Y-70263173D01*
X109835320Y-70197400D01*
X109912660Y-70165365D01*
X109944695Y-70152096D01*
X109983399Y-70144397D01*
X110060805Y-70129000D01*
X110179195Y-70129000D01*
X110256601Y-70144397D01*
X110256601Y-70144397D01*
G37*
G36*
X203788848Y-64753820D02*
G01*
X203788850Y-64753821D01*
X203788851Y-64753821D01*
X203930074Y-64812317D01*
X203930077Y-64812319D01*
X204057169Y-64897239D01*
X204165261Y-65005331D01*
X204250181Y-65132423D01*
X204250183Y-65132426D01*
X204308679Y-65273649D01*
X204308680Y-65273652D01*
X204338500Y-65423569D01*
X204338500Y-65576431D01*
X204311772Y-65710805D01*
X204308679Y-65726351D01*
X204250183Y-65867574D01*
X204250181Y-65867577D01*
X204165261Y-65994669D01*
X204057169Y-66102761D01*
X203981808Y-66153115D01*
X203930074Y-66187683D01*
X203879772Y-66208519D01*
X203858164Y-66220068D01*
X203839222Y-66235614D01*
X203823677Y-66254556D01*
X203812126Y-66276166D01*
X203805013Y-66299615D01*
X203802611Y-66324001D01*
X203805013Y-66348387D01*
X203812126Y-66371836D01*
X203823677Y-66393447D01*
X203839223Y-66412389D01*
X203858165Y-66427934D01*
X203879775Y-66439485D01*
X203903224Y-66446598D01*
X203927610Y-66449000D01*
X204288500Y-66449000D01*
X204288500Y-69551000D01*
X203927610Y-69551000D01*
X203903224Y-69553402D01*
X203879775Y-69560515D01*
X203858164Y-69572066D01*
X203839222Y-69587611D01*
X203823677Y-69606553D01*
X203812126Y-69628164D01*
X203805013Y-69651613D01*
X203802611Y-69675999D01*
X203805013Y-69700385D01*
X203812126Y-69723834D01*
X203823677Y-69745445D01*
X203839222Y-69764387D01*
X203858164Y-69779932D01*
X203879772Y-69791481D01*
X203930074Y-69812317D01*
X203930075Y-69812318D01*
X204057169Y-69897239D01*
X204165261Y-70005331D01*
X204247894Y-70129000D01*
X204250183Y-70132426D01*
X204308679Y-70273649D01*
X204308680Y-70273652D01*
X204338500Y-70423569D01*
X204338500Y-70576431D01*
X204319728Y-70670807D01*
X204308679Y-70726351D01*
X204250183Y-70867574D01*
X204250181Y-70867577D01*
X204165261Y-70994669D01*
X204057169Y-71102761D01*
X204006564Y-71136574D01*
X203930074Y-71187683D01*
X203788851Y-71246179D01*
X203788850Y-71246179D01*
X203788848Y-71246180D01*
X203638931Y-71276000D01*
X203486069Y-71276000D01*
X203336152Y-71246180D01*
X203336150Y-71246179D01*
X203336149Y-71246179D01*
X203194926Y-71187683D01*
X203118436Y-71136574D01*
X203067831Y-71102761D01*
X202959739Y-70994669D01*
X202874819Y-70867577D01*
X202874817Y-70867574D01*
X202816321Y-70726351D01*
X202805273Y-70670807D01*
X202786500Y-70576431D01*
X202786500Y-70423569D01*
X202816320Y-70273652D01*
X202816321Y-70273649D01*
X202874817Y-70132426D01*
X202877106Y-70129000D01*
X202959739Y-70005331D01*
X203067831Y-69897239D01*
X203194925Y-69812318D01*
X203194926Y-69812317D01*
X203245228Y-69791481D01*
X203266836Y-69779932D01*
X203285778Y-69764386D01*
X203301323Y-69745444D01*
X203312874Y-69723834D01*
X203319987Y-69700385D01*
X203322389Y-69675999D01*
X203319987Y-69651613D01*
X203312874Y-69628164D01*
X203301323Y-69606553D01*
X203285777Y-69587611D01*
X203266835Y-69572066D01*
X203245225Y-69560515D01*
X203221776Y-69553402D01*
X203197390Y-69551000D01*
X202836500Y-69551000D01*
X202836500Y-66449000D01*
X203197390Y-66449000D01*
X203221776Y-66446598D01*
X203245225Y-66439485D01*
X203266836Y-66427934D01*
X203285778Y-66412389D01*
X203301323Y-66393447D01*
X203312874Y-66371836D01*
X203319987Y-66348387D01*
X203322389Y-66324001D01*
X203319987Y-66299615D01*
X203312874Y-66276166D01*
X203301323Y-66254555D01*
X203285778Y-66235613D01*
X203266836Y-66220068D01*
X203245228Y-66208519D01*
X203194926Y-66187683D01*
X203143192Y-66153115D01*
X203067831Y-66102761D01*
X202959739Y-65994669D01*
X202874819Y-65867577D01*
X202874817Y-65867574D01*
X202816321Y-65726351D01*
X202813229Y-65710805D01*
X202786500Y-65576431D01*
X202786500Y-65423569D01*
X202816320Y-65273652D01*
X202816321Y-65273649D01*
X202874817Y-65132426D01*
X202874819Y-65132423D01*
X202959739Y-65005331D01*
X203067831Y-64897239D01*
X203194923Y-64812319D01*
X203194926Y-64812317D01*
X203336149Y-64753821D01*
X203336150Y-64753821D01*
X203336152Y-64753820D01*
X203486069Y-64724000D01*
X203638931Y-64724000D01*
X203788848Y-64753820D01*
X203788848Y-64753820D01*
G37*
G36*
X124289499Y-69978445D02*
G01*
X124326995Y-69989820D01*
X124361554Y-70008292D01*
X124391847Y-70033153D01*
X124416708Y-70063446D01*
X124435180Y-70098005D01*
X124446555Y-70135501D01*
X124451000Y-70180638D01*
X124451000Y-70819362D01*
X124446555Y-70864499D01*
X124435180Y-70901995D01*
X124416708Y-70936554D01*
X124391847Y-70966847D01*
X124361554Y-70991708D01*
X124326995Y-71010180D01*
X124289499Y-71021555D01*
X124244362Y-71026000D01*
X123505638Y-71026000D01*
X123460501Y-71021555D01*
X123423005Y-71010180D01*
X123388446Y-70991708D01*
X123358153Y-70966847D01*
X123333292Y-70936554D01*
X123314820Y-70901995D01*
X123303445Y-70864499D01*
X123299000Y-70819362D01*
X123299000Y-70180638D01*
X123303445Y-70135501D01*
X123314820Y-70098005D01*
X123333292Y-70063446D01*
X123358153Y-70033153D01*
X123388446Y-70008292D01*
X123423005Y-69989820D01*
X123460501Y-69978445D01*
X123505638Y-69974000D01*
X124244362Y-69974000D01*
X124289499Y-69978445D01*
X124289499Y-69978445D01*
G37*
G36*
X165289499Y-69978445D02*
G01*
X165326995Y-69989820D01*
X165361554Y-70008292D01*
X165391847Y-70033153D01*
X165416708Y-70063446D01*
X165435180Y-70098005D01*
X165446555Y-70135501D01*
X165451000Y-70180638D01*
X165451000Y-70819362D01*
X165446555Y-70864499D01*
X165435180Y-70901995D01*
X165416708Y-70936554D01*
X165391847Y-70966847D01*
X165361554Y-70991708D01*
X165326995Y-71010180D01*
X165289499Y-71021555D01*
X165244362Y-71026000D01*
X164505638Y-71026000D01*
X164460501Y-71021555D01*
X164423005Y-71010180D01*
X164388446Y-70991708D01*
X164358153Y-70966847D01*
X164333292Y-70936554D01*
X164314820Y-70901995D01*
X164303445Y-70864499D01*
X164299000Y-70819362D01*
X164299000Y-70180638D01*
X164303445Y-70135501D01*
X164314820Y-70098005D01*
X164333292Y-70063446D01*
X164358153Y-70033153D01*
X164388446Y-70008292D01*
X164423005Y-69989820D01*
X164460501Y-69978445D01*
X164505638Y-69974000D01*
X165244362Y-69974000D01*
X165289499Y-69978445D01*
X165289499Y-69978445D01*
G37*
G36*
X163539499Y-69978445D02*
G01*
X163576995Y-69989820D01*
X163611554Y-70008292D01*
X163641847Y-70033153D01*
X163666708Y-70063446D01*
X163685180Y-70098005D01*
X163696555Y-70135501D01*
X163701000Y-70180638D01*
X163701000Y-70819362D01*
X163696555Y-70864499D01*
X163685180Y-70901995D01*
X163666708Y-70936554D01*
X163641847Y-70966847D01*
X163611554Y-70991708D01*
X163576995Y-71010180D01*
X163539499Y-71021555D01*
X163494362Y-71026000D01*
X162755638Y-71026000D01*
X162710501Y-71021555D01*
X162673005Y-71010180D01*
X162638446Y-70991708D01*
X162608153Y-70966847D01*
X162583292Y-70936554D01*
X162564820Y-70901995D01*
X162553445Y-70864499D01*
X162549000Y-70819362D01*
X162549000Y-70180638D01*
X162553445Y-70135501D01*
X162564820Y-70098005D01*
X162583292Y-70063446D01*
X162608153Y-70033153D01*
X162638446Y-70008292D01*
X162673005Y-69989820D01*
X162710501Y-69978445D01*
X162755638Y-69974000D01*
X163494362Y-69974000D01*
X163539499Y-69978445D01*
X163539499Y-69978445D01*
G37*
G36*
X122539499Y-69978445D02*
G01*
X122576995Y-69989820D01*
X122611554Y-70008292D01*
X122641847Y-70033153D01*
X122666708Y-70063446D01*
X122685180Y-70098005D01*
X122696555Y-70135501D01*
X122701000Y-70180638D01*
X122701000Y-70819362D01*
X122696555Y-70864499D01*
X122685180Y-70901995D01*
X122666708Y-70936554D01*
X122641847Y-70966847D01*
X122611554Y-70991708D01*
X122576995Y-71010180D01*
X122539499Y-71021555D01*
X122494362Y-71026000D01*
X121755638Y-71026000D01*
X121710501Y-71021555D01*
X121673005Y-71010180D01*
X121638446Y-70991708D01*
X121608153Y-70966847D01*
X121583292Y-70936554D01*
X121564820Y-70901995D01*
X121553445Y-70864499D01*
X121549000Y-70819362D01*
X121549000Y-70180638D01*
X121553445Y-70135501D01*
X121564820Y-70098005D01*
X121583292Y-70063446D01*
X121608153Y-70033153D01*
X121638446Y-70008292D01*
X121673005Y-69989820D01*
X121710501Y-69978445D01*
X121755638Y-69974000D01*
X122494362Y-69974000D01*
X122539499Y-69978445D01*
X122539499Y-69978445D01*
G37*
G36*
X198789499Y-69478445D02*
G01*
X198826995Y-69489820D01*
X198861554Y-69508292D01*
X198891847Y-69533153D01*
X198916708Y-69563446D01*
X198935180Y-69598005D01*
X198946555Y-69635501D01*
X198951000Y-69680638D01*
X198951000Y-70319362D01*
X198946555Y-70364499D01*
X198935180Y-70401995D01*
X198916708Y-70436554D01*
X198891847Y-70466847D01*
X198861554Y-70491708D01*
X198826995Y-70510180D01*
X198789499Y-70521555D01*
X198744362Y-70526000D01*
X198005638Y-70526000D01*
X197960501Y-70521555D01*
X197923005Y-70510180D01*
X197888446Y-70491708D01*
X197858153Y-70466847D01*
X197833292Y-70436554D01*
X197814820Y-70401995D01*
X197803445Y-70364499D01*
X197799000Y-70319362D01*
X197799000Y-69680638D01*
X197803445Y-69635501D01*
X197814820Y-69598005D01*
X197833292Y-69563446D01*
X197858153Y-69533153D01*
X197888446Y-69508292D01*
X197923005Y-69489820D01*
X197960501Y-69478445D01*
X198005638Y-69474000D01*
X198744362Y-69474000D01*
X198789499Y-69478445D01*
X198789499Y-69478445D01*
G37*
G36*
X197039499Y-69478445D02*
G01*
X197076995Y-69489820D01*
X197111554Y-69508292D01*
X197141847Y-69533153D01*
X197166708Y-69563446D01*
X197185180Y-69598005D01*
X197196555Y-69635501D01*
X197201000Y-69680638D01*
X197201000Y-70319362D01*
X197196555Y-70364499D01*
X197185180Y-70401995D01*
X197166708Y-70436554D01*
X197141847Y-70466847D01*
X197111554Y-70491708D01*
X197076995Y-70510180D01*
X197039499Y-70521555D01*
X196994362Y-70526000D01*
X196255638Y-70526000D01*
X196210501Y-70521555D01*
X196173005Y-70510180D01*
X196138446Y-70491708D01*
X196108153Y-70466847D01*
X196083292Y-70436554D01*
X196064820Y-70401995D01*
X196053445Y-70364499D01*
X196049000Y-70319362D01*
X196049000Y-69680638D01*
X196053445Y-69635501D01*
X196064820Y-69598005D01*
X196083292Y-69563446D01*
X196108153Y-69533153D01*
X196138446Y-69508292D01*
X196173005Y-69489820D01*
X196210501Y-69478445D01*
X196255638Y-69474000D01*
X196994362Y-69474000D01*
X197039499Y-69478445D01*
X197039499Y-69478445D01*
G37*
G36*
X207263500Y-69801000D02*
G01*
X205261500Y-69801000D01*
X205261500Y-68199000D01*
X207263500Y-68199000D01*
X207263500Y-69801000D01*
X207263500Y-69801000D01*
G37*
G36*
X207263500Y-67801000D02*
G01*
X205261500Y-67801000D01*
X205261500Y-66199000D01*
X207263500Y-66199000D01*
X207263500Y-67801000D01*
X207263500Y-67801000D01*
G37*
G36*
X124289499Y-65478445D02*
G01*
X124326995Y-65489820D01*
X124361554Y-65508292D01*
X124391847Y-65533153D01*
X124416708Y-65563446D01*
X124435180Y-65598005D01*
X124446555Y-65635501D01*
X124451000Y-65680638D01*
X124451000Y-66319362D01*
X124446555Y-66364499D01*
X124435180Y-66401995D01*
X124416708Y-66436554D01*
X124391847Y-66466847D01*
X124361554Y-66491708D01*
X124326995Y-66510180D01*
X124289499Y-66521555D01*
X124244362Y-66526000D01*
X123505638Y-66526000D01*
X123460501Y-66521555D01*
X123423005Y-66510180D01*
X123388446Y-66491708D01*
X123358153Y-66466847D01*
X123333292Y-66436554D01*
X123314820Y-66401995D01*
X123303445Y-66364499D01*
X123299000Y-66319362D01*
X123299000Y-65680638D01*
X123303445Y-65635501D01*
X123314820Y-65598005D01*
X123333292Y-65563446D01*
X123358153Y-65533153D01*
X123388446Y-65508292D01*
X123423005Y-65489820D01*
X123460501Y-65478445D01*
X123505638Y-65474000D01*
X124244362Y-65474000D01*
X124289499Y-65478445D01*
X124289499Y-65478445D01*
G37*
G36*
X122539499Y-65478445D02*
G01*
X122576995Y-65489820D01*
X122611554Y-65508292D01*
X122641847Y-65533153D01*
X122666708Y-65563446D01*
X122685180Y-65598005D01*
X122696555Y-65635501D01*
X122701000Y-65680638D01*
X122701000Y-66319362D01*
X122696555Y-66364499D01*
X122685180Y-66401995D01*
X122666708Y-66436554D01*
X122641847Y-66466847D01*
X122611554Y-66491708D01*
X122576995Y-66510180D01*
X122539499Y-66521555D01*
X122494362Y-66526000D01*
X121755638Y-66526000D01*
X121710501Y-66521555D01*
X121673005Y-66510180D01*
X121638446Y-66491708D01*
X121608153Y-66466847D01*
X121583292Y-66436554D01*
X121564820Y-66401995D01*
X121553445Y-66364499D01*
X121549000Y-66319362D01*
X121549000Y-65680638D01*
X121553445Y-65635501D01*
X121564820Y-65598005D01*
X121583292Y-65563446D01*
X121608153Y-65533153D01*
X121638446Y-65508292D01*
X121673005Y-65489820D01*
X121710501Y-65478445D01*
X121755638Y-65474000D01*
X122494362Y-65474000D01*
X122539499Y-65478445D01*
X122539499Y-65478445D01*
G37*
G36*
X102636601Y-65184397D02*
G01*
X102675305Y-65192096D01*
X102707340Y-65205365D01*
X102784680Y-65237400D01*
X102883115Y-65303173D01*
X102966827Y-65386885D01*
X103032600Y-65485320D01*
X103059818Y-65551031D01*
X103076326Y-65590885D01*
X103077904Y-65594696D01*
X103101000Y-65710805D01*
X103101000Y-65829195D01*
X103077904Y-65945304D01*
X103032600Y-66054680D01*
X102966827Y-66153115D01*
X102883115Y-66236827D01*
X102784680Y-66302600D01*
X102707340Y-66334635D01*
X102675305Y-66347904D01*
X102636601Y-66355603D01*
X102559195Y-66371000D01*
X102440805Y-66371000D01*
X102363399Y-66355603D01*
X102324695Y-66347904D01*
X102292660Y-66334635D01*
X102215320Y-66302600D01*
X102116885Y-66236827D01*
X102033173Y-66153115D01*
X101967400Y-66054680D01*
X101922096Y-65945304D01*
X101899000Y-65829195D01*
X101899000Y-65710805D01*
X101922096Y-65594696D01*
X101923675Y-65590885D01*
X101940182Y-65551031D01*
X101967400Y-65485320D01*
X102033173Y-65386885D01*
X102116885Y-65303173D01*
X102215320Y-65237400D01*
X102292660Y-65205365D01*
X102324695Y-65192096D01*
X102363399Y-65184397D01*
X102440805Y-65169000D01*
X102559195Y-65169000D01*
X102636601Y-65184397D01*
X102636601Y-65184397D01*
G37*
G36*
X206676355Y-63852140D02*
G01*
X206740118Y-63858420D01*
X206830904Y-63885960D01*
X206862836Y-63895646D01*
X206975925Y-63956094D01*
X207075054Y-64037446D01*
X207156406Y-64136575D01*
X207216854Y-64249664D01*
X207216855Y-64249668D01*
X207250413Y-64360292D01*
X207259787Y-64382925D01*
X207263500Y-64388482D01*
X207263500Y-64461886D01*
X207264102Y-64474138D01*
X207266649Y-64500000D01*
X207264102Y-64525862D01*
X207263500Y-64538114D01*
X207263500Y-65751000D01*
X205261500Y-65751000D01*
X205261500Y-64538114D01*
X205260898Y-64525862D01*
X205258351Y-64500000D01*
X205260898Y-64474138D01*
X205261500Y-64461886D01*
X205261500Y-64388594D01*
X205270457Y-64371836D01*
X205274585Y-64360299D01*
X205308145Y-64249668D01*
X205308146Y-64249664D01*
X205368594Y-64136575D01*
X205449946Y-64037446D01*
X205549075Y-63956094D01*
X205662164Y-63895646D01*
X205694096Y-63885960D01*
X205784882Y-63858420D01*
X205848645Y-63852140D01*
X205880526Y-63849000D01*
X206644474Y-63849000D01*
X206676355Y-63852140D01*
X206676355Y-63852140D01*
G37*
G36*
X112796601Y-62644397D02*
G01*
X112835305Y-62652096D01*
X112867340Y-62665365D01*
X112944680Y-62697400D01*
X113043115Y-62763173D01*
X113126827Y-62846885D01*
X113192600Y-62945320D01*
X113237904Y-63054696D01*
X113261000Y-63170805D01*
X113261000Y-63289195D01*
X113237904Y-63405304D01*
X113192600Y-63514680D01*
X113126827Y-63613115D01*
X113043115Y-63696827D01*
X112944680Y-63762600D01*
X112867340Y-63794635D01*
X112835305Y-63807904D01*
X112796601Y-63815603D01*
X112719195Y-63831000D01*
X112600805Y-63831000D01*
X112523399Y-63815603D01*
X112484695Y-63807904D01*
X112452660Y-63794635D01*
X112375320Y-63762600D01*
X112276885Y-63696827D01*
X112193173Y-63613115D01*
X112127400Y-63514680D01*
X112082096Y-63405304D01*
X112059000Y-63289195D01*
X112059000Y-63170805D01*
X112082096Y-63054696D01*
X112127400Y-62945320D01*
X112193173Y-62846885D01*
X112276885Y-62763173D01*
X112375320Y-62697400D01*
X112452660Y-62665365D01*
X112484695Y-62652096D01*
X112523399Y-62644397D01*
X112600805Y-62629000D01*
X112719195Y-62629000D01*
X112796601Y-62644397D01*
X112796601Y-62644397D01*
G37*
G36*
X102636601Y-62644397D02*
G01*
X102675305Y-62652096D01*
X102707340Y-62665365D01*
X102784680Y-62697400D01*
X102883115Y-62763173D01*
X102966827Y-62846885D01*
X103032600Y-62945320D01*
X103077904Y-63054696D01*
X103101000Y-63170805D01*
X103101000Y-63289195D01*
X103077904Y-63405304D01*
X103032600Y-63514680D01*
X102966827Y-63613115D01*
X102883115Y-63696827D01*
X102784680Y-63762600D01*
X102707340Y-63794635D01*
X102675305Y-63807904D01*
X102636601Y-63815603D01*
X102559195Y-63831000D01*
X102440805Y-63831000D01*
X102363399Y-63815603D01*
X102324695Y-63807904D01*
X102292660Y-63794635D01*
X102215320Y-63762600D01*
X102116885Y-63696827D01*
X102033173Y-63613115D01*
X101967400Y-63514680D01*
X101922096Y-63405304D01*
X101899000Y-63289195D01*
X101899000Y-63170805D01*
X101922096Y-63054696D01*
X101967400Y-62945320D01*
X102033173Y-62846885D01*
X102116885Y-62763173D01*
X102215320Y-62697400D01*
X102292660Y-62665365D01*
X102324695Y-62652096D01*
X102363399Y-62644397D01*
X102440805Y-62629000D01*
X102559195Y-62629000D01*
X102636601Y-62644397D01*
X102636601Y-62644397D01*
G37*
G36*
X110256601Y-62644397D02*
G01*
X110295305Y-62652096D01*
X110327340Y-62665365D01*
X110404680Y-62697400D01*
X110503115Y-62763173D01*
X110586827Y-62846885D01*
X110652600Y-62945320D01*
X110697904Y-63054696D01*
X110721000Y-63170805D01*
X110721000Y-63289195D01*
X110697904Y-63405304D01*
X110652600Y-63514680D01*
X110586827Y-63613115D01*
X110503115Y-63696827D01*
X110404680Y-63762600D01*
X110327340Y-63794635D01*
X110295305Y-63807904D01*
X110256601Y-63815603D01*
X110179195Y-63831000D01*
X110060805Y-63831000D01*
X109983399Y-63815603D01*
X109944695Y-63807904D01*
X109912660Y-63794635D01*
X109835320Y-63762600D01*
X109736885Y-63696827D01*
X109653173Y-63613115D01*
X109587400Y-63514680D01*
X109542096Y-63405304D01*
X109519000Y-63289195D01*
X109519000Y-63170805D01*
X109542096Y-63054696D01*
X109587400Y-62945320D01*
X109653173Y-62846885D01*
X109736885Y-62763173D01*
X109835320Y-62697400D01*
X109912660Y-62665365D01*
X109944695Y-62652096D01*
X109983399Y-62644397D01*
X110060805Y-62629000D01*
X110179195Y-62629000D01*
X110256601Y-62644397D01*
X110256601Y-62644397D01*
G37*
G36*
X107716601Y-62644397D02*
G01*
X107755305Y-62652096D01*
X107787340Y-62665365D01*
X107864680Y-62697400D01*
X107963115Y-62763173D01*
X108046827Y-62846885D01*
X108112600Y-62945320D01*
X108157904Y-63054696D01*
X108181000Y-63170805D01*
X108181000Y-63289195D01*
X108157904Y-63405304D01*
X108112600Y-63514680D01*
X108046827Y-63613115D01*
X107963115Y-63696827D01*
X107864680Y-63762600D01*
X107787340Y-63794635D01*
X107755305Y-63807904D01*
X107716601Y-63815603D01*
X107639195Y-63831000D01*
X107520805Y-63831000D01*
X107443399Y-63815603D01*
X107404695Y-63807904D01*
X107372660Y-63794635D01*
X107295320Y-63762600D01*
X107196885Y-63696827D01*
X107113173Y-63613115D01*
X107047400Y-63514680D01*
X107002096Y-63405304D01*
X106979000Y-63289195D01*
X106979000Y-63170805D01*
X107002096Y-63054696D01*
X107047400Y-62945320D01*
X107113173Y-62846885D01*
X107196885Y-62763173D01*
X107295320Y-62697400D01*
X107372660Y-62665365D01*
X107404695Y-62652096D01*
X107443399Y-62644397D01*
X107520805Y-62629000D01*
X107639195Y-62629000D01*
X107716601Y-62644397D01*
X107716601Y-62644397D01*
G37*
G36*
X205227290Y-60025619D02*
G01*
X205291689Y-60038429D01*
X205473678Y-60113811D01*
X205637463Y-60223249D01*
X205776751Y-60362537D01*
X205886189Y-60526322D01*
X205961571Y-60708311D01*
X206000000Y-60901509D01*
X206000000Y-61098491D01*
X205961571Y-61291689D01*
X205886189Y-61473678D01*
X205776751Y-61637463D01*
X205637463Y-61776751D01*
X205473678Y-61886189D01*
X205291689Y-61961571D01*
X205227290Y-61974381D01*
X205098493Y-62000000D01*
X204901507Y-62000000D01*
X204772710Y-61974381D01*
X204708311Y-61961571D01*
X204526322Y-61886189D01*
X204362537Y-61776751D01*
X204223249Y-61637463D01*
X204113811Y-61473678D01*
X204038429Y-61291689D01*
X204000000Y-61098491D01*
X204000000Y-60901509D01*
X204038429Y-60708311D01*
X204113811Y-60526322D01*
X204223249Y-60362537D01*
X204362537Y-60223249D01*
X204526322Y-60113811D01*
X204708311Y-60038429D01*
X204772710Y-60025619D01*
X204901507Y-60000000D01*
X205098493Y-60000000D01*
X205227290Y-60025619D01*
X205227290Y-60025619D01*
G37*
M02*
