G04 #@! TF.GenerationSoftware,KiCad,Pcbnew,(5.1.0)-1*
G04 #@! TF.CreationDate,2019-03-23T17:18:16-07:00*
G04 #@! TF.ProjectId,scart2dvi,73636172-7432-4647-9669-2e6b69636164,0.1*
G04 #@! TF.SameCoordinates,Original*
G04 #@! TF.FileFunction,Copper,L2,Bot*
G04 #@! TF.FilePolarity,Positive*
%FSLAX46Y46*%
G04 Gerber Fmt 4.6, Leading zero omitted, Abs format (unit mm)*
G04 Created by KiCad (PCBNEW (5.1.0)-1) date 2019-03-23 17:18:16*
%MOMM*%
%LPD*%
G04 APERTURE LIST*
%ADD10C,1.100000*%
%ADD11O,1.900000X1.200000*%
%ADD12C,1.450000*%
%ADD13O,3.500000X2.000000*%
%ADD14O,6.000000X4.000000*%
%ADD15C,2.500000*%
%ADD16C,1.260000*%
%ADD17C,0.609600*%
%ADD18C,0.914400*%
%ADD19C,0.700000*%
%ADD20C,0.203200*%
%ADD21C,0.254000*%
G04 APERTURE END LIST*
D10*
X102500000Y-73270000D03*
X102500000Y-70730000D03*
X112660000Y-70730000D03*
X110120000Y-70730000D03*
X107580000Y-70730000D03*
X102500000Y-65770000D03*
X102500000Y-63230000D03*
X112660000Y-63230000D03*
X110120000Y-63230000D03*
X107580000Y-63230000D03*
D11*
X206262500Y-64500000D03*
X206262500Y-71500000D03*
D12*
X203562500Y-65500000D03*
X203562500Y-70500000D03*
D13*
X115500000Y-87450000D03*
X110450000Y-89355000D03*
X115500000Y-91260000D03*
X110450000Y-93165000D03*
X115500000Y-95070000D03*
X110450000Y-96975000D03*
X115500000Y-98880000D03*
X110450000Y-100785000D03*
X115500000Y-102690000D03*
X110450000Y-104595000D03*
X115500000Y-106500000D03*
X110450000Y-108405000D03*
X115500000Y-110310000D03*
X110450000Y-112215000D03*
X115500000Y-114120000D03*
X110450000Y-116025000D03*
X115500000Y-117930000D03*
X110450000Y-119835000D03*
X115500000Y-121740000D03*
X110450000Y-123645000D03*
X115500000Y-125550000D03*
D14*
X108500000Y-80000000D03*
X108500000Y-133000000D03*
D15*
X206000000Y-123525000D03*
X206000000Y-104475000D03*
X202700000Y-129365000D03*
X202700000Y-98635000D03*
D16*
X198890000Y-123525000D03*
X198890000Y-121615000D03*
X198890000Y-119705000D03*
X198890000Y-117795000D03*
X198890000Y-115885000D03*
X198890000Y-113975000D03*
X198890000Y-112065000D03*
X198890000Y-110155000D03*
X200795000Y-123525000D03*
X200795000Y-121615000D03*
X200795000Y-119705000D03*
X200795000Y-117795000D03*
X200795000Y-115885000D03*
X200795000Y-113975000D03*
X200795000Y-112065000D03*
X200795000Y-110155000D03*
X202700000Y-123525000D03*
X202700000Y-121615000D03*
X202700000Y-119705000D03*
X202700000Y-117795000D03*
X202700000Y-115885000D03*
X202700000Y-113975000D03*
X202700000Y-112065000D03*
X202700000Y-110155000D03*
X203330000Y-105745000D03*
X202060000Y-104475000D03*
X202060000Y-107015000D03*
X198250000Y-105745000D03*
X199520000Y-107015000D03*
X199520000Y-104475000D03*
D17*
X123000000Y-111000000D03*
X123000000Y-118000000D03*
X131000000Y-118000000D03*
X131000000Y-111000000D03*
X123000000Y-125000000D03*
X131000000Y-125000000D03*
X131000000Y-103000000D03*
X123000000Y-103000000D03*
X123000000Y-95000000D03*
X131000000Y-95000000D03*
X138000000Y-95000000D03*
X138000000Y-91000000D03*
X158000000Y-108000000D03*
X163000000Y-105000000D03*
X159000000Y-99000000D03*
X155000000Y-99000000D03*
X151500000Y-103000000D03*
X142000000Y-102000000D03*
X138500000Y-105000000D03*
X168000000Y-105000000D03*
X173000000Y-107000000D03*
X173000000Y-111000000D03*
X169000000Y-114500000D03*
X161500000Y-114500000D03*
X194000000Y-103500000D03*
X196500000Y-100000000D03*
X196500000Y-107500000D03*
X205500000Y-76000000D03*
X194500000Y-75500000D03*
X198500000Y-88000000D03*
X176000000Y-74500000D03*
X177500000Y-69500000D03*
X188000000Y-65000000D03*
X152000000Y-70500000D03*
X146000000Y-75000000D03*
X160000000Y-77000000D03*
X158500000Y-79500000D03*
X125000000Y-83000000D03*
X135500000Y-66500000D03*
X158500000Y-70500000D03*
X155000000Y-72500000D03*
X200000000Y-138000000D03*
X160000000Y-138000000D03*
X180000000Y-138000000D03*
X140000000Y-138000000D03*
X120000000Y-138000000D03*
X176000000Y-84000000D03*
X183000000Y-93000000D03*
X173000000Y-101000000D03*
X194000000Y-120000000D03*
X194000000Y-125000000D03*
X152000000Y-94000000D03*
X159000000Y-90000000D03*
X162000000Y-89000000D03*
X162000000Y-94000000D03*
X162000000Y-99000000D03*
X159000000Y-94000000D03*
X139000000Y-118000000D03*
X139000000Y-112000000D03*
X144000000Y-107000000D03*
X145000000Y-115000000D03*
X151000000Y-115000000D03*
X142000000Y-75000000D03*
X141000000Y-67000000D03*
X136000000Y-86000000D03*
X137000000Y-79000000D03*
X135000000Y-74000000D03*
X130000000Y-80000000D03*
X185000000Y-71000000D03*
X177000000Y-64000000D03*
X167000000Y-64000000D03*
X156000000Y-64000000D03*
X144000000Y-64000000D03*
X140000000Y-60000000D03*
X130000000Y-60000000D03*
X120000000Y-60000000D03*
X150000000Y-60000000D03*
X160000000Y-60000000D03*
X170000000Y-60000000D03*
X180000000Y-60000000D03*
X190000000Y-60000000D03*
X170000000Y-138000000D03*
X190000000Y-138000000D03*
X150000000Y-138000000D03*
X130000000Y-138000000D03*
X110000000Y-138000000D03*
X170000000Y-77000000D03*
X178000000Y-81000000D03*
X181000000Y-86000000D03*
X178000000Y-88000000D03*
X185000000Y-90000000D03*
X192000000Y-91000000D03*
X196000000Y-94000000D03*
X190000000Y-93000000D03*
X194000000Y-97000000D03*
X173000000Y-81000000D03*
X175000000Y-78000000D03*
X161000000Y-85000000D03*
X158000000Y-86000000D03*
X153500000Y-75500000D03*
X148500000Y-75000000D03*
X148000000Y-101000000D03*
D18*
X145000000Y-96500000D03*
X146000000Y-100500000D03*
X147500000Y-62000000D03*
X146500000Y-68000000D03*
D17*
X153500000Y-112499996D03*
X157000000Y-105499994D03*
D19*
X145000000Y-99500000D02*
X146000000Y-100500000D01*
X145000000Y-96500000D02*
X145000000Y-99500000D01*
X146500000Y-63000000D02*
X147500000Y-62000000D01*
X146500000Y-68000000D02*
X146500000Y-63000000D01*
D20*
X153500000Y-112499996D02*
X157000000Y-108999996D01*
X157000000Y-108999996D02*
X157000000Y-105499994D01*
D21*
G36*
X207059955Y-58734012D02*
G01*
X207265988Y-58940045D01*
X207318200Y-59006689D01*
X207318200Y-63820051D01*
X207220872Y-63726663D01*
X207058312Y-63622835D01*
X206878619Y-63552716D01*
X206688700Y-63519000D01*
X206338700Y-63519000D01*
X206338700Y-64423800D01*
X206358700Y-64423800D01*
X206358700Y-64576200D01*
X206338700Y-64576200D01*
X206338700Y-65481000D01*
X206688700Y-65481000D01*
X206878619Y-65447284D01*
X207058312Y-65377165D01*
X207220872Y-65273337D01*
X207318200Y-65179949D01*
X207318200Y-70820051D01*
X207220872Y-70726663D01*
X207058312Y-70622835D01*
X206878619Y-70552716D01*
X206688700Y-70519000D01*
X206338700Y-70519000D01*
X206338700Y-71423800D01*
X206358700Y-71423800D01*
X206358700Y-71576200D01*
X206338700Y-71576200D01*
X206338700Y-72481000D01*
X206688700Y-72481000D01*
X206878619Y-72447284D01*
X207058312Y-72377165D01*
X207220872Y-72273337D01*
X207318200Y-72179949D01*
X207318201Y-103420666D01*
X207306340Y-103402915D01*
X207072085Y-103168660D01*
X206796631Y-102984608D01*
X206490563Y-102857830D01*
X206165643Y-102793200D01*
X205834357Y-102793200D01*
X205509437Y-102857830D01*
X205203369Y-102984608D01*
X204927915Y-103168660D01*
X204693660Y-103402915D01*
X204509608Y-103678369D01*
X204382830Y-103984437D01*
X204318200Y-104309357D01*
X204318200Y-104640643D01*
X204382830Y-104965563D01*
X204509608Y-105271631D01*
X204693660Y-105547085D01*
X204927915Y-105781340D01*
X205203369Y-105965392D01*
X205509437Y-106092170D01*
X205834357Y-106156800D01*
X206165643Y-106156800D01*
X206490563Y-106092170D01*
X206796631Y-105965392D01*
X207072085Y-105781340D01*
X207306340Y-105547085D01*
X207318201Y-105529334D01*
X207318201Y-122470666D01*
X207306340Y-122452915D01*
X207072085Y-122218660D01*
X206796631Y-122034608D01*
X206490563Y-121907830D01*
X206165643Y-121843200D01*
X205834357Y-121843200D01*
X205509437Y-121907830D01*
X205203369Y-122034608D01*
X204927915Y-122218660D01*
X204693660Y-122452915D01*
X204509608Y-122728369D01*
X204382830Y-123034437D01*
X204318200Y-123359357D01*
X204318200Y-123690643D01*
X204382830Y-124015563D01*
X204509608Y-124321631D01*
X204693660Y-124597085D01*
X204927915Y-124831340D01*
X205203369Y-125015392D01*
X205509437Y-125142170D01*
X205834357Y-125206800D01*
X206165643Y-125206800D01*
X206490563Y-125142170D01*
X206796631Y-125015392D01*
X207072085Y-124831340D01*
X207306340Y-124597085D01*
X207318201Y-124579334D01*
X207318201Y-138993310D01*
X207265988Y-139059955D01*
X207059955Y-139265988D01*
X206993311Y-139318200D01*
X101006689Y-139318200D01*
X100940045Y-139265988D01*
X100734012Y-139059955D01*
X100681800Y-138993311D01*
X100681800Y-133000000D01*
X105056434Y-133000000D01*
X105103386Y-133476716D01*
X105242439Y-133935112D01*
X105468249Y-134357573D01*
X105772138Y-134727862D01*
X106142427Y-135031751D01*
X106564888Y-135257561D01*
X107023284Y-135396614D01*
X107380537Y-135431800D01*
X109619463Y-135431800D01*
X109976716Y-135396614D01*
X110435112Y-135257561D01*
X110857573Y-135031751D01*
X111227862Y-134727862D01*
X111531751Y-134357573D01*
X111757561Y-133935112D01*
X111896614Y-133476716D01*
X111943566Y-133000000D01*
X111896614Y-132523284D01*
X111757561Y-132064888D01*
X111531751Y-131642427D01*
X111227862Y-131272138D01*
X110857573Y-130968249D01*
X110435112Y-130742439D01*
X109976716Y-130603386D01*
X109619463Y-130568200D01*
X107380537Y-130568200D01*
X107023284Y-130603386D01*
X106564888Y-130742439D01*
X106142427Y-130968249D01*
X105772138Y-131272138D01*
X105468249Y-131642427D01*
X105242439Y-132064888D01*
X105103386Y-132523284D01*
X105056434Y-133000000D01*
X100681800Y-133000000D01*
X100681800Y-130509070D01*
X201663693Y-130509070D01*
X201799372Y-130734247D01*
X202083804Y-130883641D01*
X202391916Y-130974675D01*
X202711868Y-131003850D01*
X203031364Y-130970045D01*
X203338126Y-130874558D01*
X203600628Y-130734247D01*
X203736307Y-130509070D01*
X202700000Y-129472763D01*
X201663693Y-130509070D01*
X100681800Y-130509070D01*
X100681800Y-129376868D01*
X201061150Y-129376868D01*
X201094955Y-129696364D01*
X201190442Y-130003126D01*
X201330753Y-130265628D01*
X201555930Y-130401307D01*
X202592237Y-129365000D01*
X202807763Y-129365000D01*
X203844070Y-130401307D01*
X204069247Y-130265628D01*
X204218641Y-129981196D01*
X204309675Y-129673084D01*
X204338850Y-129353132D01*
X204305045Y-129033636D01*
X204209558Y-128726874D01*
X204069247Y-128464372D01*
X203844070Y-128328693D01*
X202807763Y-129365000D01*
X202592237Y-129365000D01*
X201555930Y-128328693D01*
X201330753Y-128464372D01*
X201181359Y-128748804D01*
X201090325Y-129056916D01*
X201061150Y-129376868D01*
X100681800Y-129376868D01*
X100681800Y-128220930D01*
X201663693Y-128220930D01*
X202700000Y-129257237D01*
X203736307Y-128220930D01*
X203600628Y-127995753D01*
X203316196Y-127846359D01*
X203008084Y-127755325D01*
X202688132Y-127726150D01*
X202368636Y-127759955D01*
X202061874Y-127855442D01*
X201799372Y-127995753D01*
X201663693Y-128220930D01*
X100681800Y-128220930D01*
X100681800Y-125840969D01*
X113400001Y-125840969D01*
X113444962Y-126008087D01*
X113559406Y-126253885D01*
X113719604Y-126472633D01*
X113919399Y-126655925D01*
X114151114Y-126796717D01*
X114405844Y-126889599D01*
X114673800Y-126931000D01*
X115423800Y-126931000D01*
X115423800Y-125626200D01*
X115576200Y-125626200D01*
X115576200Y-126931000D01*
X116326200Y-126931000D01*
X116594156Y-126889599D01*
X116848886Y-126796717D01*
X117080601Y-126655925D01*
X117280396Y-126472633D01*
X117440594Y-126253885D01*
X117555038Y-126008087D01*
X117599999Y-125840969D01*
X117533490Y-125626200D01*
X115576200Y-125626200D01*
X115423800Y-125626200D01*
X113466510Y-125626200D01*
X113400001Y-125840969D01*
X100681800Y-125840969D01*
X100681800Y-125259031D01*
X113400001Y-125259031D01*
X113466510Y-125473800D01*
X115423800Y-125473800D01*
X115423800Y-125453800D01*
X115576200Y-125453800D01*
X115576200Y-125473800D01*
X117533490Y-125473800D01*
X117599999Y-125259031D01*
X117555038Y-125091913D01*
X117440594Y-124846115D01*
X117280396Y-124627367D01*
X117080601Y-124444075D01*
X116848886Y-124303283D01*
X116594156Y-124210401D01*
X116326200Y-124169000D01*
X114673800Y-124169000D01*
X114405844Y-124210401D01*
X114151114Y-124303283D01*
X113919399Y-124444075D01*
X113719604Y-124627367D01*
X113559406Y-124846115D01*
X113444962Y-125091913D01*
X113400001Y-125259031D01*
X100681800Y-125259031D01*
X100681800Y-123645000D01*
X108261273Y-123645000D01*
X108288918Y-123925682D01*
X108370790Y-124195577D01*
X108503742Y-124444314D01*
X108682666Y-124662334D01*
X108900686Y-124841258D01*
X109149423Y-124974210D01*
X109419318Y-125056082D01*
X109629670Y-125076800D01*
X111270330Y-125076800D01*
X111480682Y-125056082D01*
X111750577Y-124974210D01*
X111999314Y-124841258D01*
X112217334Y-124662334D01*
X112396258Y-124444314D01*
X112529210Y-124195577D01*
X112611082Y-123925682D01*
X112638727Y-123645000D01*
X112611082Y-123364318D01*
X112529210Y-123094423D01*
X112396258Y-122845686D01*
X112217334Y-122627666D01*
X111999314Y-122448742D01*
X111750577Y-122315790D01*
X111480682Y-122233918D01*
X111270330Y-122213200D01*
X109629670Y-122213200D01*
X109419318Y-122233918D01*
X109149423Y-122315790D01*
X108900686Y-122448742D01*
X108682666Y-122627666D01*
X108503742Y-122845686D01*
X108370790Y-123094423D01*
X108288918Y-123364318D01*
X108261273Y-123645000D01*
X100681800Y-123645000D01*
X100681800Y-121740000D01*
X113311273Y-121740000D01*
X113338918Y-122020682D01*
X113420790Y-122290577D01*
X113553742Y-122539314D01*
X113732666Y-122757334D01*
X113950686Y-122936258D01*
X114199423Y-123069210D01*
X114469318Y-123151082D01*
X114679670Y-123171800D01*
X116320330Y-123171800D01*
X116530682Y-123151082D01*
X116800577Y-123069210D01*
X117049314Y-122936258D01*
X117267334Y-122757334D01*
X117446258Y-122539314D01*
X117579210Y-122290577D01*
X117661082Y-122020682D01*
X117688727Y-121740000D01*
X117666116Y-121510422D01*
X197828200Y-121510422D01*
X197828200Y-121719578D01*
X197869004Y-121924716D01*
X197949045Y-122117951D01*
X198065246Y-122291858D01*
X198213142Y-122439754D01*
X198387049Y-122555955D01*
X198420956Y-122570000D01*
X198387049Y-122584045D01*
X198213142Y-122700246D01*
X198065246Y-122848142D01*
X197949045Y-123022049D01*
X197869004Y-123215284D01*
X197828200Y-123420422D01*
X197828200Y-123629578D01*
X197869004Y-123834716D01*
X197949045Y-124027951D01*
X198065246Y-124201858D01*
X198213142Y-124349754D01*
X198387049Y-124465955D01*
X198580284Y-124545996D01*
X198785422Y-124586800D01*
X198994578Y-124586800D01*
X199199716Y-124545996D01*
X199392951Y-124465955D01*
X199566858Y-124349754D01*
X199714754Y-124201858D01*
X199830955Y-124027951D01*
X199842500Y-124000079D01*
X199854045Y-124027951D01*
X199970246Y-124201858D01*
X200118142Y-124349754D01*
X200292049Y-124465955D01*
X200485284Y-124545996D01*
X200690422Y-124586800D01*
X200899578Y-124586800D01*
X201104716Y-124545996D01*
X201297951Y-124465955D01*
X201471858Y-124349754D01*
X201619754Y-124201858D01*
X201735955Y-124027951D01*
X201747500Y-124000079D01*
X201759045Y-124027951D01*
X201875246Y-124201858D01*
X202023142Y-124349754D01*
X202197049Y-124465955D01*
X202390284Y-124545996D01*
X202595422Y-124586800D01*
X202804578Y-124586800D01*
X203009716Y-124545996D01*
X203202951Y-124465955D01*
X203376858Y-124349754D01*
X203524754Y-124201858D01*
X203640955Y-124027951D01*
X203720996Y-123834716D01*
X203761800Y-123629578D01*
X203761800Y-123420422D01*
X203720996Y-123215284D01*
X203640955Y-123022049D01*
X203524754Y-122848142D01*
X203376858Y-122700246D01*
X203202951Y-122584045D01*
X203169044Y-122570000D01*
X203202951Y-122555955D01*
X203376858Y-122439754D01*
X203524754Y-122291858D01*
X203640955Y-122117951D01*
X203720996Y-121924716D01*
X203761800Y-121719578D01*
X203761800Y-121510422D01*
X203720996Y-121305284D01*
X203640955Y-121112049D01*
X203524754Y-120938142D01*
X203376858Y-120790246D01*
X203202951Y-120674045D01*
X203106902Y-120634260D01*
X203122118Y-120629042D01*
X203233797Y-120569348D01*
X203294877Y-120407640D01*
X202700000Y-119812763D01*
X202105123Y-120407640D01*
X202166203Y-120569348D01*
X202296219Y-120632967D01*
X202197049Y-120674045D01*
X202023142Y-120790246D01*
X201875246Y-120938142D01*
X201759045Y-121112049D01*
X201747500Y-121139921D01*
X201735955Y-121112049D01*
X201619754Y-120938142D01*
X201471858Y-120790246D01*
X201297951Y-120674045D01*
X201201902Y-120634260D01*
X201217118Y-120629042D01*
X201328797Y-120569348D01*
X201389877Y-120407640D01*
X200795000Y-119812763D01*
X200200123Y-120407640D01*
X200261203Y-120569348D01*
X200391219Y-120632967D01*
X200292049Y-120674045D01*
X200118142Y-120790246D01*
X199970246Y-120938142D01*
X199854045Y-121112049D01*
X199842500Y-121139921D01*
X199830955Y-121112049D01*
X199714754Y-120938142D01*
X199566858Y-120790246D01*
X199392951Y-120674045D01*
X199296902Y-120634260D01*
X199312118Y-120629042D01*
X199423797Y-120569348D01*
X199484877Y-120407640D01*
X198890000Y-119812763D01*
X198295123Y-120407640D01*
X198356203Y-120569348D01*
X198486219Y-120632967D01*
X198387049Y-120674045D01*
X198213142Y-120790246D01*
X198065246Y-120938142D01*
X197949045Y-121112049D01*
X197869004Y-121305284D01*
X197828200Y-121510422D01*
X117666116Y-121510422D01*
X117661082Y-121459318D01*
X117579210Y-121189423D01*
X117446258Y-120940686D01*
X117267334Y-120722666D01*
X117049314Y-120543742D01*
X116800577Y-120410790D01*
X116530682Y-120328918D01*
X116320330Y-120308200D01*
X114679670Y-120308200D01*
X114469318Y-120328918D01*
X114199423Y-120410790D01*
X113950686Y-120543742D01*
X113732666Y-120722666D01*
X113553742Y-120940686D01*
X113420790Y-121189423D01*
X113338918Y-121459318D01*
X113311273Y-121740000D01*
X100681800Y-121740000D01*
X100681800Y-120125969D01*
X108350001Y-120125969D01*
X108394962Y-120293087D01*
X108509406Y-120538885D01*
X108669604Y-120757633D01*
X108869399Y-120940925D01*
X109101114Y-121081717D01*
X109355844Y-121174599D01*
X109623800Y-121216000D01*
X110373800Y-121216000D01*
X110373800Y-119911200D01*
X110526200Y-119911200D01*
X110526200Y-121216000D01*
X111276200Y-121216000D01*
X111544156Y-121174599D01*
X111798886Y-121081717D01*
X112030601Y-120940925D01*
X112230396Y-120757633D01*
X112390594Y-120538885D01*
X112505038Y-120293087D01*
X112549999Y-120125969D01*
X112483490Y-119911200D01*
X110526200Y-119911200D01*
X110373800Y-119911200D01*
X108416510Y-119911200D01*
X108350001Y-120125969D01*
X100681800Y-120125969D01*
X100681800Y-119544031D01*
X108350001Y-119544031D01*
X108416510Y-119758800D01*
X110373800Y-119758800D01*
X110373800Y-119738800D01*
X110526200Y-119738800D01*
X110526200Y-119758800D01*
X112483490Y-119758800D01*
X112488887Y-119741371D01*
X197874759Y-119741371D01*
X197901361Y-119938736D01*
X197965958Y-120127118D01*
X198025652Y-120238797D01*
X198187360Y-120299877D01*
X198782237Y-119705000D01*
X198997763Y-119705000D01*
X199592640Y-120299877D01*
X199754348Y-120238797D01*
X199841879Y-120059914D01*
X199844508Y-120049982D01*
X199870958Y-120127118D01*
X199930652Y-120238797D01*
X200092360Y-120299877D01*
X200687237Y-119705000D01*
X200902763Y-119705000D01*
X201497640Y-120299877D01*
X201659348Y-120238797D01*
X201746879Y-120059914D01*
X201749508Y-120049982D01*
X201775958Y-120127118D01*
X201835652Y-120238797D01*
X201997360Y-120299877D01*
X202592237Y-119705000D01*
X202807763Y-119705000D01*
X203402640Y-120299877D01*
X203564348Y-120238797D01*
X203651879Y-120059914D01*
X203702829Y-119867392D01*
X203715241Y-119668629D01*
X203688639Y-119471264D01*
X203624042Y-119282882D01*
X203564348Y-119171203D01*
X203402640Y-119110123D01*
X202807763Y-119705000D01*
X202592237Y-119705000D01*
X201997360Y-119110123D01*
X201835652Y-119171203D01*
X201748121Y-119350086D01*
X201745492Y-119360018D01*
X201719042Y-119282882D01*
X201659348Y-119171203D01*
X201497640Y-119110123D01*
X200902763Y-119705000D01*
X200687237Y-119705000D01*
X200092360Y-119110123D01*
X199930652Y-119171203D01*
X199843121Y-119350086D01*
X199840492Y-119360018D01*
X199814042Y-119282882D01*
X199754348Y-119171203D01*
X199592640Y-119110123D01*
X198997763Y-119705000D01*
X198782237Y-119705000D01*
X198187360Y-119110123D01*
X198025652Y-119171203D01*
X197938121Y-119350086D01*
X197887171Y-119542608D01*
X197874759Y-119741371D01*
X112488887Y-119741371D01*
X112549999Y-119544031D01*
X112505038Y-119376913D01*
X112390594Y-119131115D01*
X112230396Y-118912367D01*
X112030601Y-118729075D01*
X111798886Y-118588283D01*
X111544156Y-118495401D01*
X111276200Y-118454000D01*
X109623800Y-118454000D01*
X109355844Y-118495401D01*
X109101114Y-118588283D01*
X108869399Y-118729075D01*
X108669604Y-118912367D01*
X108509406Y-119131115D01*
X108394962Y-119376913D01*
X108350001Y-119544031D01*
X100681800Y-119544031D01*
X100681800Y-118220969D01*
X113400001Y-118220969D01*
X113444962Y-118388087D01*
X113559406Y-118633885D01*
X113719604Y-118852633D01*
X113919399Y-119035925D01*
X114151114Y-119176717D01*
X114405844Y-119269599D01*
X114673800Y-119311000D01*
X115423800Y-119311000D01*
X115423800Y-118006200D01*
X115576200Y-118006200D01*
X115576200Y-119311000D01*
X116326200Y-119311000D01*
X116594156Y-119269599D01*
X116848886Y-119176717D01*
X117080601Y-119035925D01*
X117280396Y-118852633D01*
X117440594Y-118633885D01*
X117555038Y-118388087D01*
X117599999Y-118220969D01*
X117533490Y-118006200D01*
X115576200Y-118006200D01*
X115423800Y-118006200D01*
X113466510Y-118006200D01*
X113400001Y-118220969D01*
X100681800Y-118220969D01*
X100681800Y-117639031D01*
X113400001Y-117639031D01*
X113466510Y-117853800D01*
X115423800Y-117853800D01*
X115423800Y-117833800D01*
X115576200Y-117833800D01*
X115576200Y-117853800D01*
X117533490Y-117853800D01*
X117599999Y-117639031D01*
X117555038Y-117471913D01*
X117440594Y-117226115D01*
X117280396Y-117007367D01*
X117080601Y-116824075D01*
X116848886Y-116683283D01*
X116594156Y-116590401D01*
X116326200Y-116549000D01*
X114673800Y-116549000D01*
X114405844Y-116590401D01*
X114151114Y-116683283D01*
X113919399Y-116824075D01*
X113719604Y-117007367D01*
X113559406Y-117226115D01*
X113444962Y-117471913D01*
X113400001Y-117639031D01*
X100681800Y-117639031D01*
X100681800Y-116025000D01*
X108261273Y-116025000D01*
X108288918Y-116305682D01*
X108370790Y-116575577D01*
X108503742Y-116824314D01*
X108682666Y-117042334D01*
X108900686Y-117221258D01*
X109149423Y-117354210D01*
X109419318Y-117436082D01*
X109629670Y-117456800D01*
X111270330Y-117456800D01*
X111480682Y-117436082D01*
X111750577Y-117354210D01*
X111999314Y-117221258D01*
X112217334Y-117042334D01*
X112396258Y-116824314D01*
X112529210Y-116575577D01*
X112611082Y-116305682D01*
X112638727Y-116025000D01*
X112611082Y-115744318D01*
X112529210Y-115474423D01*
X112396258Y-115225686D01*
X112217334Y-115007666D01*
X111999314Y-114828742D01*
X111750577Y-114695790D01*
X111480682Y-114613918D01*
X111270330Y-114593200D01*
X109629670Y-114593200D01*
X109419318Y-114613918D01*
X109149423Y-114695790D01*
X108900686Y-114828742D01*
X108682666Y-115007666D01*
X108503742Y-115225686D01*
X108370790Y-115474423D01*
X108288918Y-115744318D01*
X108261273Y-116025000D01*
X100681800Y-116025000D01*
X100681800Y-114120000D01*
X113311273Y-114120000D01*
X113338918Y-114400682D01*
X113420790Y-114670577D01*
X113553742Y-114919314D01*
X113732666Y-115137334D01*
X113950686Y-115316258D01*
X114199423Y-115449210D01*
X114469318Y-115531082D01*
X114679670Y-115551800D01*
X116320330Y-115551800D01*
X116530682Y-115531082D01*
X116800577Y-115449210D01*
X117049314Y-115316258D01*
X117267334Y-115137334D01*
X117446258Y-114919314D01*
X117579210Y-114670577D01*
X117661082Y-114400682D01*
X117688727Y-114120000D01*
X117661082Y-113839318D01*
X117579210Y-113569423D01*
X117446258Y-113320686D01*
X117267334Y-113102666D01*
X117049314Y-112923742D01*
X116800577Y-112790790D01*
X116530682Y-112708918D01*
X116320330Y-112688200D01*
X114679670Y-112688200D01*
X114469318Y-112708918D01*
X114199423Y-112790790D01*
X113950686Y-112923742D01*
X113732666Y-113102666D01*
X113553742Y-113320686D01*
X113420790Y-113569423D01*
X113338918Y-113839318D01*
X113311273Y-114120000D01*
X100681800Y-114120000D01*
X100681800Y-112505969D01*
X108350001Y-112505969D01*
X108394962Y-112673087D01*
X108509406Y-112918885D01*
X108669604Y-113137633D01*
X108869399Y-113320925D01*
X109101114Y-113461717D01*
X109355844Y-113554599D01*
X109623800Y-113596000D01*
X110373800Y-113596000D01*
X110373800Y-112291200D01*
X110526200Y-112291200D01*
X110526200Y-113596000D01*
X111276200Y-113596000D01*
X111544156Y-113554599D01*
X111798886Y-113461717D01*
X112030601Y-113320925D01*
X112230396Y-113137633D01*
X112390594Y-112918885D01*
X112505038Y-112673087D01*
X112549999Y-112505969D01*
X112525683Y-112427447D01*
X152763400Y-112427447D01*
X152763400Y-112572545D01*
X152791707Y-112714854D01*
X152847234Y-112848907D01*
X152927845Y-112969551D01*
X153030445Y-113072151D01*
X153151089Y-113152762D01*
X153285142Y-113208289D01*
X153427451Y-113236596D01*
X153572549Y-113236596D01*
X153714858Y-113208289D01*
X153848911Y-113152762D01*
X153969555Y-113072151D01*
X154072155Y-112969551D01*
X154152766Y-112848907D01*
X154208293Y-112714854D01*
X154236600Y-112572545D01*
X154236600Y-112517737D01*
X156703915Y-110050422D01*
X197828200Y-110050422D01*
X197828200Y-110259578D01*
X197869004Y-110464716D01*
X197949045Y-110657951D01*
X198065246Y-110831858D01*
X198213142Y-110979754D01*
X198387049Y-111095955D01*
X198420956Y-111110000D01*
X198387049Y-111124045D01*
X198213142Y-111240246D01*
X198065246Y-111388142D01*
X197949045Y-111562049D01*
X197869004Y-111755284D01*
X197828200Y-111960422D01*
X197828200Y-112169578D01*
X197869004Y-112374716D01*
X197949045Y-112567951D01*
X198065246Y-112741858D01*
X198213142Y-112889754D01*
X198387049Y-113005955D01*
X198420956Y-113020000D01*
X198387049Y-113034045D01*
X198213142Y-113150246D01*
X198065246Y-113298142D01*
X197949045Y-113472049D01*
X197869004Y-113665284D01*
X197828200Y-113870422D01*
X197828200Y-114079578D01*
X197869004Y-114284716D01*
X197949045Y-114477951D01*
X198065246Y-114651858D01*
X198213142Y-114799754D01*
X198387049Y-114915955D01*
X198420956Y-114930000D01*
X198387049Y-114944045D01*
X198213142Y-115060246D01*
X198065246Y-115208142D01*
X197949045Y-115382049D01*
X197869004Y-115575284D01*
X197828200Y-115780422D01*
X197828200Y-115989578D01*
X197869004Y-116194716D01*
X197949045Y-116387951D01*
X198065246Y-116561858D01*
X198213142Y-116709754D01*
X198387049Y-116825955D01*
X198420956Y-116840000D01*
X198387049Y-116854045D01*
X198213142Y-116970246D01*
X198065246Y-117118142D01*
X197949045Y-117292049D01*
X197869004Y-117485284D01*
X197828200Y-117690422D01*
X197828200Y-117899578D01*
X197869004Y-118104716D01*
X197949045Y-118297951D01*
X198065246Y-118471858D01*
X198213142Y-118619754D01*
X198387049Y-118735955D01*
X198483098Y-118775740D01*
X198467882Y-118780958D01*
X198356203Y-118840652D01*
X198295123Y-119002360D01*
X198890000Y-119597237D01*
X199484877Y-119002360D01*
X199423797Y-118840652D01*
X199293781Y-118777033D01*
X199392951Y-118735955D01*
X199566858Y-118619754D01*
X199714754Y-118471858D01*
X199830955Y-118297951D01*
X199842500Y-118270079D01*
X199854045Y-118297951D01*
X199970246Y-118471858D01*
X200118142Y-118619754D01*
X200292049Y-118735955D01*
X200388098Y-118775740D01*
X200372882Y-118780958D01*
X200261203Y-118840652D01*
X200200123Y-119002360D01*
X200795000Y-119597237D01*
X201389877Y-119002360D01*
X201328797Y-118840652D01*
X201198781Y-118777033D01*
X201297951Y-118735955D01*
X201471858Y-118619754D01*
X201619754Y-118471858D01*
X201735955Y-118297951D01*
X201747500Y-118270079D01*
X201759045Y-118297951D01*
X201875246Y-118471858D01*
X202023142Y-118619754D01*
X202197049Y-118735955D01*
X202293098Y-118775740D01*
X202277882Y-118780958D01*
X202166203Y-118840652D01*
X202105123Y-119002360D01*
X202700000Y-119597237D01*
X203294877Y-119002360D01*
X203233797Y-118840652D01*
X203103781Y-118777033D01*
X203202951Y-118735955D01*
X203376858Y-118619754D01*
X203524754Y-118471858D01*
X203640955Y-118297951D01*
X203720996Y-118104716D01*
X203761800Y-117899578D01*
X203761800Y-117690422D01*
X203720996Y-117485284D01*
X203640955Y-117292049D01*
X203524754Y-117118142D01*
X203376858Y-116970246D01*
X203202951Y-116854045D01*
X203169044Y-116840000D01*
X203202951Y-116825955D01*
X203376858Y-116709754D01*
X203524754Y-116561858D01*
X203640955Y-116387951D01*
X203720996Y-116194716D01*
X203761800Y-115989578D01*
X203761800Y-115780422D01*
X203720996Y-115575284D01*
X203640955Y-115382049D01*
X203524754Y-115208142D01*
X203376858Y-115060246D01*
X203202951Y-114944045D01*
X203106902Y-114904260D01*
X203122118Y-114899042D01*
X203233797Y-114839348D01*
X203294877Y-114677640D01*
X202700000Y-114082763D01*
X202105123Y-114677640D01*
X202166203Y-114839348D01*
X202296219Y-114902967D01*
X202197049Y-114944045D01*
X202023142Y-115060246D01*
X201875246Y-115208142D01*
X201759045Y-115382049D01*
X201747500Y-115409921D01*
X201735955Y-115382049D01*
X201619754Y-115208142D01*
X201471858Y-115060246D01*
X201297951Y-114944045D01*
X201264044Y-114930000D01*
X201297951Y-114915955D01*
X201471858Y-114799754D01*
X201619754Y-114651858D01*
X201735955Y-114477951D01*
X201773005Y-114388506D01*
X201775958Y-114397118D01*
X201835652Y-114508797D01*
X201997360Y-114569877D01*
X202592237Y-113975000D01*
X202807763Y-113975000D01*
X203402640Y-114569877D01*
X203564348Y-114508797D01*
X203651879Y-114329914D01*
X203702829Y-114137392D01*
X203715241Y-113938629D01*
X203688639Y-113741264D01*
X203624042Y-113552882D01*
X203564348Y-113441203D01*
X203402640Y-113380123D01*
X202807763Y-113975000D01*
X202592237Y-113975000D01*
X201997360Y-113380123D01*
X201835652Y-113441203D01*
X201774741Y-113565685D01*
X201735955Y-113472049D01*
X201619754Y-113298142D01*
X201471858Y-113150246D01*
X201297951Y-113034045D01*
X201201902Y-112994260D01*
X201217118Y-112989042D01*
X201328797Y-112929348D01*
X201389877Y-112767640D01*
X200795000Y-112172763D01*
X200200123Y-112767640D01*
X200261203Y-112929348D01*
X200391219Y-112992967D01*
X200292049Y-113034045D01*
X200118142Y-113150246D01*
X199970246Y-113298142D01*
X199854045Y-113472049D01*
X199842500Y-113499921D01*
X199830955Y-113472049D01*
X199714754Y-113298142D01*
X199566858Y-113150246D01*
X199392951Y-113034045D01*
X199359044Y-113020000D01*
X199392951Y-113005955D01*
X199566858Y-112889754D01*
X199714754Y-112741858D01*
X199830955Y-112567951D01*
X199868005Y-112478506D01*
X199870958Y-112487118D01*
X199930652Y-112598797D01*
X200092360Y-112659877D01*
X200687237Y-112065000D01*
X200092360Y-111470123D01*
X199930652Y-111531203D01*
X199869741Y-111655685D01*
X199830955Y-111562049D01*
X199714754Y-111388142D01*
X199566858Y-111240246D01*
X199392951Y-111124045D01*
X199359044Y-111110000D01*
X199392951Y-111095955D01*
X199566858Y-110979754D01*
X199714754Y-110831858D01*
X199830955Y-110657951D01*
X199842500Y-110630079D01*
X199854045Y-110657951D01*
X199970246Y-110831858D01*
X200118142Y-110979754D01*
X200292049Y-111095955D01*
X200388098Y-111135740D01*
X200372882Y-111140958D01*
X200261203Y-111200652D01*
X200200123Y-111362360D01*
X200795000Y-111957237D01*
X201389877Y-111362360D01*
X201328797Y-111200652D01*
X201198781Y-111137033D01*
X201297951Y-111095955D01*
X201471858Y-110979754D01*
X201619754Y-110831858D01*
X201735955Y-110657951D01*
X201747500Y-110630079D01*
X201759045Y-110657951D01*
X201875246Y-110831858D01*
X202023142Y-110979754D01*
X202197049Y-111095955D01*
X202230956Y-111110000D01*
X202197049Y-111124045D01*
X202023142Y-111240246D01*
X201875246Y-111388142D01*
X201759045Y-111562049D01*
X201721995Y-111651494D01*
X201719042Y-111642882D01*
X201659348Y-111531203D01*
X201497640Y-111470123D01*
X200902763Y-112065000D01*
X201497640Y-112659877D01*
X201659348Y-112598797D01*
X201720259Y-112474315D01*
X201759045Y-112567951D01*
X201875246Y-112741858D01*
X202023142Y-112889754D01*
X202197049Y-113005955D01*
X202293098Y-113045740D01*
X202277882Y-113050958D01*
X202166203Y-113110652D01*
X202105123Y-113272360D01*
X202700000Y-113867237D01*
X203294877Y-113272360D01*
X203233797Y-113110652D01*
X203103781Y-113047033D01*
X203202951Y-113005955D01*
X203376858Y-112889754D01*
X203524754Y-112741858D01*
X203640955Y-112567951D01*
X203720996Y-112374716D01*
X203761800Y-112169578D01*
X203761800Y-111960422D01*
X203720996Y-111755284D01*
X203640955Y-111562049D01*
X203524754Y-111388142D01*
X203376858Y-111240246D01*
X203202951Y-111124045D01*
X203169044Y-111110000D01*
X203202951Y-111095955D01*
X203376858Y-110979754D01*
X203524754Y-110831858D01*
X203640955Y-110657951D01*
X203720996Y-110464716D01*
X203761800Y-110259578D01*
X203761800Y-110050422D01*
X203720996Y-109845284D01*
X203640955Y-109652049D01*
X203524754Y-109478142D01*
X203376858Y-109330246D01*
X203202951Y-109214045D01*
X203009716Y-109134004D01*
X202804578Y-109093200D01*
X202595422Y-109093200D01*
X202390284Y-109134004D01*
X202197049Y-109214045D01*
X202023142Y-109330246D01*
X201875246Y-109478142D01*
X201759045Y-109652049D01*
X201747500Y-109679921D01*
X201735955Y-109652049D01*
X201619754Y-109478142D01*
X201471858Y-109330246D01*
X201297951Y-109214045D01*
X201104716Y-109134004D01*
X200899578Y-109093200D01*
X200690422Y-109093200D01*
X200485284Y-109134004D01*
X200292049Y-109214045D01*
X200118142Y-109330246D01*
X199970246Y-109478142D01*
X199854045Y-109652049D01*
X199842500Y-109679921D01*
X199830955Y-109652049D01*
X199714754Y-109478142D01*
X199566858Y-109330246D01*
X199392951Y-109214045D01*
X199199716Y-109134004D01*
X198994578Y-109093200D01*
X198785422Y-109093200D01*
X198580284Y-109134004D01*
X198387049Y-109214045D01*
X198213142Y-109330246D01*
X198065246Y-109478142D01*
X197949045Y-109652049D01*
X197869004Y-109845284D01*
X197828200Y-110050422D01*
X156703915Y-110050422D01*
X157358651Y-109395687D01*
X157378995Y-109378991D01*
X157445651Y-109297771D01*
X157495181Y-109205107D01*
X157525681Y-109104561D01*
X157533400Y-109026191D01*
X157533400Y-109026184D01*
X157535979Y-108999997D01*
X157533400Y-108973810D01*
X157533400Y-106008304D01*
X157572155Y-105969549D01*
X157652766Y-105848905D01*
X157680739Y-105781371D01*
X197234759Y-105781371D01*
X197261361Y-105978736D01*
X197325958Y-106167118D01*
X197385652Y-106278797D01*
X197547360Y-106339877D01*
X198142237Y-105745000D01*
X197547360Y-105150123D01*
X197385652Y-105211203D01*
X197298121Y-105390086D01*
X197247171Y-105582608D01*
X197234759Y-105781371D01*
X157680739Y-105781371D01*
X157708293Y-105714852D01*
X157736600Y-105572543D01*
X157736600Y-105427445D01*
X157708293Y-105285136D01*
X157652766Y-105151083D01*
X157580121Y-105042360D01*
X197655123Y-105042360D01*
X198250000Y-105637237D01*
X198264143Y-105623095D01*
X198371906Y-105730858D01*
X198357763Y-105745000D01*
X198371906Y-105759143D01*
X198264143Y-105866906D01*
X198250000Y-105852763D01*
X197655123Y-106447640D01*
X197716203Y-106609348D01*
X197895086Y-106696879D01*
X198087608Y-106747829D01*
X198286371Y-106760241D01*
X198483736Y-106733639D01*
X198494069Y-106730096D01*
X198458200Y-106910422D01*
X198458200Y-107119578D01*
X198499004Y-107324716D01*
X198579045Y-107517951D01*
X198695246Y-107691858D01*
X198843142Y-107839754D01*
X199017049Y-107955955D01*
X199210284Y-108035996D01*
X199415422Y-108076800D01*
X199624578Y-108076800D01*
X199829716Y-108035996D01*
X200022951Y-107955955D01*
X200196858Y-107839754D01*
X200344754Y-107691858D01*
X200460955Y-107517951D01*
X200540996Y-107324716D01*
X200581800Y-107119578D01*
X200581800Y-106910422D01*
X200540996Y-106705284D01*
X200460955Y-106512049D01*
X200344754Y-106338142D01*
X200196858Y-106190246D01*
X200022951Y-106074045D01*
X199829716Y-105994004D01*
X199624578Y-105953200D01*
X199415422Y-105953200D01*
X199230998Y-105989884D01*
X199252829Y-105907392D01*
X199265241Y-105708629D01*
X199238639Y-105511264D01*
X199235096Y-105500931D01*
X199415422Y-105536800D01*
X199624578Y-105536800D01*
X199829716Y-105495996D01*
X200022951Y-105415955D01*
X200196858Y-105299754D01*
X200344754Y-105151858D01*
X200460955Y-104977951D01*
X200540996Y-104784716D01*
X200581800Y-104579578D01*
X200581800Y-104370422D01*
X200998200Y-104370422D01*
X200998200Y-104579578D01*
X201039004Y-104784716D01*
X201119045Y-104977951D01*
X201235246Y-105151858D01*
X201383142Y-105299754D01*
X201557049Y-105415955D01*
X201750284Y-105495996D01*
X201955422Y-105536800D01*
X202164578Y-105536800D01*
X202349002Y-105500116D01*
X202327171Y-105582608D01*
X202314759Y-105781371D01*
X202341361Y-105978736D01*
X202344904Y-105989069D01*
X202164578Y-105953200D01*
X201955422Y-105953200D01*
X201750284Y-105994004D01*
X201557049Y-106074045D01*
X201383142Y-106190246D01*
X201235246Y-106338142D01*
X201119045Y-106512049D01*
X201039004Y-106705284D01*
X200998200Y-106910422D01*
X200998200Y-107119578D01*
X201039004Y-107324716D01*
X201119045Y-107517951D01*
X201235246Y-107691858D01*
X201383142Y-107839754D01*
X201557049Y-107955955D01*
X201750284Y-108035996D01*
X201955422Y-108076800D01*
X202164578Y-108076800D01*
X202369716Y-108035996D01*
X202562951Y-107955955D01*
X202736858Y-107839754D01*
X202884754Y-107691858D01*
X203000955Y-107517951D01*
X203080996Y-107324716D01*
X203121800Y-107119578D01*
X203121800Y-106910422D01*
X203085116Y-106725998D01*
X203167608Y-106747829D01*
X203366371Y-106760241D01*
X203563736Y-106733639D01*
X203752118Y-106669042D01*
X203863797Y-106609348D01*
X203924877Y-106447640D01*
X203330000Y-105852763D01*
X203315858Y-105866906D01*
X203208095Y-105759143D01*
X203222237Y-105745000D01*
X203437763Y-105745000D01*
X204032640Y-106339877D01*
X204194348Y-106278797D01*
X204281879Y-106099914D01*
X204332829Y-105907392D01*
X204345241Y-105708629D01*
X204318639Y-105511264D01*
X204254042Y-105322882D01*
X204194348Y-105211203D01*
X204032640Y-105150123D01*
X203437763Y-105745000D01*
X203222237Y-105745000D01*
X203208095Y-105730858D01*
X203315858Y-105623095D01*
X203330000Y-105637237D01*
X203924877Y-105042360D01*
X203863797Y-104880652D01*
X203684914Y-104793121D01*
X203492392Y-104742171D01*
X203293629Y-104729759D01*
X203096264Y-104756361D01*
X203085931Y-104759904D01*
X203121800Y-104579578D01*
X203121800Y-104370422D01*
X203080996Y-104165284D01*
X203000955Y-103972049D01*
X202884754Y-103798142D01*
X202736858Y-103650246D01*
X202562951Y-103534045D01*
X202369716Y-103454004D01*
X202164578Y-103413200D01*
X201955422Y-103413200D01*
X201750284Y-103454004D01*
X201557049Y-103534045D01*
X201383142Y-103650246D01*
X201235246Y-103798142D01*
X201119045Y-103972049D01*
X201039004Y-104165284D01*
X200998200Y-104370422D01*
X200581800Y-104370422D01*
X200540996Y-104165284D01*
X200460955Y-103972049D01*
X200344754Y-103798142D01*
X200196858Y-103650246D01*
X200022951Y-103534045D01*
X199829716Y-103454004D01*
X199624578Y-103413200D01*
X199415422Y-103413200D01*
X199210284Y-103454004D01*
X199017049Y-103534045D01*
X198843142Y-103650246D01*
X198695246Y-103798142D01*
X198579045Y-103972049D01*
X198499004Y-104165284D01*
X198458200Y-104370422D01*
X198458200Y-104579578D01*
X198494884Y-104764002D01*
X198412392Y-104742171D01*
X198213629Y-104729759D01*
X198016264Y-104756361D01*
X197827882Y-104820958D01*
X197716203Y-104880652D01*
X197655123Y-105042360D01*
X157580121Y-105042360D01*
X157572155Y-105030439D01*
X157469555Y-104927839D01*
X157348911Y-104847228D01*
X157214858Y-104791701D01*
X157072549Y-104763394D01*
X156927451Y-104763394D01*
X156785142Y-104791701D01*
X156651089Y-104847228D01*
X156530445Y-104927839D01*
X156427845Y-105030439D01*
X156347234Y-105151083D01*
X156291707Y-105285136D01*
X156263400Y-105427445D01*
X156263400Y-105572543D01*
X156291707Y-105714852D01*
X156347234Y-105848905D01*
X156427845Y-105969549D01*
X156466601Y-106008305D01*
X156466600Y-108779054D01*
X153482259Y-111763396D01*
X153427451Y-111763396D01*
X153285142Y-111791703D01*
X153151089Y-111847230D01*
X153030445Y-111927841D01*
X152927845Y-112030441D01*
X152847234Y-112151085D01*
X152791707Y-112285138D01*
X152763400Y-112427447D01*
X112525683Y-112427447D01*
X112483490Y-112291200D01*
X110526200Y-112291200D01*
X110373800Y-112291200D01*
X108416510Y-112291200D01*
X108350001Y-112505969D01*
X100681800Y-112505969D01*
X100681800Y-111924031D01*
X108350001Y-111924031D01*
X108416510Y-112138800D01*
X110373800Y-112138800D01*
X110373800Y-112118800D01*
X110526200Y-112118800D01*
X110526200Y-112138800D01*
X112483490Y-112138800D01*
X112549999Y-111924031D01*
X112505038Y-111756913D01*
X112390594Y-111511115D01*
X112230396Y-111292367D01*
X112030601Y-111109075D01*
X111798886Y-110968283D01*
X111544156Y-110875401D01*
X111276200Y-110834000D01*
X109623800Y-110834000D01*
X109355844Y-110875401D01*
X109101114Y-110968283D01*
X108869399Y-111109075D01*
X108669604Y-111292367D01*
X108509406Y-111511115D01*
X108394962Y-111756913D01*
X108350001Y-111924031D01*
X100681800Y-111924031D01*
X100681800Y-110600969D01*
X113400001Y-110600969D01*
X113444962Y-110768087D01*
X113559406Y-111013885D01*
X113719604Y-111232633D01*
X113919399Y-111415925D01*
X114151114Y-111556717D01*
X114405844Y-111649599D01*
X114673800Y-111691000D01*
X115423800Y-111691000D01*
X115423800Y-110386200D01*
X115576200Y-110386200D01*
X115576200Y-111691000D01*
X116326200Y-111691000D01*
X116594156Y-111649599D01*
X116848886Y-111556717D01*
X117080601Y-111415925D01*
X117280396Y-111232633D01*
X117440594Y-111013885D01*
X117555038Y-110768087D01*
X117599999Y-110600969D01*
X117533490Y-110386200D01*
X115576200Y-110386200D01*
X115423800Y-110386200D01*
X113466510Y-110386200D01*
X113400001Y-110600969D01*
X100681800Y-110600969D01*
X100681800Y-110019031D01*
X113400001Y-110019031D01*
X113466510Y-110233800D01*
X115423800Y-110233800D01*
X115423800Y-110213800D01*
X115576200Y-110213800D01*
X115576200Y-110233800D01*
X117533490Y-110233800D01*
X117599999Y-110019031D01*
X117555038Y-109851913D01*
X117440594Y-109606115D01*
X117280396Y-109387367D01*
X117080601Y-109204075D01*
X116848886Y-109063283D01*
X116594156Y-108970401D01*
X116326200Y-108929000D01*
X114673800Y-108929000D01*
X114405844Y-108970401D01*
X114151114Y-109063283D01*
X113919399Y-109204075D01*
X113719604Y-109387367D01*
X113559406Y-109606115D01*
X113444962Y-109851913D01*
X113400001Y-110019031D01*
X100681800Y-110019031D01*
X100681800Y-108405000D01*
X108261273Y-108405000D01*
X108288918Y-108685682D01*
X108370790Y-108955577D01*
X108503742Y-109204314D01*
X108682666Y-109422334D01*
X108900686Y-109601258D01*
X109149423Y-109734210D01*
X109419318Y-109816082D01*
X109629670Y-109836800D01*
X111270330Y-109836800D01*
X111480682Y-109816082D01*
X111750577Y-109734210D01*
X111999314Y-109601258D01*
X112217334Y-109422334D01*
X112396258Y-109204314D01*
X112529210Y-108955577D01*
X112611082Y-108685682D01*
X112638727Y-108405000D01*
X112611082Y-108124318D01*
X112529210Y-107854423D01*
X112396258Y-107605686D01*
X112217334Y-107387666D01*
X111999314Y-107208742D01*
X111750577Y-107075790D01*
X111480682Y-106993918D01*
X111270330Y-106973200D01*
X109629670Y-106973200D01*
X109419318Y-106993918D01*
X109149423Y-107075790D01*
X108900686Y-107208742D01*
X108682666Y-107387666D01*
X108503742Y-107605686D01*
X108370790Y-107854423D01*
X108288918Y-108124318D01*
X108261273Y-108405000D01*
X100681800Y-108405000D01*
X100681800Y-106500000D01*
X113311273Y-106500000D01*
X113338918Y-106780682D01*
X113420790Y-107050577D01*
X113553742Y-107299314D01*
X113732666Y-107517334D01*
X113950686Y-107696258D01*
X114199423Y-107829210D01*
X114469318Y-107911082D01*
X114679670Y-107931800D01*
X116320330Y-107931800D01*
X116530682Y-107911082D01*
X116800577Y-107829210D01*
X117049314Y-107696258D01*
X117267334Y-107517334D01*
X117446258Y-107299314D01*
X117579210Y-107050577D01*
X117661082Y-106780682D01*
X117688727Y-106500000D01*
X117661082Y-106219318D01*
X117579210Y-105949423D01*
X117446258Y-105700686D01*
X117267334Y-105482666D01*
X117049314Y-105303742D01*
X116800577Y-105170790D01*
X116530682Y-105088918D01*
X116320330Y-105068200D01*
X114679670Y-105068200D01*
X114469318Y-105088918D01*
X114199423Y-105170790D01*
X113950686Y-105303742D01*
X113732666Y-105482666D01*
X113553742Y-105700686D01*
X113420790Y-105949423D01*
X113338918Y-106219318D01*
X113311273Y-106500000D01*
X100681800Y-106500000D01*
X100681800Y-104595000D01*
X108261273Y-104595000D01*
X108288918Y-104875682D01*
X108370790Y-105145577D01*
X108503742Y-105394314D01*
X108682666Y-105612334D01*
X108900686Y-105791258D01*
X109149423Y-105924210D01*
X109419318Y-106006082D01*
X109629670Y-106026800D01*
X111270330Y-106026800D01*
X111480682Y-106006082D01*
X111750577Y-105924210D01*
X111999314Y-105791258D01*
X112217334Y-105612334D01*
X112396258Y-105394314D01*
X112529210Y-105145577D01*
X112611082Y-104875682D01*
X112638727Y-104595000D01*
X112611082Y-104314318D01*
X112529210Y-104044423D01*
X112396258Y-103795686D01*
X112217334Y-103577666D01*
X111999314Y-103398742D01*
X111750577Y-103265790D01*
X111480682Y-103183918D01*
X111270330Y-103163200D01*
X109629670Y-103163200D01*
X109419318Y-103183918D01*
X109149423Y-103265790D01*
X108900686Y-103398742D01*
X108682666Y-103577666D01*
X108503742Y-103795686D01*
X108370790Y-104044423D01*
X108288918Y-104314318D01*
X108261273Y-104595000D01*
X100681800Y-104595000D01*
X100681800Y-102980969D01*
X113400001Y-102980969D01*
X113444962Y-103148087D01*
X113559406Y-103393885D01*
X113719604Y-103612633D01*
X113919399Y-103795925D01*
X114151114Y-103936717D01*
X114405844Y-104029599D01*
X114673800Y-104071000D01*
X115423800Y-104071000D01*
X115423800Y-102766200D01*
X115576200Y-102766200D01*
X115576200Y-104071000D01*
X116326200Y-104071000D01*
X116594156Y-104029599D01*
X116848886Y-103936717D01*
X117080601Y-103795925D01*
X117280396Y-103612633D01*
X117440594Y-103393885D01*
X117555038Y-103148087D01*
X117599999Y-102980969D01*
X117533490Y-102766200D01*
X115576200Y-102766200D01*
X115423800Y-102766200D01*
X113466510Y-102766200D01*
X113400001Y-102980969D01*
X100681800Y-102980969D01*
X100681800Y-102399031D01*
X113400001Y-102399031D01*
X113466510Y-102613800D01*
X115423800Y-102613800D01*
X115423800Y-102593800D01*
X115576200Y-102593800D01*
X115576200Y-102613800D01*
X117533490Y-102613800D01*
X117599999Y-102399031D01*
X117555038Y-102231913D01*
X117440594Y-101986115D01*
X117280396Y-101767367D01*
X117080601Y-101584075D01*
X116848886Y-101443283D01*
X116594156Y-101350401D01*
X116326200Y-101309000D01*
X114673800Y-101309000D01*
X114405844Y-101350401D01*
X114151114Y-101443283D01*
X113919399Y-101584075D01*
X113719604Y-101767367D01*
X113559406Y-101986115D01*
X113444962Y-102231913D01*
X113400001Y-102399031D01*
X100681800Y-102399031D01*
X100681800Y-100785000D01*
X108261273Y-100785000D01*
X108288918Y-101065682D01*
X108370790Y-101335577D01*
X108503742Y-101584314D01*
X108682666Y-101802334D01*
X108900686Y-101981258D01*
X109149423Y-102114210D01*
X109419318Y-102196082D01*
X109629670Y-102216800D01*
X111270330Y-102216800D01*
X111480682Y-102196082D01*
X111750577Y-102114210D01*
X111999314Y-101981258D01*
X112217334Y-101802334D01*
X112396258Y-101584314D01*
X112529210Y-101335577D01*
X112611082Y-101065682D01*
X112638727Y-100785000D01*
X112611082Y-100504318D01*
X112529210Y-100234423D01*
X112396258Y-99985686D01*
X112217334Y-99767666D01*
X111999314Y-99588742D01*
X111750577Y-99455790D01*
X111480682Y-99373918D01*
X111270330Y-99353200D01*
X109629670Y-99353200D01*
X109419318Y-99373918D01*
X109149423Y-99455790D01*
X108900686Y-99588742D01*
X108682666Y-99767666D01*
X108503742Y-99985686D01*
X108370790Y-100234423D01*
X108288918Y-100504318D01*
X108261273Y-100785000D01*
X100681800Y-100785000D01*
X100681800Y-98880000D01*
X113311273Y-98880000D01*
X113338918Y-99160682D01*
X113420790Y-99430577D01*
X113553742Y-99679314D01*
X113732666Y-99897334D01*
X113950686Y-100076258D01*
X114199423Y-100209210D01*
X114469318Y-100291082D01*
X114679670Y-100311800D01*
X116320330Y-100311800D01*
X116530682Y-100291082D01*
X116800577Y-100209210D01*
X117049314Y-100076258D01*
X117267334Y-99897334D01*
X117446258Y-99679314D01*
X117579210Y-99430577D01*
X117661082Y-99160682D01*
X117688727Y-98880000D01*
X117661082Y-98599318D01*
X117579210Y-98329423D01*
X117446258Y-98080686D01*
X117267334Y-97862666D01*
X117049314Y-97683742D01*
X116800577Y-97550790D01*
X116530682Y-97468918D01*
X116320330Y-97448200D01*
X114679670Y-97448200D01*
X114469318Y-97468918D01*
X114199423Y-97550790D01*
X113950686Y-97683742D01*
X113732666Y-97862666D01*
X113553742Y-98080686D01*
X113420790Y-98329423D01*
X113338918Y-98599318D01*
X113311273Y-98880000D01*
X100681800Y-98880000D01*
X100681800Y-96975000D01*
X108261273Y-96975000D01*
X108288918Y-97255682D01*
X108370790Y-97525577D01*
X108503742Y-97774314D01*
X108682666Y-97992334D01*
X108900686Y-98171258D01*
X109149423Y-98304210D01*
X109419318Y-98386082D01*
X109629670Y-98406800D01*
X111270330Y-98406800D01*
X111480682Y-98386082D01*
X111750577Y-98304210D01*
X111999314Y-98171258D01*
X112217334Y-97992334D01*
X112396258Y-97774314D01*
X112529210Y-97525577D01*
X112611082Y-97255682D01*
X112638727Y-96975000D01*
X112611082Y-96694318D01*
X112529210Y-96424423D01*
X112396258Y-96175686D01*
X112217334Y-95957666D01*
X111999314Y-95778742D01*
X111750577Y-95645790D01*
X111480682Y-95563918D01*
X111270330Y-95543200D01*
X109629670Y-95543200D01*
X109419318Y-95563918D01*
X109149423Y-95645790D01*
X108900686Y-95778742D01*
X108682666Y-95957666D01*
X108503742Y-96175686D01*
X108370790Y-96424423D01*
X108288918Y-96694318D01*
X108261273Y-96975000D01*
X100681800Y-96975000D01*
X100681800Y-95360969D01*
X113400001Y-95360969D01*
X113444962Y-95528087D01*
X113559406Y-95773885D01*
X113719604Y-95992633D01*
X113919399Y-96175925D01*
X114151114Y-96316717D01*
X114405844Y-96409599D01*
X114673800Y-96451000D01*
X115423800Y-96451000D01*
X115423800Y-95146200D01*
X115576200Y-95146200D01*
X115576200Y-96451000D01*
X116326200Y-96451000D01*
X116575761Y-96412441D01*
X144111000Y-96412441D01*
X144111000Y-96587559D01*
X144145164Y-96759312D01*
X144212179Y-96921099D01*
X144218200Y-96930110D01*
X144218201Y-99461599D01*
X144214419Y-99500000D01*
X144229513Y-99653259D01*
X144274218Y-99800629D01*
X144346813Y-99936446D01*
X144387224Y-99985686D01*
X144444511Y-100055490D01*
X144474336Y-100079967D01*
X145143049Y-100748681D01*
X145145164Y-100759312D01*
X145212179Y-100921099D01*
X145309469Y-101066704D01*
X145433296Y-101190531D01*
X145578901Y-101287821D01*
X145740688Y-101354836D01*
X145912441Y-101389000D01*
X146087559Y-101389000D01*
X146259312Y-101354836D01*
X146421099Y-101287821D01*
X146566704Y-101190531D01*
X146690531Y-101066704D01*
X146787821Y-100921099D01*
X146854836Y-100759312D01*
X146889000Y-100587559D01*
X146889000Y-100412441D01*
X146854836Y-100240688D01*
X146787821Y-100078901D01*
X146690531Y-99933296D01*
X146566704Y-99809469D01*
X146521209Y-99779070D01*
X201663693Y-99779070D01*
X201799372Y-100004247D01*
X202083804Y-100153641D01*
X202391916Y-100244675D01*
X202711868Y-100273850D01*
X203031364Y-100240045D01*
X203338126Y-100144558D01*
X203600628Y-100004247D01*
X203736307Y-99779070D01*
X202700000Y-98742763D01*
X201663693Y-99779070D01*
X146521209Y-99779070D01*
X146421099Y-99712179D01*
X146259312Y-99645164D01*
X146248681Y-99643049D01*
X145781800Y-99176169D01*
X145781800Y-98646868D01*
X201061150Y-98646868D01*
X201094955Y-98966364D01*
X201190442Y-99273126D01*
X201330753Y-99535628D01*
X201555930Y-99671307D01*
X202592237Y-98635000D01*
X202807763Y-98635000D01*
X203844070Y-99671307D01*
X204069247Y-99535628D01*
X204218641Y-99251196D01*
X204309675Y-98943084D01*
X204338850Y-98623132D01*
X204305045Y-98303636D01*
X204209558Y-97996874D01*
X204069247Y-97734372D01*
X203844070Y-97598693D01*
X202807763Y-98635000D01*
X202592237Y-98635000D01*
X201555930Y-97598693D01*
X201330753Y-97734372D01*
X201181359Y-98018804D01*
X201090325Y-98326916D01*
X201061150Y-98646868D01*
X145781800Y-98646868D01*
X145781800Y-97490930D01*
X201663693Y-97490930D01*
X202700000Y-98527237D01*
X203736307Y-97490930D01*
X203600628Y-97265753D01*
X203316196Y-97116359D01*
X203008084Y-97025325D01*
X202688132Y-96996150D01*
X202368636Y-97029955D01*
X202061874Y-97125442D01*
X201799372Y-97265753D01*
X201663693Y-97490930D01*
X145781800Y-97490930D01*
X145781800Y-96930110D01*
X145787821Y-96921099D01*
X145854836Y-96759312D01*
X145889000Y-96587559D01*
X145889000Y-96412441D01*
X145854836Y-96240688D01*
X145787821Y-96078901D01*
X145690531Y-95933296D01*
X145566704Y-95809469D01*
X145421099Y-95712179D01*
X145259312Y-95645164D01*
X145087559Y-95611000D01*
X144912441Y-95611000D01*
X144740688Y-95645164D01*
X144578901Y-95712179D01*
X144433296Y-95809469D01*
X144309469Y-95933296D01*
X144212179Y-96078901D01*
X144145164Y-96240688D01*
X144111000Y-96412441D01*
X116575761Y-96412441D01*
X116594156Y-96409599D01*
X116848886Y-96316717D01*
X117080601Y-96175925D01*
X117280396Y-95992633D01*
X117440594Y-95773885D01*
X117555038Y-95528087D01*
X117599999Y-95360969D01*
X117533490Y-95146200D01*
X115576200Y-95146200D01*
X115423800Y-95146200D01*
X113466510Y-95146200D01*
X113400001Y-95360969D01*
X100681800Y-95360969D01*
X100681800Y-94779031D01*
X113400001Y-94779031D01*
X113466510Y-94993800D01*
X115423800Y-94993800D01*
X115423800Y-94973800D01*
X115576200Y-94973800D01*
X115576200Y-94993800D01*
X117533490Y-94993800D01*
X117599999Y-94779031D01*
X117555038Y-94611913D01*
X117440594Y-94366115D01*
X117280396Y-94147367D01*
X117080601Y-93964075D01*
X116848886Y-93823283D01*
X116594156Y-93730401D01*
X116326200Y-93689000D01*
X114673800Y-93689000D01*
X114405844Y-93730401D01*
X114151114Y-93823283D01*
X113919399Y-93964075D01*
X113719604Y-94147367D01*
X113559406Y-94366115D01*
X113444962Y-94611913D01*
X113400001Y-94779031D01*
X100681800Y-94779031D01*
X100681800Y-93455969D01*
X108350001Y-93455969D01*
X108394962Y-93623087D01*
X108509406Y-93868885D01*
X108669604Y-94087633D01*
X108869399Y-94270925D01*
X109101114Y-94411717D01*
X109355844Y-94504599D01*
X109623800Y-94546000D01*
X110373800Y-94546000D01*
X110373800Y-93241200D01*
X110526200Y-93241200D01*
X110526200Y-94546000D01*
X111276200Y-94546000D01*
X111544156Y-94504599D01*
X111798886Y-94411717D01*
X112030601Y-94270925D01*
X112230396Y-94087633D01*
X112390594Y-93868885D01*
X112505038Y-93623087D01*
X112549999Y-93455969D01*
X112483490Y-93241200D01*
X110526200Y-93241200D01*
X110373800Y-93241200D01*
X108416510Y-93241200D01*
X108350001Y-93455969D01*
X100681800Y-93455969D01*
X100681800Y-92874031D01*
X108350001Y-92874031D01*
X108416510Y-93088800D01*
X110373800Y-93088800D01*
X110373800Y-93068800D01*
X110526200Y-93068800D01*
X110526200Y-93088800D01*
X112483490Y-93088800D01*
X112549999Y-92874031D01*
X112505038Y-92706913D01*
X112390594Y-92461115D01*
X112230396Y-92242367D01*
X112030601Y-92059075D01*
X111798886Y-91918283D01*
X111544156Y-91825401D01*
X111276200Y-91784000D01*
X109623800Y-91784000D01*
X109355844Y-91825401D01*
X109101114Y-91918283D01*
X108869399Y-92059075D01*
X108669604Y-92242367D01*
X108509406Y-92461115D01*
X108394962Y-92706913D01*
X108350001Y-92874031D01*
X100681800Y-92874031D01*
X100681800Y-91260000D01*
X113311273Y-91260000D01*
X113338918Y-91540682D01*
X113420790Y-91810577D01*
X113553742Y-92059314D01*
X113732666Y-92277334D01*
X113950686Y-92456258D01*
X114199423Y-92589210D01*
X114469318Y-92671082D01*
X114679670Y-92691800D01*
X116320330Y-92691800D01*
X116530682Y-92671082D01*
X116800577Y-92589210D01*
X117049314Y-92456258D01*
X117267334Y-92277334D01*
X117446258Y-92059314D01*
X117579210Y-91810577D01*
X117661082Y-91540682D01*
X117688727Y-91260000D01*
X117661082Y-90979318D01*
X117579210Y-90709423D01*
X117446258Y-90460686D01*
X117267334Y-90242666D01*
X117049314Y-90063742D01*
X116800577Y-89930790D01*
X116530682Y-89848918D01*
X116320330Y-89828200D01*
X114679670Y-89828200D01*
X114469318Y-89848918D01*
X114199423Y-89930790D01*
X113950686Y-90063742D01*
X113732666Y-90242666D01*
X113553742Y-90460686D01*
X113420790Y-90709423D01*
X113338918Y-90979318D01*
X113311273Y-91260000D01*
X100681800Y-91260000D01*
X100681800Y-89355000D01*
X108261273Y-89355000D01*
X108288918Y-89635682D01*
X108370790Y-89905577D01*
X108503742Y-90154314D01*
X108682666Y-90372334D01*
X108900686Y-90551258D01*
X109149423Y-90684210D01*
X109419318Y-90766082D01*
X109629670Y-90786800D01*
X111270330Y-90786800D01*
X111480682Y-90766082D01*
X111750577Y-90684210D01*
X111999314Y-90551258D01*
X112217334Y-90372334D01*
X112396258Y-90154314D01*
X112529210Y-89905577D01*
X112611082Y-89635682D01*
X112638727Y-89355000D01*
X112611082Y-89074318D01*
X112529210Y-88804423D01*
X112396258Y-88555686D01*
X112217334Y-88337666D01*
X111999314Y-88158742D01*
X111750577Y-88025790D01*
X111480682Y-87943918D01*
X111270330Y-87923200D01*
X109629670Y-87923200D01*
X109419318Y-87943918D01*
X109149423Y-88025790D01*
X108900686Y-88158742D01*
X108682666Y-88337666D01*
X108503742Y-88555686D01*
X108370790Y-88804423D01*
X108288918Y-89074318D01*
X108261273Y-89355000D01*
X100681800Y-89355000D01*
X100681800Y-87450000D01*
X113311273Y-87450000D01*
X113338918Y-87730682D01*
X113420790Y-88000577D01*
X113553742Y-88249314D01*
X113732666Y-88467334D01*
X113950686Y-88646258D01*
X114199423Y-88779210D01*
X114469318Y-88861082D01*
X114679670Y-88881800D01*
X116320330Y-88881800D01*
X116530682Y-88861082D01*
X116800577Y-88779210D01*
X117049314Y-88646258D01*
X117267334Y-88467334D01*
X117446258Y-88249314D01*
X117579210Y-88000577D01*
X117661082Y-87730682D01*
X117688727Y-87450000D01*
X117661082Y-87169318D01*
X117579210Y-86899423D01*
X117446258Y-86650686D01*
X117267334Y-86432666D01*
X117049314Y-86253742D01*
X116800577Y-86120790D01*
X116530682Y-86038918D01*
X116320330Y-86018200D01*
X114679670Y-86018200D01*
X114469318Y-86038918D01*
X114199423Y-86120790D01*
X113950686Y-86253742D01*
X113732666Y-86432666D01*
X113553742Y-86650686D01*
X113420790Y-86899423D01*
X113338918Y-87169318D01*
X113311273Y-87450000D01*
X100681800Y-87450000D01*
X100681800Y-82873754D01*
X196218200Y-82873754D01*
X196218200Y-83126246D01*
X196267459Y-83373887D01*
X196364084Y-83607160D01*
X196504361Y-83817100D01*
X196682900Y-83995639D01*
X196892840Y-84135916D01*
X197126113Y-84232541D01*
X197373754Y-84281800D01*
X197626246Y-84281800D01*
X197873887Y-84232541D01*
X198107160Y-84135916D01*
X198317100Y-83995639D01*
X198495639Y-83817100D01*
X198635916Y-83607160D01*
X198732541Y-83373887D01*
X198781800Y-83126246D01*
X198781800Y-82873754D01*
X203218200Y-82873754D01*
X203218200Y-83126246D01*
X203267459Y-83373887D01*
X203364084Y-83607160D01*
X203504361Y-83817100D01*
X203682900Y-83995639D01*
X203892840Y-84135916D01*
X204126113Y-84232541D01*
X204373754Y-84281800D01*
X204626246Y-84281800D01*
X204873887Y-84232541D01*
X205107160Y-84135916D01*
X205317100Y-83995639D01*
X205495639Y-83817100D01*
X205635916Y-83607160D01*
X205732541Y-83373887D01*
X205781800Y-83126246D01*
X205781800Y-82873754D01*
X205732541Y-82626113D01*
X205635916Y-82392840D01*
X205495639Y-82182900D01*
X205317100Y-82004361D01*
X205107160Y-81864084D01*
X204873887Y-81767459D01*
X204626246Y-81718200D01*
X204373754Y-81718200D01*
X204126113Y-81767459D01*
X203892840Y-81864084D01*
X203682900Y-82004361D01*
X203504361Y-82182900D01*
X203364084Y-82392840D01*
X203267459Y-82626113D01*
X203218200Y-82873754D01*
X198781800Y-82873754D01*
X198732541Y-82626113D01*
X198635916Y-82392840D01*
X198495639Y-82182900D01*
X198317100Y-82004361D01*
X198107160Y-81864084D01*
X197873887Y-81767459D01*
X197626246Y-81718200D01*
X197373754Y-81718200D01*
X197126113Y-81767459D01*
X196892840Y-81864084D01*
X196682900Y-82004361D01*
X196504361Y-82182900D01*
X196364084Y-82392840D01*
X196267459Y-82626113D01*
X196218200Y-82873754D01*
X100681800Y-82873754D01*
X100681800Y-80000000D01*
X105056434Y-80000000D01*
X105103386Y-80476716D01*
X105242439Y-80935112D01*
X105468249Y-81357573D01*
X105772138Y-81727862D01*
X106142427Y-82031751D01*
X106564888Y-82257561D01*
X107023284Y-82396614D01*
X107380537Y-82431800D01*
X109619463Y-82431800D01*
X109976716Y-82396614D01*
X110435112Y-82257561D01*
X110857573Y-82031751D01*
X111227862Y-81727862D01*
X111531751Y-81357573D01*
X111757561Y-80935112D01*
X111896614Y-80476716D01*
X111943566Y-80000000D01*
X111896614Y-79523284D01*
X111757561Y-79064888D01*
X111531751Y-78642427D01*
X111227862Y-78272138D01*
X110857573Y-77968249D01*
X110435112Y-77742439D01*
X109976716Y-77603386D01*
X109619463Y-77568200D01*
X107380537Y-77568200D01*
X107023284Y-77603386D01*
X106564888Y-77742439D01*
X106142427Y-77968249D01*
X105772138Y-78272138D01*
X105468249Y-78642427D01*
X105242439Y-79064888D01*
X105103386Y-79523284D01*
X105056434Y-80000000D01*
X100681800Y-80000000D01*
X100681800Y-73173301D01*
X101518200Y-73173301D01*
X101518200Y-73366699D01*
X101555930Y-73556381D01*
X101629940Y-73735057D01*
X101737386Y-73895861D01*
X101874139Y-74032614D01*
X102034943Y-74140060D01*
X102213619Y-74214070D01*
X102403301Y-74251800D01*
X102596699Y-74251800D01*
X102786381Y-74214070D01*
X102965057Y-74140060D01*
X103125861Y-74032614D01*
X103262614Y-73895861D01*
X103370060Y-73735057D01*
X103444070Y-73556381D01*
X103481800Y-73366699D01*
X103481800Y-73173301D01*
X103444070Y-72983619D01*
X103370060Y-72804943D01*
X103262614Y-72644139D01*
X103125861Y-72507386D01*
X102965057Y-72399940D01*
X102786381Y-72325930D01*
X102596699Y-72288200D01*
X102403301Y-72288200D01*
X102213619Y-72325930D01*
X102034943Y-72399940D01*
X101874139Y-72507386D01*
X101737386Y-72644139D01*
X101629940Y-72804943D01*
X101555930Y-72983619D01*
X101518200Y-73173301D01*
X100681800Y-73173301D01*
X100681800Y-71728260D01*
X204958426Y-71728260D01*
X204977014Y-71805012D01*
X205054494Y-71981656D01*
X205164947Y-72139790D01*
X205304128Y-72273337D01*
X205466688Y-72377165D01*
X205646381Y-72447284D01*
X205836300Y-72481000D01*
X206186300Y-72481000D01*
X206186300Y-71576200D01*
X205030034Y-71576200D01*
X204958426Y-71728260D01*
X100681800Y-71728260D01*
X100681800Y-70633301D01*
X101518200Y-70633301D01*
X101518200Y-70826699D01*
X101555930Y-71016381D01*
X101629940Y-71195057D01*
X101737386Y-71355861D01*
X101874139Y-71492614D01*
X102034943Y-71600060D01*
X102213619Y-71674070D01*
X102403301Y-71711800D01*
X102596699Y-71711800D01*
X102786381Y-71674070D01*
X102965057Y-71600060D01*
X103125861Y-71492614D01*
X103242891Y-71375584D01*
X107042180Y-71375584D01*
X107093599Y-71529113D01*
X107258845Y-71608651D01*
X107436432Y-71654422D01*
X107619536Y-71664669D01*
X107801121Y-71638996D01*
X107974208Y-71578392D01*
X108066401Y-71529113D01*
X108117820Y-71375584D01*
X107580000Y-70837763D01*
X107042180Y-71375584D01*
X103242891Y-71375584D01*
X103262614Y-71355861D01*
X103370060Y-71195057D01*
X103444070Y-71016381D01*
X103481800Y-70826699D01*
X103481800Y-70769536D01*
X106645331Y-70769536D01*
X106671004Y-70951121D01*
X106731608Y-71124208D01*
X106780887Y-71216401D01*
X106934416Y-71267820D01*
X107472237Y-70730000D01*
X107687763Y-70730000D01*
X108225584Y-71267820D01*
X108379113Y-71216401D01*
X108458651Y-71051155D01*
X108504422Y-70873568D01*
X108514669Y-70690464D01*
X108506588Y-70633301D01*
X109138200Y-70633301D01*
X109138200Y-70826699D01*
X109175930Y-71016381D01*
X109249940Y-71195057D01*
X109357386Y-71355861D01*
X109494139Y-71492614D01*
X109654943Y-71600060D01*
X109833619Y-71674070D01*
X110023301Y-71711800D01*
X110216699Y-71711800D01*
X110406381Y-71674070D01*
X110585057Y-71600060D01*
X110745861Y-71492614D01*
X110882614Y-71355861D01*
X110990060Y-71195057D01*
X111064070Y-71016381D01*
X111101800Y-70826699D01*
X111101800Y-70633301D01*
X111678200Y-70633301D01*
X111678200Y-70826699D01*
X111715930Y-71016381D01*
X111789940Y-71195057D01*
X111897386Y-71355861D01*
X112034139Y-71492614D01*
X112194943Y-71600060D01*
X112373619Y-71674070D01*
X112563301Y-71711800D01*
X112756699Y-71711800D01*
X112946381Y-71674070D01*
X113125057Y-71600060D01*
X113285861Y-71492614D01*
X113422614Y-71355861D01*
X113479750Y-71270350D01*
X202899913Y-71270350D01*
X202972448Y-71441775D01*
X203167517Y-71538792D01*
X203377765Y-71595889D01*
X203595112Y-71610872D01*
X203811205Y-71583165D01*
X204017742Y-71513832D01*
X204152552Y-71441775D01*
X204224498Y-71271740D01*
X204958426Y-71271740D01*
X205030034Y-71423800D01*
X206186300Y-71423800D01*
X206186300Y-70519000D01*
X205836300Y-70519000D01*
X205646381Y-70552716D01*
X205466688Y-70622835D01*
X205304128Y-70726663D01*
X205164947Y-70860210D01*
X205054494Y-71018344D01*
X204977014Y-71194988D01*
X204958426Y-71271740D01*
X204224498Y-71271740D01*
X204225087Y-71270350D01*
X203562500Y-70607763D01*
X202899913Y-71270350D01*
X113479750Y-71270350D01*
X113530060Y-71195057D01*
X113604070Y-71016381D01*
X113641800Y-70826699D01*
X113641800Y-70633301D01*
X113621772Y-70532612D01*
X202451628Y-70532612D01*
X202479335Y-70748705D01*
X202548668Y-70955242D01*
X202620725Y-71090052D01*
X202792150Y-71162587D01*
X203454737Y-70500000D01*
X203670263Y-70500000D01*
X204332850Y-71162587D01*
X204504275Y-71090052D01*
X204601292Y-70894983D01*
X204658389Y-70684735D01*
X204673372Y-70467388D01*
X204645665Y-70251295D01*
X204576332Y-70044758D01*
X204504275Y-69909948D01*
X204332850Y-69837413D01*
X203670263Y-70500000D01*
X203454737Y-70500000D01*
X202792150Y-69837413D01*
X202620725Y-69909948D01*
X202523708Y-70105017D01*
X202466611Y-70315265D01*
X202451628Y-70532612D01*
X113621772Y-70532612D01*
X113604070Y-70443619D01*
X113530060Y-70264943D01*
X113422614Y-70104139D01*
X113285861Y-69967386D01*
X113125057Y-69859940D01*
X112946381Y-69785930D01*
X112756699Y-69748200D01*
X112563301Y-69748200D01*
X112373619Y-69785930D01*
X112194943Y-69859940D01*
X112034139Y-69967386D01*
X111897386Y-70104139D01*
X111789940Y-70264943D01*
X111715930Y-70443619D01*
X111678200Y-70633301D01*
X111101800Y-70633301D01*
X111064070Y-70443619D01*
X110990060Y-70264943D01*
X110882614Y-70104139D01*
X110745861Y-69967386D01*
X110585057Y-69859940D01*
X110406381Y-69785930D01*
X110216699Y-69748200D01*
X110023301Y-69748200D01*
X109833619Y-69785930D01*
X109654943Y-69859940D01*
X109494139Y-69967386D01*
X109357386Y-70104139D01*
X109249940Y-70264943D01*
X109175930Y-70443619D01*
X109138200Y-70633301D01*
X108506588Y-70633301D01*
X108488996Y-70508879D01*
X108428392Y-70335792D01*
X108379113Y-70243599D01*
X108225584Y-70192180D01*
X107687763Y-70730000D01*
X107472237Y-70730000D01*
X106934416Y-70192180D01*
X106780887Y-70243599D01*
X106701349Y-70408845D01*
X106655578Y-70586432D01*
X106645331Y-70769536D01*
X103481800Y-70769536D01*
X103481800Y-70633301D01*
X103444070Y-70443619D01*
X103370060Y-70264943D01*
X103262614Y-70104139D01*
X103242891Y-70084416D01*
X107042180Y-70084416D01*
X107580000Y-70622237D01*
X108117820Y-70084416D01*
X108066401Y-69930887D01*
X107901155Y-69851349D01*
X107723568Y-69805578D01*
X107540464Y-69795331D01*
X107358879Y-69821004D01*
X107185792Y-69881608D01*
X107093599Y-69930887D01*
X107042180Y-70084416D01*
X103242891Y-70084416D01*
X103125861Y-69967386D01*
X102965057Y-69859940D01*
X102786381Y-69785930D01*
X102596699Y-69748200D01*
X102403301Y-69748200D01*
X102213619Y-69785930D01*
X102034943Y-69859940D01*
X101874139Y-69967386D01*
X101737386Y-70104139D01*
X101629940Y-70264943D01*
X101555930Y-70443619D01*
X101518200Y-70633301D01*
X100681800Y-70633301D01*
X100681800Y-69729650D01*
X202899913Y-69729650D01*
X203562500Y-70392237D01*
X204225087Y-69729650D01*
X204152552Y-69558225D01*
X203957483Y-69461208D01*
X203747235Y-69404111D01*
X203529888Y-69389128D01*
X203313795Y-69416835D01*
X203107258Y-69486168D01*
X202972448Y-69558225D01*
X202899913Y-69729650D01*
X100681800Y-69729650D01*
X100681800Y-67912441D01*
X145611000Y-67912441D01*
X145611000Y-68087559D01*
X145645164Y-68259312D01*
X145712179Y-68421099D01*
X145809469Y-68566704D01*
X145933296Y-68690531D01*
X146078901Y-68787821D01*
X146240688Y-68854836D01*
X146412441Y-68889000D01*
X146587559Y-68889000D01*
X146759312Y-68854836D01*
X146921099Y-68787821D01*
X147066704Y-68690531D01*
X147190531Y-68566704D01*
X147287821Y-68421099D01*
X147354836Y-68259312D01*
X147389000Y-68087559D01*
X147389000Y-67912441D01*
X147354836Y-67740688D01*
X147287821Y-67578901D01*
X147281800Y-67569890D01*
X147281800Y-66270350D01*
X202899913Y-66270350D01*
X202972448Y-66441775D01*
X203167517Y-66538792D01*
X203377765Y-66595889D01*
X203595112Y-66610872D01*
X203811205Y-66583165D01*
X204017742Y-66513832D01*
X204152552Y-66441775D01*
X204225087Y-66270350D01*
X203562500Y-65607763D01*
X202899913Y-66270350D01*
X147281800Y-66270350D01*
X147281800Y-65532612D01*
X202451628Y-65532612D01*
X202479335Y-65748705D01*
X202548668Y-65955242D01*
X202620725Y-66090052D01*
X202792150Y-66162587D01*
X203454737Y-65500000D01*
X203670263Y-65500000D01*
X204332850Y-66162587D01*
X204504275Y-66090052D01*
X204601292Y-65894983D01*
X204658389Y-65684735D01*
X204673372Y-65467388D01*
X204645665Y-65251295D01*
X204576332Y-65044758D01*
X204504275Y-64909948D01*
X204332850Y-64837413D01*
X203670263Y-65500000D01*
X203454737Y-65500000D01*
X202792150Y-64837413D01*
X202620725Y-64909948D01*
X202523708Y-65105017D01*
X202466611Y-65315265D01*
X202451628Y-65532612D01*
X147281800Y-65532612D01*
X147281800Y-64729650D01*
X202899913Y-64729650D01*
X203562500Y-65392237D01*
X204225087Y-64729650D01*
X204224499Y-64728260D01*
X204958426Y-64728260D01*
X204977014Y-64805012D01*
X205054494Y-64981656D01*
X205164947Y-65139790D01*
X205304128Y-65273337D01*
X205466688Y-65377165D01*
X205646381Y-65447284D01*
X205836300Y-65481000D01*
X206186300Y-65481000D01*
X206186300Y-64576200D01*
X205030034Y-64576200D01*
X204958426Y-64728260D01*
X204224499Y-64728260D01*
X204152552Y-64558225D01*
X203957483Y-64461208D01*
X203747235Y-64404111D01*
X203529888Y-64389128D01*
X203313795Y-64416835D01*
X203107258Y-64486168D01*
X202972448Y-64558225D01*
X202899913Y-64729650D01*
X147281800Y-64729650D01*
X147281800Y-64271740D01*
X204958426Y-64271740D01*
X205030034Y-64423800D01*
X206186300Y-64423800D01*
X206186300Y-63519000D01*
X205836300Y-63519000D01*
X205646381Y-63552716D01*
X205466688Y-63622835D01*
X205304128Y-63726663D01*
X205164947Y-63860210D01*
X205054494Y-64018344D01*
X204977014Y-64194988D01*
X204958426Y-64271740D01*
X147281800Y-64271740D01*
X147281800Y-63323831D01*
X147748681Y-62856951D01*
X147759312Y-62854836D01*
X147921099Y-62787821D01*
X148066704Y-62690531D01*
X148190531Y-62566704D01*
X148287821Y-62421099D01*
X148354836Y-62259312D01*
X148389000Y-62087559D01*
X148389000Y-61912441D01*
X148354836Y-61740688D01*
X148287821Y-61578901D01*
X148190531Y-61433296D01*
X148066704Y-61309469D01*
X147921099Y-61212179D01*
X147759312Y-61145164D01*
X147587559Y-61111000D01*
X147412441Y-61111000D01*
X147240688Y-61145164D01*
X147078901Y-61212179D01*
X146933296Y-61309469D01*
X146809469Y-61433296D01*
X146712179Y-61578901D01*
X146645164Y-61740688D01*
X146643049Y-61751319D01*
X145974336Y-62420033D01*
X145944511Y-62444510D01*
X145920034Y-62474335D01*
X145920032Y-62474337D01*
X145846813Y-62563554D01*
X145774218Y-62699371D01*
X145729513Y-62846741D01*
X145714419Y-63000000D01*
X145718201Y-63038401D01*
X145718200Y-67569890D01*
X145712179Y-67578901D01*
X145645164Y-67740688D01*
X145611000Y-67912441D01*
X100681800Y-67912441D01*
X100681800Y-65673301D01*
X101518200Y-65673301D01*
X101518200Y-65866699D01*
X101555930Y-66056381D01*
X101629940Y-66235057D01*
X101737386Y-66395861D01*
X101874139Y-66532614D01*
X102034943Y-66640060D01*
X102213619Y-66714070D01*
X102403301Y-66751800D01*
X102596699Y-66751800D01*
X102786381Y-66714070D01*
X102965057Y-66640060D01*
X103125861Y-66532614D01*
X103262614Y-66395861D01*
X103370060Y-66235057D01*
X103444070Y-66056381D01*
X103481800Y-65866699D01*
X103481800Y-65673301D01*
X103444070Y-65483619D01*
X103370060Y-65304943D01*
X103262614Y-65144139D01*
X103125861Y-65007386D01*
X102965057Y-64899940D01*
X102786381Y-64825930D01*
X102596699Y-64788200D01*
X102403301Y-64788200D01*
X102213619Y-64825930D01*
X102034943Y-64899940D01*
X101874139Y-65007386D01*
X101737386Y-65144139D01*
X101629940Y-65304943D01*
X101555930Y-65483619D01*
X101518200Y-65673301D01*
X100681800Y-65673301D01*
X100681800Y-63133301D01*
X101518200Y-63133301D01*
X101518200Y-63326699D01*
X101555930Y-63516381D01*
X101629940Y-63695057D01*
X101737386Y-63855861D01*
X101874139Y-63992614D01*
X102034943Y-64100060D01*
X102213619Y-64174070D01*
X102403301Y-64211800D01*
X102596699Y-64211800D01*
X102786381Y-64174070D01*
X102965057Y-64100060D01*
X103125861Y-63992614D01*
X103262614Y-63855861D01*
X103370060Y-63695057D01*
X103444070Y-63516381D01*
X103481800Y-63326699D01*
X103481800Y-63133301D01*
X106598200Y-63133301D01*
X106598200Y-63326699D01*
X106635930Y-63516381D01*
X106709940Y-63695057D01*
X106817386Y-63855861D01*
X106954139Y-63992614D01*
X107114943Y-64100060D01*
X107293619Y-64174070D01*
X107483301Y-64211800D01*
X107676699Y-64211800D01*
X107866381Y-64174070D01*
X108045057Y-64100060D01*
X108205861Y-63992614D01*
X108342614Y-63855861D01*
X108450060Y-63695057D01*
X108524070Y-63516381D01*
X108561800Y-63326699D01*
X108561800Y-63133301D01*
X109138200Y-63133301D01*
X109138200Y-63326699D01*
X109175930Y-63516381D01*
X109249940Y-63695057D01*
X109357386Y-63855861D01*
X109494139Y-63992614D01*
X109654943Y-64100060D01*
X109833619Y-64174070D01*
X110023301Y-64211800D01*
X110216699Y-64211800D01*
X110406381Y-64174070D01*
X110585057Y-64100060D01*
X110745861Y-63992614D01*
X110862891Y-63875584D01*
X112122180Y-63875584D01*
X112173599Y-64029113D01*
X112338845Y-64108651D01*
X112516432Y-64154422D01*
X112699536Y-64164669D01*
X112881121Y-64138996D01*
X113054208Y-64078392D01*
X113146401Y-64029113D01*
X113197820Y-63875584D01*
X112660000Y-63337763D01*
X112122180Y-63875584D01*
X110862891Y-63875584D01*
X110882614Y-63855861D01*
X110990060Y-63695057D01*
X111064070Y-63516381D01*
X111101800Y-63326699D01*
X111101800Y-63269536D01*
X111725331Y-63269536D01*
X111751004Y-63451121D01*
X111811608Y-63624208D01*
X111860887Y-63716401D01*
X112014416Y-63767820D01*
X112552237Y-63230000D01*
X112767763Y-63230000D01*
X113305584Y-63767820D01*
X113459113Y-63716401D01*
X113538651Y-63551155D01*
X113584422Y-63373568D01*
X113594669Y-63190464D01*
X113568996Y-63008879D01*
X113508392Y-62835792D01*
X113459113Y-62743599D01*
X113305584Y-62692180D01*
X112767763Y-63230000D01*
X112552237Y-63230000D01*
X112014416Y-62692180D01*
X111860887Y-62743599D01*
X111781349Y-62908845D01*
X111735578Y-63086432D01*
X111725331Y-63269536D01*
X111101800Y-63269536D01*
X111101800Y-63133301D01*
X111064070Y-62943619D01*
X110990060Y-62764943D01*
X110882614Y-62604139D01*
X110862891Y-62584416D01*
X112122180Y-62584416D01*
X112660000Y-63122237D01*
X113197820Y-62584416D01*
X113146401Y-62430887D01*
X112981155Y-62351349D01*
X112803568Y-62305578D01*
X112620464Y-62295331D01*
X112438879Y-62321004D01*
X112265792Y-62381608D01*
X112173599Y-62430887D01*
X112122180Y-62584416D01*
X110862891Y-62584416D01*
X110745861Y-62467386D01*
X110585057Y-62359940D01*
X110406381Y-62285930D01*
X110216699Y-62248200D01*
X110023301Y-62248200D01*
X109833619Y-62285930D01*
X109654943Y-62359940D01*
X109494139Y-62467386D01*
X109357386Y-62604139D01*
X109249940Y-62764943D01*
X109175930Y-62943619D01*
X109138200Y-63133301D01*
X108561800Y-63133301D01*
X108524070Y-62943619D01*
X108450060Y-62764943D01*
X108342614Y-62604139D01*
X108205861Y-62467386D01*
X108045057Y-62359940D01*
X107866381Y-62285930D01*
X107676699Y-62248200D01*
X107483301Y-62248200D01*
X107293619Y-62285930D01*
X107114943Y-62359940D01*
X106954139Y-62467386D01*
X106817386Y-62604139D01*
X106709940Y-62764943D01*
X106635930Y-62943619D01*
X106598200Y-63133301D01*
X103481800Y-63133301D01*
X103444070Y-62943619D01*
X103370060Y-62764943D01*
X103262614Y-62604139D01*
X103125861Y-62467386D01*
X102965057Y-62359940D01*
X102786381Y-62285930D01*
X102596699Y-62248200D01*
X102403301Y-62248200D01*
X102213619Y-62285930D01*
X102034943Y-62359940D01*
X101874139Y-62467386D01*
X101737386Y-62604139D01*
X101629940Y-62764943D01*
X101555930Y-62943619D01*
X101518200Y-63133301D01*
X100681800Y-63133301D01*
X100681800Y-59006689D01*
X100734012Y-58940045D01*
X100940045Y-58734012D01*
X101006689Y-58681800D01*
X206993311Y-58681800D01*
X207059955Y-58734012D01*
X207059955Y-58734012D01*
G37*
X207059955Y-58734012D02*
X207265988Y-58940045D01*
X207318200Y-59006689D01*
X207318200Y-63820051D01*
X207220872Y-63726663D01*
X207058312Y-63622835D01*
X206878619Y-63552716D01*
X206688700Y-63519000D01*
X206338700Y-63519000D01*
X206338700Y-64423800D01*
X206358700Y-64423800D01*
X206358700Y-64576200D01*
X206338700Y-64576200D01*
X206338700Y-65481000D01*
X206688700Y-65481000D01*
X206878619Y-65447284D01*
X207058312Y-65377165D01*
X207220872Y-65273337D01*
X207318200Y-65179949D01*
X207318200Y-70820051D01*
X207220872Y-70726663D01*
X207058312Y-70622835D01*
X206878619Y-70552716D01*
X206688700Y-70519000D01*
X206338700Y-70519000D01*
X206338700Y-71423800D01*
X206358700Y-71423800D01*
X206358700Y-71576200D01*
X206338700Y-71576200D01*
X206338700Y-72481000D01*
X206688700Y-72481000D01*
X206878619Y-72447284D01*
X207058312Y-72377165D01*
X207220872Y-72273337D01*
X207318200Y-72179949D01*
X207318201Y-103420666D01*
X207306340Y-103402915D01*
X207072085Y-103168660D01*
X206796631Y-102984608D01*
X206490563Y-102857830D01*
X206165643Y-102793200D01*
X205834357Y-102793200D01*
X205509437Y-102857830D01*
X205203369Y-102984608D01*
X204927915Y-103168660D01*
X204693660Y-103402915D01*
X204509608Y-103678369D01*
X204382830Y-103984437D01*
X204318200Y-104309357D01*
X204318200Y-104640643D01*
X204382830Y-104965563D01*
X204509608Y-105271631D01*
X204693660Y-105547085D01*
X204927915Y-105781340D01*
X205203369Y-105965392D01*
X205509437Y-106092170D01*
X205834357Y-106156800D01*
X206165643Y-106156800D01*
X206490563Y-106092170D01*
X206796631Y-105965392D01*
X207072085Y-105781340D01*
X207306340Y-105547085D01*
X207318201Y-105529334D01*
X207318201Y-122470666D01*
X207306340Y-122452915D01*
X207072085Y-122218660D01*
X206796631Y-122034608D01*
X206490563Y-121907830D01*
X206165643Y-121843200D01*
X205834357Y-121843200D01*
X205509437Y-121907830D01*
X205203369Y-122034608D01*
X204927915Y-122218660D01*
X204693660Y-122452915D01*
X204509608Y-122728369D01*
X204382830Y-123034437D01*
X204318200Y-123359357D01*
X204318200Y-123690643D01*
X204382830Y-124015563D01*
X204509608Y-124321631D01*
X204693660Y-124597085D01*
X204927915Y-124831340D01*
X205203369Y-125015392D01*
X205509437Y-125142170D01*
X205834357Y-125206800D01*
X206165643Y-125206800D01*
X206490563Y-125142170D01*
X206796631Y-125015392D01*
X207072085Y-124831340D01*
X207306340Y-124597085D01*
X207318201Y-124579334D01*
X207318201Y-138993310D01*
X207265988Y-139059955D01*
X207059955Y-139265988D01*
X206993311Y-139318200D01*
X101006689Y-139318200D01*
X100940045Y-139265988D01*
X100734012Y-139059955D01*
X100681800Y-138993311D01*
X100681800Y-133000000D01*
X105056434Y-133000000D01*
X105103386Y-133476716D01*
X105242439Y-133935112D01*
X105468249Y-134357573D01*
X105772138Y-134727862D01*
X106142427Y-135031751D01*
X106564888Y-135257561D01*
X107023284Y-135396614D01*
X107380537Y-135431800D01*
X109619463Y-135431800D01*
X109976716Y-135396614D01*
X110435112Y-135257561D01*
X110857573Y-135031751D01*
X111227862Y-134727862D01*
X111531751Y-134357573D01*
X111757561Y-133935112D01*
X111896614Y-133476716D01*
X111943566Y-133000000D01*
X111896614Y-132523284D01*
X111757561Y-132064888D01*
X111531751Y-131642427D01*
X111227862Y-131272138D01*
X110857573Y-130968249D01*
X110435112Y-130742439D01*
X109976716Y-130603386D01*
X109619463Y-130568200D01*
X107380537Y-130568200D01*
X107023284Y-130603386D01*
X106564888Y-130742439D01*
X106142427Y-130968249D01*
X105772138Y-131272138D01*
X105468249Y-131642427D01*
X105242439Y-132064888D01*
X105103386Y-132523284D01*
X105056434Y-133000000D01*
X100681800Y-133000000D01*
X100681800Y-130509070D01*
X201663693Y-130509070D01*
X201799372Y-130734247D01*
X202083804Y-130883641D01*
X202391916Y-130974675D01*
X202711868Y-131003850D01*
X203031364Y-130970045D01*
X203338126Y-130874558D01*
X203600628Y-130734247D01*
X203736307Y-130509070D01*
X202700000Y-129472763D01*
X201663693Y-130509070D01*
X100681800Y-130509070D01*
X100681800Y-129376868D01*
X201061150Y-129376868D01*
X201094955Y-129696364D01*
X201190442Y-130003126D01*
X201330753Y-130265628D01*
X201555930Y-130401307D01*
X202592237Y-129365000D01*
X202807763Y-129365000D01*
X203844070Y-130401307D01*
X204069247Y-130265628D01*
X204218641Y-129981196D01*
X204309675Y-129673084D01*
X204338850Y-129353132D01*
X204305045Y-129033636D01*
X204209558Y-128726874D01*
X204069247Y-128464372D01*
X203844070Y-128328693D01*
X202807763Y-129365000D01*
X202592237Y-129365000D01*
X201555930Y-128328693D01*
X201330753Y-128464372D01*
X201181359Y-128748804D01*
X201090325Y-129056916D01*
X201061150Y-129376868D01*
X100681800Y-129376868D01*
X100681800Y-128220930D01*
X201663693Y-128220930D01*
X202700000Y-129257237D01*
X203736307Y-128220930D01*
X203600628Y-127995753D01*
X203316196Y-127846359D01*
X203008084Y-127755325D01*
X202688132Y-127726150D01*
X202368636Y-127759955D01*
X202061874Y-127855442D01*
X201799372Y-127995753D01*
X201663693Y-128220930D01*
X100681800Y-128220930D01*
X100681800Y-125840969D01*
X113400001Y-125840969D01*
X113444962Y-126008087D01*
X113559406Y-126253885D01*
X113719604Y-126472633D01*
X113919399Y-126655925D01*
X114151114Y-126796717D01*
X114405844Y-126889599D01*
X114673800Y-126931000D01*
X115423800Y-126931000D01*
X115423800Y-125626200D01*
X115576200Y-125626200D01*
X115576200Y-126931000D01*
X116326200Y-126931000D01*
X116594156Y-126889599D01*
X116848886Y-126796717D01*
X117080601Y-126655925D01*
X117280396Y-126472633D01*
X117440594Y-126253885D01*
X117555038Y-126008087D01*
X117599999Y-125840969D01*
X117533490Y-125626200D01*
X115576200Y-125626200D01*
X115423800Y-125626200D01*
X113466510Y-125626200D01*
X113400001Y-125840969D01*
X100681800Y-125840969D01*
X100681800Y-125259031D01*
X113400001Y-125259031D01*
X113466510Y-125473800D01*
X115423800Y-125473800D01*
X115423800Y-125453800D01*
X115576200Y-125453800D01*
X115576200Y-125473800D01*
X117533490Y-125473800D01*
X117599999Y-125259031D01*
X117555038Y-125091913D01*
X117440594Y-124846115D01*
X117280396Y-124627367D01*
X117080601Y-124444075D01*
X116848886Y-124303283D01*
X116594156Y-124210401D01*
X116326200Y-124169000D01*
X114673800Y-124169000D01*
X114405844Y-124210401D01*
X114151114Y-124303283D01*
X113919399Y-124444075D01*
X113719604Y-124627367D01*
X113559406Y-124846115D01*
X113444962Y-125091913D01*
X113400001Y-125259031D01*
X100681800Y-125259031D01*
X100681800Y-123645000D01*
X108261273Y-123645000D01*
X108288918Y-123925682D01*
X108370790Y-124195577D01*
X108503742Y-124444314D01*
X108682666Y-124662334D01*
X108900686Y-124841258D01*
X109149423Y-124974210D01*
X109419318Y-125056082D01*
X109629670Y-125076800D01*
X111270330Y-125076800D01*
X111480682Y-125056082D01*
X111750577Y-124974210D01*
X111999314Y-124841258D01*
X112217334Y-124662334D01*
X112396258Y-124444314D01*
X112529210Y-124195577D01*
X112611082Y-123925682D01*
X112638727Y-123645000D01*
X112611082Y-123364318D01*
X112529210Y-123094423D01*
X112396258Y-122845686D01*
X112217334Y-122627666D01*
X111999314Y-122448742D01*
X111750577Y-122315790D01*
X111480682Y-122233918D01*
X111270330Y-122213200D01*
X109629670Y-122213200D01*
X109419318Y-122233918D01*
X109149423Y-122315790D01*
X108900686Y-122448742D01*
X108682666Y-122627666D01*
X108503742Y-122845686D01*
X108370790Y-123094423D01*
X108288918Y-123364318D01*
X108261273Y-123645000D01*
X100681800Y-123645000D01*
X100681800Y-121740000D01*
X113311273Y-121740000D01*
X113338918Y-122020682D01*
X113420790Y-122290577D01*
X113553742Y-122539314D01*
X113732666Y-122757334D01*
X113950686Y-122936258D01*
X114199423Y-123069210D01*
X114469318Y-123151082D01*
X114679670Y-123171800D01*
X116320330Y-123171800D01*
X116530682Y-123151082D01*
X116800577Y-123069210D01*
X117049314Y-122936258D01*
X117267334Y-122757334D01*
X117446258Y-122539314D01*
X117579210Y-122290577D01*
X117661082Y-122020682D01*
X117688727Y-121740000D01*
X117666116Y-121510422D01*
X197828200Y-121510422D01*
X197828200Y-121719578D01*
X197869004Y-121924716D01*
X197949045Y-122117951D01*
X198065246Y-122291858D01*
X198213142Y-122439754D01*
X198387049Y-122555955D01*
X198420956Y-122570000D01*
X198387049Y-122584045D01*
X198213142Y-122700246D01*
X198065246Y-122848142D01*
X197949045Y-123022049D01*
X197869004Y-123215284D01*
X197828200Y-123420422D01*
X197828200Y-123629578D01*
X197869004Y-123834716D01*
X197949045Y-124027951D01*
X198065246Y-124201858D01*
X198213142Y-124349754D01*
X198387049Y-124465955D01*
X198580284Y-124545996D01*
X198785422Y-124586800D01*
X198994578Y-124586800D01*
X199199716Y-124545996D01*
X199392951Y-124465955D01*
X199566858Y-124349754D01*
X199714754Y-124201858D01*
X199830955Y-124027951D01*
X199842500Y-124000079D01*
X199854045Y-124027951D01*
X199970246Y-124201858D01*
X200118142Y-124349754D01*
X200292049Y-124465955D01*
X200485284Y-124545996D01*
X200690422Y-124586800D01*
X200899578Y-124586800D01*
X201104716Y-124545996D01*
X201297951Y-124465955D01*
X201471858Y-124349754D01*
X201619754Y-124201858D01*
X201735955Y-124027951D01*
X201747500Y-124000079D01*
X201759045Y-124027951D01*
X201875246Y-124201858D01*
X202023142Y-124349754D01*
X202197049Y-124465955D01*
X202390284Y-124545996D01*
X202595422Y-124586800D01*
X202804578Y-124586800D01*
X203009716Y-124545996D01*
X203202951Y-124465955D01*
X203376858Y-124349754D01*
X203524754Y-124201858D01*
X203640955Y-124027951D01*
X203720996Y-123834716D01*
X203761800Y-123629578D01*
X203761800Y-123420422D01*
X203720996Y-123215284D01*
X203640955Y-123022049D01*
X203524754Y-122848142D01*
X203376858Y-122700246D01*
X203202951Y-122584045D01*
X203169044Y-122570000D01*
X203202951Y-122555955D01*
X203376858Y-122439754D01*
X203524754Y-122291858D01*
X203640955Y-122117951D01*
X203720996Y-121924716D01*
X203761800Y-121719578D01*
X203761800Y-121510422D01*
X203720996Y-121305284D01*
X203640955Y-121112049D01*
X203524754Y-120938142D01*
X203376858Y-120790246D01*
X203202951Y-120674045D01*
X203106902Y-120634260D01*
X203122118Y-120629042D01*
X203233797Y-120569348D01*
X203294877Y-120407640D01*
X202700000Y-119812763D01*
X202105123Y-120407640D01*
X202166203Y-120569348D01*
X202296219Y-120632967D01*
X202197049Y-120674045D01*
X202023142Y-120790246D01*
X201875246Y-120938142D01*
X201759045Y-121112049D01*
X201747500Y-121139921D01*
X201735955Y-121112049D01*
X201619754Y-120938142D01*
X201471858Y-120790246D01*
X201297951Y-120674045D01*
X201201902Y-120634260D01*
X201217118Y-120629042D01*
X201328797Y-120569348D01*
X201389877Y-120407640D01*
X200795000Y-119812763D01*
X200200123Y-120407640D01*
X200261203Y-120569348D01*
X200391219Y-120632967D01*
X200292049Y-120674045D01*
X200118142Y-120790246D01*
X199970246Y-120938142D01*
X199854045Y-121112049D01*
X199842500Y-121139921D01*
X199830955Y-121112049D01*
X199714754Y-120938142D01*
X199566858Y-120790246D01*
X199392951Y-120674045D01*
X199296902Y-120634260D01*
X199312118Y-120629042D01*
X199423797Y-120569348D01*
X199484877Y-120407640D01*
X198890000Y-119812763D01*
X198295123Y-120407640D01*
X198356203Y-120569348D01*
X198486219Y-120632967D01*
X198387049Y-120674045D01*
X198213142Y-120790246D01*
X198065246Y-120938142D01*
X197949045Y-121112049D01*
X197869004Y-121305284D01*
X197828200Y-121510422D01*
X117666116Y-121510422D01*
X117661082Y-121459318D01*
X117579210Y-121189423D01*
X117446258Y-120940686D01*
X117267334Y-120722666D01*
X117049314Y-120543742D01*
X116800577Y-120410790D01*
X116530682Y-120328918D01*
X116320330Y-120308200D01*
X114679670Y-120308200D01*
X114469318Y-120328918D01*
X114199423Y-120410790D01*
X113950686Y-120543742D01*
X113732666Y-120722666D01*
X113553742Y-120940686D01*
X113420790Y-121189423D01*
X113338918Y-121459318D01*
X113311273Y-121740000D01*
X100681800Y-121740000D01*
X100681800Y-120125969D01*
X108350001Y-120125969D01*
X108394962Y-120293087D01*
X108509406Y-120538885D01*
X108669604Y-120757633D01*
X108869399Y-120940925D01*
X109101114Y-121081717D01*
X109355844Y-121174599D01*
X109623800Y-121216000D01*
X110373800Y-121216000D01*
X110373800Y-119911200D01*
X110526200Y-119911200D01*
X110526200Y-121216000D01*
X111276200Y-121216000D01*
X111544156Y-121174599D01*
X111798886Y-121081717D01*
X112030601Y-120940925D01*
X112230396Y-120757633D01*
X112390594Y-120538885D01*
X112505038Y-120293087D01*
X112549999Y-120125969D01*
X112483490Y-119911200D01*
X110526200Y-119911200D01*
X110373800Y-119911200D01*
X108416510Y-119911200D01*
X108350001Y-120125969D01*
X100681800Y-120125969D01*
X100681800Y-119544031D01*
X108350001Y-119544031D01*
X108416510Y-119758800D01*
X110373800Y-119758800D01*
X110373800Y-119738800D01*
X110526200Y-119738800D01*
X110526200Y-119758800D01*
X112483490Y-119758800D01*
X112488887Y-119741371D01*
X197874759Y-119741371D01*
X197901361Y-119938736D01*
X197965958Y-120127118D01*
X198025652Y-120238797D01*
X198187360Y-120299877D01*
X198782237Y-119705000D01*
X198997763Y-119705000D01*
X199592640Y-120299877D01*
X199754348Y-120238797D01*
X199841879Y-120059914D01*
X199844508Y-120049982D01*
X199870958Y-120127118D01*
X199930652Y-120238797D01*
X200092360Y-120299877D01*
X200687237Y-119705000D01*
X200902763Y-119705000D01*
X201497640Y-120299877D01*
X201659348Y-120238797D01*
X201746879Y-120059914D01*
X201749508Y-120049982D01*
X201775958Y-120127118D01*
X201835652Y-120238797D01*
X201997360Y-120299877D01*
X202592237Y-119705000D01*
X202807763Y-119705000D01*
X203402640Y-120299877D01*
X203564348Y-120238797D01*
X203651879Y-120059914D01*
X203702829Y-119867392D01*
X203715241Y-119668629D01*
X203688639Y-119471264D01*
X203624042Y-119282882D01*
X203564348Y-119171203D01*
X203402640Y-119110123D01*
X202807763Y-119705000D01*
X202592237Y-119705000D01*
X201997360Y-119110123D01*
X201835652Y-119171203D01*
X201748121Y-119350086D01*
X201745492Y-119360018D01*
X201719042Y-119282882D01*
X201659348Y-119171203D01*
X201497640Y-119110123D01*
X200902763Y-119705000D01*
X200687237Y-119705000D01*
X200092360Y-119110123D01*
X199930652Y-119171203D01*
X199843121Y-119350086D01*
X199840492Y-119360018D01*
X199814042Y-119282882D01*
X199754348Y-119171203D01*
X199592640Y-119110123D01*
X198997763Y-119705000D01*
X198782237Y-119705000D01*
X198187360Y-119110123D01*
X198025652Y-119171203D01*
X197938121Y-119350086D01*
X197887171Y-119542608D01*
X197874759Y-119741371D01*
X112488887Y-119741371D01*
X112549999Y-119544031D01*
X112505038Y-119376913D01*
X112390594Y-119131115D01*
X112230396Y-118912367D01*
X112030601Y-118729075D01*
X111798886Y-118588283D01*
X111544156Y-118495401D01*
X111276200Y-118454000D01*
X109623800Y-118454000D01*
X109355844Y-118495401D01*
X109101114Y-118588283D01*
X108869399Y-118729075D01*
X108669604Y-118912367D01*
X108509406Y-119131115D01*
X108394962Y-119376913D01*
X108350001Y-119544031D01*
X100681800Y-119544031D01*
X100681800Y-118220969D01*
X113400001Y-118220969D01*
X113444962Y-118388087D01*
X113559406Y-118633885D01*
X113719604Y-118852633D01*
X113919399Y-119035925D01*
X114151114Y-119176717D01*
X114405844Y-119269599D01*
X114673800Y-119311000D01*
X115423800Y-119311000D01*
X115423800Y-118006200D01*
X115576200Y-118006200D01*
X115576200Y-119311000D01*
X116326200Y-119311000D01*
X116594156Y-119269599D01*
X116848886Y-119176717D01*
X117080601Y-119035925D01*
X117280396Y-118852633D01*
X117440594Y-118633885D01*
X117555038Y-118388087D01*
X117599999Y-118220969D01*
X117533490Y-118006200D01*
X115576200Y-118006200D01*
X115423800Y-118006200D01*
X113466510Y-118006200D01*
X113400001Y-118220969D01*
X100681800Y-118220969D01*
X100681800Y-117639031D01*
X113400001Y-117639031D01*
X113466510Y-117853800D01*
X115423800Y-117853800D01*
X115423800Y-117833800D01*
X115576200Y-117833800D01*
X115576200Y-117853800D01*
X117533490Y-117853800D01*
X117599999Y-117639031D01*
X117555038Y-117471913D01*
X117440594Y-117226115D01*
X117280396Y-117007367D01*
X117080601Y-116824075D01*
X116848886Y-116683283D01*
X116594156Y-116590401D01*
X116326200Y-116549000D01*
X114673800Y-116549000D01*
X114405844Y-116590401D01*
X114151114Y-116683283D01*
X113919399Y-116824075D01*
X113719604Y-117007367D01*
X113559406Y-117226115D01*
X113444962Y-117471913D01*
X113400001Y-117639031D01*
X100681800Y-117639031D01*
X100681800Y-116025000D01*
X108261273Y-116025000D01*
X108288918Y-116305682D01*
X108370790Y-116575577D01*
X108503742Y-116824314D01*
X108682666Y-117042334D01*
X108900686Y-117221258D01*
X109149423Y-117354210D01*
X109419318Y-117436082D01*
X109629670Y-117456800D01*
X111270330Y-117456800D01*
X111480682Y-117436082D01*
X111750577Y-117354210D01*
X111999314Y-117221258D01*
X112217334Y-117042334D01*
X112396258Y-116824314D01*
X112529210Y-116575577D01*
X112611082Y-116305682D01*
X112638727Y-116025000D01*
X112611082Y-115744318D01*
X112529210Y-115474423D01*
X112396258Y-115225686D01*
X112217334Y-115007666D01*
X111999314Y-114828742D01*
X111750577Y-114695790D01*
X111480682Y-114613918D01*
X111270330Y-114593200D01*
X109629670Y-114593200D01*
X109419318Y-114613918D01*
X109149423Y-114695790D01*
X108900686Y-114828742D01*
X108682666Y-115007666D01*
X108503742Y-115225686D01*
X108370790Y-115474423D01*
X108288918Y-115744318D01*
X108261273Y-116025000D01*
X100681800Y-116025000D01*
X100681800Y-114120000D01*
X113311273Y-114120000D01*
X113338918Y-114400682D01*
X113420790Y-114670577D01*
X113553742Y-114919314D01*
X113732666Y-115137334D01*
X113950686Y-115316258D01*
X114199423Y-115449210D01*
X114469318Y-115531082D01*
X114679670Y-115551800D01*
X116320330Y-115551800D01*
X116530682Y-115531082D01*
X116800577Y-115449210D01*
X117049314Y-115316258D01*
X117267334Y-115137334D01*
X117446258Y-114919314D01*
X117579210Y-114670577D01*
X117661082Y-114400682D01*
X117688727Y-114120000D01*
X117661082Y-113839318D01*
X117579210Y-113569423D01*
X117446258Y-113320686D01*
X117267334Y-113102666D01*
X117049314Y-112923742D01*
X116800577Y-112790790D01*
X116530682Y-112708918D01*
X116320330Y-112688200D01*
X114679670Y-112688200D01*
X114469318Y-112708918D01*
X114199423Y-112790790D01*
X113950686Y-112923742D01*
X113732666Y-113102666D01*
X113553742Y-113320686D01*
X113420790Y-113569423D01*
X113338918Y-113839318D01*
X113311273Y-114120000D01*
X100681800Y-114120000D01*
X100681800Y-112505969D01*
X108350001Y-112505969D01*
X108394962Y-112673087D01*
X108509406Y-112918885D01*
X108669604Y-113137633D01*
X108869399Y-113320925D01*
X109101114Y-113461717D01*
X109355844Y-113554599D01*
X109623800Y-113596000D01*
X110373800Y-113596000D01*
X110373800Y-112291200D01*
X110526200Y-112291200D01*
X110526200Y-113596000D01*
X111276200Y-113596000D01*
X111544156Y-113554599D01*
X111798886Y-113461717D01*
X112030601Y-113320925D01*
X112230396Y-113137633D01*
X112390594Y-112918885D01*
X112505038Y-112673087D01*
X112549999Y-112505969D01*
X112525683Y-112427447D01*
X152763400Y-112427447D01*
X152763400Y-112572545D01*
X152791707Y-112714854D01*
X152847234Y-112848907D01*
X152927845Y-112969551D01*
X153030445Y-113072151D01*
X153151089Y-113152762D01*
X153285142Y-113208289D01*
X153427451Y-113236596D01*
X153572549Y-113236596D01*
X153714858Y-113208289D01*
X153848911Y-113152762D01*
X153969555Y-113072151D01*
X154072155Y-112969551D01*
X154152766Y-112848907D01*
X154208293Y-112714854D01*
X154236600Y-112572545D01*
X154236600Y-112517737D01*
X156703915Y-110050422D01*
X197828200Y-110050422D01*
X197828200Y-110259578D01*
X197869004Y-110464716D01*
X197949045Y-110657951D01*
X198065246Y-110831858D01*
X198213142Y-110979754D01*
X198387049Y-111095955D01*
X198420956Y-111110000D01*
X198387049Y-111124045D01*
X198213142Y-111240246D01*
X198065246Y-111388142D01*
X197949045Y-111562049D01*
X197869004Y-111755284D01*
X197828200Y-111960422D01*
X197828200Y-112169578D01*
X197869004Y-112374716D01*
X197949045Y-112567951D01*
X198065246Y-112741858D01*
X198213142Y-112889754D01*
X198387049Y-113005955D01*
X198420956Y-113020000D01*
X198387049Y-113034045D01*
X198213142Y-113150246D01*
X198065246Y-113298142D01*
X197949045Y-113472049D01*
X197869004Y-113665284D01*
X197828200Y-113870422D01*
X197828200Y-114079578D01*
X197869004Y-114284716D01*
X197949045Y-114477951D01*
X198065246Y-114651858D01*
X198213142Y-114799754D01*
X198387049Y-114915955D01*
X198420956Y-114930000D01*
X198387049Y-114944045D01*
X198213142Y-115060246D01*
X198065246Y-115208142D01*
X197949045Y-115382049D01*
X197869004Y-115575284D01*
X197828200Y-115780422D01*
X197828200Y-115989578D01*
X197869004Y-116194716D01*
X197949045Y-116387951D01*
X198065246Y-116561858D01*
X198213142Y-116709754D01*
X198387049Y-116825955D01*
X198420956Y-116840000D01*
X198387049Y-116854045D01*
X198213142Y-116970246D01*
X198065246Y-117118142D01*
X197949045Y-117292049D01*
X197869004Y-117485284D01*
X197828200Y-117690422D01*
X197828200Y-117899578D01*
X197869004Y-118104716D01*
X197949045Y-118297951D01*
X198065246Y-118471858D01*
X198213142Y-118619754D01*
X198387049Y-118735955D01*
X198483098Y-118775740D01*
X198467882Y-118780958D01*
X198356203Y-118840652D01*
X198295123Y-119002360D01*
X198890000Y-119597237D01*
X199484877Y-119002360D01*
X199423797Y-118840652D01*
X199293781Y-118777033D01*
X199392951Y-118735955D01*
X199566858Y-118619754D01*
X199714754Y-118471858D01*
X199830955Y-118297951D01*
X199842500Y-118270079D01*
X199854045Y-118297951D01*
X199970246Y-118471858D01*
X200118142Y-118619754D01*
X200292049Y-118735955D01*
X200388098Y-118775740D01*
X200372882Y-118780958D01*
X200261203Y-118840652D01*
X200200123Y-119002360D01*
X200795000Y-119597237D01*
X201389877Y-119002360D01*
X201328797Y-118840652D01*
X201198781Y-118777033D01*
X201297951Y-118735955D01*
X201471858Y-118619754D01*
X201619754Y-118471858D01*
X201735955Y-118297951D01*
X201747500Y-118270079D01*
X201759045Y-118297951D01*
X201875246Y-118471858D01*
X202023142Y-118619754D01*
X202197049Y-118735955D01*
X202293098Y-118775740D01*
X202277882Y-118780958D01*
X202166203Y-118840652D01*
X202105123Y-119002360D01*
X202700000Y-119597237D01*
X203294877Y-119002360D01*
X203233797Y-118840652D01*
X203103781Y-118777033D01*
X203202951Y-118735955D01*
X203376858Y-118619754D01*
X203524754Y-118471858D01*
X203640955Y-118297951D01*
X203720996Y-118104716D01*
X203761800Y-117899578D01*
X203761800Y-117690422D01*
X203720996Y-117485284D01*
X203640955Y-117292049D01*
X203524754Y-117118142D01*
X203376858Y-116970246D01*
X203202951Y-116854045D01*
X203169044Y-116840000D01*
X203202951Y-116825955D01*
X203376858Y-116709754D01*
X203524754Y-116561858D01*
X203640955Y-116387951D01*
X203720996Y-116194716D01*
X203761800Y-115989578D01*
X203761800Y-115780422D01*
X203720996Y-115575284D01*
X203640955Y-115382049D01*
X203524754Y-115208142D01*
X203376858Y-115060246D01*
X203202951Y-114944045D01*
X203106902Y-114904260D01*
X203122118Y-114899042D01*
X203233797Y-114839348D01*
X203294877Y-114677640D01*
X202700000Y-114082763D01*
X202105123Y-114677640D01*
X202166203Y-114839348D01*
X202296219Y-114902967D01*
X202197049Y-114944045D01*
X202023142Y-115060246D01*
X201875246Y-115208142D01*
X201759045Y-115382049D01*
X201747500Y-115409921D01*
X201735955Y-115382049D01*
X201619754Y-115208142D01*
X201471858Y-115060246D01*
X201297951Y-114944045D01*
X201264044Y-114930000D01*
X201297951Y-114915955D01*
X201471858Y-114799754D01*
X201619754Y-114651858D01*
X201735955Y-114477951D01*
X201773005Y-114388506D01*
X201775958Y-114397118D01*
X201835652Y-114508797D01*
X201997360Y-114569877D01*
X202592237Y-113975000D01*
X202807763Y-113975000D01*
X203402640Y-114569877D01*
X203564348Y-114508797D01*
X203651879Y-114329914D01*
X203702829Y-114137392D01*
X203715241Y-113938629D01*
X203688639Y-113741264D01*
X203624042Y-113552882D01*
X203564348Y-113441203D01*
X203402640Y-113380123D01*
X202807763Y-113975000D01*
X202592237Y-113975000D01*
X201997360Y-113380123D01*
X201835652Y-113441203D01*
X201774741Y-113565685D01*
X201735955Y-113472049D01*
X201619754Y-113298142D01*
X201471858Y-113150246D01*
X201297951Y-113034045D01*
X201201902Y-112994260D01*
X201217118Y-112989042D01*
X201328797Y-112929348D01*
X201389877Y-112767640D01*
X200795000Y-112172763D01*
X200200123Y-112767640D01*
X200261203Y-112929348D01*
X200391219Y-112992967D01*
X200292049Y-113034045D01*
X200118142Y-113150246D01*
X199970246Y-113298142D01*
X199854045Y-113472049D01*
X199842500Y-113499921D01*
X199830955Y-113472049D01*
X199714754Y-113298142D01*
X199566858Y-113150246D01*
X199392951Y-113034045D01*
X199359044Y-113020000D01*
X199392951Y-113005955D01*
X199566858Y-112889754D01*
X199714754Y-112741858D01*
X199830955Y-112567951D01*
X199868005Y-112478506D01*
X199870958Y-112487118D01*
X199930652Y-112598797D01*
X200092360Y-112659877D01*
X200687237Y-112065000D01*
X200092360Y-111470123D01*
X199930652Y-111531203D01*
X199869741Y-111655685D01*
X199830955Y-111562049D01*
X199714754Y-111388142D01*
X199566858Y-111240246D01*
X199392951Y-111124045D01*
X199359044Y-111110000D01*
X199392951Y-111095955D01*
X199566858Y-110979754D01*
X199714754Y-110831858D01*
X199830955Y-110657951D01*
X199842500Y-110630079D01*
X199854045Y-110657951D01*
X199970246Y-110831858D01*
X200118142Y-110979754D01*
X200292049Y-111095955D01*
X200388098Y-111135740D01*
X200372882Y-111140958D01*
X200261203Y-111200652D01*
X200200123Y-111362360D01*
X200795000Y-111957237D01*
X201389877Y-111362360D01*
X201328797Y-111200652D01*
X201198781Y-111137033D01*
X201297951Y-111095955D01*
X201471858Y-110979754D01*
X201619754Y-110831858D01*
X201735955Y-110657951D01*
X201747500Y-110630079D01*
X201759045Y-110657951D01*
X201875246Y-110831858D01*
X202023142Y-110979754D01*
X202197049Y-111095955D01*
X202230956Y-111110000D01*
X202197049Y-111124045D01*
X202023142Y-111240246D01*
X201875246Y-111388142D01*
X201759045Y-111562049D01*
X201721995Y-111651494D01*
X201719042Y-111642882D01*
X201659348Y-111531203D01*
X201497640Y-111470123D01*
X200902763Y-112065000D01*
X201497640Y-112659877D01*
X201659348Y-112598797D01*
X201720259Y-112474315D01*
X201759045Y-112567951D01*
X201875246Y-112741858D01*
X202023142Y-112889754D01*
X202197049Y-113005955D01*
X202293098Y-113045740D01*
X202277882Y-113050958D01*
X202166203Y-113110652D01*
X202105123Y-113272360D01*
X202700000Y-113867237D01*
X203294877Y-113272360D01*
X203233797Y-113110652D01*
X203103781Y-113047033D01*
X203202951Y-113005955D01*
X203376858Y-112889754D01*
X203524754Y-112741858D01*
X203640955Y-112567951D01*
X203720996Y-112374716D01*
X203761800Y-112169578D01*
X203761800Y-111960422D01*
X203720996Y-111755284D01*
X203640955Y-111562049D01*
X203524754Y-111388142D01*
X203376858Y-111240246D01*
X203202951Y-111124045D01*
X203169044Y-111110000D01*
X203202951Y-111095955D01*
X203376858Y-110979754D01*
X203524754Y-110831858D01*
X203640955Y-110657951D01*
X203720996Y-110464716D01*
X203761800Y-110259578D01*
X203761800Y-110050422D01*
X203720996Y-109845284D01*
X203640955Y-109652049D01*
X203524754Y-109478142D01*
X203376858Y-109330246D01*
X203202951Y-109214045D01*
X203009716Y-109134004D01*
X202804578Y-109093200D01*
X202595422Y-109093200D01*
X202390284Y-109134004D01*
X202197049Y-109214045D01*
X202023142Y-109330246D01*
X201875246Y-109478142D01*
X201759045Y-109652049D01*
X201747500Y-109679921D01*
X201735955Y-109652049D01*
X201619754Y-109478142D01*
X201471858Y-109330246D01*
X201297951Y-109214045D01*
X201104716Y-109134004D01*
X200899578Y-109093200D01*
X200690422Y-109093200D01*
X200485284Y-109134004D01*
X200292049Y-109214045D01*
X200118142Y-109330246D01*
X199970246Y-109478142D01*
X199854045Y-109652049D01*
X199842500Y-109679921D01*
X199830955Y-109652049D01*
X199714754Y-109478142D01*
X199566858Y-109330246D01*
X199392951Y-109214045D01*
X199199716Y-109134004D01*
X198994578Y-109093200D01*
X198785422Y-109093200D01*
X198580284Y-109134004D01*
X198387049Y-109214045D01*
X198213142Y-109330246D01*
X198065246Y-109478142D01*
X197949045Y-109652049D01*
X197869004Y-109845284D01*
X197828200Y-110050422D01*
X156703915Y-110050422D01*
X157358651Y-109395687D01*
X157378995Y-109378991D01*
X157445651Y-109297771D01*
X157495181Y-109205107D01*
X157525681Y-109104561D01*
X157533400Y-109026191D01*
X157533400Y-109026184D01*
X157535979Y-108999997D01*
X157533400Y-108973810D01*
X157533400Y-106008304D01*
X157572155Y-105969549D01*
X157652766Y-105848905D01*
X157680739Y-105781371D01*
X197234759Y-105781371D01*
X197261361Y-105978736D01*
X197325958Y-106167118D01*
X197385652Y-106278797D01*
X197547360Y-106339877D01*
X198142237Y-105745000D01*
X197547360Y-105150123D01*
X197385652Y-105211203D01*
X197298121Y-105390086D01*
X197247171Y-105582608D01*
X197234759Y-105781371D01*
X157680739Y-105781371D01*
X157708293Y-105714852D01*
X157736600Y-105572543D01*
X157736600Y-105427445D01*
X157708293Y-105285136D01*
X157652766Y-105151083D01*
X157580121Y-105042360D01*
X197655123Y-105042360D01*
X198250000Y-105637237D01*
X198264143Y-105623095D01*
X198371906Y-105730858D01*
X198357763Y-105745000D01*
X198371906Y-105759143D01*
X198264143Y-105866906D01*
X198250000Y-105852763D01*
X197655123Y-106447640D01*
X197716203Y-106609348D01*
X197895086Y-106696879D01*
X198087608Y-106747829D01*
X198286371Y-106760241D01*
X198483736Y-106733639D01*
X198494069Y-106730096D01*
X198458200Y-106910422D01*
X198458200Y-107119578D01*
X198499004Y-107324716D01*
X198579045Y-107517951D01*
X198695246Y-107691858D01*
X198843142Y-107839754D01*
X199017049Y-107955955D01*
X199210284Y-108035996D01*
X199415422Y-108076800D01*
X199624578Y-108076800D01*
X199829716Y-108035996D01*
X200022951Y-107955955D01*
X200196858Y-107839754D01*
X200344754Y-107691858D01*
X200460955Y-107517951D01*
X200540996Y-107324716D01*
X200581800Y-107119578D01*
X200581800Y-106910422D01*
X200540996Y-106705284D01*
X200460955Y-106512049D01*
X200344754Y-106338142D01*
X200196858Y-106190246D01*
X200022951Y-106074045D01*
X199829716Y-105994004D01*
X199624578Y-105953200D01*
X199415422Y-105953200D01*
X199230998Y-105989884D01*
X199252829Y-105907392D01*
X199265241Y-105708629D01*
X199238639Y-105511264D01*
X199235096Y-105500931D01*
X199415422Y-105536800D01*
X199624578Y-105536800D01*
X199829716Y-105495996D01*
X200022951Y-105415955D01*
X200196858Y-105299754D01*
X200344754Y-105151858D01*
X200460955Y-104977951D01*
X200540996Y-104784716D01*
X200581800Y-104579578D01*
X200581800Y-104370422D01*
X200998200Y-104370422D01*
X200998200Y-104579578D01*
X201039004Y-104784716D01*
X201119045Y-104977951D01*
X201235246Y-105151858D01*
X201383142Y-105299754D01*
X201557049Y-105415955D01*
X201750284Y-105495996D01*
X201955422Y-105536800D01*
X202164578Y-105536800D01*
X202349002Y-105500116D01*
X202327171Y-105582608D01*
X202314759Y-105781371D01*
X202341361Y-105978736D01*
X202344904Y-105989069D01*
X202164578Y-105953200D01*
X201955422Y-105953200D01*
X201750284Y-105994004D01*
X201557049Y-106074045D01*
X201383142Y-106190246D01*
X201235246Y-106338142D01*
X201119045Y-106512049D01*
X201039004Y-106705284D01*
X200998200Y-106910422D01*
X200998200Y-107119578D01*
X201039004Y-107324716D01*
X201119045Y-107517951D01*
X201235246Y-107691858D01*
X201383142Y-107839754D01*
X201557049Y-107955955D01*
X201750284Y-108035996D01*
X201955422Y-108076800D01*
X202164578Y-108076800D01*
X202369716Y-108035996D01*
X202562951Y-107955955D01*
X202736858Y-107839754D01*
X202884754Y-107691858D01*
X203000955Y-107517951D01*
X203080996Y-107324716D01*
X203121800Y-107119578D01*
X203121800Y-106910422D01*
X203085116Y-106725998D01*
X203167608Y-106747829D01*
X203366371Y-106760241D01*
X203563736Y-106733639D01*
X203752118Y-106669042D01*
X203863797Y-106609348D01*
X203924877Y-106447640D01*
X203330000Y-105852763D01*
X203315858Y-105866906D01*
X203208095Y-105759143D01*
X203222237Y-105745000D01*
X203437763Y-105745000D01*
X204032640Y-106339877D01*
X204194348Y-106278797D01*
X204281879Y-106099914D01*
X204332829Y-105907392D01*
X204345241Y-105708629D01*
X204318639Y-105511264D01*
X204254042Y-105322882D01*
X204194348Y-105211203D01*
X204032640Y-105150123D01*
X203437763Y-105745000D01*
X203222237Y-105745000D01*
X203208095Y-105730858D01*
X203315858Y-105623095D01*
X203330000Y-105637237D01*
X203924877Y-105042360D01*
X203863797Y-104880652D01*
X203684914Y-104793121D01*
X203492392Y-104742171D01*
X203293629Y-104729759D01*
X203096264Y-104756361D01*
X203085931Y-104759904D01*
X203121800Y-104579578D01*
X203121800Y-104370422D01*
X203080996Y-104165284D01*
X203000955Y-103972049D01*
X202884754Y-103798142D01*
X202736858Y-103650246D01*
X202562951Y-103534045D01*
X202369716Y-103454004D01*
X202164578Y-103413200D01*
X201955422Y-103413200D01*
X201750284Y-103454004D01*
X201557049Y-103534045D01*
X201383142Y-103650246D01*
X201235246Y-103798142D01*
X201119045Y-103972049D01*
X201039004Y-104165284D01*
X200998200Y-104370422D01*
X200581800Y-104370422D01*
X200540996Y-104165284D01*
X200460955Y-103972049D01*
X200344754Y-103798142D01*
X200196858Y-103650246D01*
X200022951Y-103534045D01*
X199829716Y-103454004D01*
X199624578Y-103413200D01*
X199415422Y-103413200D01*
X199210284Y-103454004D01*
X199017049Y-103534045D01*
X198843142Y-103650246D01*
X198695246Y-103798142D01*
X198579045Y-103972049D01*
X198499004Y-104165284D01*
X198458200Y-104370422D01*
X198458200Y-104579578D01*
X198494884Y-104764002D01*
X198412392Y-104742171D01*
X198213629Y-104729759D01*
X198016264Y-104756361D01*
X197827882Y-104820958D01*
X197716203Y-104880652D01*
X197655123Y-105042360D01*
X157580121Y-105042360D01*
X157572155Y-105030439D01*
X157469555Y-104927839D01*
X157348911Y-104847228D01*
X157214858Y-104791701D01*
X157072549Y-104763394D01*
X156927451Y-104763394D01*
X156785142Y-104791701D01*
X156651089Y-104847228D01*
X156530445Y-104927839D01*
X156427845Y-105030439D01*
X156347234Y-105151083D01*
X156291707Y-105285136D01*
X156263400Y-105427445D01*
X156263400Y-105572543D01*
X156291707Y-105714852D01*
X156347234Y-105848905D01*
X156427845Y-105969549D01*
X156466601Y-106008305D01*
X156466600Y-108779054D01*
X153482259Y-111763396D01*
X153427451Y-111763396D01*
X153285142Y-111791703D01*
X153151089Y-111847230D01*
X153030445Y-111927841D01*
X152927845Y-112030441D01*
X152847234Y-112151085D01*
X152791707Y-112285138D01*
X152763400Y-112427447D01*
X112525683Y-112427447D01*
X112483490Y-112291200D01*
X110526200Y-112291200D01*
X110373800Y-112291200D01*
X108416510Y-112291200D01*
X108350001Y-112505969D01*
X100681800Y-112505969D01*
X100681800Y-111924031D01*
X108350001Y-111924031D01*
X108416510Y-112138800D01*
X110373800Y-112138800D01*
X110373800Y-112118800D01*
X110526200Y-112118800D01*
X110526200Y-112138800D01*
X112483490Y-112138800D01*
X112549999Y-111924031D01*
X112505038Y-111756913D01*
X112390594Y-111511115D01*
X112230396Y-111292367D01*
X112030601Y-111109075D01*
X111798886Y-110968283D01*
X111544156Y-110875401D01*
X111276200Y-110834000D01*
X109623800Y-110834000D01*
X109355844Y-110875401D01*
X109101114Y-110968283D01*
X108869399Y-111109075D01*
X108669604Y-111292367D01*
X108509406Y-111511115D01*
X108394962Y-111756913D01*
X108350001Y-111924031D01*
X100681800Y-111924031D01*
X100681800Y-110600969D01*
X113400001Y-110600969D01*
X113444962Y-110768087D01*
X113559406Y-111013885D01*
X113719604Y-111232633D01*
X113919399Y-111415925D01*
X114151114Y-111556717D01*
X114405844Y-111649599D01*
X114673800Y-111691000D01*
X115423800Y-111691000D01*
X115423800Y-110386200D01*
X115576200Y-110386200D01*
X115576200Y-111691000D01*
X116326200Y-111691000D01*
X116594156Y-111649599D01*
X116848886Y-111556717D01*
X117080601Y-111415925D01*
X117280396Y-111232633D01*
X117440594Y-111013885D01*
X117555038Y-110768087D01*
X117599999Y-110600969D01*
X117533490Y-110386200D01*
X115576200Y-110386200D01*
X115423800Y-110386200D01*
X113466510Y-110386200D01*
X113400001Y-110600969D01*
X100681800Y-110600969D01*
X100681800Y-110019031D01*
X113400001Y-110019031D01*
X113466510Y-110233800D01*
X115423800Y-110233800D01*
X115423800Y-110213800D01*
X115576200Y-110213800D01*
X115576200Y-110233800D01*
X117533490Y-110233800D01*
X117599999Y-110019031D01*
X117555038Y-109851913D01*
X117440594Y-109606115D01*
X117280396Y-109387367D01*
X117080601Y-109204075D01*
X116848886Y-109063283D01*
X116594156Y-108970401D01*
X116326200Y-108929000D01*
X114673800Y-108929000D01*
X114405844Y-108970401D01*
X114151114Y-109063283D01*
X113919399Y-109204075D01*
X113719604Y-109387367D01*
X113559406Y-109606115D01*
X113444962Y-109851913D01*
X113400001Y-110019031D01*
X100681800Y-110019031D01*
X100681800Y-108405000D01*
X108261273Y-108405000D01*
X108288918Y-108685682D01*
X108370790Y-108955577D01*
X108503742Y-109204314D01*
X108682666Y-109422334D01*
X108900686Y-109601258D01*
X109149423Y-109734210D01*
X109419318Y-109816082D01*
X109629670Y-109836800D01*
X111270330Y-109836800D01*
X111480682Y-109816082D01*
X111750577Y-109734210D01*
X111999314Y-109601258D01*
X112217334Y-109422334D01*
X112396258Y-109204314D01*
X112529210Y-108955577D01*
X112611082Y-108685682D01*
X112638727Y-108405000D01*
X112611082Y-108124318D01*
X112529210Y-107854423D01*
X112396258Y-107605686D01*
X112217334Y-107387666D01*
X111999314Y-107208742D01*
X111750577Y-107075790D01*
X111480682Y-106993918D01*
X111270330Y-106973200D01*
X109629670Y-106973200D01*
X109419318Y-106993918D01*
X109149423Y-107075790D01*
X108900686Y-107208742D01*
X108682666Y-107387666D01*
X108503742Y-107605686D01*
X108370790Y-107854423D01*
X108288918Y-108124318D01*
X108261273Y-108405000D01*
X100681800Y-108405000D01*
X100681800Y-106500000D01*
X113311273Y-106500000D01*
X113338918Y-106780682D01*
X113420790Y-107050577D01*
X113553742Y-107299314D01*
X113732666Y-107517334D01*
X113950686Y-107696258D01*
X114199423Y-107829210D01*
X114469318Y-107911082D01*
X114679670Y-107931800D01*
X116320330Y-107931800D01*
X116530682Y-107911082D01*
X116800577Y-107829210D01*
X117049314Y-107696258D01*
X117267334Y-107517334D01*
X117446258Y-107299314D01*
X117579210Y-107050577D01*
X117661082Y-106780682D01*
X117688727Y-106500000D01*
X117661082Y-106219318D01*
X117579210Y-105949423D01*
X117446258Y-105700686D01*
X117267334Y-105482666D01*
X117049314Y-105303742D01*
X116800577Y-105170790D01*
X116530682Y-105088918D01*
X116320330Y-105068200D01*
X114679670Y-105068200D01*
X114469318Y-105088918D01*
X114199423Y-105170790D01*
X113950686Y-105303742D01*
X113732666Y-105482666D01*
X113553742Y-105700686D01*
X113420790Y-105949423D01*
X113338918Y-106219318D01*
X113311273Y-106500000D01*
X100681800Y-106500000D01*
X100681800Y-104595000D01*
X108261273Y-104595000D01*
X108288918Y-104875682D01*
X108370790Y-105145577D01*
X108503742Y-105394314D01*
X108682666Y-105612334D01*
X108900686Y-105791258D01*
X109149423Y-105924210D01*
X109419318Y-106006082D01*
X109629670Y-106026800D01*
X111270330Y-106026800D01*
X111480682Y-106006082D01*
X111750577Y-105924210D01*
X111999314Y-105791258D01*
X112217334Y-105612334D01*
X112396258Y-105394314D01*
X112529210Y-105145577D01*
X112611082Y-104875682D01*
X112638727Y-104595000D01*
X112611082Y-104314318D01*
X112529210Y-104044423D01*
X112396258Y-103795686D01*
X112217334Y-103577666D01*
X111999314Y-103398742D01*
X111750577Y-103265790D01*
X111480682Y-103183918D01*
X111270330Y-103163200D01*
X109629670Y-103163200D01*
X109419318Y-103183918D01*
X109149423Y-103265790D01*
X108900686Y-103398742D01*
X108682666Y-103577666D01*
X108503742Y-103795686D01*
X108370790Y-104044423D01*
X108288918Y-104314318D01*
X108261273Y-104595000D01*
X100681800Y-104595000D01*
X100681800Y-102980969D01*
X113400001Y-102980969D01*
X113444962Y-103148087D01*
X113559406Y-103393885D01*
X113719604Y-103612633D01*
X113919399Y-103795925D01*
X114151114Y-103936717D01*
X114405844Y-104029599D01*
X114673800Y-104071000D01*
X115423800Y-104071000D01*
X115423800Y-102766200D01*
X115576200Y-102766200D01*
X115576200Y-104071000D01*
X116326200Y-104071000D01*
X116594156Y-104029599D01*
X116848886Y-103936717D01*
X117080601Y-103795925D01*
X117280396Y-103612633D01*
X117440594Y-103393885D01*
X117555038Y-103148087D01*
X117599999Y-102980969D01*
X117533490Y-102766200D01*
X115576200Y-102766200D01*
X115423800Y-102766200D01*
X113466510Y-102766200D01*
X113400001Y-102980969D01*
X100681800Y-102980969D01*
X100681800Y-102399031D01*
X113400001Y-102399031D01*
X113466510Y-102613800D01*
X115423800Y-102613800D01*
X115423800Y-102593800D01*
X115576200Y-102593800D01*
X115576200Y-102613800D01*
X117533490Y-102613800D01*
X117599999Y-102399031D01*
X117555038Y-102231913D01*
X117440594Y-101986115D01*
X117280396Y-101767367D01*
X117080601Y-101584075D01*
X116848886Y-101443283D01*
X116594156Y-101350401D01*
X116326200Y-101309000D01*
X114673800Y-101309000D01*
X114405844Y-101350401D01*
X114151114Y-101443283D01*
X113919399Y-101584075D01*
X113719604Y-101767367D01*
X113559406Y-101986115D01*
X113444962Y-102231913D01*
X113400001Y-102399031D01*
X100681800Y-102399031D01*
X100681800Y-100785000D01*
X108261273Y-100785000D01*
X108288918Y-101065682D01*
X108370790Y-101335577D01*
X108503742Y-101584314D01*
X108682666Y-101802334D01*
X108900686Y-101981258D01*
X109149423Y-102114210D01*
X109419318Y-102196082D01*
X109629670Y-102216800D01*
X111270330Y-102216800D01*
X111480682Y-102196082D01*
X111750577Y-102114210D01*
X111999314Y-101981258D01*
X112217334Y-101802334D01*
X112396258Y-101584314D01*
X112529210Y-101335577D01*
X112611082Y-101065682D01*
X112638727Y-100785000D01*
X112611082Y-100504318D01*
X112529210Y-100234423D01*
X112396258Y-99985686D01*
X112217334Y-99767666D01*
X111999314Y-99588742D01*
X111750577Y-99455790D01*
X111480682Y-99373918D01*
X111270330Y-99353200D01*
X109629670Y-99353200D01*
X109419318Y-99373918D01*
X109149423Y-99455790D01*
X108900686Y-99588742D01*
X108682666Y-99767666D01*
X108503742Y-99985686D01*
X108370790Y-100234423D01*
X108288918Y-100504318D01*
X108261273Y-100785000D01*
X100681800Y-100785000D01*
X100681800Y-98880000D01*
X113311273Y-98880000D01*
X113338918Y-99160682D01*
X113420790Y-99430577D01*
X113553742Y-99679314D01*
X113732666Y-99897334D01*
X113950686Y-100076258D01*
X114199423Y-100209210D01*
X114469318Y-100291082D01*
X114679670Y-100311800D01*
X116320330Y-100311800D01*
X116530682Y-100291082D01*
X116800577Y-100209210D01*
X117049314Y-100076258D01*
X117267334Y-99897334D01*
X117446258Y-99679314D01*
X117579210Y-99430577D01*
X117661082Y-99160682D01*
X117688727Y-98880000D01*
X117661082Y-98599318D01*
X117579210Y-98329423D01*
X117446258Y-98080686D01*
X117267334Y-97862666D01*
X117049314Y-97683742D01*
X116800577Y-97550790D01*
X116530682Y-97468918D01*
X116320330Y-97448200D01*
X114679670Y-97448200D01*
X114469318Y-97468918D01*
X114199423Y-97550790D01*
X113950686Y-97683742D01*
X113732666Y-97862666D01*
X113553742Y-98080686D01*
X113420790Y-98329423D01*
X113338918Y-98599318D01*
X113311273Y-98880000D01*
X100681800Y-98880000D01*
X100681800Y-96975000D01*
X108261273Y-96975000D01*
X108288918Y-97255682D01*
X108370790Y-97525577D01*
X108503742Y-97774314D01*
X108682666Y-97992334D01*
X108900686Y-98171258D01*
X109149423Y-98304210D01*
X109419318Y-98386082D01*
X109629670Y-98406800D01*
X111270330Y-98406800D01*
X111480682Y-98386082D01*
X111750577Y-98304210D01*
X111999314Y-98171258D01*
X112217334Y-97992334D01*
X112396258Y-97774314D01*
X112529210Y-97525577D01*
X112611082Y-97255682D01*
X112638727Y-96975000D01*
X112611082Y-96694318D01*
X112529210Y-96424423D01*
X112396258Y-96175686D01*
X112217334Y-95957666D01*
X111999314Y-95778742D01*
X111750577Y-95645790D01*
X111480682Y-95563918D01*
X111270330Y-95543200D01*
X109629670Y-95543200D01*
X109419318Y-95563918D01*
X109149423Y-95645790D01*
X108900686Y-95778742D01*
X108682666Y-95957666D01*
X108503742Y-96175686D01*
X108370790Y-96424423D01*
X108288918Y-96694318D01*
X108261273Y-96975000D01*
X100681800Y-96975000D01*
X100681800Y-95360969D01*
X113400001Y-95360969D01*
X113444962Y-95528087D01*
X113559406Y-95773885D01*
X113719604Y-95992633D01*
X113919399Y-96175925D01*
X114151114Y-96316717D01*
X114405844Y-96409599D01*
X114673800Y-96451000D01*
X115423800Y-96451000D01*
X115423800Y-95146200D01*
X115576200Y-95146200D01*
X115576200Y-96451000D01*
X116326200Y-96451000D01*
X116575761Y-96412441D01*
X144111000Y-96412441D01*
X144111000Y-96587559D01*
X144145164Y-96759312D01*
X144212179Y-96921099D01*
X144218200Y-96930110D01*
X144218201Y-99461599D01*
X144214419Y-99500000D01*
X144229513Y-99653259D01*
X144274218Y-99800629D01*
X144346813Y-99936446D01*
X144387224Y-99985686D01*
X144444511Y-100055490D01*
X144474336Y-100079967D01*
X145143049Y-100748681D01*
X145145164Y-100759312D01*
X145212179Y-100921099D01*
X145309469Y-101066704D01*
X145433296Y-101190531D01*
X145578901Y-101287821D01*
X145740688Y-101354836D01*
X145912441Y-101389000D01*
X146087559Y-101389000D01*
X146259312Y-101354836D01*
X146421099Y-101287821D01*
X146566704Y-101190531D01*
X146690531Y-101066704D01*
X146787821Y-100921099D01*
X146854836Y-100759312D01*
X146889000Y-100587559D01*
X146889000Y-100412441D01*
X146854836Y-100240688D01*
X146787821Y-100078901D01*
X146690531Y-99933296D01*
X146566704Y-99809469D01*
X146521209Y-99779070D01*
X201663693Y-99779070D01*
X201799372Y-100004247D01*
X202083804Y-100153641D01*
X202391916Y-100244675D01*
X202711868Y-100273850D01*
X203031364Y-100240045D01*
X203338126Y-100144558D01*
X203600628Y-100004247D01*
X203736307Y-99779070D01*
X202700000Y-98742763D01*
X201663693Y-99779070D01*
X146521209Y-99779070D01*
X146421099Y-99712179D01*
X146259312Y-99645164D01*
X146248681Y-99643049D01*
X145781800Y-99176169D01*
X145781800Y-98646868D01*
X201061150Y-98646868D01*
X201094955Y-98966364D01*
X201190442Y-99273126D01*
X201330753Y-99535628D01*
X201555930Y-99671307D01*
X202592237Y-98635000D01*
X202807763Y-98635000D01*
X203844070Y-99671307D01*
X204069247Y-99535628D01*
X204218641Y-99251196D01*
X204309675Y-98943084D01*
X204338850Y-98623132D01*
X204305045Y-98303636D01*
X204209558Y-97996874D01*
X204069247Y-97734372D01*
X203844070Y-97598693D01*
X202807763Y-98635000D01*
X202592237Y-98635000D01*
X201555930Y-97598693D01*
X201330753Y-97734372D01*
X201181359Y-98018804D01*
X201090325Y-98326916D01*
X201061150Y-98646868D01*
X145781800Y-98646868D01*
X145781800Y-97490930D01*
X201663693Y-97490930D01*
X202700000Y-98527237D01*
X203736307Y-97490930D01*
X203600628Y-97265753D01*
X203316196Y-97116359D01*
X203008084Y-97025325D01*
X202688132Y-96996150D01*
X202368636Y-97029955D01*
X202061874Y-97125442D01*
X201799372Y-97265753D01*
X201663693Y-97490930D01*
X145781800Y-97490930D01*
X145781800Y-96930110D01*
X145787821Y-96921099D01*
X145854836Y-96759312D01*
X145889000Y-96587559D01*
X145889000Y-96412441D01*
X145854836Y-96240688D01*
X145787821Y-96078901D01*
X145690531Y-95933296D01*
X145566704Y-95809469D01*
X145421099Y-95712179D01*
X145259312Y-95645164D01*
X145087559Y-95611000D01*
X144912441Y-95611000D01*
X144740688Y-95645164D01*
X144578901Y-95712179D01*
X144433296Y-95809469D01*
X144309469Y-95933296D01*
X144212179Y-96078901D01*
X144145164Y-96240688D01*
X144111000Y-96412441D01*
X116575761Y-96412441D01*
X116594156Y-96409599D01*
X116848886Y-96316717D01*
X117080601Y-96175925D01*
X117280396Y-95992633D01*
X117440594Y-95773885D01*
X117555038Y-95528087D01*
X117599999Y-95360969D01*
X117533490Y-95146200D01*
X115576200Y-95146200D01*
X115423800Y-95146200D01*
X113466510Y-95146200D01*
X113400001Y-95360969D01*
X100681800Y-95360969D01*
X100681800Y-94779031D01*
X113400001Y-94779031D01*
X113466510Y-94993800D01*
X115423800Y-94993800D01*
X115423800Y-94973800D01*
X115576200Y-94973800D01*
X115576200Y-94993800D01*
X117533490Y-94993800D01*
X117599999Y-94779031D01*
X117555038Y-94611913D01*
X117440594Y-94366115D01*
X117280396Y-94147367D01*
X117080601Y-93964075D01*
X116848886Y-93823283D01*
X116594156Y-93730401D01*
X116326200Y-93689000D01*
X114673800Y-93689000D01*
X114405844Y-93730401D01*
X114151114Y-93823283D01*
X113919399Y-93964075D01*
X113719604Y-94147367D01*
X113559406Y-94366115D01*
X113444962Y-94611913D01*
X113400001Y-94779031D01*
X100681800Y-94779031D01*
X100681800Y-93455969D01*
X108350001Y-93455969D01*
X108394962Y-93623087D01*
X108509406Y-93868885D01*
X108669604Y-94087633D01*
X108869399Y-94270925D01*
X109101114Y-94411717D01*
X109355844Y-94504599D01*
X109623800Y-94546000D01*
X110373800Y-94546000D01*
X110373800Y-93241200D01*
X110526200Y-93241200D01*
X110526200Y-94546000D01*
X111276200Y-94546000D01*
X111544156Y-94504599D01*
X111798886Y-94411717D01*
X112030601Y-94270925D01*
X112230396Y-94087633D01*
X112390594Y-93868885D01*
X112505038Y-93623087D01*
X112549999Y-93455969D01*
X112483490Y-93241200D01*
X110526200Y-93241200D01*
X110373800Y-93241200D01*
X108416510Y-93241200D01*
X108350001Y-93455969D01*
X100681800Y-93455969D01*
X100681800Y-92874031D01*
X108350001Y-92874031D01*
X108416510Y-93088800D01*
X110373800Y-93088800D01*
X110373800Y-93068800D01*
X110526200Y-93068800D01*
X110526200Y-93088800D01*
X112483490Y-93088800D01*
X112549999Y-92874031D01*
X112505038Y-92706913D01*
X112390594Y-92461115D01*
X112230396Y-92242367D01*
X112030601Y-92059075D01*
X111798886Y-91918283D01*
X111544156Y-91825401D01*
X111276200Y-91784000D01*
X109623800Y-91784000D01*
X109355844Y-91825401D01*
X109101114Y-91918283D01*
X108869399Y-92059075D01*
X108669604Y-92242367D01*
X108509406Y-92461115D01*
X108394962Y-92706913D01*
X108350001Y-92874031D01*
X100681800Y-92874031D01*
X100681800Y-91260000D01*
X113311273Y-91260000D01*
X113338918Y-91540682D01*
X113420790Y-91810577D01*
X113553742Y-92059314D01*
X113732666Y-92277334D01*
X113950686Y-92456258D01*
X114199423Y-92589210D01*
X114469318Y-92671082D01*
X114679670Y-92691800D01*
X116320330Y-92691800D01*
X116530682Y-92671082D01*
X116800577Y-92589210D01*
X117049314Y-92456258D01*
X117267334Y-92277334D01*
X117446258Y-92059314D01*
X117579210Y-91810577D01*
X117661082Y-91540682D01*
X117688727Y-91260000D01*
X117661082Y-90979318D01*
X117579210Y-90709423D01*
X117446258Y-90460686D01*
X117267334Y-90242666D01*
X117049314Y-90063742D01*
X116800577Y-89930790D01*
X116530682Y-89848918D01*
X116320330Y-89828200D01*
X114679670Y-89828200D01*
X114469318Y-89848918D01*
X114199423Y-89930790D01*
X113950686Y-90063742D01*
X113732666Y-90242666D01*
X113553742Y-90460686D01*
X113420790Y-90709423D01*
X113338918Y-90979318D01*
X113311273Y-91260000D01*
X100681800Y-91260000D01*
X100681800Y-89355000D01*
X108261273Y-89355000D01*
X108288918Y-89635682D01*
X108370790Y-89905577D01*
X108503742Y-90154314D01*
X108682666Y-90372334D01*
X108900686Y-90551258D01*
X109149423Y-90684210D01*
X109419318Y-90766082D01*
X109629670Y-90786800D01*
X111270330Y-90786800D01*
X111480682Y-90766082D01*
X111750577Y-90684210D01*
X111999314Y-90551258D01*
X112217334Y-90372334D01*
X112396258Y-90154314D01*
X112529210Y-89905577D01*
X112611082Y-89635682D01*
X112638727Y-89355000D01*
X112611082Y-89074318D01*
X112529210Y-88804423D01*
X112396258Y-88555686D01*
X112217334Y-88337666D01*
X111999314Y-88158742D01*
X111750577Y-88025790D01*
X111480682Y-87943918D01*
X111270330Y-87923200D01*
X109629670Y-87923200D01*
X109419318Y-87943918D01*
X109149423Y-88025790D01*
X108900686Y-88158742D01*
X108682666Y-88337666D01*
X108503742Y-88555686D01*
X108370790Y-88804423D01*
X108288918Y-89074318D01*
X108261273Y-89355000D01*
X100681800Y-89355000D01*
X100681800Y-87450000D01*
X113311273Y-87450000D01*
X113338918Y-87730682D01*
X113420790Y-88000577D01*
X113553742Y-88249314D01*
X113732666Y-88467334D01*
X113950686Y-88646258D01*
X114199423Y-88779210D01*
X114469318Y-88861082D01*
X114679670Y-88881800D01*
X116320330Y-88881800D01*
X116530682Y-88861082D01*
X116800577Y-88779210D01*
X117049314Y-88646258D01*
X117267334Y-88467334D01*
X117446258Y-88249314D01*
X117579210Y-88000577D01*
X117661082Y-87730682D01*
X117688727Y-87450000D01*
X117661082Y-87169318D01*
X117579210Y-86899423D01*
X117446258Y-86650686D01*
X117267334Y-86432666D01*
X117049314Y-86253742D01*
X116800577Y-86120790D01*
X116530682Y-86038918D01*
X116320330Y-86018200D01*
X114679670Y-86018200D01*
X114469318Y-86038918D01*
X114199423Y-86120790D01*
X113950686Y-86253742D01*
X113732666Y-86432666D01*
X113553742Y-86650686D01*
X113420790Y-86899423D01*
X113338918Y-87169318D01*
X113311273Y-87450000D01*
X100681800Y-87450000D01*
X100681800Y-82873754D01*
X196218200Y-82873754D01*
X196218200Y-83126246D01*
X196267459Y-83373887D01*
X196364084Y-83607160D01*
X196504361Y-83817100D01*
X196682900Y-83995639D01*
X196892840Y-84135916D01*
X197126113Y-84232541D01*
X197373754Y-84281800D01*
X197626246Y-84281800D01*
X197873887Y-84232541D01*
X198107160Y-84135916D01*
X198317100Y-83995639D01*
X198495639Y-83817100D01*
X198635916Y-83607160D01*
X198732541Y-83373887D01*
X198781800Y-83126246D01*
X198781800Y-82873754D01*
X203218200Y-82873754D01*
X203218200Y-83126246D01*
X203267459Y-83373887D01*
X203364084Y-83607160D01*
X203504361Y-83817100D01*
X203682900Y-83995639D01*
X203892840Y-84135916D01*
X204126113Y-84232541D01*
X204373754Y-84281800D01*
X204626246Y-84281800D01*
X204873887Y-84232541D01*
X205107160Y-84135916D01*
X205317100Y-83995639D01*
X205495639Y-83817100D01*
X205635916Y-83607160D01*
X205732541Y-83373887D01*
X205781800Y-83126246D01*
X205781800Y-82873754D01*
X205732541Y-82626113D01*
X205635916Y-82392840D01*
X205495639Y-82182900D01*
X205317100Y-82004361D01*
X205107160Y-81864084D01*
X204873887Y-81767459D01*
X204626246Y-81718200D01*
X204373754Y-81718200D01*
X204126113Y-81767459D01*
X203892840Y-81864084D01*
X203682900Y-82004361D01*
X203504361Y-82182900D01*
X203364084Y-82392840D01*
X203267459Y-82626113D01*
X203218200Y-82873754D01*
X198781800Y-82873754D01*
X198732541Y-82626113D01*
X198635916Y-82392840D01*
X198495639Y-82182900D01*
X198317100Y-82004361D01*
X198107160Y-81864084D01*
X197873887Y-81767459D01*
X197626246Y-81718200D01*
X197373754Y-81718200D01*
X197126113Y-81767459D01*
X196892840Y-81864084D01*
X196682900Y-82004361D01*
X196504361Y-82182900D01*
X196364084Y-82392840D01*
X196267459Y-82626113D01*
X196218200Y-82873754D01*
X100681800Y-82873754D01*
X100681800Y-80000000D01*
X105056434Y-80000000D01*
X105103386Y-80476716D01*
X105242439Y-80935112D01*
X105468249Y-81357573D01*
X105772138Y-81727862D01*
X106142427Y-82031751D01*
X106564888Y-82257561D01*
X107023284Y-82396614D01*
X107380537Y-82431800D01*
X109619463Y-82431800D01*
X109976716Y-82396614D01*
X110435112Y-82257561D01*
X110857573Y-82031751D01*
X111227862Y-81727862D01*
X111531751Y-81357573D01*
X111757561Y-80935112D01*
X111896614Y-80476716D01*
X111943566Y-80000000D01*
X111896614Y-79523284D01*
X111757561Y-79064888D01*
X111531751Y-78642427D01*
X111227862Y-78272138D01*
X110857573Y-77968249D01*
X110435112Y-77742439D01*
X109976716Y-77603386D01*
X109619463Y-77568200D01*
X107380537Y-77568200D01*
X107023284Y-77603386D01*
X106564888Y-77742439D01*
X106142427Y-77968249D01*
X105772138Y-78272138D01*
X105468249Y-78642427D01*
X105242439Y-79064888D01*
X105103386Y-79523284D01*
X105056434Y-80000000D01*
X100681800Y-80000000D01*
X100681800Y-73173301D01*
X101518200Y-73173301D01*
X101518200Y-73366699D01*
X101555930Y-73556381D01*
X101629940Y-73735057D01*
X101737386Y-73895861D01*
X101874139Y-74032614D01*
X102034943Y-74140060D01*
X102213619Y-74214070D01*
X102403301Y-74251800D01*
X102596699Y-74251800D01*
X102786381Y-74214070D01*
X102965057Y-74140060D01*
X103125861Y-74032614D01*
X103262614Y-73895861D01*
X103370060Y-73735057D01*
X103444070Y-73556381D01*
X103481800Y-73366699D01*
X103481800Y-73173301D01*
X103444070Y-72983619D01*
X103370060Y-72804943D01*
X103262614Y-72644139D01*
X103125861Y-72507386D01*
X102965057Y-72399940D01*
X102786381Y-72325930D01*
X102596699Y-72288200D01*
X102403301Y-72288200D01*
X102213619Y-72325930D01*
X102034943Y-72399940D01*
X101874139Y-72507386D01*
X101737386Y-72644139D01*
X101629940Y-72804943D01*
X101555930Y-72983619D01*
X101518200Y-73173301D01*
X100681800Y-73173301D01*
X100681800Y-71728260D01*
X204958426Y-71728260D01*
X204977014Y-71805012D01*
X205054494Y-71981656D01*
X205164947Y-72139790D01*
X205304128Y-72273337D01*
X205466688Y-72377165D01*
X205646381Y-72447284D01*
X205836300Y-72481000D01*
X206186300Y-72481000D01*
X206186300Y-71576200D01*
X205030034Y-71576200D01*
X204958426Y-71728260D01*
X100681800Y-71728260D01*
X100681800Y-70633301D01*
X101518200Y-70633301D01*
X101518200Y-70826699D01*
X101555930Y-71016381D01*
X101629940Y-71195057D01*
X101737386Y-71355861D01*
X101874139Y-71492614D01*
X102034943Y-71600060D01*
X102213619Y-71674070D01*
X102403301Y-71711800D01*
X102596699Y-71711800D01*
X102786381Y-71674070D01*
X102965057Y-71600060D01*
X103125861Y-71492614D01*
X103242891Y-71375584D01*
X107042180Y-71375584D01*
X107093599Y-71529113D01*
X107258845Y-71608651D01*
X107436432Y-71654422D01*
X107619536Y-71664669D01*
X107801121Y-71638996D01*
X107974208Y-71578392D01*
X108066401Y-71529113D01*
X108117820Y-71375584D01*
X107580000Y-70837763D01*
X107042180Y-71375584D01*
X103242891Y-71375584D01*
X103262614Y-71355861D01*
X103370060Y-71195057D01*
X103444070Y-71016381D01*
X103481800Y-70826699D01*
X103481800Y-70769536D01*
X106645331Y-70769536D01*
X106671004Y-70951121D01*
X106731608Y-71124208D01*
X106780887Y-71216401D01*
X106934416Y-71267820D01*
X107472237Y-70730000D01*
X107687763Y-70730000D01*
X108225584Y-71267820D01*
X108379113Y-71216401D01*
X108458651Y-71051155D01*
X108504422Y-70873568D01*
X108514669Y-70690464D01*
X108506588Y-70633301D01*
X109138200Y-70633301D01*
X109138200Y-70826699D01*
X109175930Y-71016381D01*
X109249940Y-71195057D01*
X109357386Y-71355861D01*
X109494139Y-71492614D01*
X109654943Y-71600060D01*
X109833619Y-71674070D01*
X110023301Y-71711800D01*
X110216699Y-71711800D01*
X110406381Y-71674070D01*
X110585057Y-71600060D01*
X110745861Y-71492614D01*
X110882614Y-71355861D01*
X110990060Y-71195057D01*
X111064070Y-71016381D01*
X111101800Y-70826699D01*
X111101800Y-70633301D01*
X111678200Y-70633301D01*
X111678200Y-70826699D01*
X111715930Y-71016381D01*
X111789940Y-71195057D01*
X111897386Y-71355861D01*
X112034139Y-71492614D01*
X112194943Y-71600060D01*
X112373619Y-71674070D01*
X112563301Y-71711800D01*
X112756699Y-71711800D01*
X112946381Y-71674070D01*
X113125057Y-71600060D01*
X113285861Y-71492614D01*
X113422614Y-71355861D01*
X113479750Y-71270350D01*
X202899913Y-71270350D01*
X202972448Y-71441775D01*
X203167517Y-71538792D01*
X203377765Y-71595889D01*
X203595112Y-71610872D01*
X203811205Y-71583165D01*
X204017742Y-71513832D01*
X204152552Y-71441775D01*
X204224498Y-71271740D01*
X204958426Y-71271740D01*
X205030034Y-71423800D01*
X206186300Y-71423800D01*
X206186300Y-70519000D01*
X205836300Y-70519000D01*
X205646381Y-70552716D01*
X205466688Y-70622835D01*
X205304128Y-70726663D01*
X205164947Y-70860210D01*
X205054494Y-71018344D01*
X204977014Y-71194988D01*
X204958426Y-71271740D01*
X204224498Y-71271740D01*
X204225087Y-71270350D01*
X203562500Y-70607763D01*
X202899913Y-71270350D01*
X113479750Y-71270350D01*
X113530060Y-71195057D01*
X113604070Y-71016381D01*
X113641800Y-70826699D01*
X113641800Y-70633301D01*
X113621772Y-70532612D01*
X202451628Y-70532612D01*
X202479335Y-70748705D01*
X202548668Y-70955242D01*
X202620725Y-71090052D01*
X202792150Y-71162587D01*
X203454737Y-70500000D01*
X203670263Y-70500000D01*
X204332850Y-71162587D01*
X204504275Y-71090052D01*
X204601292Y-70894983D01*
X204658389Y-70684735D01*
X204673372Y-70467388D01*
X204645665Y-70251295D01*
X204576332Y-70044758D01*
X204504275Y-69909948D01*
X204332850Y-69837413D01*
X203670263Y-70500000D01*
X203454737Y-70500000D01*
X202792150Y-69837413D01*
X202620725Y-69909948D01*
X202523708Y-70105017D01*
X202466611Y-70315265D01*
X202451628Y-70532612D01*
X113621772Y-70532612D01*
X113604070Y-70443619D01*
X113530060Y-70264943D01*
X113422614Y-70104139D01*
X113285861Y-69967386D01*
X113125057Y-69859940D01*
X112946381Y-69785930D01*
X112756699Y-69748200D01*
X112563301Y-69748200D01*
X112373619Y-69785930D01*
X112194943Y-69859940D01*
X112034139Y-69967386D01*
X111897386Y-70104139D01*
X111789940Y-70264943D01*
X111715930Y-70443619D01*
X111678200Y-70633301D01*
X111101800Y-70633301D01*
X111064070Y-70443619D01*
X110990060Y-70264943D01*
X110882614Y-70104139D01*
X110745861Y-69967386D01*
X110585057Y-69859940D01*
X110406381Y-69785930D01*
X110216699Y-69748200D01*
X110023301Y-69748200D01*
X109833619Y-69785930D01*
X109654943Y-69859940D01*
X109494139Y-69967386D01*
X109357386Y-70104139D01*
X109249940Y-70264943D01*
X109175930Y-70443619D01*
X109138200Y-70633301D01*
X108506588Y-70633301D01*
X108488996Y-70508879D01*
X108428392Y-70335792D01*
X108379113Y-70243599D01*
X108225584Y-70192180D01*
X107687763Y-70730000D01*
X107472237Y-70730000D01*
X106934416Y-70192180D01*
X106780887Y-70243599D01*
X106701349Y-70408845D01*
X106655578Y-70586432D01*
X106645331Y-70769536D01*
X103481800Y-70769536D01*
X103481800Y-70633301D01*
X103444070Y-70443619D01*
X103370060Y-70264943D01*
X103262614Y-70104139D01*
X103242891Y-70084416D01*
X107042180Y-70084416D01*
X107580000Y-70622237D01*
X108117820Y-70084416D01*
X108066401Y-69930887D01*
X107901155Y-69851349D01*
X107723568Y-69805578D01*
X107540464Y-69795331D01*
X107358879Y-69821004D01*
X107185792Y-69881608D01*
X107093599Y-69930887D01*
X107042180Y-70084416D01*
X103242891Y-70084416D01*
X103125861Y-69967386D01*
X102965057Y-69859940D01*
X102786381Y-69785930D01*
X102596699Y-69748200D01*
X102403301Y-69748200D01*
X102213619Y-69785930D01*
X102034943Y-69859940D01*
X101874139Y-69967386D01*
X101737386Y-70104139D01*
X101629940Y-70264943D01*
X101555930Y-70443619D01*
X101518200Y-70633301D01*
X100681800Y-70633301D01*
X100681800Y-69729650D01*
X202899913Y-69729650D01*
X203562500Y-70392237D01*
X204225087Y-69729650D01*
X204152552Y-69558225D01*
X203957483Y-69461208D01*
X203747235Y-69404111D01*
X203529888Y-69389128D01*
X203313795Y-69416835D01*
X203107258Y-69486168D01*
X202972448Y-69558225D01*
X202899913Y-69729650D01*
X100681800Y-69729650D01*
X100681800Y-67912441D01*
X145611000Y-67912441D01*
X145611000Y-68087559D01*
X145645164Y-68259312D01*
X145712179Y-68421099D01*
X145809469Y-68566704D01*
X145933296Y-68690531D01*
X146078901Y-68787821D01*
X146240688Y-68854836D01*
X146412441Y-68889000D01*
X146587559Y-68889000D01*
X146759312Y-68854836D01*
X146921099Y-68787821D01*
X147066704Y-68690531D01*
X147190531Y-68566704D01*
X147287821Y-68421099D01*
X147354836Y-68259312D01*
X147389000Y-68087559D01*
X147389000Y-67912441D01*
X147354836Y-67740688D01*
X147287821Y-67578901D01*
X147281800Y-67569890D01*
X147281800Y-66270350D01*
X202899913Y-66270350D01*
X202972448Y-66441775D01*
X203167517Y-66538792D01*
X203377765Y-66595889D01*
X203595112Y-66610872D01*
X203811205Y-66583165D01*
X204017742Y-66513832D01*
X204152552Y-66441775D01*
X204225087Y-66270350D01*
X203562500Y-65607763D01*
X202899913Y-66270350D01*
X147281800Y-66270350D01*
X147281800Y-65532612D01*
X202451628Y-65532612D01*
X202479335Y-65748705D01*
X202548668Y-65955242D01*
X202620725Y-66090052D01*
X202792150Y-66162587D01*
X203454737Y-65500000D01*
X203670263Y-65500000D01*
X204332850Y-66162587D01*
X204504275Y-66090052D01*
X204601292Y-65894983D01*
X204658389Y-65684735D01*
X204673372Y-65467388D01*
X204645665Y-65251295D01*
X204576332Y-65044758D01*
X204504275Y-64909948D01*
X204332850Y-64837413D01*
X203670263Y-65500000D01*
X203454737Y-65500000D01*
X202792150Y-64837413D01*
X202620725Y-64909948D01*
X202523708Y-65105017D01*
X202466611Y-65315265D01*
X202451628Y-65532612D01*
X147281800Y-65532612D01*
X147281800Y-64729650D01*
X202899913Y-64729650D01*
X203562500Y-65392237D01*
X204225087Y-64729650D01*
X204224499Y-64728260D01*
X204958426Y-64728260D01*
X204977014Y-64805012D01*
X205054494Y-64981656D01*
X205164947Y-65139790D01*
X205304128Y-65273337D01*
X205466688Y-65377165D01*
X205646381Y-65447284D01*
X205836300Y-65481000D01*
X206186300Y-65481000D01*
X206186300Y-64576200D01*
X205030034Y-64576200D01*
X204958426Y-64728260D01*
X204224499Y-64728260D01*
X204152552Y-64558225D01*
X203957483Y-64461208D01*
X203747235Y-64404111D01*
X203529888Y-64389128D01*
X203313795Y-64416835D01*
X203107258Y-64486168D01*
X202972448Y-64558225D01*
X202899913Y-64729650D01*
X147281800Y-64729650D01*
X147281800Y-64271740D01*
X204958426Y-64271740D01*
X205030034Y-64423800D01*
X206186300Y-64423800D01*
X206186300Y-63519000D01*
X205836300Y-63519000D01*
X205646381Y-63552716D01*
X205466688Y-63622835D01*
X205304128Y-63726663D01*
X205164947Y-63860210D01*
X205054494Y-64018344D01*
X204977014Y-64194988D01*
X204958426Y-64271740D01*
X147281800Y-64271740D01*
X147281800Y-63323831D01*
X147748681Y-62856951D01*
X147759312Y-62854836D01*
X147921099Y-62787821D01*
X148066704Y-62690531D01*
X148190531Y-62566704D01*
X148287821Y-62421099D01*
X148354836Y-62259312D01*
X148389000Y-62087559D01*
X148389000Y-61912441D01*
X148354836Y-61740688D01*
X148287821Y-61578901D01*
X148190531Y-61433296D01*
X148066704Y-61309469D01*
X147921099Y-61212179D01*
X147759312Y-61145164D01*
X147587559Y-61111000D01*
X147412441Y-61111000D01*
X147240688Y-61145164D01*
X147078901Y-61212179D01*
X146933296Y-61309469D01*
X146809469Y-61433296D01*
X146712179Y-61578901D01*
X146645164Y-61740688D01*
X146643049Y-61751319D01*
X145974336Y-62420033D01*
X145944511Y-62444510D01*
X145920034Y-62474335D01*
X145920032Y-62474337D01*
X145846813Y-62563554D01*
X145774218Y-62699371D01*
X145729513Y-62846741D01*
X145714419Y-63000000D01*
X145718201Y-63038401D01*
X145718200Y-67569890D01*
X145712179Y-67578901D01*
X145645164Y-67740688D01*
X145611000Y-67912441D01*
X100681800Y-67912441D01*
X100681800Y-65673301D01*
X101518200Y-65673301D01*
X101518200Y-65866699D01*
X101555930Y-66056381D01*
X101629940Y-66235057D01*
X101737386Y-66395861D01*
X101874139Y-66532614D01*
X102034943Y-66640060D01*
X102213619Y-66714070D01*
X102403301Y-66751800D01*
X102596699Y-66751800D01*
X102786381Y-66714070D01*
X102965057Y-66640060D01*
X103125861Y-66532614D01*
X103262614Y-66395861D01*
X103370060Y-66235057D01*
X103444070Y-66056381D01*
X103481800Y-65866699D01*
X103481800Y-65673301D01*
X103444070Y-65483619D01*
X103370060Y-65304943D01*
X103262614Y-65144139D01*
X103125861Y-65007386D01*
X102965057Y-64899940D01*
X102786381Y-64825930D01*
X102596699Y-64788200D01*
X102403301Y-64788200D01*
X102213619Y-64825930D01*
X102034943Y-64899940D01*
X101874139Y-65007386D01*
X101737386Y-65144139D01*
X101629940Y-65304943D01*
X101555930Y-65483619D01*
X101518200Y-65673301D01*
X100681800Y-65673301D01*
X100681800Y-63133301D01*
X101518200Y-63133301D01*
X101518200Y-63326699D01*
X101555930Y-63516381D01*
X101629940Y-63695057D01*
X101737386Y-63855861D01*
X101874139Y-63992614D01*
X102034943Y-64100060D01*
X102213619Y-64174070D01*
X102403301Y-64211800D01*
X102596699Y-64211800D01*
X102786381Y-64174070D01*
X102965057Y-64100060D01*
X103125861Y-63992614D01*
X103262614Y-63855861D01*
X103370060Y-63695057D01*
X103444070Y-63516381D01*
X103481800Y-63326699D01*
X103481800Y-63133301D01*
X106598200Y-63133301D01*
X106598200Y-63326699D01*
X106635930Y-63516381D01*
X106709940Y-63695057D01*
X106817386Y-63855861D01*
X106954139Y-63992614D01*
X107114943Y-64100060D01*
X107293619Y-64174070D01*
X107483301Y-64211800D01*
X107676699Y-64211800D01*
X107866381Y-64174070D01*
X108045057Y-64100060D01*
X108205861Y-63992614D01*
X108342614Y-63855861D01*
X108450060Y-63695057D01*
X108524070Y-63516381D01*
X108561800Y-63326699D01*
X108561800Y-63133301D01*
X109138200Y-63133301D01*
X109138200Y-63326699D01*
X109175930Y-63516381D01*
X109249940Y-63695057D01*
X109357386Y-63855861D01*
X109494139Y-63992614D01*
X109654943Y-64100060D01*
X109833619Y-64174070D01*
X110023301Y-64211800D01*
X110216699Y-64211800D01*
X110406381Y-64174070D01*
X110585057Y-64100060D01*
X110745861Y-63992614D01*
X110862891Y-63875584D01*
X112122180Y-63875584D01*
X112173599Y-64029113D01*
X112338845Y-64108651D01*
X112516432Y-64154422D01*
X112699536Y-64164669D01*
X112881121Y-64138996D01*
X113054208Y-64078392D01*
X113146401Y-64029113D01*
X113197820Y-63875584D01*
X112660000Y-63337763D01*
X112122180Y-63875584D01*
X110862891Y-63875584D01*
X110882614Y-63855861D01*
X110990060Y-63695057D01*
X111064070Y-63516381D01*
X111101800Y-63326699D01*
X111101800Y-63269536D01*
X111725331Y-63269536D01*
X111751004Y-63451121D01*
X111811608Y-63624208D01*
X111860887Y-63716401D01*
X112014416Y-63767820D01*
X112552237Y-63230000D01*
X112767763Y-63230000D01*
X113305584Y-63767820D01*
X113459113Y-63716401D01*
X113538651Y-63551155D01*
X113584422Y-63373568D01*
X113594669Y-63190464D01*
X113568996Y-63008879D01*
X113508392Y-62835792D01*
X113459113Y-62743599D01*
X113305584Y-62692180D01*
X112767763Y-63230000D01*
X112552237Y-63230000D01*
X112014416Y-62692180D01*
X111860887Y-62743599D01*
X111781349Y-62908845D01*
X111735578Y-63086432D01*
X111725331Y-63269536D01*
X111101800Y-63269536D01*
X111101800Y-63133301D01*
X111064070Y-62943619D01*
X110990060Y-62764943D01*
X110882614Y-62604139D01*
X110862891Y-62584416D01*
X112122180Y-62584416D01*
X112660000Y-63122237D01*
X113197820Y-62584416D01*
X113146401Y-62430887D01*
X112981155Y-62351349D01*
X112803568Y-62305578D01*
X112620464Y-62295331D01*
X112438879Y-62321004D01*
X112265792Y-62381608D01*
X112173599Y-62430887D01*
X112122180Y-62584416D01*
X110862891Y-62584416D01*
X110745861Y-62467386D01*
X110585057Y-62359940D01*
X110406381Y-62285930D01*
X110216699Y-62248200D01*
X110023301Y-62248200D01*
X109833619Y-62285930D01*
X109654943Y-62359940D01*
X109494139Y-62467386D01*
X109357386Y-62604139D01*
X109249940Y-62764943D01*
X109175930Y-62943619D01*
X109138200Y-63133301D01*
X108561800Y-63133301D01*
X108524070Y-62943619D01*
X108450060Y-62764943D01*
X108342614Y-62604139D01*
X108205861Y-62467386D01*
X108045057Y-62359940D01*
X107866381Y-62285930D01*
X107676699Y-62248200D01*
X107483301Y-62248200D01*
X107293619Y-62285930D01*
X107114943Y-62359940D01*
X106954139Y-62467386D01*
X106817386Y-62604139D01*
X106709940Y-62764943D01*
X106635930Y-62943619D01*
X106598200Y-63133301D01*
X103481800Y-63133301D01*
X103444070Y-62943619D01*
X103370060Y-62764943D01*
X103262614Y-62604139D01*
X103125861Y-62467386D01*
X102965057Y-62359940D01*
X102786381Y-62285930D01*
X102596699Y-62248200D01*
X102403301Y-62248200D01*
X102213619Y-62285930D01*
X102034943Y-62359940D01*
X101874139Y-62467386D01*
X101737386Y-62604139D01*
X101629940Y-62764943D01*
X101555930Y-62943619D01*
X101518200Y-63133301D01*
X100681800Y-63133301D01*
X100681800Y-59006689D01*
X100734012Y-58940045D01*
X100940045Y-58734012D01*
X101006689Y-58681800D01*
X206993311Y-58681800D01*
X207059955Y-58734012D01*
M02*
