M48
; DRILL file {KiCad (5.1.0)-1} date 3/23/2019 5:18:31 PM
; FORMAT={-:-/ absolute / metric / decimal}
; #@! TF.CreationDate,2019-03-23T17:18:31-07:00
; #@! TF.GenerationSoftware,Kicad,Pcbnew,(5.1.0)-1
; #@! TF.FileFunction,Plated,1,2,PTH
FMAT,2
METRIC
T1C0.305
T2C0.406
T3C0.600
T4C0.660
T5C0.850
T6C0.860
T7C1.200
T8C1.930
%
G90
G05
T1
X110.0Y-138.0
X120.0Y-60.0
X120.0Y-138.0
X123.0Y-95.0
X123.0Y-103.0
X123.0Y-111.0
X123.0Y-118.0
X123.0Y-125.0
X125.0Y-83.0
X130.0Y-60.0
X130.0Y-80.0
X130.0Y-138.0
X131.0Y-95.0
X131.0Y-103.0
X131.0Y-111.0
X131.0Y-118.0
X131.0Y-125.0
X135.0Y-74.0
X135.5Y-66.5
X136.0Y-86.0
X137.0Y-79.0
X138.0Y-91.0
X138.0Y-95.0
X138.5Y-105.0
X139.0Y-112.0
X139.0Y-118.0
X140.0Y-60.0
X140.0Y-138.0
X141.0Y-67.0
X142.0Y-75.0
X142.0Y-102.0
X144.0Y-64.0
X144.0Y-107.0
X145.0Y-115.0
X146.0Y-75.0
X148.0Y-101.0
X148.5Y-75.0
X150.0Y-60.0
X150.0Y-138.0
X151.0Y-115.0
X151.5Y-103.0
X152.0Y-70.5
X152.0Y-94.0
X153.5Y-75.5
X153.5Y-112.5
X155.0Y-72.5
X155.0Y-99.0
X156.0Y-64.0
X157.0Y-105.5
X158.0Y-86.0
X158.0Y-108.0
X158.5Y-70.5
X158.5Y-79.5
X159.0Y-90.0
X159.0Y-94.0
X159.0Y-99.0
X160.0Y-60.0
X160.0Y-77.0
X160.0Y-138.0
X161.0Y-85.0
X161.5Y-114.5
X162.0Y-89.0
X162.0Y-94.0
X162.0Y-99.0
X163.0Y-105.0
X167.0Y-64.0
X168.0Y-105.0
X169.0Y-114.5
X170.0Y-60.0
X170.0Y-77.0
X170.0Y-138.0
X173.0Y-81.0
X173.0Y-101.0
X173.0Y-107.0
X173.0Y-111.0
X175.0Y-78.0
X176.0Y-74.5
X176.0Y-84.0
X177.0Y-64.0
X177.5Y-69.5
X178.0Y-81.0
X178.0Y-88.0
X180.0Y-60.0
X180.0Y-138.0
X181.0Y-86.0
X183.0Y-93.0
X185.0Y-71.0
X185.0Y-90.0
X188.0Y-65.0
X190.0Y-60.0
X190.0Y-93.0
X190.0Y-138.0
X192.0Y-91.0
X194.0Y-97.0
X194.0Y-103.5
X194.0Y-120.0
X194.0Y-125.0
X194.5Y-75.5
X196.0Y-94.0
X196.5Y-100.0
X196.5Y-107.5
X198.5Y-88.0
X200.0Y-138.0
X205.5Y-76.0
T2
X145.0Y-96.5
X146.0Y-100.5
X146.5Y-68.0
X147.5Y-62.0
T3
X102.5Y-70.73
X102.5Y-73.27
X107.58Y-70.73
X110.12Y-70.73
X112.66Y-70.73
X102.5Y-63.23
X102.5Y-65.77
X107.58Y-63.23
X110.12Y-63.23
X112.66Y-63.23
T4
X198.25Y-105.745
X199.52Y-104.475
X199.52Y-107.015
X202.06Y-104.475
X202.06Y-107.015
X203.33Y-105.745
T5
X203.562Y-65.5
X203.562Y-70.5
T6
X198.89Y-110.155
X198.89Y-112.065
X198.89Y-113.975
X198.89Y-115.885
X198.89Y-117.795
X198.89Y-119.705
X198.89Y-121.615
X198.89Y-123.525
X200.795Y-110.155
X200.795Y-112.065
X200.795Y-113.975
X200.795Y-115.885
X200.795Y-117.795
X200.795Y-119.705
X200.795Y-121.615
X200.795Y-123.525
X202.7Y-110.155
X202.7Y-112.065
X202.7Y-113.975
X202.7Y-115.885
X202.7Y-117.795
X202.7Y-119.705
X202.7Y-121.615
X202.7Y-123.525
T7
X110.45Y-89.355
X110.45Y-93.165
X110.45Y-96.975
X110.45Y-100.785
X110.45Y-104.595
X110.45Y-108.405
X110.45Y-112.215
X110.45Y-116.025
X110.45Y-119.835
X110.45Y-123.645
X115.5Y-87.45
X115.5Y-91.26
X115.5Y-95.07
X115.5Y-98.88
X115.5Y-102.69
X115.5Y-106.5
X115.5Y-110.31
X115.5Y-114.12
X115.5Y-117.93
X115.5Y-121.74
X115.5Y-125.55
T8
X202.7Y-98.635
X202.7Y-129.365
T3
G00X205.912Y-64.5
M15
G01X206.612Y-64.5
M16
G05
G00X206.612Y-71.5
M15
G01X205.912Y-71.5
M16
G05
T0
M30
